<svg version="1.1" id="md-secure" xmlns="http://www.w3.org/2000/svg" x="0" y="0" viewBox="0 0 152 152" xml:space="preserve"><style>.st0{fill:none;stroke:#1a6ee2}.st1{fill-rule:evenodd;clip-rule:evenodd;fill:#fff;stroke:#333c5e}.st15,.st2{stroke-width:2;stroke:#1a6ee2;stroke-linecap:round;stroke-linejoin:round}.st2{fill:none}.st15{fill-rule:evenodd;clip-rule:evenodd;fill:#fff}</style><path id="Kształt_1559_kopia" class="st0" d="M53.5 100.5s-31 18.3-35.9 21.1-5.8 5.9-1 9.1c18 11.8 15.8 10 28.9 18.1 3.8 2.4 7.1 3.7 10 2 3.5-2.1 7-4 7-4"/><path id="Kształt_1538" class="st1" d="M150.6 103.9c.5.2.9.7.9 1.3 0 .6-.4 1.1-.9 1.3L73.8 151c-1.4.7-3.1.7-4.6 0l-58.7-34 3.4-5.9L88.4 68l3.4 2 58.8 33.9z"/><path id="Kształt_1538_kopia" class="st1" d="M91.4 2.1c.1-.6-.2-1.1-.6-1.4-.5-.2-1.1-.2-1.6.1L12.7 45.4c-.7.4-1.2 1-1.6 1.7-.4.7-.6 1.4-.6 2.2v68.2l81-47.2-.1-68.2z"/><path id="Elipsa_1549" class="st0" d="M13 6.2c6.9-3.9 12.5-.7 12.5 7.2S19.9 30.8 13 34.8.5 35.5.5 27.6 6.1 10.1 13 6.2z"/><path id="Kształt_1550" class="st2" d="M8.5 23.5l4 2 5-11"/><linearGradient id="Prostokąt_zaokrąglony_1356_kopia_21_1_" gradientUnits="userSpaceOnUse" x1="110" y1="41.978" x2="152" y2="41.978"><stop offset="0" stop-color="#97befc"/><stop offset="1" stop-color="#abcaff"/></linearGradient><path id="Prostokąt_zaokrąglony_1356_kopia_21" d="M146 70.1l3.6 2c1.3.8 2.4.3 2.4-1V36.5c-.2-1.6-1.1-2.9-2.4-3.7l-37.1-20.9c-1.3-.8-2.4-.3-2.4 1v34.6c.2 1.6 1.1 2.9 2.4 3.7L137 65.5" fill-rule="evenodd" clip-rule="evenodd" fill="url(#Prostokąt_zaokrąglony_1356_kopia_21_1_)"/><linearGradient id="Prostokąt_zaokrąglony_1356_kopia_11_1_" gradientUnits="userSpaceOnUse" x1="101" y1="49.985" x2="143" y2="49.985"><stop offset="0" stop-color="#afcdfd"/><stop offset="1" stop-color="#d7e6fe"/></linearGradient><path id="Prostokąt_zaokrąglony_1356_kopia_11" d="M140.6 37.7l-37.1-20.9c-1.3-.8-2.4-.3-2.4 1v34.6c.2 1.6 1.1 2.9 2.4 3.7L128 70.5l9 13-.1-8.4 3.6 2c1.3.8 2.4.3 2.4-1V41.5c-.1-1.6-1-3-2.3-3.8z" fill-rule="evenodd" clip-rule="evenodd" fill="url(#Prostokąt_zaokrąglony_1356_kopia_11_1_)"/><g id="charts"><path d="M32 47.3c3.6-2 6.5-.4 6.5 3.6s-2.9 8.8-6.5 10.7-6.5.4-6.5-3.6 2.9-8.7 6.5-10.7z" fill="none" stroke="#98bffc" stroke-width="2" stroke-linecap="round"/><path d="M51 36.3c3.6-2 6.5-.4 6.5 3.6s-2.9 8.8-6.5 10.7-6.5.4-6.5-3.6 2.9-8.7 6.5-10.7zm18-10c3.6-2 6.5-.4 6.5 3.6s-2.9 8.8-6.5 10.7-6.5.4-6.5-3.6 2.9-8.7 6.5-10.7z" stroke="#98bffc" fill="none" stroke-width="2"/><path id="Elipsa_1549_kopia_4" d="M32 47.3c3.6-2 6.5-.4 6.5 3.6-.2 3.1-1.4 6-3.5 8.3" fill="none" stroke="#1a6ee2" stroke-width="2" stroke-linecap="round"/><path id="Elipsa_1549_kopia_5" class="st2" d="M51 36.3c3.6-2 6.5-.4 6.5 3.6s-2.9 8.8-6.5 10.7c-1.8 1-3.4 1.1-4.6.4"/><path id="Elipsa_1549_kopia_6" class="st2" d="M69 26.3c3.6-2 6.5-.4 6.5 3.6-.2 3.6-1.8 6.9-4.5 9.3"/></g><linearGradient id="Kształt_1560_kopia_1_" gradientUnits="userSpaceOnUse" x1="27" y1="73.707" x2="77" y2="73.707"><stop offset="0" stop-color="#97befc"/><stop offset="1" stop-color="#abcaff"/></linearGradient><path id="Kształt_1560_kopia" d="M27 98.5v-12s.1-16.9 5-17c4.1-.1 7 12.9 12 1 1.4-3.4 6.9 6.2 14 1 4-3 8.3-10.6 11.5-18.7 3.5-9.1 7.5.7 7.5.7v15l-50 30z" fill-rule="evenodd" clip-rule="evenodd" fill="url(#Kształt_1560_kopia_1_)"/><linearGradient id="Kształt_1560_1_" gradientUnits="userSpaceOnUse" x1="27" y1="75.981" x2="77" y2="75.981"><stop offset="0" stop-color="#afcdfd"/><stop offset="1" stop-color="#d7e6fe"/></linearGradient><path id="Kształt_1560" d="M27 98.5v-12s1.1-4.9 6-5c4.1-.1 3.8 5.3 10.2 1.8 3.3-1.8 6.3-15.6 14.8-17.8 2.2-.6 12.5 1.8 17-6 1.1-1.8 1.8-3.9 2-6v15l-50 30z" fill-rule="evenodd" clip-rule="evenodd" fill="url(#Kształt_1560_1_)"/><g id="shield" fill-rule="evenodd" clip-rule="evenodd"><path id="Kształt_1533_kopia" d="M73.5 123.5s-20-9.1-20-42.1c16.3-13.9 20-25.1 25.1-28.1s8.4 1.5 24.7-3.9c3.5 1.3 6.9 2.7 10.2 4.4l-27.6 74.6-12.4-4.9z" fill="#06f"/><path id="Kształt_1533" d="M87.4 128.5s-26.1 1.1-26.1-43.6c16.3-13.9 21-24.1 26.1-27.1s9.9 1.5 26.1-3.9c0 43.2-26.1 74.6-26.1 74.6z" fill="#007bfc"/><path id="Kształt_1559" d="M87.5 80.2c-3.1 2-5 5.3-5.2 9v1c-1 .7-1.7 1.8-1.8 3v10c-.1.6.3 1.1.8 1.2.3.1.7 0 .9-.2l10.5-6c1-.7 1.7-1.8 1.8-3v-10c.1-.6-.3-1.1-.8-1.2-.3-.1-.7 0-.9.2v-1c-.1-3.4-2.4-4.7-5.3-3zm0 2c2-1.1 3.5-.3 3.5 2v1l-7 4v-1c.1-2.5 1.4-4.7 3.5-6z" fill="#fff"/></g><g id="Grupa_66"><linearGradient id="Elipsa_1549_kopia_8_1_" gradientUnits="userSpaceOnUse" x1="8.202" y1="122.353" x2="35.513" y2="122.353"><stop offset="0" stop-color="#97befc"/><stop offset="1" stop-color="#abcaff"/></linearGradient><path id="Elipsa_1549_kopia_8" d="M21.5 105.4c-3-1.7-5.8-2.2-8-1.7-2.4.8-3 .8-5.3 1.9l19.2 35.7s4.4-2.3 6.1-4.5c1.5-2.1 2.2-4.7 2.1-7.2-.1-9-6.4-19.8-14.1-24.2z" fill-rule="evenodd" clip-rule="evenodd" fill="url(#Elipsa_1549_kopia_8_1_)"/><linearGradient id="Elipsa_1549_kopia_7_1_" gradientUnits="userSpaceOnUse" x1="3.122" y1="123.5" x2="31.91" y2="123.5"><stop offset="0" stop-color="#afcdfd"/><stop offset="1" stop-color="#d7e6fe"/></linearGradient><path id="Elipsa_1549_kopia_7" d="M17.5 107c-7.9-4.6-14.4-.9-14.4 8.3s6.4 20.3 14.4 24.8 14.4.9 14.4-8.3-6.4-20.3-14.4-24.8z" fill-rule="evenodd" clip-rule="evenodd" fill="url(#Elipsa_1549_kopia_7_1_)"/><path id="Kształt_1570" class="st15" d="M18 129v-10"/><path id="Kształt_1571" class="st15" d="M18 117.9l-4 2"/><path id="Kształt_1572" class="st15" d="M18 117.9l3 6"/></g></svg>