<svg xmlns="http://www.w3.org/2000/svg" xmlns:xlink="http://www.w3.org/1999/xlink" id="Capa_1" x="0" y="0" fill="#007bfc" version="1.1" viewBox="0 0 494.545 494.545" xml:space="preserve" style="enable-background:new 0 0 494.545 494.545;width:60%"><g><path d="M247.273,0C116.427,0,0,78.533,0,140.44c0,44.091,100.112,354.104,247.273,354.104 c147.161,0,247.272-310.013,247.272-354.104C494.545,78.533,378.118,0,247.273,0z M247.273,447.194 c-101.444,0-199.922-264.489-199.922-306.754c0-22.503,82.956-93.09,199.922-93.09c116.965,0,199.922,70.587,199.922,93.09 C447.194,182.705,348.716,447.194,247.273,447.194z"/><path d="M326.745,184.277h-6.228v-40.654c0-23.089-18.797-41.886-41.887-41.886h-62.717c-23.09,0-41.878,18.797-41.878,41.886 v40.654H167.8c-11.955,0-21.641,9.688-21.641,21.641v107.857c0,11.953,9.687,21.641,21.641,21.641h158.945 c11.953,0,21.641-9.688,21.641-21.641V205.918C348.386,193.965,338.698,184.277,326.745,184.277z M263.186,269.245v22.534 c0,8.787-7.121,15.915-15.914,15.915c-8.785,0-15.915-7.128-15.915-15.915v-22.534c-6.427-4.847-10.643-12.47-10.643-21.148 c0-14.666,11.884-26.571,26.558-26.571s26.565,11.905,26.565,26.571C273.837,256.774,269.613,264.404,263.186,269.245z M285.921,184.277h-77.298v-36.654c0-5.997,4.878-10.867,10.867-10.867h55.566c5.988,0,10.865,4.871,10.865,10.867V184.277z"/></g></svg>