<svg xmlns="http://www.w3.org/2000/svg" xmlns:xlink="http://www.w3.org/1999/xlink" viewBox="0 0 200 172"><style><![CDATA[.I{enable-background:new}.J{opacity:.3}.K{opacity:.1}.L{fill:#fff}.M{opacity:.6}.N{opacity:.15}.O{opacity:.2}.P{opacity:.4}.Q{stroke-linejoin:round}.R{stroke-width:.2}]]></style><linearGradient id="A" gradientUnits="userSpaceOnUse" x1="36.342" y1="42.5" x2="38.655" y2="42.5"><stop offset="0" stop-color="#2e59bf"/><stop offset="1" stop-color="#593192"/></linearGradient><path fill="url(#A)" d="M37.8 44.6V36h-.6v8.6h-.8V49h2.2v-4.4z"/><path d="M37.8 44.6V36h-.6v8.6h-.8V49h2.2v-4.4z" class="P"/><linearGradient id="B" gradientUnits="userSpaceOnUse" x1="180.822" y1="40.7" x2="182.326" y2="40.7"><stop offset="0" stop-color="#3651bf"/><stop offset="1" stop-color="#2e5bdb"/></linearGradient><use xlink:href="#At" fill="url(#B)"/><use xlink:href="#At" class="I J"/><linearGradient id="C" gradientUnits="userSpaceOnUse" x1="174.536" y1="38.35" x2="176.546" y2="38.35"><stop offset="0" stop-color="#3651bf"/><stop offset="1" stop-color="#2e5bdb"/></linearGradient><use xlink:href="#Au" fill="url(#C)"/><use xlink:href="#Au" class="I J"/><linearGradient id="D" gradientUnits="userSpaceOnUse" x1="103.95" y1="172.4" x2="103.95" y2="24.795"><stop offset="0" stop-color="#1d7ee8"/><stop offset="1" stop-color="#2ea7db"/></linearGradient><path d="M18.6 110.6v61.8h170.7V110c0-49-41.5-88.4-91.4-85-44.8 3.1-79.3 40.8-79.3 85.6z" fill="url(#D)"/><path d="M38 93v7h5V75.7l5.8-5.7h15.7l4.5 4.4V106h9V67.6l14.1-13.9L105 67.1V105h8V90h18.1l8.9-9.6V68h22v-8h5v8h1v12h17.4l4.6 4.6V173H20V93z" class="I O"/><g opacity=".85"><linearGradient id="E" gradientUnits="userSpaceOnUse" x1="127.572" y1="103.3" x2="161.372" y2="103.3"><stop offset="0" stop-color="#2e3192"/><stop offset="1" stop-color="#2f0b81"/></linearGradient><use xlink:href="#Av" fill="url(#E)"/><use xlink:href="#Av" class="I J"/><linearGradient id="F" gradientUnits="userSpaceOnUse" x1="141.057" y1="65.45" x2="147.924" y2="65.45"><stop offset="0" stop-color="#2e3192"/><stop offset="1" stop-color="#2f0b81"/></linearGradient><use xlink:href="#Aw" fill="url(#F)"/><use xlink:href="#Aw" class="I J"/><linearGradient id="G" gradientUnits="userSpaceOnUse" x1="142.246" y1="71.9" x2="146.771" y2="71.9"><stop offset="0" stop-color="#2e3192"/><stop offset="1" stop-color="#2f0b81"/></linearGradient><path fill="url(#G)" d="M144.8 70h-.1v-3.3h-.4V70l-2.1 7.1h4.6z"/><linearGradient id="H" gradientUnits="userSpaceOnUse" x1="142.206" y1="58.95" x2="146.723" y2="58.95"><stop offset="0" stop-color="#2e3192"/><stop offset="1" stop-color="#2f0b81"/></linearGradient><path fill="url(#H)" d="M144.2 60.9v3.3h.5v-3.3l2-7.2h-4.5z"/><linearGradient id="I" gradientUnits="userSpaceOnUse" x1="145.723" y1="65.45" x2="156.195" y2="65.45"><stop offset="0" stop-color="#2e3192"/><stop offset="1" stop-color="#2f0b81"/></linearGradient><path fill="url(#I)" d="M149 65.2h-3.3v.4h3.3v.1l7.2 2v-4.5z"/><linearGradient id="J" gradientUnits="userSpaceOnUse" x1="132.774" y1="65.45" x2="143.245" y2="65.45"><stop offset="0" stop-color="#2e3192"/><stop offset="1" stop-color="#2f0b81"/></linearGradient><path fill="url(#J)" d="M139.9 65.7h3.3v-.4h-3.3v-.1l-7.1-2v4.5z"/><linearGradient id="K" gradientUnits="userSpaceOnUse" x1="145.234" y1="70.75" x2="154.387" y2="70.75"><stop offset="0" stop-color="#2e3192"/><stop offset="1" stop-color="#2f0b81"/></linearGradient><path fill="url(#K)" d="M147.9 68.5l-2.4-2.3-.3.3 2.4 2.3 3.6 6.5 3.2-3.2z"/><linearGradient id="L" gradientUnits="userSpaceOnUse" x1="134.59" y1="60.15" x2="143.743" y2="60.15"><stop offset="0" stop-color="#2e3192"/><stop offset="1" stop-color="#2f0b81"/></linearGradient><path fill="url(#L)" d="M141.1 62.4l2.3 2.3.3-.3-2.3-2.3-3.6-6.5-3.2 3.2z"/><linearGradient id="M" gradientUnits="userSpaceOnUse" x1="145.2" y1="60.15" x2="154.353" y2="60.15"><stop offset="0" stop-color="#2e3192"/><stop offset="1" stop-color="#2f0b81"/></linearGradient><path fill="url(#M)" d="M147.5 62l.1.1-2.4 2.3.3.3 2.3-2.3 6.6-3.6-3.2-3.2z"/><linearGradient id="N" gradientUnits="userSpaceOnUse" x1="134.622" y1="70.75" x2="143.775" y2="70.75"><stop offset="0" stop-color="#2e3192"/><stop offset="1" stop-color="#2f0b81"/></linearGradient><path fill="url(#N)" d="M141.4 68.8l2.4-2.3-.3-.3-2.4 2.3-6.5 3.6 3.2 3.2z"/><linearGradient id="O" gradientUnits="userSpaceOnUse" x1="141.771" y1="65.35" x2="147.208" y2="65.35"><stop offset="0" stop-color="#2e3192"/><stop offset="1" stop-color="#2f0b81"/></linearGradient><path d="M145.2 62.9h-1.4c-.5 0-.9.2-1.1.6l-.7 1.2c-.2.4-.2.9 0 1.3l.7 1.2c.2.4.6.6 1.1.6h1.4c.5 0 .9-.2 1.1-.6l.7-1.2c.2-.4.2-.9 0-1.3l-.7-1.2c-.2-.3-.7-.6-1.1-.6z" fill="url(#O)"/><path d="M144.7 63.8h-.4c-.5 0-.9.2-1.1.6l-.2.4c-.2.4-.2.9 0 1.3l.2.3c.2.4.6.6 1.1.6h.4c.5 0 .9-.2 1.1-.6l.2-.3c.2-.4.2-.9 0-1.3l-.2-.4c-.2-.3-.7-.6-1.1-.6z" class="I J"/></g><path d="M19.3 155.6h169.9v16.7H19.3z" class="I O"/><linearGradient id="P" gradientUnits="userSpaceOnUse" x1="80" y1="142.95" x2="165.8" y2="142.95"><stop offset="0" stop-color="#3651bf"/><stop offset="1" stop-color="#2e5bdb"/></linearGradient><path fill="url(#P)" d="M80 129.5h85.8v26.9H80z"/><linearGradient id="Q" gradientUnits="userSpaceOnUse" x1="79.5" y1="122" x2="166.4" y2="122"><stop offset="0" stop-color="#3651bf"/><stop offset="1" stop-color="#2e5bdb"/></linearGradient><use xlink:href="#Ax" fill="url(#Q)"/><path d="M80 129.7h16.1v2H80zm0 3h16.1v1.1H80zm44.3-3h41.6v2h-41.6zm-.1 3h41.6v1.1h-41.6z" class="I J"/><use xlink:href="#Ax" class="I K"/><linearGradient id="R" gradientUnits="userSpaceOnUse" x1="108.591" y1="40.85" x2="110.374" y2="40.85"><stop offset="0" stop-color="#3651bf"/><stop offset="1" stop-color="#2e5bdb"/></linearGradient><path fill="url(#R)" d="M110.4 45l-.8-8.3-1 8.3z"/><linearGradient id="S" gradientUnits="userSpaceOnUse" x1="109.442" y1="41.3" x2="109.882" y2="41.3"><stop offset="0" stop-color="#3651bf"/><stop offset="1" stop-color="#2e5bdb"/></linearGradient><path fill="url(#S)" d="M109.4 34.5h.4v13.6h-.4z"/><linearGradient id="T" gradientUnits="userSpaceOnUse" x1="108.516" y1="49.3" x2="109.446" y2="49.3"><stop offset="0" stop-color="#3651bf"/><stop offset="1" stop-color="#2e5bdb"/></linearGradient><path fill="url(#T)" d="M109.4 54.8v-11l-.9.6v10.4z"/><linearGradient id="U" gradientUnits="userSpaceOnUse" x1="108.767" y1="49.3" x2="110.374" y2="49.3"><stop offset="0" stop-color="#3651bf"/><stop offset="1" stop-color="#2e5bdb"/></linearGradient><path fill="url(#U)" d="M108.8 43.8h1.6v11h-1.6z"/><linearGradient id="V" gradientUnits="userSpaceOnUse" x1="110.375" y1="49.3" x2="111.517" y2="49.3"><stop offset="0" stop-color="#3651bf"/><stop offset="1" stop-color="#2e5bdb"/></linearGradient><path fill="url(#V)" d="M111.5 54.8V45l-1.1-1.2v11z"/><path d="M108.5 43.8h2v10h-2z" opacity=".05" class="I"/><path d="M111.5 54.8V45l-1-1.2v11z" class="I N"/><linearGradient id="W" gradientUnits="userSpaceOnUse" x1="107.51" y1="59.2" x2="108.51" y2="59.2"><stop offset="0" stop-color="#3651bf"/><stop offset="1" stop-color="#2e5bdb"/></linearGradient><path fill="url(#W)" d="M108.5 64.7v-11l-1 .6v10.4z"/><linearGradient id="X" gradientUnits="userSpaceOnUse" x1="108.243" y1="59.2" x2="111.209" y2="59.2"><stop offset="0" stop-color="#3651bf"/><stop offset="1" stop-color="#2e5bdb"/></linearGradient><path fill="url(#X)" d="M108.2 53.7h3v11h-3z"/><linearGradient id="Y" gradientUnits="userSpaceOnUse" x1="111.031" y1="59.2" x2="113.106" y2="59.2"><stop offset="0" stop-color="#3651bf"/><stop offset="1" stop-color="#2e5bdb"/></linearGradient><path fill="url(#Y)" d="M113.1 64.7v-9.8l-2.1-1.2v11z"/><path d="M113.1 64.7v-9.8l-2.1-1.2v11z" class="I N"/><path d="M108.2 53.7h3v11h-3z" opacity=".05" class="I"/><path d="M108.3 53.7h.2v8.1h-.2zm2.6 0h.2v8.6h-.2zm-1.5-9.9h.8v4.8h-.8z" class="I K L"/><linearGradient id="Z" gradientUnits="userSpaceOnUse" x1="101.064" y1="70.45" x2="118.883" y2="70.45"><stop offset="0" stop-color="#3651bf"/><stop offset="1" stop-color="#2e5bdb"/></linearGradient><use xlink:href="#Ay" fill="url(#Z)"/><use xlink:href="#Ay" class="I N"/><path d="M110 56c5.2 7.1 4.4 15.2 4.4 15.2l-.1 13.7h4.5V72c.1 0 1.2-10.6-8.8-16z" opacity=".13"/><path d="M110 56c-5.2 7.1-4.4 15.2-4.4 15.2l.1 13.7h-4.5V72S100 61.4 110 56z" opacity=".05" class="L"/><linearGradient id="a" gradientUnits="userSpaceOnUse" x1="109.61" y1="61.3" x2="110.382" y2="61.3"><stop offset="0" stop-color="#3651bf"/><stop offset="1" stop-color="#2e5bdb"/></linearGradient><use xlink:href="#Az" fill="url(#a)"/><use xlink:href="#Az" class="I J"/><linearGradient id="b" gradientUnits="userSpaceOnUse" x1="109.454" y1="64.15" x2="110.534" y2="64.15"><stop offset="0" stop-color="#3651bf"/><stop offset="1" stop-color="#2e5bdb"/></linearGradient><path fill="url(#b)" d="M109.5 63h1.1v2.3h-1.1z"/><path d="M109.5 63h1.1v2.3h-1.1z" class="I J"/><linearGradient id="c" gradientUnits="userSpaceOnUse" x1="109.132" y1="63.918" x2="110.673" y2="63.028"><stop offset="0" stop-color="#3651bf"/><stop offset="1" stop-color="#2e5bdb"/></linearGradient><use xlink:href="#BA" fill="url(#c)"/><use xlink:href="#BA" class="I J"/><linearGradient id="d" gradientUnits="userSpaceOnUse" x1="108.843" y1="64.2" x2="111.153" y2="64.2"><stop offset="0" stop-color="#3651bf"/><stop offset="1" stop-color="#2e5bdb"/></linearGradient><use xlink:href="#BB" fill="url(#d)"/><use xlink:href="#BB" class="I J"/><linearGradient id="e" gradientUnits="userSpaceOnUse" x1="116.917" y1="62.75" x2="117.264" y2="62.75"><stop offset="0" stop-color="#3651bf"/><stop offset="1" stop-color="#2e5bdb"/></linearGradient><use xlink:href="#BC" fill="url(#e)"/><use xlink:href="#BC" class="I O"/><linearGradient id="f" gradientUnits="userSpaceOnUse" x1="116.561" y1="64.428" x2="117.472" y2="63.903"><stop offset="0" stop-color="#3651bf"/><stop offset="1" stop-color="#2e5bdb"/></linearGradient><use xlink:href="#BD" fill="url(#f)"/><use xlink:href="#BD" class="I O"/><linearGradient id="g" gradientUnits="userSpaceOnUse" x1="116.845" y1="64.75" x2="117.336" y2="64.75"><stop offset="0" stop-color="#3651bf"/><stop offset="1" stop-color="#2e5bdb"/></linearGradient><path fill="url(#g)" d="M116.8 64.3h.5v.9h-.5z"/><path d="M116.8 64.4h.5v.8h-.5z" class="I O"/><linearGradient id="h" gradientUnits="userSpaceOnUse" x1="116.565" y1="64.5" x2="117.616" y2="64.5"><stop offset="0" stop-color="#3651bf"/><stop offset="1" stop-color="#2e5bdb"/></linearGradient><use xlink:href="#BE" fill="url(#h)"/><use xlink:href="#BE" class="I O"/><linearGradient id="i" gradientUnits="userSpaceOnUse" x1="102.904" y1="62.85" x2="103.251" y2="62.85"><stop offset="0" stop-color="#3651bf"/><stop offset="1" stop-color="#2e5bdb"/></linearGradient><use xlink:href="#BF" fill="url(#i)"/><use xlink:href="#BF" class="I N"/><linearGradient id="j" gradientUnits="userSpaceOnUse" x1="116.526" y1="64.448" x2="117.433" y2="63.925"><stop offset="0" stop-color="#3651bf"/><stop offset="1" stop-color="#2e5bdb"/></linearGradient><use xlink:href="#BD" x="-14" y="0.1" fill="url(#j)"/><use xlink:href="#BD" x="-14" y="0.1" class="I N"/><linearGradient id="k" gradientUnits="userSpaceOnUse" x1="102.832" y1="64.95" x2="103.323" y2="64.95"><stop offset="0" stop-color="#3651bf"/><stop offset="1" stop-color="#2e5bdb"/></linearGradient><path fill="url(#k)" d="M102.8 64.5h.5v.9h-.5z"/><path d="M102.8 64.5h.5v.8h-.5z" class="I N"/><linearGradient id="l" gradientUnits="userSpaceOnUse" x1="102.552" y1="64.7" x2="103.603" y2="64.7"><stop offset="0" stop-color="#3651bf"/><stop offset="1" stop-color="#2e5bdb"/></linearGradient><use xlink:href="#BG" fill="url(#l)"/><use xlink:href="#BG" class="I N"/><linearGradient id="m" gradientUnits="userSpaceOnUse" x1="104.886" y1="86.6" x2="114.838" y2="86.6"><stop offset="0" stop-color="#3651bf"/><stop offset="1" stop-color="#2e5bdb"/></linearGradient><path fill="url(#m)" d="M114.8 109.5V76.3l-5-12.6-4.9 12.6v33.2"/><path d="M105.7 76.1v11.6h.4v21.8h-1.2V76.3l4.9-12.6 5 12.5v33.3h-1.2V87.7h.8V76.9l.1-.6-4.5-11.2z" class="I J"/><linearGradient id="n" gradientUnits="userSpaceOnUse" x1="100.9" y1="87.25" x2="106.575" y2="87.25"><stop offset="0" stop-color="#3651bf"/><stop offset="1" stop-color="#2e5bdb"/></linearGradient><path fill="url(#n)" d="M106.6 72.1v-.2l-3.1-6.9h-.9l-1.7 10.6v33.9h4V76.3z"/><use xlink:href="#BH" class="I J"/><use xlink:href="#BI" class="I K"/><linearGradient id="o" gradientUnits="userSpaceOnUse" x1="103.08" y1="76.8" x2="103.639" y2="76.8"><stop offset="0" stop-color="#3651bf"/><stop offset="1" stop-color="#2e5bdb"/></linearGradient><ellipse cx="103.4" cy="76.8" rx=".3" ry=".6" fill="url(#o)" class="M"/><linearGradient id="p" gradientUnits="userSpaceOnUse" x1="103.463" y1="78" x2="104.079" y2="78"><stop offset="0" stop-color="#3651bf"/><stop offset="1" stop-color="#2e5bdb"/></linearGradient><ellipse cx="103.8" cy="78" rx=".3" ry=".7" fill="url(#p)" class="M"/><linearGradient id="q" gradientUnits="userSpaceOnUse" x1="102.636" y1="78" x2="103.251" y2="78"><stop offset="0" stop-color="#3651bf"/><stop offset="1" stop-color="#2e5bdb"/></linearGradient><ellipse cx="103" cy="78" rx=".3" ry=".7" fill="url(#q)" class="M"/><path d="M102.6 108.9V79.2c0-.2.1-.4.2-.4s.2.2.2.4v29.7m.8 0V79.2c0-.2.1-.4.2-.4s.2.2.2.4v29.7m-1 0V79.2c0-.2.1-.4.2-.4s.2.2.2.4v29.7" class="I K"/><path d="M102.9 66.9l-1.2 8.8v33.8h-.8V75.7l1.7-10.7h.9l3.1 7.1-1.6 4.2z" class="I N"/><path d="M112.1 108.7V75.2c0-1.4-2.3-2.6-2.3-2.6s-2.3 1.2-2.3 2.6v33.6" class="I J"/><path d="M109.8 72.5s-2.3 1.2-2.3 2.6v.9c0-1.4 2.3-2.6 2.3-2.6s2.3 1.2 2.3 2.6v-.8c0-1.5-2.3-2.7-2.3-2.7z" class="I K"/><linearGradient id="r" gradientUnits="userSpaceOnUse" x1="109.299" y1="74.5" x2="110.642" y2="74.5"><stop offset="0" stop-color="#3651bf"/><stop offset="1" stop-color="#2e5bdb"/></linearGradient><circle cx="110" cy="74.5" r=".7" fill="url(#r)" class="M"/><linearGradient id="s" gradientUnits="userSpaceOnUse" x1="110.226" y1="75.9" x2="111.705" y2="75.9"><stop offset="0" stop-color="#3651bf"/><stop offset="1" stop-color="#2e5bdb"/></linearGradient><circle cx="111" cy="75.9" r=".8" fill="url(#s)" class="M"/><linearGradient id="t" gradientUnits="userSpaceOnUse" x1="108.235" y1="75.9" x2="109.714" y2="75.9"><stop offset="0" stop-color="#3651bf"/><stop offset="1" stop-color="#2e5bdb"/></linearGradient><circle cx="109" cy="75.9" r=".8" fill="url(#t)" class="M"/><path d="M108.5 108.9V77.2c0-.2.2-.4.4-.4s.4.2.4.4v31.7m1.9 0V77.2c0-.2.2-.4.4-.4s.4.2.4.4v31.7m-2.1 0V77.2c0-.2.2-.4.4-.4s.4.2.4.4v31.7" class="I K"/><circle cx="110.2" cy="82.1" r="3.5" class="I K"/><circle cx="110.2" cy="82.1" r="3.4" class="I K"/><g opacity=".95"><circle cx="110.2" cy="82.1" r="2.9" class="L"/><linearGradient id="u" gradientUnits="userSpaceOnUse" x1="110.2" y1="79.599" x2="110.2" y2="79.599"><stop offset="0" stop-color="#4531a7"/><stop offset="1" stop-color="#423179"/></linearGradient><path d="M110.2 79.6z" fill="none" stroke="url(#u)" class="P Q R"/><linearGradient id="v" gradientUnits="userSpaceOnUse" x1="110.2" y1="84.599" x2="110.2" y2="84.599"><stop offset="0" stop-color="#4531a7"/><stop offset="1" stop-color="#423179"/></linearGradient><path d="M110.2 84.6z" fill="none" stroke="url(#v)" class="P Q R"/><linearGradient id="w" gradientUnits="userSpaceOnUse" x1="112.8" y1="82" x2="112.8" y2="82"><stop offset="0" stop-color="#4531a7"/><stop offset="1" stop-color="#423179"/></linearGradient><path d="M112.8 82z" fill="none" stroke="url(#w)" class="P Q R"/><linearGradient id="x" gradientUnits="userSpaceOnUse" x1="107.8" y1="82" x2="107.8" y2="82"><stop offset="0" stop-color="#4531a7"/><stop offset="1" stop-color="#423179"/></linearGradient><path d="M107.8 82z" fill="none" stroke="url(#x)" class="P Q R"/><linearGradient id="y" gradientUnits="userSpaceOnUse" x1="110.079" y1="81.85" x2="111.274" y2="81.85"><stop offset="0" stop-color="#4531a7"/><stop offset="1" stop-color="#423179"/></linearGradient><path fill="none" stroke="url(#y)" stroke-width=".208" stroke-linecap="round" d="M110.2 80.6v1.5l1 1" class="Q"/></g><linearGradient id="z" gradientUnits="userSpaceOnUse" x1="113.429" y1="87.15" x2="118.829" y2="87.15"><stop offset="0" stop-color="#3651bf"/><stop offset="1" stop-color="#2e5bdb"/></linearGradient><path fill="url(#z)" d="M117.3 64.8h-.4l-3.5 7.7 1.4 3.7v33.3h4V75.6z"/><use xlink:href="#BH" x="13.1" class="I J"/><use xlink:href="#BI" x="13.1" class="I K"/><linearGradient id="AA" gradientUnits="userSpaceOnUse" x1="116.529" y1="76.8" x2="117.088" y2="76.8"><stop offset="0" stop-color="#3651bf"/><stop offset="1" stop-color="#2e5bdb"/></linearGradient><ellipse cx="116.8" cy="76.8" rx=".3" ry=".6" fill="url(#AA)" class="M"/><linearGradient id="AB" gradientUnits="userSpaceOnUse" x1="116.917" y1="78" x2="117.532" y2="78"><stop offset="0" stop-color="#3651bf"/><stop offset="1" stop-color="#2e5bdb"/></linearGradient><ellipse cx="117.2" cy="78" rx=".3" ry=".7" fill="url(#AB)" class="M"/><linearGradient id="AC" gradientUnits="userSpaceOnUse" x1="116.089" y1="78" x2="116.705" y2="78"><stop offset="0" stop-color="#3651bf"/><stop offset="1" stop-color="#2e5bdb"/></linearGradient><ellipse cx="116.4" cy="78" rx=".3" ry=".7" fill="url(#AC)" class="M"/><path d="M116.1 108.9V79.2c0-.2.1-.4.2-.4s.2.2.2.4v29.7m.7 0V79.2c0-.2.1-.4.2-.4s.2.2.2.4v29.7m-.9 0V79.2c0-.2.1-.4.2-.4s.2.2.2.4v29.7" class="I K"/><path opacity=".25" d="M114.8 76.2v1l2.3-10.3 1.3 8.8v33.8h.4V75.7l-1.5-10.9h-.4l-3.5 7.7z"/><linearGradient id="AD" gradientUnits="userSpaceOnUse" x1="96" y1="132.1" x2="124.337" y2="132.1"><stop offset="0" stop-color="#3651bf"/><stop offset="1" stop-color="#2e5bdb"/></linearGradient><path fill="url(#AD)" d="M96 107.8h28.3v48.6H96z"/><linearGradient id="AE" gradientUnits="userSpaceOnUse" x1="100.36" y1="105.35" x2="119.76" y2="105.35"><stop offset="0" stop-color="#3651bf"/><stop offset="1" stop-color="#2e5bdb"/></linearGradient><path fill="url(#AE)" d="M100.4 102.6h19.4v5.5h-19.4z"/><path d="M100.4 102.6h19.4v1.4h-19.4zm0 2h19.4v.7h-19.4zm22.3 3.4H95.8v48.6H99v-33.1h-1.2v-11.2h25.1v11.2h-1.2v33h2.8V108h-1.8zm-25 3.2v-.4h25.1v.4H97.7z" class="I J"/><path d="M110.5 114.2s-4.8 2.5-4.8 5.6v1.8c0-3.1 4.8-5.6 4.8-5.6s4.8 2.5 4.8 5.6v-1.8c-.1-3.1-4.8-5.6-4.8-5.6z" class="I K"/><path d="M115.2 133v-13.3c0-3.1-4.8-5.6-4.8-5.6s-4.8 2.5-4.8 5.6V133h9.6z" class="I J"/><path d="M106.6 132.8v-8.2c0-.4.4-.8.8-.8s.8.3.8.8v8.2m4.5-.1v-8.2c0-.4.4-.8.8-.8s.8.3.8.8v8.2m-4.6.1v-8.2c0-.4.4-.8.8-.8s.8.4.8.8v8.2" class="I K"/><linearGradient id="AF" gradientUnits="userSpaceOnUse" x1="109.073" y1="118.5" x2="111.899" y2="118.5"><stop offset="0" stop-color="#3651bf"/><stop offset="1" stop-color="#2e5bdb"/></linearGradient><circle cx="110.5" cy="118.5" r="1.4" fill="url(#AF)" class="M"/><linearGradient id="AG" gradientUnits="userSpaceOnUse" x1="111.025" y1="121.3" x2="114.131" y2="121.3"><stop offset="0" stop-color="#3651bf"/><stop offset="1" stop-color="#2e5bdb"/></linearGradient><circle cx="112.6" cy="121.3" r="1.6" fill="url(#AG)" class="M"/><linearGradient id="AH" gradientUnits="userSpaceOnUse" x1="106.845" y1="121.3" x2="109.95" y2="121.3"><stop offset="0" stop-color="#3651bf"/><stop offset="1" stop-color="#2e5bdb"/></linearGradient><circle cx="108.4" cy="121.3" r="1.6" fill="url(#AH)" class="M"/><path d="M105.2 134.1h10.7c.1 0 .2.1.2.2v.4c0 .1-.1.2-.2.2h-10.7c-.1 0-.2-.1-.2-.2v-.4c0-.2 0-.2.2-.2zm-13.8 18v-12c0-1.6-2.6-3-2.6-3s-2.6 1.3-2.6 3v12h5.2z" class="I J"/><use xlink:href="#BJ" class="I K"/><linearGradient id="AI" gradientUnits="userSpaceOnUse" x1="87.916" y1="139.4" x2="89.331" y2="139.4"><stop offset="0" stop-color="#3651bf"/><stop offset="1" stop-color="#2e5bdb"/></linearGradient><ellipse cx="88.6" cy="139.4" rx=".7" ry=".8" fill="url(#AI)" class="M"/><linearGradient id="AJ" gradientUnits="userSpaceOnUse" x1="88.891" y1="140.9" x2="90.446" y2="140.9"><stop offset="0" stop-color="#3651bf"/><stop offset="1" stop-color="#2e5bdb"/></linearGradient><circle cx="89.6" cy="140.9" fill="url(#AJ)" r=".8" class="M"/><linearGradient id="AK" gradientUnits="userSpaceOnUse" x1="86.797" y1="140.9" x2="88.351" y2="140.9"><stop offset="0" stop-color="#3651bf"/><stop offset="1" stop-color="#2e5bdb"/></linearGradient><circle cx="87.6" cy="140.9" fill="url(#AK)" r=".8" class="M"/><use xlink:href="#BK" class="I K"/><path d="M85.5 152.6h6.1v.5h-6.1zm50-.5v-12c0-1.6-2.6-3-2.6-3s-2.6 1.3-2.6 3v12h5.2z" class="I J"/><use xlink:href="#BJ" x="44.1" class="I K"/><linearGradient id="AL" gradientUnits="userSpaceOnUse" x1="132.252" y1="139.4" x2="133.667" y2="139.4"><stop offset="0" stop-color="#3651bf"/><stop offset="1" stop-color="#2e5bdb"/></linearGradient><ellipse cx="133" cy="139.4" rx=".7" ry=".8" fill="url(#AL)" class="M"/><linearGradient id="AM" gradientUnits="userSpaceOnUse" x1="133.227" y1="140.9" x2="134.782" y2="140.9"><stop offset="0" stop-color="#3651bf"/><stop offset="1" stop-color="#2e5bdb"/></linearGradient><circle cx="134" cy="140.9" fill="url(#AM)" r=".8" class="M"/><linearGradient id="AN" gradientUnits="userSpaceOnUse" x1="131.137" y1="140.9" x2="132.692" y2="140.9"><stop offset="0" stop-color="#3651bf"/><stop offset="1" stop-color="#2e5bdb"/></linearGradient><circle cx="131.9" cy="140.9" fill="url(#AN)" r=".8" class="M"/><use xlink:href="#BK" x="44.3" class="I K"/><path d="M129.9 152.6h6.1v.5h-6.1zm29.9-.5v-12c0-1.6-2.4-3-2.4-3s-2.4 1.3-2.4 3v12h4.8z" class="I J"/><path d="M157.4 137.1s-2.4 1.3-2.4 3v.9c0-1.6 2.4-3 2.4-3s2.4 1.3 2.4 3v-.9c0-1.6-2.4-3-2.4-3z" class="I K"/><linearGradient id="AO" gradientUnits="userSpaceOnUse" x1="156.641" y1="139.4" x2="158.052" y2="139.4"><stop offset="0" stop-color="#3651bf"/><stop offset="1" stop-color="#2e5bdb"/></linearGradient><ellipse cx="157.4" cy="139.4" rx=".7" ry=".8" fill="url(#AO)" class="M"/><linearGradient id="AP" gradientUnits="userSpaceOnUse" x1="157.616" y1="140.9" x2="159.171" y2="140.9"><stop offset="0" stop-color="#3651bf"/><stop offset="1" stop-color="#2e5bdb"/></linearGradient><circle cx="158.4" cy="140.9" fill="url(#AP)" r=".8" class="M"/><linearGradient id="AQ" gradientUnits="userSpaceOnUse" x1="155.522" y1="140.9" x2="157.076" y2="140.9"><stop offset="0" stop-color="#3651bf"/><stop offset="1" stop-color="#2e5bdb"/></linearGradient><circle cx="156.3" cy="140.9" fill="url(#AQ)" r=".8" class="M"/><use xlink:href="#BK" x="68.7" class="I K"/><path d="M154.3 152.6h6.1v.5h-6.1zm-6.8-.5v-12c0-1.6-2.6-3-2.6-3s-2.6 1.3-2.6 3v12h5.2z" class="I J"/><use xlink:href="#BJ" x="56.1" class="I K"/><linearGradient id="AR" gradientUnits="userSpaceOnUse" x1="144.446" y1="139.4" x2="145.861" y2="139.4"><stop offset="0" stop-color="#3651bf"/><stop offset="1" stop-color="#2e5bdb"/></linearGradient><ellipse cx="145.2" cy="139.4" rx=".7" ry=".8" fill="url(#AR)" class="M"/><linearGradient id="AS" gradientUnits="userSpaceOnUse" x1="145.422" y1="140.9" x2="146.976" y2="140.9"><stop offset="0" stop-color="#3651bf"/><stop offset="1" stop-color="#2e5bdb"/></linearGradient><circle cx="146.2" cy="140.9" fill="url(#AS)" r=".8" class="M"/><linearGradient id="AT" gradientUnits="userSpaceOnUse" x1="143.331" y1="140.9" x2="144.886" y2="140.9"><stop offset="0" stop-color="#3651bf"/><stop offset="1" stop-color="#2e5bdb"/></linearGradient><circle cx="144.1" cy="140.9" fill="url(#AT)" r=".8" class="M"/><use xlink:href="#BK" x="56.5" class="I K"/><path d="M142.1 152.6h6.1v.5h-6.1zm-26.9 3.9v-12.9c0-3.1-4.8-5.6-4.8-5.6s-4.8 2.5-4.8 5.6v12.9h9.6z" class="I J"/><path d="M115.2 156.5v-12.9c0-3.1-4.4-5.6-4.4-5.6v18.5h4.4z" class="I K"/><linearGradient id="AU" gradientUnits="userSpaceOnUse" x1="33.82" y1="138.4" x2="29.966" y2="138.4"><stop offset="0" stop-color="#2e3192"/><stop offset="1" stop-color="#2f0b81"/></linearGradient><path fill="url(#AU)" d="M30.9 136.1h2l.9 2.3-.9 2.3h-2l-.9-2.3z"/><path d="M30.1 138l.8-1.9h2l.8 1.9z" class="I J"/><path d="M30.6 139.9l-.6-1.5v-.1h3.8v.1l-.6 1.5z" class="I J L"/><path d="M33.1 140.2l-.2.5h-2l-.2-.5z" class="I J"/><linearGradient id="AV" gradientUnits="userSpaceOnUse" x1="32.208" y1="147.05" x2="31.537" y2="147.05"><stop offset="0" stop-color="#2e3192"/><stop offset="1" stop-color="#2f0b81"/></linearGradient><path fill="url(#AV)" d="M31.5 140.1h.7V154h-.7z"/><path d="M31.6 138.5h.6v1.1h-.6z" class="L"/><linearGradient id="AW" gradientUnits="userSpaceOnUse" x1="101.765" y1="129.4" x2="97.073" y2="129.4"><stop offset="0" stop-color="#2e3192"/><stop offset="1" stop-color="#2f0b81"/></linearGradient><path fill="url(#AW)" d="M98.2 126.5h2.4l1.2 2.9-1.2 2.9h-2.4l-1.1-2.9z"/><path d="M97.3 128.9l.9-2.4h2.4l1 2.4z" class="I J"/><path d="M97.8 131.2l-.7-1.8v-.2h4.6l.1.2-.8 1.8z" class="I J L"/><path d="M100.9 131.6l-.3.7h-2.4l-.2-.7z" class="I J"/><linearGradient id="AX" gradientUnits="userSpaceOnUse" x1="99.451" y1="140.3" x2="98.474" y2="140.3"><stop offset="0" stop-color="#2e3192"/><stop offset="1" stop-color="#2f0b81"/></linearGradient><path fill="url(#AX)" d="M98.5 131.8h1v17h-1z"/><path d="M99.1 129.5h.7v1.4h-.7z" class="L"/><linearGradient id="AY" gradientUnits="userSpaceOnUse" x1="127.272" y1="131.4" x2="122.572" y2="131.4"><stop offset="0" stop-color="#2e3192"/><stop offset="1" stop-color="#2f0b81"/></linearGradient><path fill="url(#AY)" d="M123.7 128.5h2.4l1.2 2.9-1.2 2.9h-2.4l-1.1-2.9z"/><path d="M122.8 130.9l.9-2.4h2.4l1 2.4z" class="I J"/><path d="M123.3 133.3l-.7-1.9.1-.2h4.5l.1.2-.8 1.9z" class="I J L"/><path d="M126.4 133.6l-.3.7h-2.4l-.2-.7z" class="I J"/><linearGradient id="AZ" gradientUnits="userSpaceOnUse" x1="125.507" y1="142.3" x2="124.477" y2="142.3"><stop offset="0" stop-color="#2e3192"/><stop offset="1" stop-color="#2f0b81"/></linearGradient><path fill="url(#AZ)" d="M124.5 133.8h1v17h-1z"/><path d="M124.6 131.5h.7v1.4h-.7z" class="L"/><linearGradient id="Aa" gradientUnits="userSpaceOnUse" x1="75.709" y1="131.05" x2="71.017" y2="131.05"><stop offset="0" stop-color="#2e3192"/><stop offset="1" stop-color="#2f0b81"/></linearGradient><path fill="url(#Aa)" d="M72.2 128.2h2.3l1.2 2.8-1.2 2.9h-2.3L71 131z"/><path d="M71.2 130.5l1-2.3h2.3l1 2.3z" class="I J"/><path d="M71.8 132.9L71 131l.1-.1h4.6v.1l-.8 1.9z" class="I J L"/><path d="M74.8 133.2l-.3.7h-2.3l-.3-.7z" class="I J"/><linearGradient id="Ab" gradientUnits="userSpaceOnUse" x1="73.455" y1="141.3" x2="72.478" y2="141.3"><stop offset="0" stop-color="#2e3192"/><stop offset="1" stop-color="#2f0b81"/></linearGradient><path fill="url(#Ab)" d="M72.5 132.8h1v17h-1z"/><path d="M73 131.1h.7v1.4H73z" class="L"/><linearGradient id="Ac" gradientUnits="userSpaceOnUse" x1="40.448" y1="137.35" x2="35.747" y2="137.35"><stop offset="0" stop-color="#2e3192"/><stop offset="1" stop-color="#2f0b81"/></linearGradient><path fill="url(#Ac)" d="M36.9 134.5h2.4l1.1 2.8-1.1 2.9h-2.4l-1.2-2.9z"/><path d="M36 136.9l.9-2.4h2.4l.9 2.4z" class="I J"/><path d="M36.5 139.2l-.8-1.9.1-.1h4.6v.1l-.7 1.9z" class="I J L"/><path d="M39.5 139.5l-.2.7h-2.4l-.2-.7z" class="I J"/><linearGradient id="Ad" gradientUnits="userSpaceOnUse" x1="38.479" y1="148.05" x2="37.66" y2="148.05"><stop offset="0" stop-color="#2e3192"/><stop offset="1" stop-color="#2f0b81"/></linearGradient><path fill="url(#Ad)" d="M37.6 139.5h.8v17.1h-.8z"/><path d="M37.8 137.4h.7v1.4h-.7z" class="L"/><linearGradient id="Ae" gradientUnits="userSpaceOnUse" x1="31.3" y1="159.275" x2="159.901" y2="159.275"><stop offset="0" stop-color="#451088"/><stop offset="1" stop-color="#593179"/></linearGradient><path d="M95.6 146.8c21.6-.4 45 1.6 64.3 8.3v16.7h-7c0-7.7-6.3-14-14-14s-14 6.3-14 14h-7.3c-1.2-12.2-12-21.1-24.1-19.9-10.5 1-18.8 9.4-19.9 19.9h-7.1c0-7.7-6.3-14-14-14s-14 6.3-14 14h-7.2v-16.7c19.2-6.8 42.7-8.7 64.3-8.3z" fill="url(#Ae)"/><linearGradient id="Af" gradientUnits="userSpaceOnUse" x1="66.5" y1="165.05" x2="51.201" y2="165.05"><stop offset="0" stop-color="#451088"/><stop offset="1" stop-color="#593179"/></linearGradient><path d="M63.6 171.8c-.2-7-5.5-12.7-12.4-13.4.5 0 1-.1 1.4-.1 7.5 0 13.7 6 13.9 13.5h-2.9z" fill="url(#Af)"/><linearGradient id="Ag" gradientUnits="userSpaceOnUse" x1="117.56" y1="161.9" x2="96.497" y2="161.9"><stop offset="0" stop-color="#451088"/><stop offset="1" stop-color="#593179"/></linearGradient><path d="M113.7 171.8c-.8-9.6-7.7-17.7-17.1-19.8 11 .4 19.9 8.9 21.1 19.8h-4z" fill="url(#Ag)"/><path d="M95.6 146.9c21.6-.4 45 1.6 64.3 8.3v2.5c-19.2-6.8-42.7-8.6-64.3-8.3-21.6-.4-45 1.6-64.3 8.3v-2.5c19.2-6.8 42.7-8.7 64.3-8.3zm18.1 24.9c-.8-9.6-7.7-17.7-17.1-19.8 11 .4 19.9 8.9 21.1 19.8h-4zm-50.1 0c-.2-7-5.5-12.7-12.4-13.4.5 0 1-.1 1.4-.1 7.5 0 13.7 6 13.9 13.5h-2.9z" class="I J"/><linearGradient id="Ah" gradientUnits="userSpaceOnUse" x1="159.901" y1="147.876" x2="31.3" y2="147.876"><stop offset="0" stop-color="#451088"/><stop offset="1" stop-color="#593179"/></linearGradient><use xlink:href="#BL" fill="url(#Ah)"/><use xlink:href="#BL" y="-0.1" class="I J"/><linearGradient id="Ai" gradientUnits="userSpaceOnUse" x1="0" y1="119" x2="12.015" y2="119"><stop offset="0" stop-color="#2e59bf"/><stop offset="1" stop-color="#593192"/></linearGradient><path fill="url(#Ai)" d="M12 173H0V67.1L1.9 65H12z"/><path d="M2.1 172.9H0V67l2-2.1zM2 65h11v2H2z" class="I J"/><linearGradient id="Aj" gradientUnits="userSpaceOnUse" x1="4.939" y1="111" x2="45" y2="111"><stop offset="0" stop-color="#2e59bf"/><stop offset="1" stop-color="#593192"/></linearGradient><path d="M5.8 173H45V49H13.3C7.2 82.7 4.5 113.8 5 141.9c-.2 10.8.1 21.1.8 31.1z" fill="url(#Aj)"/><path d="M7.9 142.1c-.6-28.2 2.2-59.1 8.3-92.9h-2.9C7.2 82.9 4.5 114 5 142.1c-.2 10.7 0 21.1.8 31.1h2.9c-.8-10-1-20.3-.8-31.1z" class="I J"/><path d="M15.5 51.8h29.4V49H16.1" class="I J"/><linearGradient id="Ak" gradientUnits="userSpaceOnUse" x1="162.103" y1="110" x2="197.108" y2="110"><stop offset="0" stop-color="#3651bf"/><stop offset="1" stop-color="#2e5bdb"/></linearGradient><path d="M174 47h-7v27h-5l.1 99h35l-.1-79h-3.9v-.1l.3-19.9h-4.7l-.6-27h-5" fill="url(#Ak)"/><linearGradient id="Al" gradientUnits="userSpaceOnUse" x1="176.046" y1="47" x2="181.413" y2="47"><stop offset="0" stop-color="#3651bf"/><stop offset="1" stop-color="#2e5bdb"/></linearGradient><path d="M181.4 47H176" fill="url(#Al)"/><path d="M192.8 94l.1-20h-4.8l-.1-26.9h-20.8V74H162v98.8h34.9V94z" class="I K"/><path d="M174.3 47H167v3h20.9v-3h-5.1" class="I J"/><path d="M192.9 120h-6.6c-.2-.5-.4-.7-.3-.9v-.1c-.1-.2.1-.4.3 0h6.6c.2-.4.4-.2.1 0v.1c.3.3.1.4-.1.9z" class="I J L"/><linearGradient id="Am" gradientUnits="userSpaceOnUse" x1="188.01" y1="98" x2="183.99" y2="98"><stop offset="0" stop-color="#3651bf"/><stop offset="1" stop-color="#2e5bdb"/></linearGradient><path fill="url(#Am)" d="M184 75h4v46h-4z"/><path d="M185 74h3v44h-3z" class="I J"/><path d="M184 74h4v3h-4z" class="I J"/><linearGradient id="An" gradientUnits="userSpaceOnUse" x1="201.015" y1="145.5" x2="196.998" y2="145.5"><stop offset="0" stop-color="#3651bf"/><stop offset="1" stop-color="#2e5bdb"/></linearGradient><path fill="url(#An)" d="M197 118h4v55h-4z"/><path d="M197 118h4v56h-4z" class="I J"/><linearGradient id="Ao" gradientUnits="userSpaceOnUse" x1="157" y1="123.5" x2="197" y2="123.5"><stop offset="0" stop-color="#3651bf"/><stop offset="1" stop-color="#2e5bdb"/></linearGradient><path fill="url(#Ao)" d="M185 118V74h-18v20h-10l.1 79H197v-55z"/><path d="M197 118h4v3h-4zm-30-44h18v3h-18zm18 44h12v3h-12z" class="I J"/><linearGradient id="Ap" gradientUnits="userSpaceOnUse" x1="188.015" y1="60.5" x2="192.99" y2="60.5"><stop offset="0" stop-color="#3651bf"/><stop offset="1" stop-color="#2e5bdb"/></linearGradient><path fill="url(#Ap)" d="M193 74h-5V47l5 2.4z"/><linearGradient id="Aq" gradientUnits="userSpaceOnUse" x1="193.02" y1="84" x2="196.961" y2="84"><stop offset="0" stop-color="#3651bf"/><stop offset="1" stop-color="#2e5bdb"/></linearGradient><path fill="url(#Aq)" d="M193 74h4v20h-4z"/><linearGradient id="Ar" gradientUnits="userSpaceOnUse" x1="197.021" y1="106" x2="201.016" y2="106"><stop offset="0" stop-color="#3651bf"/><stop offset="1" stop-color="#2e5bdb"/></linearGradient><path fill="url(#Ar)" d="M197 94h4v24h-4z"/><path d="M193 74h-5V47l5 2.4zm0 0h4v20h-4zm4 20h4v24h-4z" class="I J"/><path d="M171 63h14v3h-14zm0 5h14v3h-14zm0-15h14v3h-14zm0 5h14v3h-14zm19 48h5v3h-5zm0 5h5v3h-5zm0-15h5v3h-5zm0 5h5v3h-5zm-20-9h11v3h-11zm0 5h11v3h-11zm0 5h11v3h-11zm0-20h11v3h-11zm0 5h11v3h-11zm0 30h11v3h-11zm0 5h11v3h-11zm0 5h11v3h-11zm0-20h11v3h-11zm0 5h11v3h-11zm0 20h11v3h-11zm0 15h11v3h-11zm0 5h11v3h-11zm0 5h11v3h-11zm0-20h11v3h-11zm0 5h11v3h-11zm0 20h11v3h-11zm-10-59h6v3h-6zm0 15h6v3h-6zm0 5h6v3h-6zm0 5h6v3h-6zm0-20h6v3h-6zm0 5h6v3h-6zm0 20h6v3h-6zm0 15h6v3h-6zm0 5h6v3h-6zm0 5h6v3h-6zm0-20h6v3h-6zm0 5h6v3h-6zm0 20h6v3h-6zm26-36h9v3h-9zm0 5h9v3h-9zm0 15h9v3h-9zm0 5h9v3h-9zm0 5h9v3h-9zm0-20h9v3h-9zm0 5h9v3h-9zm0 20h9v3h-9z" class="K L I"/><defs><path id="As" d="M18 55.3s-5.3 33.5-6.9 59.1c-1.6 25.8-.2 63.6-.2 63.6H48V56.4l-30-1.1z"/><path id="At" d="M181.1 47.7v-3.9h-.1c-.1 0-.2-.1-.2-.3s.1-.3.2-.3h.4v-9.5h.4v9.5h.4c.1 0 .2.1.2.3s-.1.3-.2.3h-.1v3.9"/><path id="Au" d="M174.9 47.7v-5.2h-.1c-.1 0-.3-.2-.3-.4s.1-.4.3-.4h.5V29h.5v12.7h.5c.1 0 .3.2.3.4s-.1.4-.3.4h-.1v5.2"/><path id="Av" d="M159.5 136.8l-14.3-56.6h1v-.9h-1v-11h-1.4v11.1h-1v.9h1l-14.3 56.6h-2v1.4h33.8v-1.4l-1.8-.1zm-6.5-20.1l-7.8-7.8 4.7-4.7 3.1 12.5zm-8 1.1V110l7.9 7.9-7.9-.1zm7.1.9l-7.2 5.9v-5.9h7.2zm-7.1-11v-4.5h4.5l-4.5 4.5zm0-5.4v-3.9l4 4-4-.1zm4.1-1.1l-4-4 2.4-2.4 1.6 6.4zm-4.2-5.1V94h2.1l-2.1 2.1zm0-2.9v-8.4l2.1 8.4h-2.1zm-3.4 1.7l2.4 2.4-4 4 1.6-6.4zm-2.4 9.3l4.7 4.7-7.8 7.8 3.1-12.5zm-3.7 14.9l8.2 6.7-12.5 10.3 4.3-17zm8.6 17.7h-11.8l11.8-10.1v10.1zm0-11.9l-7.4-6.1h7.4v6.1zm0-7.1h-7.9l7.9-7.9v7.9zm0-10l-4.5-4.5h4.5v4.5zm0-5.5h-4l4-4v4zm0-6.2l-2.1-2.1h2.1v2.1zm0-2.9h-2.1l2.1-8.4v8.4zm.9 43.6v-9.9l11.8 9.9h-11.8zm.3-11l8.4-6.9 4.4 17.3-12.8-10.4z"/><path id="Aw" d="M145.8 62.4l-2.2-.2c-.5 0-.9.2-1.2.6l-1.2 1.8c-.2.4-.3.9-.1 1.3l.9 1.9c.2.4.6.7 1.1.7l2.2.2c.5 0 .9-.2 1.2-.6l1.2-1.8c.2-.4.3-.9.1-1.3l-.9-1.9c-.3-.4-.7-.7-1.1-.7z"/><path id="Ax" d="M158.2 114H87.4c-.1 0-.2 0-.2.1L79.5 130h86.9l-7.9-15.9c-.1-.1-.2-.1-.3-.1z"/><path id="Ay" d="M110 56c-10 5.4-8.9 16-8.9 16v12.9h17.7V72c.1 0 1.2-10.6-8.8-16z"/><path id="Az" d="M109.8 58.7h.4c.1 0 .2.1.2.2v4.8c0 .1-.1.2-.2.2h-.4c-.1 0-.2-.1-.2-.2v-4.8c0-.1.1-.2.2-.2z"/><path id="BA" d="M110 65.1l-.4-.7c-.1-.1-.1-.2-.1-.3v-1.4c0-.1 0-.2.1-.3l.4-.7.4.7c.1.1.1.2.1.3V64c0 .1 0 .2-.1.3l-.4.8z"/><path id="BB" d="M109 63.8h1.9c.1 0 .2.1.2.2v.4c0 .1-.1.2-.2.2H109c-.1 0-.2-.1-.2-.2V64c0-.1.1-.2.2-.2z"/><path id="BC" d="M117 61.2c.2 0 .2 0 .2.1v2.9c0 .1 0 .1-.1.1h-.1c-.1 0-.1 0-.1-.1l.1-3c-.1 0 0 0 0 0z"/><path id="BD" d="M117.1 65.1l-.2-.4v-1.2l.2-.4.2.4v1.2l-.2.4z"/><path id="BE" d="M116.7 64.3h.8c.1 0 .1.1.1.1v.2c0 .1-.1.1-.1.1h-.8c-.1 0-.1-.1-.1-.1l.1-.3c-.2.1-.1 0 0 0z"/><path id="BF" d="M103 61.3c.2 0 .2 0 .2.1v2.9c0 .1 0 .1-.1.1h-.1c-.1 0-.1 0-.1-.1l.1-3c-.1.1 0 0 0 0z"/><path id="BG" d="M102.7 64.5h.8c.1 0 .1.1.1.1v.2c0 .1-.1.1-.1.1h-.8c-.1 0-.1-.1-.1-.1l.1-.3c-.1 0-.1 0 0 0z"/><path id="BH" d="M104.5 108.8V77.3c0-1.4-1.2-2.5-1.2-2.5s-1.2 1.1-1.2 2.5v31.5"/><path id="BI" d="M103.3 74.8s-1.2 1.1-1.2 2.5v.8c0-1.4 1.2-2.5 1.2-2.5s1.2 1.1 1.2 2.5v-.8c0-1.4-1.2-2.5-1.2-2.5z"/><path id="BJ" d="M88.8 137.1s-2.6 1.3-2.6 3v.9c0-1.6 2.6-3 2.6-3s2.6 1.3 2.6 3v-.9c0-1.6-2.6-3-2.6-3z"/><path id="BK" d="M86.6 152.1v-9.3c0-.2.2-.4.4-.4s.4.2.4.4v9.3m2.4 0v-9.3c0-.2.2-.4.4-.4s.4.2.4.4v9.3m-2.4 0v-9.3c0-.2.2-.4.4-.4s.4.2.4.4v9.3"/><path id="BL" d="M95.6 143c21.6-.4 45 1.6 64.3 8.3v1.5c-19.2-6.8-42.7-8.6-64.3-8.3-21.6-.4-45 1.6-64.3 8.3v-1.5c19.2-6.7 42.7-8.6 64.3-8.3z"/></defs><clipPath id="BM"><use xlink:href="#As"/></clipPath><g clip-path="url(#BM)" class="I L"><path d="M6 64h34v5H6zm0-8h34v5H6z" class="K"/></g><defs><path id="BN" d="M18.1 54.6s-5.3 33.5-6.9 59.1c-1.6 25.8-.2 63.6-.2 63.6h37V55.7l-29.9-1.1z"/></defs><clipPath id="BO"><use xlink:href="#BN"/></clipPath><g clip-path="url(#BO)" class="I L"><path d="M5.9 72.3h33.7v5.2H5.9z" class="K"/></g><defs><path id="BP" d="M18.1 54.6s-5.3 33.5-6.9 59.1c-1.6 25.8-.2 63.6-.2 63.6h37V55.7l-29.9-1.1z"/></defs><clipPath id="BQ"><use xlink:href="#BP"/></clipPath><g clip-path="url(#BQ)" class="I L"><path d="M5.1 80.8h34.5V86H5.1z" class="K"/></g><defs><path id="BR" d="M18.1 54.3s-5.3 33.5-6.9 59.1C9.6 139.2 11 177 11 177h37V55.4l-29.9-1.1z"/></defs><clipPath id="BS"><use xlink:href="#BR"/></clipPath><g clip-path="url(#BS)" class="I L"><path d="M5 89h35v5H5z" class="K"/></g><defs><path id="BT" d="M18.1 53.3s-5.3 33.5-6.9 59.1C9.6 138.2 11 176 11 176h37V54.4l-29.9-1.1z"/></defs><clipPath id="BU"><use xlink:href="#BT"/></clipPath><g clip-path="url(#BU)" class="I L"><path d="M4 97h36v5H4z" class="K"/></g><defs><path id="BV" d="M18.1 53.3s-5.3 33.5-6.9 59.1C9.6 138.2 11 176 11 176h37V54.4l-29.9-1.1z"/></defs><clipPath id="BW"><use xlink:href="#BV"/></clipPath><g clip-path="url(#BW)" class="I L"><path d="M2 105h38v5H2z" class="K"/></g><defs><path id="BX" d="M18.1 52.3s-5.3 33.5-6.9 59.1C9.6 137.2 11 175 11 175h37V53.4l-29.9-1.1z"/></defs><clipPath id="BY"><use xlink:href="#BX"/></clipPath><g clip-path="url(#BY)" class="I L"><path d="M2 113h38v5H2z" class="K"/></g><defs><path id="BZ" d="M18.1 52.3s-5.3 33.5-6.9 59.1C9.6 137.2 11 175 11 175h37V53.4l-29.9-1.1z"/></defs><clipPath id="Ba"><use xlink:href="#BZ"/></clipPath><g clip-path="url(#Ba)" class="I L"><path d="M2 121h38v5H2z" class="K"/></g><defs><path id="Bb" d="M18.1 51.3s-5.3 33.5-6.9 59.1C9.6 136.2 11 174 11 174h37V52.4l-29.9-1.1z"/></defs><clipPath id="Bc"><use xlink:href="#Bb"/></clipPath><g clip-path="url(#Bc)" class="I L"><path d="M2 129h38v5H2z" class="K"/></g><defs><path id="Bd" d="M18.1 51.3s-5.3 33.5-6.9 59.1C9.6 136.2 11 174 11 174h37V52.4l-29.9-1.1z"/></defs><clipPath id="Be"><use xlink:href="#Bd"/></clipPath><g clip-path="url(#Be)" class="I L"><path d="M2 137h38v5H2z" class="K"/></g><defs><path id="Bf" d="M18.1 50.3s-5.3 33.5-6.9 59.1C9.6 135.2 11 173 11 173h37V51.4l-29.9-1.1z"/></defs><clipPath id="Bg"><use xlink:href="#Bf"/></clipPath><g clip-path="url(#Bg)" class="I L"><path d="M2 145h38v5H2z" class="K"/></g><defs><path id="Bh" d="M18.1 50.3s-5.3 33.5-6.9 59.1C9.6 135.2 11 173 11 173h37V51.4l-29.9-1.1z"/></defs><clipPath id="Bi"><use xlink:href="#Bh"/></clipPath><g clip-path="url(#Bi)" class="I L"><path d="M2 153h38v5H2z" class="K"/></g><linearGradient id="Bj" gradientUnits="userSpaceOnUse" x1="30.496" y1="128.75" x2="70.696" y2="128.75"><stop offset="0" stop-color="#451088"/><stop offset="1" stop-color="#593179"/></linearGradient><path d="M68.7 167.7h-.5L62.4 106c1 0 1.8-.6 1.8-1.2v-1.2h1.7v-6.1l-12.2-11c-1.7-1.6-4.2-1.6-5.9 0l-11.9 11v6.1H37v1.2c0 .6.8 1.2 1.8 1.2L33 167.7h-.5c-1.1 0-1.9.9-1.9 2v.5c0 1.1.9 2 1.9 2h36.3c1.1 0 2-.9 2-2v-.5c-.1-1.2-1-2-2.1-2z" fill="url(#Bj)"/><path d="M45.2 167.6v-9c0-2.9 2.4-5.2 5.3-5.2s5.3 2.3 5.3 5.2v9M35.6 98.4h30v5.2h-30zm2.8 7.8h24.3v1.4H38.4zm15-19.8l12.2 11H35.5l12.2-11c1.7-1.5 4.1-1.5 5.7 0z" class="I J"/><linearGradient id="Bk" gradientUnits="userSpaceOnUse" x1="34.932" y1="124.75" x2="66.187" y2="124.75"><stop offset="0" stop-color="#451088"/><stop offset="1" stop-color="#593179"/></linearGradient><path d="M65.7 126.1V123c.3-.1.4-.3.5-.6 0-.4-.4-.6-1-.6H35.9c-.5 0-1 .3-1 .6 0 .4.3.6.8.6v2.9c-.4.1-.8.3-.8.6v.6c0 .4.4.6 1 .6h29.3c.5 0 1-.3 1-.6v-.6c0-.1-.2-.3-.5-.4zm-28.5-.1v-2.9h3.4v2.9h-3.4zm4.8 0v-2.9h3.4v2.9H42zm4.8 0v-2.9h3.4v2.9h-3.4zm4.9 0v-2.9h3.4v2.9h-3.4zm4.8 0v-2.9h2.9v2.9h-2.9zm4.4 0v-2.9h3.4v2.9h-3.4z" fill="url(#Bk)"/><path d="M65.7 126.1V123c.3-.1.4-.3.5-.6 0-.4-.4-.6-1-.6H35.9c-.5 0-1 .3-1 .6 0 .4.3.6.8.6v2.9c-.4.1-.8.3-.8.6v.6c0 .4.4.6 1 .6h29.3c.5 0 1-.3 1-.6v-.6c0-.1-.2-.3-.5-.4zm-28.5-.1v-2.9h3.4v2.9h-3.4zm4.8 0v-2.9h3.4v2.9H42zm4.8 0v-2.9h3.4v2.9h-3.4zm4.9 0v-2.9h3.4v2.9h-3.4zm4.8 0v-2.9h2.9v2.9h-2.9zm4.4 0v-2.9h3.4v2.9h-3.4zm-22.5-17.4h24.3v1.4H38.4z" class="I J"/><linearGradient id="Bl" gradientUnits="userSpaceOnUse" x1="50.6" y1="126.1" x2="50.6" y2="63.7"><stop offset="0" stop-color="#451088"/><stop offset="1" stop-color="#593179"/></linearGradient><path fill="url(#Bl)" d="M51.4 83.9l4.7 4.8-12.5 12.7-19.9 19.3 5.2 5.4 20.9-20.3-4.9-5 11.7-11.5L77.5 69l-5.2-5.3z"/><linearGradient id="Bm" gradientUnits="userSpaceOnUse" x1="19.4" y1="94.6" x2="81.8" y2="94.6"><stop offset="0" stop-color="#451088"/><stop offset="1" stop-color="#593179"/></linearGradient><path fill="url(#Bm)" d="M61.6 95.5l-4.8 4.6-12.7-12.4-19.4-20-5.3 5.2 20.3 20.9 5-4.9 11.5 11.7 20.3 20.9 5.3-5.1z"/><path d="M63.3 103.1l-4.7-4.8-2.5 2.3 4.8 4.9zm2.8-2.8l-4.6-4.8-2.5 2.3 4.7 4.9zM68 108l-4.4-4.6-2.4 2.4 4.3 4.6zm2.8-2.9l-4.4-4.5L64 103l4.4 4.5zm1.9 7.7l-4.4-4.5-2.4 2.4 4.4 4.6zm.3.4l-2.4 2.4 5.8 5.9 2.4-2.3zm2.5-3.2l-4.4-4.6-2.4 2.4 4.4 4.6zm.4.3l-2.4 2.4 5.8 6 2.4-2.3zm-44.6 8.6l-4.9 4.7 2.4 2.5 4.9-4.8zm-2.9-2.8l-4.8 4.6 2.4 2.4 4.8-4.6zm7.7-1.9l-4.5 4.4L34 121l4.5-4.4zm-2.8-2.8l-4.6 4.4 2.4 2.3 4.6-4.4zm7.7-1.9l-4.5 4.4 2.3 2.4 4.6-4.4zm.3-.3l2.4 2.4 6-5.8-2.4-2.5zm-3.2-2.6l-4.5 4.4 2.4 2.4 4.5-4.4zm.3-.3l2.4 2.4 6-5.8-2.3-2.5zm20.8-24.2l-4.8 4.7 2.4 2.5 4.8-4.8zm-2.8-2.8l-4.8 4.6 2.4 2.4 4.8-4.6zm7.7-1.9l-4.5 4.4 2.4 2.4 4.5-4.4zm-2.8-2.9l-4.6 4.4 2.4 2.4 4.6-4.4zm7.7-1.8l-4.6 4.4 2.4 2.4 4.6-4.4zm.3-.3l2.4 2.4 6-5.8-2.4-2.4zm-3.2-2.6l-4.5 4.4 2.4 2.4 4.5-4.4zm.3-.3l2.4 2.4 6.1-5.8-2.4-2.4z"/><circle cx="50.9" cy="94.9" r="2.5" class="I O"/><linearGradient id="Bn" gradientUnits="userSpaceOnUse" x1="48.411" y1="94.9" x2="53.375" y2="94.9"><stop offset="0" stop-color="#451088"/><stop offset="1" stop-color="#593179"/></linearGradient><circle cx="50.9" cy="94.9" r="2.5" fill="url(#Bn)"/><circle cx="50.9" cy="94.9" r="2.5" class="I J"/><path d="M26.5 75.1l-4.7-4.8-2.5 2.4 4.8 4.8zm2.8-2.8l-4.6-4.8-2.5 2.3 4.7 4.9zm1.9 7.7l-4.4-4.5-2.4 2.4 4.4 4.5zm2.8-2.6l-4.4-4.6-2.4 2.4 4.5 4.6z" class="I J"/><path d="M35.9 85.1l-4.4-4.6-2.4 2.4 4.4 4.6zm.3.3l-2.4 2.4 5.8 6 2.4-2.4zm2.5-3.2l-4.4-4.5-2.4 2.4 4.5 4.5zm.3.4l-2.3 2.3 5.8 6.1 2.4-2.4z"/><path d="M42.98 133.715l1.414-1.414 1.414 1.414-1.414 1.414zm12.293-.003l1.414-1.414 1.414 1.414-1.414 1.414zM48.9 131.2h3.3v6.1h-3.3zm-16.8 36.5h37a1.58 1.58 0 0 1 1.6 1.6v1.2a1.58 1.58 0 0 1-1.6 1.6h-37a1.58 1.58 0 0 1-1.6-1.6v-1.2a1.58 1.58 0 0 1 1.6-1.6zm21.5-19.4v-.8h-.9v-3c0-1.2-1-2.1-2.2-2-1.1 0-2 .9-2 2v3h-.9v.8h6zm0-29.1v-.8h-.9v-3c0-1.2-1-2.1-2.2-2-1.1 0-2 .9-2 2v3h-.9v.8h6z" class="I J"/></svg>