<svg xmlns="http://www.w3.org/2000/svg" xmlns:xlink="http://www.w3.org/1999/xlink" viewBox="0 0 200 172"><style><![CDATA[.K{fill:none}.L{enable-background:new}.M{stroke-linecap:round}.N{stroke-linejoin:round}.O{stroke-width:.799}.P{stroke-miterlimit:10}.Q{fill:#fff}.R{opacity:.2}.S{stroke-width:.399}.T{stroke:#fff}.U{opacity:.3}.V{stroke-width:1.597}.W{opacity:.1}.X{stroke:#000}]]></style><linearGradient id="A" gradientUnits="userSpaceOnUse" x1="99.25" y1="172.5" x2="99.25" y2="24.995"><stop offset="0" stop-color="#1d7ee8"/><stop offset="1" stop-color="#2ea7db"/></linearGradient><path d="M14 110.8v61.7h170.5v-62.4c0-49-41.5-88.3-91.3-84.9C48.4 28.3 14 66 14 110.8z" fill="url(#A)"/><path d="M54 97.3V67.6L42 51.9v59.7h-9V81.8H9v90.5h177v-38.8h-12V87.8h-24v24.8h-12V69.9l-20-17.2v60.9h-3V80.8H94v13.9h-3V66.3L84.3 58H66.6L61 65.6v31.1z" class="L R"/><path d="M0 161.7h173.3v10.4H0z" class="L R"/><linearGradient id="B" gradientUnits="userSpaceOnUse" x1="26" y1="127.05" x2="56" y2="127.05"><stop offset="0" stop-color="#3651bf"/><stop offset="1" stop-color="#2e5bdb"/></linearGradient><path fill="url(#B)" d="M26 173V81.1l30 33V173H26"/><linearGradient id="C" gradientUnits="userSpaceOnUse" x1="22.988" y1="127.05" x2="26.008" y2="127.05"><stop offset="0" stop-color="#2e3192"/><stop offset="1" stop-color="#4c3ea1"/></linearGradient><path fill="url(#C)" d="M23 173h3V81.1l-3 3.2z"/><linearGradient id="D" gradientUnits="userSpaceOnUse" x1="99.801" y1="155.55" x2="122.399" y2="155.55"><stop offset="0" stop-color="#4c3ea1"/><stop offset="1" stop-color="#2e3192"/></linearGradient><g class="K M N"><path stroke="url(#D)" d="M121.6 152.8l-2.9 6.2-6.9-4.6-7 4.6-4.2-6.9" class="V"/><path d="M111.5 124.9v34.7" class="O U X"/></g><linearGradient id="E" gradientUnits="userSpaceOnUse" x1="111.134" y1="142.25" x2="111.933" y2="142.25"><stop offset="0" stop-color="#4c3ea1"/><stop offset="1" stop-color="#2e3192"/></linearGradient><path stroke="url(#E)" d="M111.5 124.9v34.7" class="K M N O"/><linearGradient id="F" gradientUnits="userSpaceOnUse" x1="82.692" y1="109.85" x2="92.077" y2="109.85"><stop offset="0" stop-color="#4c3ea1"/><stop offset="1" stop-color="#2e3192"/></linearGradient><path stroke="url(#F)" d="M85.1 114.5l-1.6-8.1 7.8-1.2" class="K M N V"/><linearGradient id="G" gradientUnits="userSpaceOnUse" x1="77.436" y1="134.25" x2="101.433" y2="134.25"><stop offset="0" stop-color="#4c3ea1"/><stop offset="1" stop-color="#2e3192"/></linearGradient><path stroke="url(#G)" d="M100.6 152.1l-7.8 1.9-1.5-8.2-7.8-1.8 1.5-7.5-6.6-4 4.5-7-4.7-6.1 6.9-4.9" class="K M N V"/><linearGradient id="H" gradientUnits="userSpaceOnUse" x1="90.501" y1="123.1" x2="145.899" y2="123.1"><stop offset="0" stop-color="#4c3ea1"/><stop offset="1" stop-color="#2e3192"/></linearGradient><path stroke="url(#H)" d="M91.3 105.2l1.4-8 7.8 1.4 4.4-6.4 6.7 4.6 6.9-4.6 4.1 6.7 8.1-1.6 1.2 7.9 8.2 2-1.9 7.3 6.9 5-4.6 6 4.4 6.4-6.7 4.6 1.7 7.7-8 1.6-1.2 8.2-9.1-1.2" class="K M N V"/><linearGradient id="I" gradientUnits="userSpaceOnUse" x1="76.801" y1="125.6" x2="146.599" y2="125.6"><stop offset="0" stop-color="#4c3ea1"/><stop offset="1" stop-color="#2e3192"/></linearGradient><circle cx="111.7" cy="125.6" r="34.1" stroke="url(#I)" class="K V"/><linearGradient id="J" gradientUnits="userSpaceOnUse" x1="82.501" y1="125.5" x2="140.799" y2="125.5"><stop offset="0" stop-color="#4c3ea1"/><stop offset="1" stop-color="#2e3192"/></linearGradient><path stroke="url(#J)" d="M82.9 125.5h57.5" class="K M N O"/><linearGradient id="K" gradientUnits="userSpaceOnUse" x1="90.901" y1="125.5" x2="132.354" y2="125.5"><stop offset="0" stop-color="#4c3ea1"/><stop offset="1" stop-color="#2e3192"/></linearGradient><path stroke="url(#K)" d="M91.3 145.8l40.6-40.6" class="K M N O"/><g class="K"><path stroke="url(#K)" d="M91.3 105.2l40.6 40.6" class="M N O"/><path d="M122.6 152.1l2 4.8" stroke="#999" class="P S"/></g><linearGradient id="L" gradientUnits="userSpaceOnUse" x1="84.601" y1="125.5" x2="138.599" y2="125.5"><stop offset="0" stop-color="#4c3ea1"/><stop offset="1" stop-color="#2e3192"/></linearGradient><path stroke="url(#L)" d="M85 136.5l53.2-22" class="K M N O"/><linearGradient id="M" gradientUnits="userSpaceOnUse" x1="111.222" y1="111.15" x2="112.021" y2="111.15"><stop offset="0" stop-color="#4c3ea1"/><stop offset="1" stop-color="#2e3192"/></linearGradient><path stroke="url(#M)" d="M111.6 96.8v28.7" class="K M N O"/><linearGradient id="N" gradientUnits="userSpaceOnUse" x1="100.201" y1="125.5" x2="122.999" y2="125.5"><stop offset="0" stop-color="#4c3ea1"/><stop offset="1" stop-color="#2e3192"/></linearGradient><path stroke="url(#N)" d="M100.6 98.9l22 53.2" class="K M N O"/><g class="K"><path stroke="url(#N)" d="M100.6 152.1l22-53.2" class="M N O"/><path d="M98.6 156.9l2-4.8" stroke="#999" class="P S"/></g><path stroke="url(#L)" d="M85 114.5l53.2 22" class="K M N O"/><linearGradient id="O" gradientUnits="userSpaceOnUse" x1="65.91" y1="125.5" x2="74.257" y2="125.5"><stop offset="0" stop-color="#451088"/><stop offset="1" stop-color="#593179"/></linearGradient><use xlink:href="#z" fill="url(#O)"/><path d="M66 126.2h8.2" class="K P S T"/><path d="M67.7 124.1h1.5a.68.68 0 1 1 0 1.4h-1.5a.68.68 0 1 1 0-1.4zm3.3 0h1.5a.68.68 0 1 1 0 1.4H71a.68.68 0 1 1 0-1.4z" class="L Q R"/><linearGradient id="P" gradientUnits="userSpaceOnUse" x1="68.518" y1="112" x2="76.865" y2="112"><stop offset="0" stop-color="#451088"/><stop offset="1" stop-color="#593179"/></linearGradient><path d="M71 109.5h3.4c1.4 0 2.5 1.1 2.5 2.5s-1.1 2.5-2.5 2.5H71c-1.4 0-2.5-1.1-2.5-2.5s1.1-2.5 2.5-2.5z" fill="url(#P)"/><path d="M68.6 112.7h8.2" class="K P S T"/><use xlink:href="#AA" class="L Q R"/><linearGradient id="Q" gradientUnits="userSpaceOnUse" x1="88.4" y1="89.8" x2="96.747" y2="89.8"><stop offset="0" stop-color="#451088"/><stop offset="1" stop-color="#593179"/></linearGradient><path d="M90.9 87.3h3.4c1.4 0 2.5 1.1 2.5 2.5s-1.1 2.5-2.5 2.5h-3.4c-1.4 0-2.5-1.1-2.5-2.5 0-1.5 1.1-2.5 2.5-2.5z" fill="url(#Q)"/><path d="M88.5 90.5h8.2" class="K P S T"/><path d="M90.2 88.4h1.5a.68.68 0 1 1 0 1.4h-1.5a.68.68 0 1 1 0-1.4zm3.3 0H95a.68.68 0 1 1 0 1.4h-1.5a.68.68 0 1 1 0-1.4z" class="L Q R"/><path d="M107.5 86.3h8.2m-6.4-2.1h1.5a.68.68 0 1 1 0 1.4h-1.5a.68.68 0 1 1 0-1.4zm3.2 0h1.5a.68.68 0 1 1 0 1.4h-1.5a.68.68 0 0 1-.7-.7c.1-.4.4-.7.7-.7z" stroke="#999" class="K P S"/><linearGradient id="R" gradientUnits="userSpaceOnUse" x1="75.144" y1="100.4" x2="83.49" y2="100.4"><stop offset="0" stop-color="#451088"/><stop offset="1" stop-color="#593179"/></linearGradient><path d="M77.6 97.9H81c1.4 0 2.5 1.1 2.5 2.5s-1.1 2.5-2.5 2.5h-3.4c-1.4 0-2.5-1.1-2.5-2.5.1-1.4 1.1-2.5 2.5-2.5z" fill="url(#R)"/><path d="M75.2 101.1h8.2" class="K P S T"/><path d="M77 99h1.5a.68.68 0 1 1 0 1.4H77a.68.68 0 1 1 0-1.4zm3.2 0h1.5a.68.68 0 1 1 0 1.4h-1.5a.68.68 0 0 1-.7-.7c.1-.4.3-.7.7-.7z" class="L Q R"/><linearGradient id="S" gradientUnits="userSpaceOnUse" x1="149.018" y1="125.4" x2="157.364" y2="125.4"><stop offset="0" stop-color="#451088"/><stop offset="1" stop-color="#593179"/></linearGradient><path d="M154.9 127.9h-3.4c-1.4 0-2.5-1.1-2.5-2.5s1.1-2.5 2.5-2.5h3.4c1.4 0 2.5 1.1 2.5 2.5-.1 1.4-1.1 2.5-2.5 2.5z" fill="url(#S)"/><path d="M157.3 126.2h-8.2" class="K P S T"/><path d="M155.6 125.5h-1.4a.68.68 0 1 1 0-1.4h1.5a.68.68 0 0 1 .7.7c-.2.4-.4.7-.8.7zm-3.3 0h-1.5a.68.68 0 1 1 0-1.4h1.5a.68.68 0 1 1 0 1.4z" class="L Q R"/><linearGradient id="T" gradientUnits="userSpaceOnUse" x1="146.4" y1="112" x2="154.747" y2="112"><stop offset="0" stop-color="#451088"/><stop offset="1" stop-color="#593179"/></linearGradient><path d="M152.3 114.5h-3.4c-1.4 0-2.5-1.1-2.5-2.5s1.1-2.5 2.5-2.5h3.4c1.4 0 2.5 1.1 2.5 2.5 0 1.3-1.2 2.5-2.5 2.5z" fill="url(#T)"/><path d="M154.7 112.7h-8.3" class="K P S T"/><path d="M153 112.1h-1.5a.68.68 0 1 1 0-1.4h1.5a.68.68 0 0 1 .7.7c-.1.3-.4.7-.7.7zm-3.3 0h-1.5a.68.68 0 1 1 0-1.4h1.5a.68.68 0 0 1 .7.7c0 .3-.4.7-.7.7z" class="Q R"/><linearGradient id="U" gradientUnits="userSpaceOnUse" x1="126.537" y1="89.7" x2="134.884" y2="89.7"><stop offset="0" stop-color="#451088"/><stop offset="1" stop-color="#593179"/></linearGradient><path d="M132.4 92.2H129c-1.4 0-2.5-1.1-2.5-2.5s1.1-2.5 2.5-2.5h3.4c1.4 0 2.5 1.1 2.5 2.5s-1.1 2.5-2.5 2.5z" fill="url(#U)"/><path d="M134.8 90.5h-8.2" class="K P S T"/><path d="M133.1 89.8h-1.5a.68.68 0 1 1 0-1.4h1.5a.68.68 0 0 1 .7.7c-.1.4-.3.7-.7.7zm-3.3 0h-1.5a.68.68 0 1 1 0-1.4h1.5a.68.68 0 1 1 0 1.4z" class="L Q R"/><linearGradient id="V" gradientUnits="userSpaceOnUse" x1="107.464" y1="85.4" x2="115.811" y2="85.4"><stop offset="0" stop-color="#451088"/><stop offset="1" stop-color="#593179"/></linearGradient><path d="M113.3 87.9h-3.4c-1.4 0-2.5-1.1-2.5-2.5s1.1-2.5 2.5-2.5h3.4c1.4 0 2.5 1.1 2.5 2.5 0 1.5-1.1 2.5-2.5 2.5z" fill="url(#V)"/><path d="M115.7 86.3h-8.2" class="K P S T"/><path d="M114 85.5h-1.5a.68.68 0 1 1 0-1.4h1.5a.68.68 0 1 1 0 1.4zm-3.3 0h-1.5a.68.68 0 1 1 0-1.4h1.5a.68.68 0 1 1 0 1.4z" class="L Q R"/><linearGradient id="W" gradientUnits="userSpaceOnUse" x1="139.776" y1="100.3" x2="148.123" y2="100.3"><stop offset="0" stop-color="#451088"/><stop offset="1" stop-color="#593179"/></linearGradient><path d="M145.7 102.8h-3.4c-1.4 0-2.5-1.1-2.5-2.5s1.1-2.5 2.5-2.5h3.4c1.4 0 2.5 1.1 2.5 2.5-.1 1.4-1.2 2.5-2.5 2.5z" fill="url(#W)"/><path d="M148.1 101.1h-8.2" class="K P S T"/><path d="M146.3 100.4h-1.5a.68.68 0 1 1 0-1.4h1.5a.68.68 0 1 1 0 1.4zm-3.2 0h-1.5a.68.68 0 1 1 0-1.4h1.5a.68.68 0 0 1 .7.7c-.1.4-.4.7-.7.7z" class="L Q R"/><linearGradient id="X" gradientUnits="userSpaceOnUse" x1="65.919" y1="125.5" x2="74.265" y2="125.5"><stop offset="0" stop-color="#451088"/><stop offset="1" stop-color="#593179"/></linearGradient><use xlink:href="#z" x="2.4" y="14.4" fill="url(#X)"/><path d="M68.4 140.7h8.2" class="K P S T"/><use xlink:href="#AA" x="-0.2" y="27.9" class="L Q R"/><linearGradient id="Y" gradientUnits="userSpaceOnUse" x1="65.9" y1="125.5" x2="74.247" y2="125.5"><stop offset="0" stop-color="#451088"/><stop offset="1" stop-color="#593179"/></linearGradient><use xlink:href="#z" x="80.5" y="14.4" fill="url(#Y)"/><path d="M146.4 140.7h8.3" class="K P S T"/><use xlink:href="#AA" x="77.9" y="27.9" class="L Q R"/><path d="M145.8 125.7c0 18.8-15.3 34.1-34.1 34.1s-34.1-15.3-34.1-34.1 15.3-34.1 34.1-34.1c18.9 0 34.1 15.2 34.1 34.1z" class="K L P U V X"/><linearGradient id="Z" gradientUnits="userSpaceOnUse" x1="93.6" y1="144.6" x2="129.6" y2="144.6"><stop offset="0" stop-color="#4c3ea1"/><stop offset="1" stop-color="#2e3192"/></linearGradient><path fill="url(#Z)" d="M112.2 122.8l-13.4 43.7h-5.2l18.4-43.7-.8-.1 18.4 43.8h-5.2L111 122.8"/><path d="M112.2 122.9l-13.4 43.8h-5.2l18.4-43.8-.8-.1 18.4 43.9h-5.2L111 122.8"/><linearGradient id="a" gradientUnits="userSpaceOnUse" x1="111.222" y1="94.15" x2="112.021" y2="94.15"><stop offset="0" stop-color="#4c3ea1"/><stop offset="1" stop-color="#2e3192"/></linearGradient><path stroke="url(#a)" d="M111.6 96.8v-5.3" class="K M N O"/><linearGradient id="b" gradientUnits="userSpaceOnUse" x1="139.984" y1="125.5" x2="146.054" y2="125.5"><stop offset="0" stop-color="#4c3ea1"/><stop offset="1" stop-color="#2e3192"/></linearGradient><path stroke="url(#b)" d="M140.4 125.5h5.2" class="K M N O"/><linearGradient id="c" gradientUnits="userSpaceOnUse" x1="77.201" y1="125.5" x2="83.271" y2="125.5"><stop offset="0" stop-color="#4c3ea1"/><stop offset="1" stop-color="#2e3192"/></linearGradient><path stroke="url(#c)" d="M77.6 125.5h5.3" class="K M N O"/><linearGradient id="d" gradientUnits="userSpaceOnUse" x1="131.561" y1="103.3" x2="136.082" y2="103.3"><stop offset="0" stop-color="#4c3ea1"/><stop offset="1" stop-color="#2e3192"/></linearGradient><path stroke="url(#d)" d="M131.9 105.2l3.8-3.8" class="K M N O"/><linearGradient id="e" gradientUnits="userSpaceOnUse" x1="87.16" y1="147.7" x2="91.681" y2="147.7"><stop offset="0" stop-color="#4c3ea1"/><stop offset="1" stop-color="#2e3192"/></linearGradient><path stroke="url(#e)" d="M87.6 149.6l3.7-3.8" class="K M N O"/><linearGradient id="f" gradientUnits="userSpaceOnUse" x1="131.561" y1="147.7" x2="136.082" y2="147.7"><stop offset="0" stop-color="#4c3ea1"/><stop offset="1" stop-color="#2e3192"/></linearGradient><path stroke="url(#f)" d="M131.9 145.8l3.8 3.8" class="K M N O"/><linearGradient id="g" gradientUnits="userSpaceOnUse" x1="137.801" y1="113.5" x2="143.46" y2="113.5"><stop offset="0" stop-color="#4c3ea1"/><stop offset="1" stop-color="#2e3192"/></linearGradient><path stroke="url(#g)" d="M138.2 114.5l4.9-2" class="K M N O"/><linearGradient id="h" gradientUnits="userSpaceOnUse" x1="79.784" y1="137.5" x2="85.439" y2="137.5"><stop offset="0" stop-color="#4c3ea1"/><stop offset="1" stop-color="#2e3192"/></linearGradient><path stroke="url(#h)" d="M80.2 138.5l4.8-2" class="K M N O"/><linearGradient id="i" gradientUnits="userSpaceOnUse" x1="122.232" y1="96.5" x2="125.044" y2="96.5"><stop offset="0" stop-color="#4c3ea1"/><stop offset="1" stop-color="#2e3192"/></linearGradient><path stroke="url(#i)" d="M122.6 98.9l2-4.8" class="K M N O"/><linearGradient id="j" gradientUnits="userSpaceOnUse" x1="137.801" y1="137.5" x2="143.46" y2="137.5"><stop offset="0" stop-color="#4c3ea1"/><stop offset="1" stop-color="#2e3192"/></linearGradient><path stroke="url(#j)" d="M138.2 136.5l4.9 2" class="K M N O"/><linearGradient id="k" gradientUnits="userSpaceOnUse" x1="98.201" y1="96.5" x2="101.012" y2="96.5"><stop offset="0" stop-color="#4c3ea1"/><stop offset="1" stop-color="#2e3192"/></linearGradient><path stroke="url(#k)" d="M100.6 98.9l-2-4.8" class="K M N O"/><linearGradient id="l" gradientUnits="userSpaceOnUse" x1="87.16" y1="103.3" x2="91.681" y2="103.3"><stop offset="0" stop-color="#4c3ea1"/><stop offset="1" stop-color="#2e3192"/></linearGradient><path stroke="url(#l)" d="M91.3 105.2l-3.7-3.8" class="K M N O"/><linearGradient id="m" gradientUnits="userSpaceOnUse" x1="79.784" y1="113.5" x2="85.439" y2="113.5"><stop offset="0" stop-color="#4c3ea1"/><stop offset="1" stop-color="#2e3192"/></linearGradient><g class="K M N O"><path stroke="url(#m)" d="M80.2 112.5l4.8 2"/><path d="M111.6 96.8v-5.3m28.8 34h5.2m-68 0h5.3m49-20.3l3.8-3.8m-48.1 48.2l3.7-3.8m40.6 0l3.8 3.8m2.5-35.1l4.9-2m-62.9 26l4.8-2m37.6-37.6l2-4.8m13.6 42.4l4.9 2m-42.5-39.6l-2-4.8m-7.3 11.1l-3.7-3.8m-7.4 11.1l4.8 2" class="U X"/></g><path d="M127.4 166.5h2.2l-17.3-41.3zm-31.6.2h-2.1l17.2-41.3z" class="L U"/><linearGradient id="n" gradientUnits="userSpaceOnUse" x1="108.958" y1="125.5" x2="114.285" y2="125.5"><stop offset="0" stop-color="#4c3ea1"/><stop offset="1" stop-color="#2e3192"/></linearGradient><use xlink:href="#AB" fill="url(#n)"/><use xlink:href="#AB" class="L U"/><linearGradient id="o" gradientUnits="userSpaceOnUse" x1="82.101" y1="125.6" x2="141.207" y2="125.6"><stop offset="0" stop-color="#4c3ea1"/><stop offset="1" stop-color="#2e3192"/></linearGradient><g class="K V"><circle cx="111.7" cy="125.6" r="28.8" stroke="url(#o)"/><circle cx="111.7" cy="125.6" r="28.8" class="L U X"/></g><linearGradient id="p" gradientUnits="userSpaceOnUse" x1="162.907" y1="109.25" x2="200.211" y2="109.25"><stop offset="0" stop-color="#451088"/><stop offset="1" stop-color="#593179"/></linearGradient><path d="M200.3 172.5V45.9c-20.2 0-36.7 7-37.3 15.8v110.9l37.3-.1z" fill="url(#p)"/><path d="M200.3 172.8V45.9c-20.2 0-36.8 7.1-37.4 15.9v111h37.4z" class="L U"/><linearGradient id="q" gradientUnits="userSpaceOnUse" x1="158" y1="112.7" x2="194" y2="112.7"><stop offset="0" stop-color="#451088"/><stop offset="1" stop-color="#593179"/></linearGradient><path d="M194 172V53.4c-20 0-35.8 6.9-36 15.5V171l36 1z" fill="url(#q)"/><path d="M194 66.8c-16.9 0-31.2 4-36 9.6V79c4.8-5.5 19.1-9.6 36-9.6v-2.6zm0 9.6c-16.9 0-31.2 4-36 9.6v2.6c4.8-5.5 19.1-9.6 36-9.6v-2.6zm0 9.6c-16.9 0-31.2 4-36 9.6v2.6c4.8-5.5 19.1-9.6 36-9.6V86zm0 9.7c-16.9 0-31.2 4-36 9.6v2.6c4.8-5.5 19.1-9.6 36-9.6v-2.6zm0 9.6c-16.9 0-31.2 4-36 9.6v2.6c4.8-5.5 19.1-9.6 36-9.6v-2.6zm0 9.7c-16.9 0-31.2 4-36 9.6v2.6c4.8-5.5 19.1-9.6 36-9.6V115zm0 9.6c-16.9 0-31.2 4-36 9.6v2.6c4.8-5.5 19.1-9.6 36-9.6v-2.6z" class="L U"/><path d="M194 58.6v-4c-17.5 0-32.1 5.4-35.5 12.7 5.8-5 19.5-8.6 35.5-8.7z" opacity=".4"/><linearGradient id="r" gradientUnits="userSpaceOnUse" x1="146.446" y1="151.7" x2="175.446" y2="151.7"><stop offset="0" stop-color="#451088"/><stop offset="1" stop-color="#593179"/></linearGradient><path fill="url(#r)" d="M146.4 172.5h29l-3.7-41.6h-21.5z"/><linearGradient id="s" gradientUnits="userSpaceOnUse" x1="133.5" y1="151.8" x2="150.731" y2="151.8"><stop offset="0" stop-color="#451088"/><stop offset="1" stop-color="#593179"/></linearGradient><path fill="url(#s)" d="M150.8 130.8h-17.3v42H147z"/><linearGradient id="t" gradientUnits="userSpaceOnUse" x1="171.725" y1="151.5" x2="193.091" y2="151.5"><stop offset="0" stop-color="#451088"/><stop offset="1" stop-color="#593179"/></linearGradient><path fill="url(#t)" d="M171.7 130.7l3.8 41.6h17.6v-41.6z"/><linearGradient id="u" gradientUnits="userSpaceOnUse" x1="129" y1="151.5" x2="134.984" y2="151.5"><stop offset="0" stop-color="#451088"/><stop offset="1" stop-color="#593179"/></linearGradient><path fill="url(#u)" d="M129 130h6v43h-6z"/><linearGradient id="v" gradientUnits="userSpaceOnUse" x1="146.3" y1="152" x2="175.563" y2="152"><stop offset="0" stop-color="#451088"/><stop offset="1" stop-color="#593179"/></linearGradient><path fill="url(#v)" d="M146.3 173h29.3l-3.8-42h-21.7z"/><path d="M151.1 131H135v42h12.6zm21 0l3.9 42h18v-42z" opacity=".15" class="L"/><path d="M135 140h59v2h-59zm0 7h59v2h-59zm0 6h59v2h-59zm0 7h59v2h-59zm0 7h59v2h-59z" class="L U"/><path d="M146.496 172.44l3.626-41.44.398.035-3.626 41.442zm25.292-41.643l.398-.035 3.626 41.442-.398.035z" class="L W"/><path d="M150.7 136l.5-5H135v5zm43.3 0v-5h-22.2l.4 5z" class="L W"/><path d="M172.5 136l-.5-5h-21.7l-.5 5z" class="L W"/><path d="M129 130h6v43h-6z" class="L Q W"/><path d="M129 130h6v7h-6z" class="L W"/><linearGradient id="w" gradientUnits="userSpaceOnUse" x1="25" y1="102.5" x2="0" y2="102.5"><stop offset="0" stop-color="#3651bf"/><stop offset="1" stop-color="#2e5bdb"/></linearGradient><path d="M0 101.1V173h25v-72h-2V69.5l-8.1-20.4-.7-2-.2-.7v-3.9l-.6-2-.4-.6V32h-1v7.9l-.2.6-1.8 2v4l.4.7-.7 2L2 69.5V101l-2 .1zM8.1 70l4.1-11.7 4 11.7H8.1z" fill="url(#w)"/><path d="M10 46.6l.4.7-8.1 22-.2.4v31.2h-.2l-1.9.2V173l4.1-.2v-67.9h20.7v-1H4.1v-1h20.7v-2H5.1V74h17.7v-1H5.1v-2h17.7v-1H5.4L14 46.3v-3.8l-.6-2-.4-.6V32h-1v7.9l-.2.6-1.8 2.1zm37.9 92.2h35.6v3H47.9z" class="L U"/><linearGradient id="x" gradientUnits="userSpaceOnUse" x1="45.588" y1="155.6" x2="47.976" y2="155.6"><stop offset="0" stop-color="#2e59bf"/><stop offset="1" stop-color="#593192"/></linearGradient><path fill="url(#x)" d="M45.6 144.7v27.8H48v-33.8z"/><path d="M31 134h20v2H31zm0 4h20v2H31zm0 5h20v2H31zm0 4h20v2H31zm0 4h20v2H31zm0 4h20v2H31zm0 5h20v2H31zm0 4h20v2H31zm0-38h20v2H31zm0 4h20v2H31z" opacity=".15" class="Q"/><g opacity=".7"><defs><path id="y" d="M29 120h22v-4L29 92.3z"/><path id="z" d="M68.4 123h3.4c1.4 0 2.5 1.1 2.5 2.5s-1.1 2.5-2.5 2.5h-3.4c-1.4 0-2.5-1.1-2.5-2.5s1.1-2.5 2.5-2.5z"/><path id="AA" d="M70.3 110.7h1.5a.68.68 0 1 1 0 1.4h-1.5a.68.68 0 1 1 0-1.4zm3.3 0h1.5a.68.68 0 1 1 0 1.4h-1.5a.68.68 0 1 1 0-1.4z"/><path id="AB" d="M113.1 122.6h-2.9l-1.3 1.2v3.4l1.3 1.2h2.9l1.2-1.2v-3.4z"/><path id="AC" d="M51 153h8v3h-8zm0 5h8v3h-8zm0 5h8v3h-8zm0-20h8v3h-8zm0 5h8v3h-8z"/></defs><clipPath id="AD"><use xlink:href="#y"/></clipPath><g clip-path="url(#AD)" class="L Q"><path d="M32 102h20v2H32zm0 4h20v2H32zm0-8h20v2H32zm0 12h20v2H32zm0 4h20v2H32z" class="R"/></g></g><linearGradient id="AE" gradientUnits="userSpaceOnUse" x1="84" y1="155.543" x2="48" y2="155.543"><stop offset="0" stop-color="#2e59bf"/><stop offset="1" stop-color="#593192"/></linearGradient><path fill="url(#AE)" d="M48 139h36v33.1H48z"/><path d="M45.6 144.8v27.8H48v-33.8z" opacity=".15" class="L"/><g class="Q L"><path d="M16 77h2v20h-2zm-8 0h2v20H8zm4 0h2v20h-2zm3 31h2v60h-2zm4 0h2v60h-2zm-12 0h2v60H7zm4 0h2v60h-2z" class="W"/><use xlink:href="#AC" opacity=".08"/><use xlink:href="#AC" x="11" opacity=".08"/><use xlink:href="#AC" x="22" opacity=".08"/></g></svg>