<svg xmlns="http://www.w3.org/2000/svg" xmlns:xlink="http://www.w3.org/1999/xlink" viewBox="0 0 200 172"><style>.E{enable-background:new}.F{fill:#fff}.G{opacity:.2}</style><linearGradient id="A" x1="176" x2="177.6" y1="44.5" y2="44.5" gradientUnits="userSpaceOnUse"><stop offset="0" stop-color="#3651bf"/><stop offset="1" stop-color="#2e5bdb"/></linearGradient><path fill="url(#A)" d="M176 42.3h1.6v4.4H176z"/><linearGradient id="B" x1="176.4" x2="177.2" y1="35.45" y2="35.45" gradientUnits="userSpaceOnUse"><stop offset="0" stop-color="#3651bf"/><stop offset="1" stop-color="#2e5bdb"/></linearGradient><path fill="url(#B)" d="M176.4 28.6h.8v13.7h-.8z"/><linearGradient id="C" x1="187.2" x2="188.8" y1="44.5" y2="44.5" gradientUnits="userSpaceOnUse"><stop offset="0" stop-color="#3651bf"/><stop offset="1" stop-color="#2e5bdb"/></linearGradient><path fill="url(#C)" d="M187.2 42.3h1.6v4.4h-1.6z"/><linearGradient id="D" x1="187.6" x2="188.4" y1="35.45" y2="35.45" gradientUnits="userSpaceOnUse"><stop offset="0" stop-color="#3651bf"/><stop offset="1" stop-color="#2e5bdb"/></linearGradient><path fill="url(#D)" d="M187.6 28.6h.8v13.7h-.8z"/><path d="M175.9 42.3h1.6v4.4h-1.6zm.4-13.7h.8v13.7h-.8zm10.8 13.7h1.6v4.4h-1.6zm.4-13.7h.8v13.7h-.8z" opacity=".3"/><linearGradient id="E" x1="98.002" x2="98.465" y1="172.569" y2="25.108" gradientUnits="userSpaceOnUse"><stop offset="0" stop-color="#1d7ee8"/><stop offset="1" stop-color="#2ea7db"/></linearGradient><path fill="url(#E)" d="M12.5 111.2l-.3 61.1 171.5.1.3-61.4c.2-49.3-41.4-89-91.6-85.7-45 3.1-79.7 40.9-79.9 85.9z"/><path d="M38 82.4l22-6.5V105h9V92h75v17h7V84h27v88.5H37V83" class="E G"/><linearGradient id="F" x1="0" x2="42" y1="115.35" y2="115.35" gradientUnits="userSpaceOnUse"><stop offset="0" stop-color="#3651bf"/><stop offset="1" stop-color="#2e5bdb"/></linearGradient><path fill="url(#F)" d="M0 172.5V58.2l42 41.3v73H0"/><linearGradient id="G" x1="168" x2="196" y1="109.25" y2="109.25" gradientUnits="userSpaceOnUse"><stop offset="0" stop-color="#2e65ca"/><stop offset="1" stop-color="#2e74db"/></linearGradient><path fill="url(#G)" d="M168 46h28v126.5h-28z"/><path d="M168 45.9h28v3.9l-28 .1z" class="E" opacity=".3"/><linearGradient id="H" x1="172" x2="200" y1="109.235" y2="109.235" gradientUnits="userSpaceOnUse"><stop offset="0" stop-color="#4c3ea1"/><stop offset="1" stop-color="#2e3192"/></linearGradient><path fill="url(#H)" d="M172 94v52h24v26.5h4v-46.8l-2-2.3v-75l-2-2.4v96h-20V96.8l-4-4.1"/><path fill="#373e9b" d="M35.4 133l-3.2 2.9v36.8h3.2V133"/><linearGradient id="I" x1="59.9" x2="132.5" y1="105.25" y2="105.25" gradientUnits="userSpaceOnUse"><stop offset="0" stop-color="#2e59bf"/><stop offset="1" stop-color="#593192"/></linearGradient><path fill="url(#I)" d="M112.3 61h-9.8v-4.4h-.4V37.8h-.8v18.8h-.4V61h-10v-4.4h-.4V37.8h-.8v18.8h-.4V61H80L59.9 172.7h72.6z"/><path fill="none" stroke="#fff" stroke-miterlimit="10" stroke-width="1.207" d="M105.5 65.5L117 172.6M87.2 65.5L75.7 172.6m20.6-107v107.1" opacity=".1"/><linearGradient id="J" x1="67.8" x2="132.6" y1="119.4" y2="119.4" gradientUnits="userSpaceOnUse"><stop offset="0" stop-color="#4531a7"/><stop offset="1" stop-color="#423179"/></linearGradient><path fill="url(#J)" d="M131.4 172.6l-63.6-39.1 49-25.7-41.7-19.5 38.1-22.1.4 2-35.2 20 41.9 19.5-49.4 25.9 61.7 38.6z"/><linearGradient id="K" x1="59.8" x2="124.6" y1="119.5" y2="119.5" gradientUnits="userSpaceOnUse"><stop offset="0" stop-color="#4531a7"/><stop offset="1" stop-color="#423179"/></linearGradient><path fill="url(#K)" d="M60.5 172.6l-.7-.4 61.7-38.6-49.4-25.9L114 88.2l-35.2-20 .3-1.8 38.2 21.9-41.7 19.5 49 25.7z"/><path d="M113.1 65.6l-33.9-.1.8-4.5h32.3z" class="E" opacity=".3"/><g class="F"><path d="M107.3 62.3h1.6v1.6h-1.6zm-5.2 0h1.6v1.6h-1.6zm-4.8 0h1.6v1.6h-1.6zm-4.4 0h1.6v1.6h-1.6zm-4.4 0h1.6v1.6h-1.6zm-4.9 0h1.6v1.6h-1.6z" opacity=".8"/><path d="M8 130h28v3H8zm0 6h28v3H8zm0 5h28v3H8zm0 6h28v3H8zm0 6h28v3H8zm0 6h28v3H8zm0 6h28v3H8zm0-47h28v3H8zm0 6h28v3H8z" opacity=".15"/></g><g opacity=".6"><defs><path id="L" d="M5 111h29.9l-.2-7.2L5 74.5z"/></defs><clipPath id="M"><use xlink:href="#L"/></clipPath><g class="E F" clip-path="url(#M)"><path d="M8 85h28v3H8zm0 6h28v3H8zm0-17h28v3H8zm0 5h28v3H8zm0 17h28v3H8zm0 6h28v3H8z" class="G"/></g></g><path d="M172 62h20v3h-20zm0 5h20v3h-20zm0 6h20v3h-20zm0-21h20v3h-20zm0 5h20v3h-20zm0 31h20v3h-20zm0 5h20v3h-20zm0 5h20v3h-20zm0-20h20v3h-20zm0 5h20v3h-20zm0 20h20v3h-20zm0 16h20v3h-20zm0 5h20v3h-20zm0 5h20v3h-20zm0-21h20v3h-20zm0 6h20v3h-20zm0 20h20v3h-20z" class="E F" opacity=".1"/><linearGradient id="N" x1="156" x2="172" y1="132.75" y2="132.75" gradientUnits="userSpaceOnUse"><stop offset="0" stop-color="#2e59bf"/><stop offset="1" stop-color="#593192"/></linearGradient><path fill="url(#N)" d="M156 93h16v79.5h-16z"/><linearGradient id="O" x1="139" x2="196" y1="148.75" y2="148.75" gradientUnits="userSpaceOnUse"><stop offset="0" stop-color="#2e59bf"/><stop offset="1" stop-color="#593192"/></linearGradient><path fill="url(#O)" d="M196 146h-24v-21h-33v47.5h57z"/><path d="M139 125h33v4h-33zm17-32h16v4h-16z" class="E" opacity=".3"/><path d="M171.5 124.8l4 4v16.7h-4z" class="E G"/><path d="M160 104h8v3h-8zm0 5h8v3h-8zm0 5h8v3h-8zm0-15h8v3h-8zm0 20h8v3h-8zm-15 23h22v3h-22zm0-10h22v3h-22zm0 5h22v3h-22zm-1 23h46v3h-46zm0 5h46v3h-46zm0-15h46v3h-46zm0 5h46v3h-46z" class="E F" opacity=".1"/><linearGradient id="P" x1="71.289" x2="145.227" y1="168.75" y2="168.75" gradientUnits="userSpaceOnUse"><stop offset="0" stop-color="#2e3192"/><stop offset="1" stop-color="#2f0b81"/></linearGradient><path fill="url(#P)" d="M144.4 165h-72c-.5 0-.9.3-1 .7-.1.5.2 1.2.7 1.3H84v5.5h5V167h10v5.5h5V167h11v5.5h5V167h10v5.5h5V167h9.3c.5 0 .9-.3 1-.7.1-.5-.2-1.2-.7-1.3h-.2z"/><linearGradient id="Q" x1="73.193" x2="139.131" y1="159" y2="159" gradientUnits="userSpaceOnUse"><stop offset="0" stop-color="#451088"/><stop offset="1" stop-color="#593179"/></linearGradient><path fill="url(#Q)" d="M136.6 154h-16c-1.4 0-2.5 1.2-2.6 2.6v5.4h-1v-5.3c0-1.5-1.1-2.6-2.6-2.7H98.6c-1.4 0-2.5 1.1-2.6 2.7v5.3h-2v-5.3c0-1.5-1.1-2.6-2.6-2.7H75.6c-1.4 0-2.5 1.1-2.6 2.7v4.8c0 1.4 1.1 2.5 2.6 2.5h15.8c1.2 0 2.2-.8 2.5-2h2.2c.2 1.2.8 2 2 2h16.3c1.2 0 2.2-.8 2.5-2h1.1c.2 1.2 1.3 2 2.5 2h15.8c1.4 0 2.5-1.1 2.6-2.5v-4.9c.3-1.4-.9-2.6-2.3-2.6z"/><path d="M135.1 156.3h2.8c.4 0 .8.4.8.8v2.8c0 .4-.4.8-.8.8h-2.8c-.4 0-.8-.4-.8-.8v-2.8c-.1-.4.3-.8.8-.8zm-5.2 0h2.8c.4 0 .8.4.8.8v2.8c0 .4-.4.8-.8.8h-2.8c-.4 0-.8-.4-.8-.8v-2.8c-.1-.4.3-.8.8-.8zm-4.9 0h2.8c.4 0 .8.4.8.8v2.8c0 .4-.4.8-.8.8H125c-.4 0-.8-.4-.8-.8v-2.8c0-.4.4-.8.8-.8zm-5.2 0h2.8c.4 0 .8.4.8.8v2.8c0 .4-.4.8-.8.8h-2.8c-.4 0-.8-.4-.8-.8v-2.8c0-.4.3-.8.8-.8zm-7.2 0h2.8c.4 0 .8.4.8.8v2.8c0 .4-.4.8-.8.8h-2.8c-.4 0-.8-.4-.8-.8v-2.8c-.1-.4.3-.8.8-.8zm-4.8 0h2.8c.4 0 .8.4.8.8v2.8c0 .4-.4.8-.8.8h-2.8c-.4 0-.8-.4-.8-.8v-2.8c-.1-.4.3-.8.8-.8zm-5.3 0h2.8c.4 0 .8.4.8.8v2.8c0 .4-.4.8-.8.8h-2.8c-.4 0-.8-.4-.8-.8v-2.8c0-.4.4-.8.8-.8zm-5.2 0h2.8c.4 0 .8.4.8.8v2.8c0 .4-.4.8-.8.8h-2.8c-.4 0-.8-.4-.8-.8v-2.8c0-.4.3-.8.8-.8zm-7.2 0h2.8c.4 0 .8.4.8.8v2.8c0 .4-.4.8-.8.8h-2.8c-.4 0-.8-.4-.8-.8v-2.8c0-.4.3-.8.8-.8zm-4.8 0h2.8c.4 0 .8.4.8.8v2.8c0 .4-.4.8-.8.8h-2.8c-.4 0-.8-.4-.8-.8v-2.8c-.1-.4.3-.8.8-.8zm-5.2 0h2.8c.4 0 .8.4.8.8v2.8c0 .4-.4.8-.8.8h-2.8c-.4 0-.8-.4-.8-.8v-2.8c-.1-.4.3-.8.8-.8zm-5.3 0h2.8c.4 0 .8.4.8.8v2.8c0 .4-.4.8-.8.8h-2.8c-.4 0-.8-.4-.8-.8v-2.8c0-.4.4-.8.8-.8z" class="E F G"/><linearGradient id="R" x1="35" x2="71" y1="152.75" y2="152.75" gradientUnits="userSpaceOnUse"><stop offset="0" stop-color="#2e60e8"/><stop offset="1" stop-color="#2e74db"/></linearGradient><path fill="url(#R)" d="M35 133h36v39.5H35z"/><path d="M35 133h36v3H35z" class="E G"/><path d="M38 150h8v3h-8zm0 5h8v3h-8zm0 5h8v3h-8zm0-20h8v3h-8zm0 5h8v3h-8zm11 5h8v3h-8zm0 5h8v3h-8zm0 5h8v3h-8zm0-20h8v3h-8zm0 5h8v3h-8zm11 5h8v3h-8zm0 5h8v3h-8zm0 5h8v3h-8zm-22 5h8v3h-8zm11 0h8v3h-8zm11 0h8v3h-8zm0-25h8v3h-8zm0 5h8v3h-8z" class="E F" opacity=".1"/></svg>