<svg xmlns="http://www.w3.org/2000/svg" xmlns:xlink="http://www.w3.org/1999/xlink" viewBox="0 0 200 172"><style><![CDATA[.R{enable-background:new}.S{opacity:.2}.T{opacity:.3}.U{opacity:.15}.V{opacity:.24}.W{opacity:.1}.X{opacity:.5}.Y{fill:#fff}.Z{opacity:.4}.a{opacity:.25}.b{opacity:.05}.c{stroke-linejoin:round}.d{stroke-width:.337}]]></style><linearGradient id="A" gradientUnits="userSpaceOnUse" x1="96.149" y1="172.102" x2="96.609" y2="25.597"><stop offset="0" stop-color="#1d7ee8"/><stop offset="1" stop-color="#2ea7db"/></linearGradient><path d="M1.2 120.5l-.4 51.1 190.7.8-.9-52c.2-54.4-45.8-98.2-101.2-94.6C39.8 29 1.3 70.7 1.2 120.5z" fill="url(#A)"/><path d="M191 121h-1v-1h-13V79h-25v24h-12V62.6l-21-16V104h-3V72H93v16H74V37H57v51h-7V60.8L37 45.6V101H27V73H2v98.5l189 1v-14.1z" class="R S"/><linearGradient id="B" gradientUnits="userSpaceOnUse" x1="110.508" y1="35.65" x2="111.142" y2="35.65"><stop offset="0" stop-color="#2e59bf"/><stop offset="1" stop-color="#593192"/></linearGradient><path fill="url(#B)" d="M110.5 42.1V29.2h.6V42"/><linearGradient id="C" gradientUnits="userSpaceOnUse" x1="95.75" y1="46.037" x2="95.75" y2="45.398"><stop offset="0" stop-color="#2e59bf"/><stop offset="1" stop-color="#593192"/></linearGradient><path fill="url(#C)" d="M97.2 46h-2.9v-.6h2.9"/><linearGradient id="D" gradientUnits="userSpaceOnUse" x1="124.5" y1="45.7" x2="127.362" y2="45.7"><stop offset="0" stop-color="#2e59bf"/><stop offset="1" stop-color="#593192"/></linearGradient><path fill="url(#D)" d="M124.5 46h2.9v-.6h-2.9"/><linearGradient id="E" gradientUnits="userSpaceOnUse" x1="98.9" y1="55.9" x2="102.494" y2="55.9"><stop offset="0" stop-color="#2e59bf"/><stop offset="1" stop-color="#593192"/></linearGradient><path fill="url(#E)" d="M101.9 54.2l-3 3 .4.4 3.2-3.1"/><linearGradient id="F" gradientUnits="userSpaceOnUse" x1="120.553" y1="36.431" x2="120.102" y2="35.98"><stop offset="0" stop-color="#2e59bf"/><stop offset="1" stop-color="#593192"/></linearGradient><path fill="url(#F)" d="M118.1 37.9l4.2-4.1.5.5-4.1 4"/><linearGradient id="G" gradientUnits="userSpaceOnUse" x1="119.443" y1="55.7" x2="122.744" y2="55.7"><stop offset="0" stop-color="#2e59bf"/><stop offset="1" stop-color="#593192"/></linearGradient><path fill="url(#G)" d="M119.4 54.5l2.9 2.8.5-.4-2.8-2.8"/><linearGradient id="H" gradientUnits="userSpaceOnUse" x1="101.27" y1="36.085" x2="101.718" y2="35.637"><stop offset="0" stop-color="#2e59bf"/><stop offset="1" stop-color="#593192"/></linearGradient><path fill="url(#H)" d="M103.1 38.2L98.9 34l.4-.5 4.4 4.4"/><linearGradient id="I" gradientUnits="userSpaceOnUse" x1="93.966" y1="45.7" x2="127.684" y2="45.7"><stop offset="0" stop-color="#2e59bf"/><stop offset="1" stop-color="#593192"/></linearGradient><path d="M110.8 28.8c-9.3 0-16.9 7.5-16.9 16.9s7.5 16.9 16.9 16.9 16.9-7.5 16.9-16.9c0-9.3-7.6-16.9-16.9-16.9zm0 33.1c-9 0-16.2-7.3-16.2-16.2s7.3-16.2 16.2-16.2S127 36.8 127 45.7c.1 9-7.2 16.2-16.2 16.2z" fill="url(#I)"/><linearGradient id="J" gradientUnits="userSpaceOnUse" x1="107.8" y1="33.7" x2="113.843" y2="33.7"><stop offset="0" stop-color="#2e59bf"/><stop offset="1" stop-color="#593192"/></linearGradient><path fill="url(#J)" d="M111.9 33.1v-1.3h-2.2v1.3h-1.9v2.5h6v-2.5z"/><path d="M111.9 33.1v-1.3h-2.2v1.3h-1.9v2.5h6v-2.5z" class="R U"/><path d="M98.1 48.9h25.5v2.3H98.1z" class="R T Y"/><linearGradient id="K" gradientUnits="userSpaceOnUse" x1="98" y1="101" x2="124.882" y2="101"><stop offset="0" stop-color="#2e59bf"/><stop offset="1" stop-color="#593192"/></linearGradient><path d="M98 51.1v.6c0 .8.6 1.4 1.4 1.3h.1l5.5 3.5V151h2v-10h2v10h4v-10h3v10h2V56.5l6.2-3.5h-.6c.7 0 1.4-.6 1.4-1.5V51l-27 .1zm11 88.9h-2v-8h2v8zm0-23h-2v-8h2v8zm0-8h-2v-8h2v8zm0-23h-2v-8h2v8zm0-9h-2v-9h2v9zm0-9h-2v-9h2v9zm7 72h-3v-8h3v8zm0-23h-3v-8h3v8zm0-8h-3v-8h3v8zm0-23h-3v-8h3v8zm0-9h-3v-9h3v9zm0-9h-3v-9h3v9z" fill="url(#K)"/><path d="M97.2 42.3h27.3v7H97.2z" class="R T Y"/><linearGradient id="L" gradientUnits="userSpaceOnUse" x1="97.2" y1="38.9" x2="124.5" y2="38.9"><stop offset="0" stop-color="#2e59bf"/><stop offset="1" stop-color="#593192"/></linearGradient><path d="M123 40.7l-9.2-5.4H108l-4.2 2.5-5 2.9h-.1c-.8 0-1.4.6-1.5 1.3v.5h27.3V42c-.1-.7-.7-1.3-1.5-1.3z" fill="url(#L)"/><linearGradient id="M" gradientUnits="userSpaceOnUse" x1="97.224" y1="48.964" x2="124.624" y2="48.964"><stop offset="0" stop-color="#451088"/><stop offset="1" stop-color="#593179"/></linearGradient><path fill="url(#M)" d="M97.3 48.7h27.4v.6H97.3z"/><path d="M123 40.7H98.7c-.8 0-1.4.6-1.5 1.3v.5h27.3V42c-.1-.7-.7-1.3-1.5-1.3zM99.5 53h24.1c.7 0 1.4-.5 1.4-1.4v-.5H98v.5c.1.9.7 1.5 1.5 1.4z" class="R U"/><path d="M114.6 35.9l-.8-.5h-5.9l-.9.5z" class="R S"/><linearGradient id="N" gradientUnits="userSpaceOnUse" x1="97.129" y1="49.028" x2="124.529" y2="49.028"><stop offset="0" stop-color="#2e59bf"/><stop offset="1" stop-color="#593192"/></linearGradient><path fill="url(#N)" d="M97.2 48.7h27.4v.6H97.2z"/><path d="M105 57h13v1.3h-13z" class="R S"/><linearGradient id="O" gradientUnits="userSpaceOnUse" x1="105.02" y1="104.742" x2="107.091" y2="104.742"><stop offset="0" stop-color="#2e59bf"/><stop offset="1" stop-color="#593192"/></linearGradient><path fill="url(#O)" d="M105 59h2.1v91.6H105z" class="W"/><linearGradient id="P" gradientUnits="userSpaceOnUse" x1="108.929" y1="104.832" x2="112.929" y2="104.832"><stop offset="0" stop-color="#2e59bf"/><stop offset="1" stop-color="#593192"/></linearGradient><path fill="url(#P)" d="M108.9 58.8h4v92h-4z" class="S"/><linearGradient id="Q" gradientUnits="userSpaceOnUse" x1="115.988" y1="104.742" x2="117.955" y2="104.742"><stop offset="0" stop-color="#2e59bf"/><stop offset="1" stop-color="#593192"/></linearGradient><path fill="url(#Q)" d="M116 58.9h2v91.7h-2z" class="W"/><path d="M105 56.1h13v.3h-13z" class="R S"/><linearGradient id="R" gradientUnits="userSpaceOnUse" x1="177.5" y1="121.3" x2="129.5" y2="121.3"><stop offset="0" stop-color="#2e60e8"/><stop offset="1" stop-color="#2e74db"/></linearGradient><path fill="url(#R)" d="M129.5 83.8h48v75h-48z"/><g class="Y"><path d="M132.8 154h2.1v2.1h-2.1z" class="R X"/><path d="M140.3 154h2.1v2.1h-2.1z"/><path d="M147.8 154h2.1v2.1h-2.1z" class="R X"/><path d="M155.3 153.5h2.1v2.1h-2.1z"/><use xlink:href="#Ag" class="R X"/><path d="M140.3 146.4h2.1v2.1h-2.1z"/><path d="M147.8 146.4h2.1v2.1h-2.1z" class="R X"/><path d="M155.3 146h2.1v2.1h-2.1z"/><use xlink:href="#Ag" y="-7.5" class="R X"/><path d="M140.3 138.9h2.1v2.1h-2.1z"/><path d="M147.8 138.9h2.1v2.1h-2.1z" class="R X"/><path d="M155.3 138.5h2.1v2.1h-2.1z"/><use xlink:href="#Ag" y="-15" class="R X"/><path d="M140.3 131.4h2.1v2.1h-2.1z"/><path d="M147.8 131.4h2.1v2.1h-2.1z" class="R X"/><path d="M155.3 130.9h2.1v2.1h-2.1z"/><path d="M163.4 130.9h2.1v2.1h-2.1zm7.5 0h2.1v2.1h-2.1z" class="R X"/><path d="M132.8 123.9h2.1v2.1h-2.1z"/><path d="M140.3 123.9h2.1v2.1h-2.1zm7.5 0h2.1v2.1h-2.1zm7.5-.5h2.1v2.1h-2.1zm8.1 0h2.1v2.1h-2.1z" class="R X"/><path d="M170.9 123.4h2.1v2.1h-2.1z"/><path d="M132.8 116.3h2.1v2.1h-2.1zm7.5 0h2.1v2.1h-2.1zm7.5 0h2.1v2.1h-2.1z" class="R X"/><path d="M155.3 115.9h2.1v2.1h-2.1z"/><path d="M163.4 115.9h2.1v2.1h-2.1zm7.5 0h2.1v2.1h-2.1zm-38.1-7.6h2.1v2.1h-2.1zm7.5 0h2.1v2.1h-2.1zm7.5 0h2.1v2.1h-2.1zm7.5-.4h2.1v2.1h-2.1zm8.1 0h2.1v2.1h-2.1z" class="R X"/><path d="M170.9 107.9h2.1v2.1h-2.1z"/><path d="M132.8 100.8h2.1v2.1h-2.1z" class="R X"/><path d="M140.3 100.8h2.1v2.1h-2.1z"/><path d="M163.4 100.3h2.1v2.1h-2.1zm7.5 0h2.1v2.1h-2.1z" class="R X"/><path d="M163.4 92.8h2.1v2.1h-2.1z"/><path d="M170.9 92.8h2.1v2.1h-2.1z" class="R X"/></g><path d="M129.5 83.8h48v4h-48z" class="R S"/><linearGradient id="S" gradientUnits="userSpaceOnUse" x1="161.5" y1="102.1" x2="191.599" y2="102.1"><stop offset="0" stop-color="#3651bf"/><stop offset="1" stop-color="#2e5bdb"/></linearGradient><path fill="url(#S)" d="M161.5 79.5v-.1l15.2-47.5 14.9 47.4-.1 93h-30V79.6z"/><linearGradient id="T" gradientUnits="userSpaceOnUse" x1="200.5" y1="102.25" x2="176.7" y2="102.25"><stop offset="0" stop-color="#3651bf"/><stop offset="1" stop-color="#2e5bdb"/></linearGradient><path fill="url(#T)" d="M183.7 34.9l16.8 44.4-.1 93-8.8.3V79.2l-14.9-47.3z"/><path d="M183.7 34.9l16.9 44.7-.1 92.6h-8.9v-93l-14.9-47.3z" class="R T"/><linearGradient id="U" gradientUnits="userSpaceOnUse" x1="156.5" y1="125.75" x2="191.7" y2="125.75"><stop offset="0" stop-color="#3651bf"/><stop offset="1" stop-color="#2e5bdb"/></linearGradient><path fill="url(#U)" d="M156.5 172.3l35.2-.1-.1-93-35.1 69.9z"/><path d="M186.6 92h5.1v-.4h-4.8l4.8-9.4v-2.8h-5.8V68.2h2.4l-.3-.2h-2.3v-7.2l-.6-1.8v9H180V56.8h4.4l-.1-.3H180V42.7l-.6-1.8v15.7h-5.1V39.1l-.6 1.8v15.7h-5l-.1.3h5.1V68h-5.1V57l-.6 1.8v9.1h-2.9l-.1.3h3v11.1h-5.1v-4.4l-.6 1.8v60.7l-6 12v23.1h35.2v-.4h-5.8v-10.7h5.8v-.4h-5.8v-10.7h5.8v-.4h-5.8v-10.4h5.8v-.4h-5.8v-11.2h5.8v-.4h-5.8v-12.4h5.8v-.4h-5.8v-11h5.8v-.4h-5.8v-9.7l.9-1.6zm-24.1 80.1h-4.8v-10.7h4.8v10.7zm0-11.1h-4.8v-10.7h4.8V161zm0-11.1h-4.8l4.8-9.6v9.6zm.5-22.1h4.3l-4.3 8.5v-8.5zm5.2 44.3h-5.1v-10.7h5.1v10.7zm0-11.1h-5.1v-10.7h5.1V161zm0-11.1h-5.1v-10.3h5.1v10.3zm0-10.8h-5.1l5.1-10.2v10.2zm0-13.1l-.7 1.5h-4.4V115h5.1v11zm0-11.3h-5.1v-11.1h5.1v11.1zm0-11.4h-5.1V92.1h5.1v11.2zm0-11.5h-5.1V79.6h5.1v12.2zm23.2-12.2l-5.5 11.1V79.6h5.5zm-17-22.8h5.1v11.1h-5.1V56.8zm-5.7 58.2h4.9l-4.9 9.9V115zm5.2 57.1h-5.1v-10.7h5.1v10.7zm0-11.1h-5.1v-10.7h5.1V161zm0-11.1h-5.1v-10.3h5.1v10.3zm0-10.8h-5.1v-11.2h5.1v11.2zm0-11.7h-5l5-9.9v9.9zm0-12.8l-5.1.1v-11.1h5.1v11zm0-11.3h-5.1V92.1h5.1v11.2zm0-11.5h-5.1V79.6h5.1v12.2zm-5.2-12.5V68.2h5.1v11.1h-5.1zm5.7 24.4h4.9l-4.9 9.9v-9.9zm5.2 68.4h-5.1v-10.7h5.1v10.7zm0-11.1h-5.1v-10.7h5.1V161zm0-11.1h-5.1v-10.4h5.1v10.4zm0-10.8h-5.1v-11.2h5.1v11.2zm0-11.6h-5.1v-11.1l.7-1.3h4.5l-.1 12.4zm0-12.8h-4.3l4.3-8.6v8.6zm0-11.4l-5.1.1V92.1h5.1v11.2zm0-11.5h-5.1V79.6h5.1v12.2zm-5.2-12.5V68.2h5.1v11.1h-5.1zm5.7 12.8h5l-5 10v-10zm5.1 80h-5.1v-10.7h5.1v10.7zm0-11.1h-5.1v-10.7h5.1V161zm0-11.1h-5.1v-10.4h5.1v10.4zm0-10.8h-5.1v-11.2h5.1v11.2zm0-11.7h-5.1v-12.3h5.1v12.3zm0-12.8h-5.1V105l.6-1.2h4.5v10.8zm0-11.3H181l4.3-8.6v8.6h-.1zm0-11.5h-5.1V79.6h5.1v12.2zm-5.1-12.5V68.2h5.1v11.1h-5.1z" class="R S"/><linearGradient id="V" gradientUnits="userSpaceOnUse" x1="84.999" y1="144.5" x2="16.999" y2="144.5"><stop offset="0" stop-color="#451088"/><stop offset="1" stop-color="#593179"/></linearGradient><path fill="url(#V)" d="M17 117h68v55H17z"/><linearGradient id="W" gradientUnits="userSpaceOnUse" x1="84" y1="111" x2="16" y2="111"><stop offset="0" stop-color="#451088"/><stop offset="1" stop-color="#593179"/></linearGradient><path fill="url(#W)" d="M16 103h68v16H16z"/><path d="M15 103h74v16H15z" class="R a"/><path d="M22 119h68v53.5H22z" class="R U"/><linearGradient id="X" gradientUnits="userSpaceOnUse" x1="64.5" y1="103.45" x2="6.599" y2="103.45"><stop offset="0" stop-color="#451088"/><stop offset="1" stop-color="#593179"/></linearGradient><path fill="url(#X)" d="M35.6 92.9L6.6 114h57.9z"/><path d="M35.5 114.8h29L35.6 93" class="R W Y"/><path d="M36 114H6.6l29-21.2" class="R W"/><linearGradient id="Y" gradientUnits="userSpaceOnUse" x1="64" y1="143.25" x2="7" y2="143.25"><stop offset="0" stop-color="#451088"/><stop offset="1" stop-color="#593179"/></linearGradient><path fill="url(#Y)" d="M8.7 114H64v1h-1v1h-1v56.5H9V116H8v-1H7v-1z"/><path d="M8.7 114H64v1h-1v1h-1v56.5H9V116H8v-1H7v-1z" class="R Y b"/><path d="M21 114h30v1H21z" class="R Z"/><path d="M21 115h29v1H21z" class="R S"/><linearGradient id="Z" gradientUnits="userSpaceOnUse" x1="48.08" y1="145.5" x2="23.036" y2="145.5"><stop offset="0" stop-color="#451088"/><stop offset="1" stop-color="#593179"/></linearGradient><path fill="url(#Z)" d="M23 119h25v53H23z"/><path d="M21 118h30v1H21z" class="R T"/><path d="M21 118h29v1H21zm6 21z" class="R S"/><linearGradient id="a" gradientUnits="userSpaceOnUse" x1="36.231" y1="97.55" x2="34.909" y2="97.55"><stop offset="0" stop-color="#451088"/><stop offset="1" stop-color="#593179"/></linearGradient><path d="M34.9 97.5c0-.4.4-.6.7-.6.4 0 .6.4.6.7 0 .4-.3.6-.7.6-.3 0-.6-.3-.6-.7z" fill="url(#a)"/><linearGradient id="b" gradientUnits="userSpaceOnUse" x1="42.921" y1="102.35" x2="41.599" y2="102.35"><stop offset="0" stop-color="#451088"/><stop offset="1" stop-color="#593179"/></linearGradient><path d="M41.6 102.3c0-.4.4-.6.7-.6.4 0 .6.4.6.7 0 .4-.3.6-.7.6-.3 0-.6-.4-.6-.7z" fill="url(#b)"/><linearGradient id="c" gradientUnits="userSpaceOnUse" x1="29.545" y1="102.35" x2="28.219" y2="102.35"><stop offset="0" stop-color="#451088"/><stop offset="1" stop-color="#593179"/></linearGradient><path d="M28.2 102.3c0-.4.4-.6.7-.6.4 0 .6.4.6.7 0 .4-.3.6-.7.6-.3 0-.6-.4-.6-.7z" fill="url(#c)"/><linearGradient id="d" gradientUnits="userSpaceOnUse" x1="44.927" y1="107.5" x2="27.014" y2="107.5"><stop offset="0" stop-color="#451088"/><stop offset="1" stop-color="#593179"/></linearGradient><path d="M28 105v-1h.2c-.2-.3-.4-.5-.3-.7 0-.2.1-.3.3-.3h1.3c.2 0 .4.2.3.4 0 .2-.1.3-.3.6H29h2v-2.9l4.4-2.4c-.2 0-.4-.2-.3-.4 0-.2.1-.3.3-.3h1.4c.2 0 .4.2.3.4 0 .2-.1.3-.3.3l4.3 2.4v2.9h.7c-.2-.3-.4-.5-.3-.7 0-.2.1-.3.3-.3H43c.2 0 .4.2.3.4 0 .2-.1.3-.3.6h1v13H28v-13h-1v1h1z" fill="url(#d)"/><path d="M34.9 97.5c0-.4.4-.6.7-.6.4 0 .6.4.6.7 0 .4-.3.6-.7.6-.3 0-.6-.3-.6-.7z" class="R Z"/><path d="M31 101h9v1h-9z" class="R T"/><path d="M31.2 101l3.8-2.4c-.2 0-.4-.2-.3-.4 0-.2.1-.3.3-.3h1.2c.2 0 .4.2.3.4 0 .2-.1.3-.3.3L40 101h-8.8z" class="R a"/><path d="M27 104h17v1H27zm0 1zm3 5h4v4h-4z" class="R T"/><path d="M30 115h5v1h-5z" class="R S"/><path d="M30 108h4v2h-4zm7.2 2.2H41v4.2h-3.8z" class="R T"/><path d="M36.6 115.5h4.7v.2h-4.7z" class="R S"/><path d="M37.1 107.9h3.8v1.8h-3.8z" class="R T"/><path d="M41.6 102.3c0-.4.4-.6.7-.6.4 0 .6.4.6.7 0 .4-.3.6-.7.6-.3 0-.6-.4-.6-.7zm-13.3 0c0-.4.4-.6.7-.6.4 0 .6.4.6.7 0 .4-.3.6-.7.6s-.7-.4-.6-.7z" opacity=".45" class="R"/><path d="M30 104h-2v1-1h.2c-.2-.3-.4-.5-.3-.7 0-.2.1-.3.3-.3h1.3c.2 0 .4.2.3.4 0 .2-.1.3-.3.6H29h1zm13.4-.1v.4h-2.2v-.4h.8v-.2h-.3c-.2 0-.4-.2-.3-.4 0-.2.1-.3.3-.3H43c.2 0 .4.2.3.4 0 .2-.1.3-.3.3h-.3v.2h.7z" class="R Z"/><path d="M33.2 103.2h4.7v.2h-4.7z" class="R S"/><path d="M37.6 125.6h5.5v7.2h-5.5z" class="R T"/><path d="M36.9 134.6h6.9v.4h-6.9z" class="R S"/><path d="M37.6 121.4h5.5v3.1h-5.5zM28 126h5v7h-5z" class="R T"/><path d="M27 134h7v1h-7z" class="R S"/><path d="M28 121h5v3h-5zm9.6 26.4h5.5v7.2h-5.5z" class="R T"/><path d="M36.9 156.4h6.9v.4h-6.9z" class="R S"/><path d="M37.6 143.3h5.5v3.1h-5.5zM28 147h5v7h-5z" class="R T"/><path d="M27 157z" class="R S"/><path d="M28 143h5v3h-5z" class="R T"/><path d="M27 161z" class="R S"/><path d="M37.7 164.3h5.5v8h-5.5zM28 164h6v8h-6z" class="R T"/><linearGradient id="e" gradientUnits="userSpaceOnUse" x1="66.979" y1="143.25" x2="48.002" y2="143.25"><stop offset="0" stop-color="#451088"/><stop offset="1" stop-color="#593179"/></linearGradient><path fill="url(#e)" d="M48.9 114H67v2h-1v56.5H48V116h1v-1h-1v-1z"/><path d="M56.5 172.3h-9v-56.5h1v-2h-1v1h10" class="R U"/><linearGradient id="f" gradientUnits="userSpaceOnUse" x1="57.881" y1="96" x2="56.164" y2="96"><stop offset="0" stop-color="#451088"/><stop offset="1" stop-color="#593179"/></linearGradient><path d="M56.4 95.1h1.2c.2 0 .3.1.3.3s-.1.3-.3.3h-.3v.9c0 .2-.1.3-.3.3s-.3-.1-.3-.3v-1h-.3c-.2 0-.3-.1-.3-.3 0-.1.2-.2.3-.2z" fill="url(#f)"/><linearGradient id="g" gradientUnits="userSpaceOnUse" x1="57.597" y1="94.5" x2="56.448" y2="94.5"><stop offset="0" stop-color="#451088"/><stop offset="1" stop-color="#593179"/></linearGradient><circle cx="57" cy="94.5" fill="url(#g)" r=".6"/><path d="M49.5 135.6h15v.4h-15zm9.2-2.7h5.5v.4h-5.5z" class="R S"/><path d="M59.2 121.8h4.3v2.6h-4.3zm.2 3.5h4.3v2.6h-4.3zm0 3.5h4.3v2.6h-4.3z" class="R V"/><path d="M49.9 132.9h5.5v.4h-5.5z" class="R S"/><path d="M50.4 121.8h4.3v2.6h-4.3zm.1 3.5h4.3v2.6h-4.3zm0 3.5h4.3v2.6h-4.3z" class="R V"/><linearGradient id="h" gradientUnits="userSpaceOnUse" x1="66.3" y1="118.4" x2="47.755" y2="118.4"><stop offset="0" stop-color="#451088"/><stop offset="1" stop-color="#593179"/></linearGradient><path fill="url(#h)" d="M66.3 117.7v.7h-.4v.7H48.1v-.7h-.4v-.7z"/><path d="M47.7 117.7h18.5v.7H47.7z" class="R T"/><path d="M48.1 118.4h17.7v.7H48.1z" class="R S"/><path d="M47.7 114.3h18.5v.7H47.7z" class="R T"/><path d="M48.1 115h17.7v.7H48.1z" class="R S"/><linearGradient id="i" gradientUnits="userSpaceOnUse" x1="65.599" y1="105.45" x2="48.4" y2="105.45"><stop offset="0" stop-color="#451088"/><stop offset="1" stop-color="#593179"/></linearGradient><path fill="url(#i)" d="M57 96.1l-4.3 9.3-4.3 9.4h17.2l-4.3-9.4z"/><path d="M57 114.9h-8.6l4.3-9.6 4-9v-.6h-.3c-.2 0-.3-.1-.3-.3s.1-.3.3-.3h.6m0-1.3c.4 0 .6.2.7.6s-.2.6-.6.7c-.4 0-.6-.2-.7-.6 0-.3.3-.6.6-.7" class="R U"/><path d="M48.4 140.4v.5h17.2v-.5h-.3v-1.2h.3v-1H48.4v2.2zm13.3-1.2h2.8v1.2h-2.8v-1.2zm-3.4 0H61v1.2h-2.8l.1-1.2zm-3.5 0h2.7v1.2h-2.8l.1-1.2zm-3.4 0h2.7v1.2h-2.8l.1-1.2zm-2.3 1.2v-1.2h1.7v1.2h-1.7zm.4 16.8h15v.4h-15zm9.2-2.5h5.5v.4h-5.5z" class="R S"/><path d="M59.2 143.7h4.3v2.6h-4.3zm.2 3.4h4.3v2.6h-4.3zm0 3.5h4.3v2.6h-4.3z" class="R V"/><path d="M49.9 154.7h5.5v.4h-5.5z" class="R S"/><path d="M50.4 143.7h4.3v2.6h-4.3zm.1 3.4h4.3v2.6h-4.3zm0 3.5h4.3v2.6h-4.3z" class="R V"/><path d="M50.5 163.5h4.3v6.1h-4.3z" class="R T"/><path d="M49.9 171.1h5.5v.4h-5.5z" class="R S"/><path d="M50.4 160h4.3v2.6h-4.3zm9 3.3h4.3v6.1h-4.3z" class="R T"/><path d="M58.7 170.9h5.5v.4h-5.5z" class="R S"/><path d="M59.2 159.8h4.3v2.6h-4.3z" class="R T"/><linearGradient id="j" gradientUnits="userSpaceOnUse" x1="24" y1="143" x2="5.956" y2="143"><stop offset="0" stop-color="#451088"/><stop offset="1" stop-color="#593179"/></linearGradient><path fill="url(#j)" d="M6.1 114H23v58H6v-58z"/><path d="M15 172H6v-58h9" class="R U"/><linearGradient id="k" gradientUnits="userSpaceOnUse" x1="15.596" y1="95.2" x2="13.88" y2="95.2"><stop offset="0" stop-color="#451088"/><stop offset="1" stop-color="#593179"/></linearGradient><path d="M14.2 94h1.2c.2.6.3.7.3.9s-.1.3-.3.1H15v1.1c0 .2-.1.3-.3.3s-.3-.1-.7-.3V95c-.2.2-.3.1-.3-.1.1-.1.3-.3.5-.9z" fill="url(#k)"/><linearGradient id="l" gradientUnits="userSpaceOnUse" x1="15.312" y1="94" x2="14.163" y2="94"><stop offset="0" stop-color="#451088"/><stop offset="1" stop-color="#593179"/></linearGradient><circle cx="14.7" cy="94" fill="url(#l)" r=".6"/><path d="M7 135zm9-2z" class="R S"/><path d="M17 121h4v3h-4zm0 4h4v3h-4zm0 3h4v3h-4z" class="R V"/><path d="M7 133z" class="R S"/><path d="M8 121h4v3H8zm0 4h4v3H8zm0 3h4v3H8z" class="R V"/><linearGradient id="m" gradientUnits="userSpaceOnUse" x1="24" y1="118" x2="4.954" y2="118"><stop offset="0" stop-color="#451088"/><stop offset="1" stop-color="#593179"/></linearGradient><path fill="url(#m)" d="M24 117v2H6v-1H5v-1z"/><path d="M5 117h19v1H5z" class="R T"/><path d="M6 118h18v1H6z" class="R S"/><path d="M5 114h19v1H5z" class="R T"/><path d="M6 114h18v1H6z" class="R S"/><linearGradient id="n" gradientUnits="userSpaceOnUse" x1="23.336" y1="104.7" x2="6.135" y2="104.7"><stop offset="0" stop-color="#451088"/><stop offset="1" stop-color="#593179"/></linearGradient><path fill="url(#n)" d="M14.7 95.4L6.1 114h17.2l-4.3-9.3z"/><path d="M15 114H5.7l4.3-9.3 4-8.7v-1h.1c-.2.3-.3.2-.3 0s.3 1 .3 1h.9m-.3-2.6c.4 0 .6.2.7.6s-.2.6-.6.7c-.4 0-.6-.2-.7-.6.1-.4.3-.7.6-.7" class="R U"/><path d="M6 140v1h17v-1h1v-1h-1v-1H6v2zm13-1h3v1h-3v-1zm-3 0h3v1h-3v-1zm-3 0h3v1h-3v-1zm-4 0h3v1H9v-1zm-2 1v-1h2v1H7zm0 17h15v1H7zm9-3z" class="R S"/><path d="M17 143h4v3h-4zm0 4h4v3h-4zm0 3h4v3h-4z" class="R V"/><path d="M7 154z" class="R S"/><path d="M8 143h4v3H8zm0 4h4v3H8zm0 3h4v3H8z" class="R V"/><path d="M8 163h4v6H8z" class="R T"/><path d="M7 170h6v1H7z" class="R S"/><path d="M8 159h4v3H8zm9 4h4v6h-4z" class="R T"/><path d="M16 170h6v1h-6z" class="R S"/><path d="M17 159h4v3h-4z" class="R T"/><linearGradient id="o" gradientUnits="userSpaceOnUse" x1="83.4" y1="144.9" x2="151.5" y2="144.9"><stop offset="0" stop-color="#451088"/><stop offset="1" stop-color="#593179"/></linearGradient><path fill="url(#o)" d="M83.4 117.2h68.1v55.4H83.4z"/><linearGradient id="p" gradientUnits="userSpaceOnUse" x1="84" y1="110.85" x2="152.1" y2="110.85"><stop offset="0" stop-color="#451088"/><stop offset="1" stop-color="#593179"/></linearGradient><path fill="url(#p)" d="M84 102.9h68.1v15.9H84z"/><path d="M81 103h74v16H81z" class="R a"/><path d="M78.5 118.8h68v53.5h-68z" class="R U"/><linearGradient id="q" gradientUnits="userSpaceOnUse" x1="103.7" y1="103.75" x2="161.6" y2="103.75"><stop offset="0" stop-color="#451088"/><stop offset="1" stop-color="#593179"/></linearGradient><path fill="url(#q)" d="M132.6 93.2l29 21.1h-57.9z"/><path d="M132.5 114.8h-28.8l28.9-21.2" class="R W Y"/><path d="M132.5 114.8h29.1l-29-21.2" class="R W"/><linearGradient id="r" gradientUnits="userSpaceOnUse" x1="103.6" y1="143.35" x2="161.6" y2="143.35"><stop offset="0" stop-color="#451088"/><stop offset="1" stop-color="#593179"/></linearGradient><path fill="url(#r)" d="M159.4 114.1h-55.8v.7h1.3v.7h.9v57.1h53.6v-57.1h.9v-.7h1.3v-.7z"/><path d="M159.4 114.1h-55.8v.7h1.3v.7h.9v57.1h53.6v-57.1h.9v-.7h1.3v-.7z" class="R Y b"/><path d="M117.7 114.3h29.8v.7h-29.8z" class="R Z"/><path d="M118.4 115h28.5v.7h-28.5z" class="R S"/><linearGradient id="s" gradientUnits="userSpaceOnUse" x1="120.25" y1="145.55" x2="146.058" y2="145.55"><stop offset="0" stop-color="#451088"/><stop offset="1" stop-color="#593179"/></linearGradient><path fill="url(#s)" d="M120.3 118.8h25.8v53.5h-25.8z"/><path d="M117.7 117.7h29.8v.7h-29.8z" class="R T"/><path d="M118.4 118.4h28.5v.7h-28.5zm5.3 21.3h17.7v.4h-17.7z" class="R S"/><linearGradient id="t" gradientUnits="userSpaceOnUse" x1="131.954" y1="98.05" x2="133.276" y2="98.05"><stop offset="0" stop-color="#451088"/><stop offset="1" stop-color="#593179"/></linearGradient><use xlink:href="#Ah" fill="url(#t)"/><linearGradient id="u" gradientUnits="userSpaceOnUse" x1="131.964" y1="98.05" x2="133.286" y2="98.05"><stop offset="0" stop-color="#451088"/><stop offset="1" stop-color="#593179"/></linearGradient><use xlink:href="#Ah" x="-6.7" y="4.7" fill="url(#u)"/><linearGradient id="v" gradientUnits="userSpaceOnUse" x1="131.945" y1="98.05" x2="133.267" y2="98.05"><stop offset="0" stop-color="#451088"/><stop offset="1" stop-color="#593179"/></linearGradient><use xlink:href="#Ah" x="6.7" y="4.7" fill="url(#v)"/><linearGradient id="w" gradientUnits="userSpaceOnUse" x1="123.957" y1="108.2" x2="141.257" y2="108.2"><stop offset="0" stop-color="#451088"/><stop offset="1" stop-color="#593179"/></linearGradient><path d="M140.5 105.2v-.8h-.9v-.2h.4c.2 0 .4-.2.3-.4 0-.2-.1-.3-.3-.3h-1.3c-.2 0-.4.2-.3.4 0 .2.1.3.3.3h.4v.2h-.8v.8h-.8V102l-4.1-2.6c.2 0 .4-.2.3-.4 0-.2-.1-.3-.3-.3h-1.3c-.2 0-.4.2-.3.4 0 .2.1.3.3.3L128 102v3.1h-.9v-.8h-.8v-.2h.4c.2 0 .4-.2.3-.4 0-.2-.1-.3-.3-.3h-1.3c-.2 0-.4.2-.3.4 0 .2.1.3.3.3h.4v.2h-.8v.8h-1v.4h.4v.4h.4v11.8h15.7V106h.4v-.4h.4v-.4h-.8z" fill="url(#w)"/><use xlink:href="#Ah" class="R Z"/><path d="M127.9 102h9.4v.4h-9.4z" class="R T"/><path d="M137.4 102l-4.1-2.6c.2 0 .4-.2.3-.4 0-.2-.1-.3-.3-.3H132c-.2 0-.4.2-.3.4 0 .2.1.3.3.3l-4.1 2.6h9.5z" class="R a"/><path d="M124 105.2h17.3v.4H124z" class="R T"/><path d="M124.4 105.6h16.5v.4h-16.5zm9.8 5.1h3.8v4.2h-3.8z" class="R T"/><path d="M133.7 115.9h4.7v.2h-4.7z" class="R S"/><path d="M134.3 108.3h3.8v1.8h-3.8zm-7.1 2.4h3.8v4.2h-3.8z" class="R T"/><path d="M126.8 115.9h4.7v.2h-4.7z" class="R S"/><path d="M127.3 108.3h3.8v1.8h-3.8z" class="R T"/><path d="M126.6 102.7c0-.4-.4-.6-.7-.6-.4 0-.6.4-.6.7 0 .4.3.6.7.6.3 0 .6-.3.6-.7zm13.3 0c0-.4-.4-.6-.7-.6-.4 0-.6.4-.6.7 0 .4.3.6.7.6s.7-.3.6-.7z" opacity=".45" class="R"/><path d="M138.1 104.4v.4h2.4v-.4h-.9v-.2h.4c.2 0 .4-.2.3-.4 0-.2-.1-.3-.3-.3h-1.3c-.2 0-.4.2-.3.4 0 .2.1.3.3.3h.4v.2h-1zm-13.3 0v.4h2.2v-.4h-.8v-.2h.4c.2 0 .4-.2.3-.4 0-.2-.1-.3-.3-.3h-1.3c-.2 0-.4.2-.3.4 0 .2.1.3.3.3h.4v.2h-.9z" class="R Z"/><path d="M130.3 103.6h4.7v.2h-4.7z" class="R S"/><path d="M125.1 126h5.5v7.2h-5.5z" class="R T"/><path d="M124.4 135.1h6.9v.4h-6.9z" class="R S"/><path d="M125.1 121.9h5.5v3.1h-5.5zm9.5 4.1h5.5v7.2h-5.5z" class="R T"/><path d="M133.9 135.1h6.9v.4h-6.9z" class="R S"/><path d="M134.6 121.9h5.5v3.1h-5.5zm-9.5 25.9h5.5v7.2h-5.5z" class="R T"/><path d="M124.4 156.7h6.9v.4h-6.9z" class="R S"/><path d="M125.1 143.7h5.5v3.1h-5.5zm9.5 4.1h5.5v7.2h-5.5z" class="R T"/><path d="M133.9 156.9h6.9v.4h-6.9z" class="R S"/><path d="M134.6 143.7h5.5v3.1h-5.5z" class="R T"/><path d="M123.7 161.3h17.7v.4h-17.7z" class="R S"/><path d="M125.1 164.6h5.5v8h-5.5zm9.6.2h5.5v7.5h-5.5z" class="R T"/><linearGradient id="x" gradientUnits="userSpaceOnUse" x1="103" y1="143.25" x2="121.015" y2="143.25"><stop offset="0" stop-color="#451088"/><stop offset="1" stop-color="#593179"/></linearGradient><path fill="url(#x)" d="M120.2 114H103v58.5h17V115h1v-1z"/><path d="M112 172.5h8.2V115h1.1v-1H112" class="R U"/><linearGradient id="y" gradientUnits="userSpaceOnUse" x1="110.304" y1="96" x2="112.021" y2="96"><stop offset="0" stop-color="#451088"/><stop offset="1" stop-color="#593179"/></linearGradient><path d="M111.8 95.1h-1.2c-.2 0-.3.1-.3.3s.1.3.3.3h.3v.9c0 .2.1.3.3.3s.3-.1.3-.3v-1h.3c.2 0 .3-.1.3-.3 0-.1-.2-.2-.3-.2z" fill="url(#y)"/><linearGradient id="z" gradientUnits="userSpaceOnUse" x1="110.588" y1="94.5" x2="111.737" y2="94.5"><stop offset="0" stop-color="#451088"/><stop offset="1" stop-color="#593179"/></linearGradient><circle cx="111.2" cy="94.5" fill="url(#z)" r=".6"/><path d="M103.7 135.6h15v.4h-15zm.3-2.7h5.5v.4H104z" class="R S"/><use xlink:href="#Ai" class="R V"/><path d="M112.9 132.9h5.5v.4h-5.5z" class="R S"/><use xlink:href="#Ai" x="8.9" class="R V"/><linearGradient id="AA" gradientUnits="userSpaceOnUse" x1="101.863" y1="118.4" x2="120.43" y2="118.4"><stop offset="0" stop-color="#451088"/><stop offset="1" stop-color="#593179"/></linearGradient><path fill="url(#AA)" d="M101.9 117.7v.7h.4v.7H120v-.7h.5v-.7z"/><path d="M101.9 117.7h18.6v.7h-18.6z" class="R T"/><path d="M102.3 118.4H120v.7h-17.7z" class="R S"/><path d="M101.9 114.3h19.2v.6h-19.2z" class="R T"/><path d="M102.3 115H120v.7h-17.7z" class="R S"/><linearGradient id="AB" gradientUnits="userSpaceOnUse" x1="102.573" y1="105" x2="119.774" y2="105"><stop offset="0" stop-color="#451088"/><stop offset="1" stop-color="#593179"/></linearGradient><path fill="url(#AB)" d="M111.2 95.7l4.3 9.3 4.2 9.3h-17.1l4.3-9.3z"/><path d="M111.2 114.3h8.6l-4.3-9.3-4-8.7v-.6h.3c.2 0 .3-.1.3-.3s-.1-.3-.3-.3h-.6" class="R U"/><path d="M111.2 93.8c-.4 0-.6.2-.7.6 0 .4.2.6.6.7s.6-.2.7-.6c0-.3-.3-.6-.6-.7" class="R U"/><path d="M120.2 139.2v-1H103v1h.3v1.2h-.3v.5h17.2v-1.7zm-13.2 1.2h-2.8v-1.2h2.8v1.2zm3.4 0h-2.8v-1.2h2.8v1.2zm3.4 0h-2.7v-1.2h2.7v1.2zm3.4 0h-2.8v-1.2h2.8v1.2zm.7 0v-1.2h1.7v1.2h-1.7zm-14.2 16.8h15v.4h-15zm.3-2.5h5.5v.4H104z" class="R S"/><use xlink:href="#Aj" class="R V"/><path d="M112.9 154.7h5.5v.4h-5.5z" class="R S"/><use xlink:href="#Aj" x="8.9" class="R V"/><path d="M113.4 163.3h4.3v6.1h-4.3z" class="R T"/><path d="M112.9 170.9h5.5v.4h-5.5z" class="R S"/><path d="M113.5 159.8h4.3v2.6h-4.3zm-9 3.5h4.3v6.1h-4.3z" class="R T"/><path d="M104 170.9h5.5v.4H104z" class="R S"/><path d="M104.6 159.8h4.3v2.6h-4.3z" class="R T"/><linearGradient id="AC" gradientUnits="userSpaceOnUse" x1="143.978" y1="143.25" x2="163.978" y2="143.25"><stop offset="0" stop-color="#451088"/><stop offset="1" stop-color="#593179"/></linearGradient><path fill="url(#AC)" d="M162.6 114H144v1h1v1h1v56.5h16V116h1v-1h1v-1z"/><path d="M153.5 172.3h8v-57.5h2v-1h-10" class="R U"/><linearGradient id="AD" gradientUnits="userSpaceOnUse" x1="152.589" y1="96" x2="154.31" y2="96"><stop offset="0" stop-color="#451088"/><stop offset="1" stop-color="#593179"/></linearGradient><path d="M154 95.1h-1.2c-.2 0-.3.1-.3.3s.1.3.3.3h.3v.9c0 .2.1.3.3.3s.3-.1.3-.3v-.9h.3c.2 0 .3-.1.3-.3s-.1-.3-.3-.3z" fill="url(#AD)"/><linearGradient id="AE" gradientUnits="userSpaceOnUse" x1="152.877" y1="94" x2="154.022" y2="94"><stop offset="0" stop-color="#451088"/><stop offset="1" stop-color="#593179"/></linearGradient><circle cx="153.5" cy="94" fill="url(#AE)" r=".6"/><path d="M146 135.6h15v.4h-15zm.3-2.7h5.5v.4h-5.5z" class="R S"/><use xlink:href="#Ai" x="42.3" class="R V"/><path d="M155.1 132.5h5.5v.4h-5.5z" class="R S"/><path d="M155.8 121.4h4.3v2.6h-4.3zm-.2 3.5h4.3v2.6h-4.3zm0 3.4h4.3v2.6h-4.3z" class="R V"/><linearGradient id="AF" gradientUnits="userSpaceOnUse" x1="144.168" y1="118.4" x2="162.713" y2="118.4"><stop offset="0" stop-color="#451088"/><stop offset="1" stop-color="#593179"/></linearGradient><path fill="url(#AF)" d="M144.2 117.7v.7h.4v.7h17.7v-.7h.4v-.7z"/><path d="M144.2 117.7h18.6v.7h-18.6z" class="R T"/><path d="M144.6 118.4h17.7v.7h-17.7z" class="R S"/><path d="M144.2 114.3h18.6v.7h-18.6z" class="R T"/><path d="M144.6 115h17.7v.7h-17.7z" class="R S"/><linearGradient id="AG" gradientUnits="userSpaceOnUse" x1="144.854" y1="105.45" x2="162.054" y2="105.45"><stop offset="0" stop-color="#451088"/><stop offset="1" stop-color="#593179"/></linearGradient><path fill="url(#AG)" d="M153.5 96.1l4.3 9.3 4.3 9.4h-17.2l4.3-9.4z"/><path d="M153.5 113.8h8.3l-4.3-9.3-4-8.7h.6c.2-.5.3-.6.3-.8s-.3-.2-.3-.2h-.6m0-1.4c-.4 0-.6.2-.7.6s.2.6.6.7c.4 0 .6-.2.7-.6-.1-.4-.3-.7-.6-.7" class="R U"/><path d="M162.1 139.2v-1H146v1h.3v1.2h-.3v.5h16.1v-1.7zm-12.5 1.2H147v-1.2h2.6v1.2zm3.2 0h-2.5v-1.2h2.6l-.1 1.2zm3.2 0h-2.6v-1.2h2.6v1.2zm3.3 0h-2.6v-1.2h2.6v1.2zm.6 0v-1.2h1.6v1.2h-1.6zM146 157.5h15v.4h-15zm.3-2.8h5.5v.4h-5.5z" class="R S"/><use xlink:href="#Aj" x="42.3" class="R V"/><path d="M155.1 154.3h5.5v.4h-5.5z" class="R S"/><path d="M155.8 143.2h4.3v2.6h-4.3zm-.2 3.5h4.3v2.6h-4.3zm0 3.4h4.3v2.6h-4.3z" class="R V"/><path d="M155.6 163.1h4.3v6.1h-4.3z" class="R T"/><path d="M155.1 170.6h5.5v.4h-5.5z" class="R S"/><path d="M155.8 159.6h4.3v2.6h-4.3zm-9 3.9h4.3v6.1h-4.3z" class="R T"/><path d="M146.3 171.1h5.5v.4h-5.5z" class="R S"/><path d="M146.9 160h4.3v2.6h-4.3z" class="R T"/><linearGradient id="AH" gradientUnits="userSpaceOnUse" x1="69.565" y1="127.85" x2="98.665" y2="127.85"><stop offset="0" stop-color="#451088"/><stop offset="1" stop-color="#593179"/></linearGradient><path fill="url(#AH)" d="M98.7 137.3v-18.9h-1.6v1.2h-26v-1.2h-1.5v18.9z"/><linearGradient id="AI" gradientUnits="userSpaceOnUse" x1="72" y1="110" x2="97" y2="110"><stop offset="0" stop-color="#451088"/><stop offset="1" stop-color="#593179"/></linearGradient><path fill="url(#AI)" d="M96 97v1h-3v1H76v-1h-3v-1h-1v26h25V97z"/><linearGradient id="AJ" gradientUnits="userSpaceOnUse" x1="74.98" y1="92.5" x2="93.935" y2="92.5"><stop offset="0" stop-color="#451088"/><stop offset="1" stop-color="#593179"/></linearGradient><path fill="url(#AJ)" d="M75 86h19v13H75z"/><path d="M89.3 86.9h4.6v11.3h-4.6z" opacity=".13" class="R"/><path d="M74.8 87h4.6v11.2h-4.6z" class="R Y b"/><linearGradient id="AK" gradientUnits="userSpaceOnUse" x1="74.758" y1="77.25" x2="93.443" y2="77.25"><stop offset="0" stop-color="#451088"/><stop offset="1" stop-color="#593179"/></linearGradient><path d="M84.1 69.4c-10.5 2.9-9.3 8.7-9.3 8.7v7h18.5v-7c.1-.1 1.3-5.8-9.2-8.7z" fill="url(#AK)"/><path d="M84.1 69.4c-10.5 2.9-9.3 8.7-9.3 8.7v7h18.5v-7c.1-.1 1.3-5.8-9.2-8.7z" class="R U"/><path d="M84.1 69.4c5.5 3.9 4.6 8.3 4.6 8.3v7.4h4.7v-7c0-.1 1.1-5.8-9.3-8.7z" opacity=".13" class="R"/><path d="M84.1 69.4c-5.5 3.9-4.6 8.3-4.6 8.3v7.4h-4.7v-7c0-.1-1.2-5.8 9.3-8.7z" class="R Y b"/><linearGradient id="AL" gradientUnits="userSpaceOnUse" x1="82.394" y1="65.85" x2="85.827" y2="65.85"><stop offset="0" stop-color="#451088"/><stop offset="1" stop-color="#593179"/></linearGradient><use xlink:href="#Ak" fill="url(#AL)"/><use xlink:href="#Ak" class="R S"/><path d="M85.5 68.8h-.2v-.2c0-.1-.1-.3-.3-.2h-.2l-.5-1.2V62h-.5v5.2l-.5 1.2h-.2c-.1 0-.3.1-.3.2v.2h-.2c-.2 0-.3.1-.3.3v.3c0 .2.1.3.3.3h2.8c.2 0 .3-.1.3-.3V69c.1-.1 0-.2-.2-.2zm.1 1c0 .1-.2.1-.2.1h-2.5c-.1 0-.2 0-.2-.1l-.7.2c0 .2.2.3.4.3h3.4c.2 0 .3-.1.4-.3l-.6-.2z" class="R S"/><linearGradient id="AM" gradientUnits="userSpaceOnUse" x1="73.558" y1="85.8" x2="94.667" y2="85.8"><stop offset="0" stop-color="#451088"/><stop offset="1" stop-color="#593179"/></linearGradient><path d="M74.3 85H94c.4 0 .8.3.8.8 0 .4-.3.8-.8.8H74.3c-.4 0-.8-.3-.8-.8.1-.5.4-.8.8-.8z" fill="url(#AM)"/><path d="M74.3 85H94c.4 0 .8.3.8.8 0 .4-.3.8-.8.8H74.3c-.4 0-.8-.3-.8-.8.1-.5.4-.8.8-.8z" class="R T"/><linearGradient id="AN" gradientUnits="userSpaceOnUse" x1="74.292" y1="86.8" x2="93.929" y2="86.8"><stop offset="0" stop-color="#451088"/><stop offset="1" stop-color="#593179"/></linearGradient><path d="M74.5 86.5h19.2c.1 0 .3.1.3.3 0 .1-.1.3-.3.3H74.5c-.1 0-.3-.1-.3-.3.1-.2.2-.3.3-.3z" fill="url(#AN)"/><path d="M74.5 86.5h19.2c.1 0 .2.1.2.2s-.1.2-.2.2H74.5c-.1 0-.2-.1-.2-.2s.1-.2.2-.2zm7.7 8.5v-5c0-.9.9-1.6 2-1.6s2 .7 2 1.6v5m-4.3.8h4.4c.1 0 .3.1.3.3 0 .1-.1.3-.3.3h-4.4c-.1 0-.3-.1-.3-.3.1-.2.2-.3.3-.3z" class="R T"/><path d="M76.1 95v-5c0-.9.5-1.6 1.2-1.6.6 0 1.2.7 1.2 1.6v5m-2.5.8h2.6c.1 0 .2.1.2.2v.1c0 .1-.1.2-.2.2H76c-.1 0-.2-.1-.2-.2V96c0-.1.1-.2.2-.2z" class="R V"/><path d="M90.3 95v-5c0-.9.5-1.6 1.2-1.6.6 0 1.2.7 1.2 1.6v5m-2.5.8h2.6c.1 0 .2.1.2.2v.1c0 .1-.1.2-.2.2h-2.6c-.1 0-.2-.1-.2-.2V96c0-.1.1-.2.2-.2z" class="R T"/><linearGradient id="AO" gradientUnits="userSpaceOnUse" x1="70.881" y1="98.6" x2="97.336" y2="98.6"><stop offset="0" stop-color="#451088"/><stop offset="1" stop-color="#593179"/></linearGradient><path d="M71.2 98.3H97c.2 0 .4.1.4.3s-.1.3-.4.3H71.2c-.2 0-.4-.1-.4-.3.1-.2.2-.3.4-.3z" fill="url(#AO)"/><path d="M71.2 98.3H97c.2 0 .3.1.3.3s-.1.3-.3.3H71.2c-.2 0-.3-.1-.3-.3s.1-.3.3-.3z" class="R T"/><linearGradient id="AP" gradientUnits="userSpaceOnUse" x1="71.5" y1="99.4" x2="96.655" y2="99.4"><stop offset="0" stop-color="#451088"/><stop offset="1" stop-color="#593179"/></linearGradient><path fill="url(#AP)" d="M84.1 96.6l12.6 5.6H71.5z"/><circle cx="84.1" cy="111.2" r="6" class="R W"/><circle cx="84.1" cy="111.2" r="5.7" class="R W"/><g opacity=".95"><circle cx="84.1" cy="111.2" r="4.9" class="Y"/><linearGradient id="AQ" gradientUnits="userSpaceOnUse" x1="84.1" y1="106.899" x2="84.1" y2="106.899"><stop offset="0" stop-color="#4531a7"/><stop offset="1" stop-color="#423179"/></linearGradient><path d="M84.1 106.9z" fill="none" stroke="url(#AQ)" class="Z c d"/><linearGradient id="AR" gradientUnits="userSpaceOnUse" x1="84.1" y1="115.5" x2="84.1" y2="115.5"><stop offset="0" stop-color="#4531a7"/><stop offset="1" stop-color="#423179"/></linearGradient><path d="M84.1 115.5z" fill="none" stroke="url(#AR)" class="Z c d"/><linearGradient id="AS" gradientUnits="userSpaceOnUse" x1="88.5" y1="111" x2="88.5" y2="111"><stop offset="0" stop-color="#4531a7"/><stop offset="1" stop-color="#423179"/></linearGradient><path d="M88.5 111z" fill="none" stroke="url(#AS)" class="Z c d"/><linearGradient id="AT" gradientUnits="userSpaceOnUse" x1="79.9" y1="111" x2="79.9" y2="111"><stop offset="0" stop-color="#4531a7"/><stop offset="1" stop-color="#423179"/></linearGradient><path d="M79.9 111z" fill="none" stroke="url(#AT)" class="Z c d"/><linearGradient id="AU" gradientUnits="userSpaceOnUse" x1="83.826" y1="110.8" x2="85.849" y2="110.8"><stop offset="0" stop-color="#4531a7"/><stop offset="1" stop-color="#423179"/></linearGradient><path fill="none" stroke="url(#AU)" stroke-width=".35" stroke-linecap="round" d="M84 108.7v2.5l1.7 1.7" class="c"/></g><path d="M95.6 122.2v-18.8H93v-1h.7v-.3h1.1l-10.3-4.8-10.3 4.8h1v.3h.7v1h-2.6v18.5l-1.3.9v-20.4l12.5-5.8 12.5 5.8v21l-1.3-.8z" class="R T"/><path d="M72.5 103.8v18.5l2-1.1v-17.4m19-1v18.8l2 .9v-19.7" class="R U"/><path d="M71.9 98h3.3v.7h-3.3zm21.9 0h3.3v.7h-3.3z" class="R T"/><linearGradient id="AV" gradientUnits="userSpaceOnUse" x1="71.533" y1="121.65" x2="96.688" y2="121.65"><stop offset="0" stop-color="#451088"/><stop offset="1" stop-color="#593179"/></linearGradient><path d="M83.8 119.5c-5.2 0-9.8 1.2-12.2 3.1v.7c2.4-1.9 7-3.1 12.2-3.1 5.7 0 10.6 1.5 12.9 3.6v-.7c-2.3-2.1-7.2-3.6-12.9-3.6z" fill="url(#AV)"/><path d="M76.8 118.3h14.6v.4H76.8zm4.7-16.6h5.3v.4h-5.3zm-4.7 2h14.6v.4H76.8zm6.3-3.3h2v.4h-2z" class="R S"/><path d="M74.8 137.3v-12.6h-3.2v12.6" class="R U"/><path d="M71.6 137.3v-17.7h-.5v-1.2h-1.5v18.9" class="R a"/><path d="M96.3 122.8c-2.4-2-7.1-3.3-12.5-3.3-5.2 0-9.8 1.2-12.2 3.1v2.3h3.9v-1.3h-.7v-.7h-2.7c2.6-1.6 6.8-2.7 11.6-2.7s9 1.1 11.6 2.7h-2v.7h-.6v1.3h3.9v-1.6l-.3-.5z" class="R T"/><path d="M96.7 137.3v-12.6h-3.3v12.6" class="R U"/><path d="M96.5 137.3v-19h2.2v19" class="R a"/><path d="M76.8 124.9h14.6v.4H76.8z" class="R S"/><path d="M76.8 127.4h3.3v2h-3.3zm11.3 0h3.3v2h-3.3zm-5.6 0h3.3v2h-3.3zm-5.7 3.3h3.3v2h-3.3zm11.3 0h3.3v2h-3.3zm-5.6 0h3.3v2h-3.3z" class="R T"/><path d="M76.8 134.8h14.6v.4H76.8z" class="R S"/><linearGradient id="AW" gradientUnits="userSpaceOnUse" x1="69.5" y1="151.3" x2="98.737" y2="151.3"><stop offset="0" stop-color="#451088"/><stop offset="1" stop-color="#593179"/></linearGradient><path fill="url(#AW)" d="M69.5 137.1h29.2v28.4H69.5z"/><path d="M69.5 137.3h29.2v1.3H69.5zm0 3h29.2v.7H69.5z" class="R S"/><path d="M70.5 138.6h.7v2h-.7zm3.4 0h.7v2h-.7zm3.3 0h.7v2h-.7zm3.3 0h.7v2h-.7zm3.3 0h.7v2h-.7zm3.3 0h.7v2h-.7zm3.3 0h.7v2h-.7zm3.3 0h.7v2h-.7zm3.3 0h.7v2H97z"/><linearGradient id="AX" gradientUnits="userSpaceOnUse" x1="69.5" y1="154.55" x2="98.5" y2="154.55"><stop offset="0" stop-color="#451088"/><stop offset="1" stop-color="#593179"/></linearGradient><path fill="url(#AX)" d="M69.5 136.8h29v35.5h-29z"/><use xlink:href="#Al" class="R T"/><path d="M76.8 142.8h14.6v.4H76.8z" class="R S"/><path d="M81.5 147.9h5.3v3.3h-5.3zm-4.7-2.7h3.3v2h-3.3zm0 2.7h3.3v3.3h-3.3zm11.3 0h3.3v3.3h-3.3zm-6.6-2.7h5.3v2h-5.3zm6.6 0h3.3v2h-3.3z" class="R T"/><path d="M76.8 153.3h14.6v.4H76.8z" class="R S"/><use xlink:href="#Al" y="17.6" class="R T"/><path d="M69.6 141.3h2v13.9h-2z" class="R S"/><path d="M71.6 141.3h1.2v13.9h-1.2z" class="R W"/><path d="M72.9 139.9h-3.4l.1 1.4h4v-.9h-.7z" class="R T"/><path d="M96.5 140.8h2.3v14h-2.3z" class="R S"/><path d="M95.4 141.3h1.2v13.9h-1.2z" class="R W"/><path d="M95.3 139.9h3.4l-.1 1.4h-3.9v-.9h.6z" class="R T"/><path d="M69.6 158.9h2v13.7h-2z" class="R S"/><path d="M71.6 158.9h1.2v13.7h-1.2z" class="R W"/><path d="M72.9 157.6h-3.4l.1 1.3h4v-.9h-.7z" class="R T"/><path d="M96.5 158.8h2.3v13.5h-2.3z" class="R S"/><path d="M95.4 158.9h1.2v13.7h-1.2z" class="R W"/><path d="M95.4 157.6h3.7l-.1 1.3h-4.3v-.9h.7zm-13.8 8.6h5.5v1.8h-5.5zm8.1 6.1v-6.8c.1-2.9-2.2-5.4-5.1-5.5s-5.4 2.2-5.5 5.1v7.4h10.6v-.2zm-5.1-11.5c1.1 0 2.1.5 2.9 1.2l-.5.5c-.7-.6-1.5-.9-2.4-1v-.7zm3.3 4h-7.1c.4-2 2.4-3.2 4.3-2.8 1.4.4 2.5 1.5 2.8 2.8zm.2 3.9v3.7h-7.4v-7.3H88c0 .3.1.5 0 .8l.1 2.8zm-4-7.9v.8c-.9 0-1.7.4-2.4 1l-.5-.5c.8-.8 1.9-1.3 2.9-1.3zm-3.8 5v6.9h-.7v-7.5h.7v.6zm0-1h-.7c.2-.9.6-1.8 1.2-2.5l.5.5c-.4.6-.8 1.2-1 2zm7-2l.5-.5c.6.7 1.1 1.6 1.2 2.5h-.7c-.1-.8-.5-1.4-1-2zm1.8 9.5h-.7v-7h.7v7zm-7.5-3.4h5.5v.6h-5.5z" class="R T"/><linearGradient id="AY" gradientUnits="userSpaceOnUse" x1="20" y1="30.5" x2="2.983" y2="30.5"><stop offset="0" stop-color="#3651bf"/><stop offset="1" stop-color="#2e5bdb"/></linearGradient><path fill="url(#AY)" d="M3 39h17V22H4.1L3 26.1z"/><path d="M4.1 22L3 26h17v-4H4.1M4 26v10H3V26z" class="R S"/><linearGradient id="AZ" gradientUnits="userSpaceOnUse" x1="20" y1="30" x2="37.032" y2="30"><stop offset="0" stop-color="#3651bf"/><stop offset="1" stop-color="#2e5bdb"/></linearGradient><path fill="url(#AZ)" d="M37 38H20V22h15.9l1.1 3.8z"/><path d="M35.9 22l1.1 4H20v-4h15.9" class="R S"/><path d="M37 39H20V22h15.9l1.1 4.1z" class="R W"/><linearGradient id="Aa" gradientUnits="userSpaceOnUse" x1="0" y1="104.25" x2="40" y2="104.25"><stop offset="0" stop-color="#3651bf"/><stop offset="1" stop-color="#2e5bdb"/></linearGradient><path fill="url(#Aa)" d="M.7 36.1L0 41v131.5h40V40.9L37.4 36z"/><path d="M18 36h3v3h-3z" class="R Z"/><path d="M17 42zm0 4h4v1h-4zm0 5h4v1h-4zm0 4h4v1h-4zm0 5h4v1h-4zm0 4.9h4v1h-4zm0 .1zm0 4h4v1h-4zm0 4.2h4v1h-4zm0 .8zm0 3h4v1h-4zm0 4.7h4v1h-4zm0 .3zm0 4h4v1h-4zm0 4.7h4v1h-4zm0 .3zm0 4h4v1h-4zm0 4.5h4v1h-4zm0 4.5h4v1h-4zm0 4.5h4v1h-4zm0 4.7h4v1h-4zm0 .8zm0 4h4v1h-4zm0 4.4h4v1h-4zm0 .6zm0 4h4v1h-4zm0 3.9h4v1h-4zm0 .1zm0 4h4v1h-4zm0 4.5h4v1h-4zm0 .5zm0 4h4v1h-4zm0 4.6h4v1h-4zm0 .4zm0 4h4v1h-4zm0 4.5h4v1h-4zm0 4.5h4v1h-4zm0 5h4v1h-4zm0 5z" class="R W"/><linearGradient id="Ab" gradientUnits="userSpaceOnUse" x1="21" y1="104.25" x2="39.087" y2="104.25"><stop offset="0" stop-color="#3651bf"/><stop offset="1" stop-color="#2e5bdb"/></linearGradient><path fill="url(#Ab)" d="M39.1 172.5H21V36h16.2l.8 2.8z"/><path d="M38.1 39L21 38.9v133.6h17z" class="R b"/><path d="M39 39H21v-3h16.3z" class="R T"/><path d="M21 36h1v136.5h-1z" class="R U Y"/><path d="M38 38.8l-.1 133.6h2V40.8l-1.1-2zM36 26v10h1V26z" class="R S"/><linearGradient id="Ac" gradientUnits="userSpaceOnUse" x1="18" y1="104.25" x2=".397" y2="104.25"><stop offset="0" stop-color="#3651bf"/><stop offset="1" stop-color="#2e5bdb"/></linearGradient><path fill="url(#Ac)" d="M.4 172.5H18V36l-17 .1z"/><path d="M.7 39H18v133.5H0z" class="R b"/><path d="M1 39h17v-3l-16.9.1z" class="R T"/><g class="Y R"><path d="M1 39v133.5H0V39z" class="W"/><path d="M17 36h1v136.5h-1z" class="U"/><path d="M4 54h10v3H4zm0 5h10v3H4zm0 6h10v3H4zm0-23h10v3H4zm0 6h10v3H4zm0 35h10v3H4zm0 6h10v3H4zm0 6h10v3H4zm0-24h10v3H4zm0 6h10v3H4zm0 24h10v3H4zm0 18h10v3H4zm0 6h10v3H4zm0-18h10v3H4zm0 6h10v3H4zm0 18h10v3H4zm0 6h10v3H4zm0 6h10v3H4zm0 18h10v3H4zm0-12h10v3H4zm0 6h10v3H4zM25 54h10v3H25zm0 5h10v3H25zm0 6h10v3H25zm0-23h10v3H25zm0 6h10v3H25zm0 35h10v3H25zm0 6h10v3H25zm0 6h10v3H25zm0-24h10v3H25zm0 6h10v3H25zm0 24h10v3H25zm0 18h10v3H25zm0 6h10v3H25zm0-18h10v3H25zm0 6h10v3H25zm0 18h10v3H25zm0 6h10v3H25zm0 6h10v3H25zm0 18h10v3H25zm0-12h10v3H25zm0 6h10v3H25z" class="W"/></g><linearGradient id="Ad" gradientUnits="userSpaceOnUse" x1="22.13" y1="16.136" x2="23.448" y2="16.136"><stop offset="0" stop-color="#3651bf"/><stop offset="1" stop-color="#2e5bdb"/></linearGradient><use xlink:href="#Am" fill="url(#Ad)"/><use xlink:href="#Am" class="T"/><linearGradient id="Ae" gradientUnits="userSpaceOnUse" x1="16.62" y1="14.07" x2="18.382" y2="14.07"><stop offset="0" stop-color="#3651bf"/><stop offset="1" stop-color="#2e5bdb"/></linearGradient><use xlink:href="#An" fill="url(#Ae)"/><use xlink:href="#An" class="T"/><defs ><path id="Ag" d="M163.4 153.5h2.1v2.1h-2.1zm7.5 0h2.1v2.1h-2.1zm-38.1-7.1h2.1v2.1h-2.1z"/><path id="Ah" d="M133.3 98c0-.4-.4-.6-.7-.6-.4 0-.6.4-.6.7 0 .4.3.6.7.6.3 0 .6-.3.6-.7z"/><path id="Ai" d="M104.6 121.8h4.3v2.6h-4.3zm-.1 3.5h4.3v2.6h-4.3zm0 3.5h4.3v2.6h-4.3z"/><path id="Aj" d="M104.6 143.7h4.3v2.6h-4.3zm-.1 3.4h4.3v2.6h-4.3zm0 3.5h4.3v2.6h-4.3z"/><path id="Ak" d="M85.5 68.8h-.2v-.2c0-.1-.1-.3-.3-.2h-.2l-.5-1.2V62h-.5v5.2l-.5 1.2h-.2c-.1 0-.3.1-.3.2v.2h-.2c-.2 0-.3.1-.3.3v.3c0 .2.1.3.3.3h2.8c.2 0 .3-.1.3-.3V69c.1-.1 0-.2-.2-.2z"/><path id="Al" d="M98.7 138.3v-1H69.5v1h1.1v1.2h-1.1v.5h29.2v-.5h-1.1v-1.2h1.1zm-5 0v1.2H91v-1.2h2.7zm-3.3 0v1.2h-2.7v-1.2h2.7zm-3.3 0v1.2h-2.7v-1.2h2.7zm-3.3 0v1.2h-2.7v-1.2h2.7zm-3.3 0v1.2h-2.7v-1.2h2.7zm-3.3 0v1.2h-2.7v-1.2h2.7zm-6 0h2.7v1.2h-2.7v-1.2zm25.8 1.2h-2.7v-1.2H97v1.2z"/><path id="Am" d="M22.4 22.3v-3.4h-.1c-.1 0-.2-.1-.2-.3s.1-.3.2-.3h.3V10h.4v8.3h.3c.1 0 .2.1.2.3s-.1.3-.2.3h-.1v3.4"/><path id="An" d="M16.9 22.3v-4.6h-.1c-.1 0-.2-.2-.2-.4s.1-.4.2-.4h.4v-11h.5V17h.4c.1 0 .2.2.2.4s-.1.4-.2.4H18v4.6"/></defs></svg>