<svg xmlns="http://www.w3.org/2000/svg" xmlns:xlink="http://www.w3.org/1999/xlink" viewBox="0 0 200 172"><style>.P{enable-background:new}.Q{opacity:.3}.R{fill:#fff}.S{opacity:.1}.T{opacity:.6}.U{opacity:.5}.V{opacity:.15}.W{opacity:.2}.X{opacity:.05}.Y{stroke-linejoin:round}.Z{stroke-width:.192}</style><linearGradient id="A" x1="101.3" x2="101.3" y1="172.4" y2="25.692" gradientUnits="userSpaceOnUse"><stop offset="0" stop-color="#1d7ee8"/><stop offset="1" stop-color="#2ea7db"/></linearGradient><path fill="url(#A)" d="M14.5 110.1v62.3h173.6v-63c0-48.2-42.2-86.9-93-83.5C49.6 29 14.5 66 14.5 110.1z"/><path d="M35 94v7h6V77.7l5.5-5.7h15.2l4.3 4.4V108h9V69.5l13.8-13.8L102 68.9V106h7V92h18.7l9.3-9.4V69h20v-8h5v8h2v13h16.6l4.4 4.6V173H17V94z" class="P W"/><linearGradient id="B" x1="183.844" x2="187.377" y1="116.117" y2="116.117" gradientUnits="userSpaceOnUse"><stop offset="0" stop-color="#3651bf"/><stop offset="1" stop-color="#2e5bdb"/></linearGradient><path fill="url(#B)" d="M185 89l2.4 2.3v51.9h-3.6z"/><path d="M183.8 143.2L185 89l2.4 2.3v30.6z" class="P W"/><path d="M155 89h30v46h-30z" class="P V"/><path d="M155 89h30v3h-30z" class="P W"/><linearGradient id="C" x1="185" x2="155" y1="115" y2="115" gradientUnits="userSpaceOnUse"><stop offset="0" stop-color="#2e60e8"/><stop offset="1" stop-color="#2e74db"/></linearGradient><path fill="url(#C)" d="M155 92h30v46h-30z"/><path d="M16 158h168v15H16z" class="P W"/><g class="R"><path d="M156.8 132.4h1.3v1.3h-1.3z" class="P U"/><path d="M161.5 132.4h1.3v1.3h-1.3z"/><path d="M166.1 132.4h1.3v1.3h-1.3z" class="P U"/><path d="M170.7 132.4h1.3v1.3h-1.3z"/><use class="P U" xlink:href="#BB"/><path d="M161.5 127.8h1.3v1.3h-1.3z"/><path d="M166.1 127.8h1.3v1.3h-1.3z" class="P U"/><path d="M170.7 127.8h1.3v1.3h-1.3z"/><use y="-4.6" class="P U" xlink:href="#BB"/><path d="M161.5 123.2h1.3v1.3h-1.3z"/><path d="M166.1 123.2h1.3v1.3h-1.3z" class="P U"/><path d="M170.7 123.2h1.3v1.3h-1.3z"/><path d="M175.7 123.2h1.3v1.3h-1.3zm4.6 0h1.3v1.3h-1.3zm-23.5-4.7h1.3v1.3h-1.3z" class="P U"/><path d="M161.5 118.5h1.3v1.3h-1.3z"/><path d="M166.1 118.5h1.3v1.3h-1.3z" class="P U"/><path d="M170.7 118.5h1.3v1.3h-1.3z"/><path d="M175.7 118.5h1.3v1.3h-1.3zm4.6 0h1.3v1.3h-1.3zm-9.6-4.6h1.3v1.3h-1.3zm5 0h1.3v1.3h-1.3z" class="P U"/><path d="M180.3 113.9h1.3v1.3h-1.3z"/><path d="M175.7 109.3h1.3v1.3h-1.3zm4.6 0h1.3v1.3h-1.3z" class="P U"/><path d="M180.3 104.3h1.3v1.3h-1.3z"/></g><linearGradient id="D" x1="102.3" x2="186.9" y1="145.4" y2="145.4" gradientUnits="userSpaceOnUse"><stop offset="0" stop-color="#3651bf"/><stop offset="1" stop-color="#2e5bdb"/></linearGradient><path fill="url(#D)" d="M102.3 132.1h84.6v26.6h-84.6z"/><linearGradient id="E" x1="101.1" x2="188.1" y1="124.042" y2="124.042" gradientUnits="userSpaceOnUse"><stop offset="0" stop-color="#3651bf"/><stop offset="1" stop-color="#2e5bdb"/></linearGradient><path fill="url(#E)" d="M180.2 116.2c0-.1-.1-.1-.2-.1h-71c-.1 0-.2 0-.2.1l-7.7 15.8h87l-7.9-15.8z"/><path d="M102.2 132H118v2h-15.8zm0 3H118v1h-15.8zm44.8-3h41v2h-41zm-1 3h41v1h-41z" class="P Q"/><path d="M179 116.1c0-.1-.1-.1-.2-.1h-69.7c-.1 0-.2 0-.2.1l-7.6 15.9h85.4l-7.7-15.9z" class="P S"/><linearGradient id="F" x1="130.527" x2="132.287" y1="44.4" y2="44.4" gradientUnits="userSpaceOnUse"><stop offset="0" stop-color="#3651bf"/><stop offset="1" stop-color="#2e5bdb"/></linearGradient><path fill="url(#F)" d="M132.3 48.5l-.8-8.2-1 8.2z"/><linearGradient id="G" x1="131.369" x2="131.804" y1="44.8" y2="44.8" gradientUnits="userSpaceOnUse"><stop offset="0" stop-color="#3651bf"/><stop offset="1" stop-color="#2e5bdb"/></linearGradient><path fill="url(#G)" d="M131.4 38.1h.4v13.4h-.4z"/><linearGradient id="H" x1="130.224" x2="130.814" y1="52.7" y2="52.7" gradientUnits="userSpaceOnUse"><stop offset="0" stop-color="#3651bf"/><stop offset="1" stop-color="#2e5bdb"/></linearGradient><path fill="url(#H)" d="M130.8 58.1V47.3l-.6.6v10.2z"/><linearGradient id="I" x1="130.703" x2="132.287" y1="52.7" y2="52.7" gradientUnits="userSpaceOnUse"><stop offset="0" stop-color="#3651bf"/><stop offset="1" stop-color="#2e5bdb"/></linearGradient><path fill="url(#I)" d="M130.7 47.3h1.6v10.8h-1.6z"/><linearGradient id="J" x1="132.287" x2="133.469" y1="52.7" y2="52.7" gradientUnits="userSpaceOnUse"><stop offset="0" stop-color="#3651bf"/><stop offset="1" stop-color="#2e5bdb"/></linearGradient><path fill="url(#J)" d="M133.5 58.1v-9.7l-1.2-1.1v10.8z"/><path d="M130.5 47.3h1.7V57h-1.7z" class="P X"/><path d="M133.5 58.1v-9.7l-1.2-1.1v10.8z" class="P V"/><linearGradient id="K" x1="129.357" x2="130.383" y1="62.4" y2="62.4" gradientUnits="userSpaceOnUse"><stop offset="0" stop-color="#3651bf"/><stop offset="1" stop-color="#2e5bdb"/></linearGradient><path fill="url(#K)" d="M130.4 67.8V57l-1.1.6v10.2z"/><linearGradient id="L" x1="130.188" x2="133.114" y1="62.4" y2="62.4" gradientUnits="userSpaceOnUse"><stop offset="0" stop-color="#3651bf"/><stop offset="1" stop-color="#2e5bdb"/></linearGradient><path fill="url(#L)" d="M130.2 57h2.9v10.8h-2.9z"/><linearGradient id="M" x1="132.934" x2="134.982" y1="62.4" y2="62.4" gradientUnits="userSpaceOnUse"><stop offset="0" stop-color="#3651bf"/><stop offset="1" stop-color="#2e5bdb"/></linearGradient><path fill="url(#M)" d="M135 67.8v-9.6l-2.1-1.2v10.8z"/><path d="M135 67.8v-9.6l-2.1-1.2v10.8z" class="P V"/><path d="M130.2 57h2.9v10.8h-2.9z" class="P X"/><path d="M130.2 57h.2v8h-.2zm2.6 0h.2v8.4h-.2zm-1.5-9.7h.8V52h-.8z" class="P R S"/><linearGradient id="N" x1="123.102" x2="140.7" y1="73.55" y2="73.55" gradientUnits="userSpaceOnUse"><stop offset="0" stop-color="#3651bf"/><stop offset="1" stop-color="#2e5bdb"/></linearGradient><path fill="url(#N)" d="M131.9 59.3c-9.9 5.3-8.8 15.8-8.8 15.8v12.7h17.4V75.1c.1 0 1.3-10.5-8.6-15.8z"/><path d="M132.1 59.2c-9.6 5.3-8.6 15.8-8.6 15.8v12.7h17V75c.1.1 1.2-10.5-8.4-15.8z" class="P V"/><path d="M131.9 59.3c5.1 7 4.4 15 4.4 15v13.5h4.4V75.1s1.1-10.5-8.8-15.8z" opacity=".13"/><path d="M131.9 59.3c-5.1 7-4.4 15-4.4 15v13.5h-4.4V75.1c.1 0-1-10.5 8.8-15.8z" class="P R X"/><linearGradient id="O" x1="131.537" x2="132.295" y1="64.45" y2="64.45" gradientUnits="userSpaceOnUse"><stop offset="0" stop-color="#3651bf"/><stop offset="1" stop-color="#2e5bdb"/></linearGradient><use fill="url(#O)" xlink:href="#BC"/><use class="P Q" xlink:href="#BC"/><linearGradient id="P" x1="131.385" x2="132.447" y1="67.35" y2="67.35" gradientUnits="userSpaceOnUse"><stop offset="0" stop-color="#3651bf"/><stop offset="1" stop-color="#2e5bdb"/></linearGradient><path fill="url(#P)" d="M131.4 66.2h1.1v2.3h-1.1z"/><path d="M131.4 66.2h1.1v2.3h-1.1z" class="P Q"/><linearGradient id="Q" x1="130.985" x2="132.506" y1="67.059" y2="66.181" gradientUnits="userSpaceOnUse"><stop offset="0" stop-color="#3651bf"/><stop offset="1" stop-color="#2e5bdb"/></linearGradient><use fill="url(#Q)" xlink:href="#BD"/><use class="P Q" xlink:href="#BD"/><linearGradient id="R" x1="130.778" x2="133.058" y1="67.4" y2="67.4" gradientUnits="userSpaceOnUse"><stop offset="0" stop-color="#3651bf"/><stop offset="1" stop-color="#2e5bdb"/></linearGradient><use fill="url(#R)" xlink:href="#BE"/><use class="P Q" xlink:href="#BE"/><linearGradient id="S" x1="138.743" x2="139.09" y1="65.95" y2="65.95" gradientUnits="userSpaceOnUse"><stop offset="0" stop-color="#3651bf"/><stop offset="1" stop-color="#2e5bdb"/></linearGradient><use fill="url(#S)" xlink:href="#BF"/><use class="P W" xlink:href="#BF"/><linearGradient id="T" x1="138.304" x2="139.199" y1="67.525" y2="67.008" gradientUnits="userSpaceOnUse"><stop offset="0" stop-color="#3651bf"/><stop offset="1" stop-color="#2e5bdb"/></linearGradient><use fill="url(#T)" xlink:href="#BG"/><use class="P W" xlink:href="#BG"/><linearGradient id="U" x1="138.675" x2="139.158" y1="67.95" y2="67.95" gradientUnits="userSpaceOnUse"><stop offset="0" stop-color="#3651bf"/><stop offset="1" stop-color="#2e5bdb"/></linearGradient><path fill="url(#U)" d="M138.7 67.5h.5v.9h-.5z"/><path d="M138.7 67.6h.5v.8h-.5z" class="P W"/><linearGradient id="V" x1="138.4" x2="139.438" y1="67.7" y2="67.7" gradientUnits="userSpaceOnUse"><stop offset="0" stop-color="#3651bf"/><stop offset="1" stop-color="#2e5bdb"/></linearGradient><use fill="url(#V)" xlink:href="#BH"/><use class="P W" xlink:href="#BH"/><linearGradient id="W" x1="124.914" x2="125.261" y1="66.05" y2="66.05" gradientUnits="userSpaceOnUse"><stop offset="0" stop-color="#3651bf"/><stop offset="1" stop-color="#2e5bdb"/></linearGradient><use fill="url(#W)" xlink:href="#BI"/><use class="P V" xlink:href="#BI"/><linearGradient id="X" x1="124.496" x2="125.395" y1="67.729" y2="67.21" gradientUnits="userSpaceOnUse"><stop offset="0" stop-color="#3651bf"/><stop offset="1" stop-color="#2e5bdb"/></linearGradient><use fill="url(#X)" xlink:href="#BJ"/><use class="P V" xlink:href="#BJ"/><linearGradient id="Y" x1="124.846" x2="125.329" y1="68.05" y2="68.05" gradientUnits="userSpaceOnUse"><stop offset="0" stop-color="#3651bf"/><stop offset="1" stop-color="#2e5bdb"/></linearGradient><path fill="url(#Y)" d="M124.8 67.6h.5v.9h-.5z"/><path d="M124.8 67.7h.5v.8h-.5z" class="P V"/><linearGradient id="Z" x1="124.571" x2="125.609" y1="67.85" y2="67.85" gradientUnits="userSpaceOnUse"><stop offset="0" stop-color="#3651bf"/><stop offset="1" stop-color="#2e5bdb"/></linearGradient><use fill="url(#Z)" xlink:href="#BK"/><use class="P V" xlink:href="#BK"/><linearGradient id="a" x1="126.866" x2="136.687" y1="89.5" y2="89.5" gradientUnits="userSpaceOnUse"><stop offset="0" stop-color="#3651bf"/><stop offset="1" stop-color="#2e5bdb"/></linearGradient><path fill="url(#a)" d="M136.7 112.1V79.3l-4.9-12.4-4.9 12.4v32.8"/><path d="M129.9 72.9h1.7v.7h-1.9l-.6 1.6h1.3v.8h-1.6l-1.1 2.8 1.5.1v.2h-1.5v11.4h.4v21.6h-1.2V79.3l4.9-12.4 4.9 12.4v32.8h-1.2V90.5h.8V79.9h-.8v-.8h.8l-.6-1.5h-1.4v-.8h1.2l-.6-1.6h-2.1v-.4h1.9l-.9-1.9H132v-.7h1.6l-1.5-3.6-.9 1.9h.8v.8h-1l-.1-.4z" class="P Q"/><linearGradient id="b" x1="122.946" x2="128.551" y1="90.1" y2="90.1" gradientUnits="userSpaceOnUse"><stop offset="0" stop-color="#3651bf"/><stop offset="1" stop-color="#2e5bdb"/></linearGradient><path fill="url(#b)" d="M128.5 75.2V75l-3-6.9-.9.1-1.6 10.5v33.4h3.9V79.3z"/><path d="M126.5 111.3v-31c0-1.4-1.2-2.4-1.2-2.4s-1.2 1.1-1.2 2.4v31" class="P Q"/><path d="M125.3 77.9s-1.2 1.1-1.2 2.4v.8c0-1.4 1.2-2.4 1.2-2.4s1.2 1.1 1.2 2.4v-.8c0-1.3-1.2-2.4-1.2-2.4z" class="P S"/><linearGradient id="c" x1="125.09" x2="125.641" y1="79.8" y2="79.8" gradientUnits="userSpaceOnUse"><stop offset="0" stop-color="#3651bf"/><stop offset="1" stop-color="#2e5bdb"/></linearGradient><ellipse cx="125.3" cy="79.8" fill="url(#c)" class="T" rx=".3" ry=".6"/><linearGradient id="d" x1="125.469" x2="126.08" y1="81" y2="81" gradientUnits="userSpaceOnUse"><stop offset="0" stop-color="#3651bf"/><stop offset="1" stop-color="#2e5bdb"/></linearGradient><ellipse cx="125.8" cy="81" fill="url(#d)" class="T" rx=".3" ry=".7"/><linearGradient id="e" x1="124.651" x2="125.261" y1="81" y2="81" gradientUnits="userSpaceOnUse"><stop offset="0" stop-color="#3651bf"/><stop offset="1" stop-color="#2e5bdb"/></linearGradient><ellipse cx="125" cy="81" fill="url(#e)" class="T" rx=".3" ry=".7"/><path d="M124.7 111.5V82.2c0-.2.1-.4.2-.4s.2.2.2.4v29.3m.7 0V82.2c0-.2.1-.4.2-.4s.2.2.2.4v29.3m-1 0V82.2c0-.2.1-.4.2-.4s.2.2.2.4v29.3" class="P S"/><path d="M124.9 70l-1.1 8.7v33.4h-.8V78.7l1.6-10.5.9-.1 3 7.1-1.6 4.1z" class="P V"/><path d="M133.9 111.3V79.5c0-1.4-2.2-2.5-2.2-2.5s-2.2 1.1-2.2 2.5v31.9" class="P Q"/><path d="M131.8 76.9s-2.2 1.1-2.2 2.5v.8c0-1.4 2.2-2.5 2.2-2.5s2.2 1.1 2.2 2.5v-.8c-.1-1.3-2.2-2.5-2.2-2.5z" class="P S"/><linearGradient id="f" x1="131.262" x2="132.539" y1="78.9" y2="78.9" gradientUnits="userSpaceOnUse"><stop offset="0" stop-color="#3651bf"/><stop offset="1" stop-color="#2e5bdb"/></linearGradient><circle cx="131.9" cy="78.9" r=".6" fill="url(#f)" class="T"/><linearGradient id="g" x1="132.144" x2="133.549" y1="80.1" y2="80.1" gradientUnits="userSpaceOnUse"><stop offset="0" stop-color="#3651bf"/><stop offset="1" stop-color="#2e5bdb"/></linearGradient><circle cx="132.9" cy="80.1" r=".7" fill="url(#g)" class="T"/><linearGradient id="h" x1="130.251" x2="131.657" y1="80.1" y2="80.1" gradientUnits="userSpaceOnUse"><stop offset="0" stop-color="#3651bf"/><stop offset="1" stop-color="#2e5bdb"/></linearGradient><circle cx="130.9" cy="80.1" r=".7" fill="url(#h)" class="T"/><path d="M130.5 111.5V81.4c0-.2.2-.4.4-.4s.4.2.4.4v30.1m1.8 0V81.4c0-.2.2-.4.4-.4s.4.2.4.4v30.1m-2.1 0V81.4c0-.2.2-.4.4-.4s.4.2.4.4v30.1" class="P S"/><circle cx="132.2" cy="86" r="3.4" class="P S"/><circle cx="132.2" cy="86" r="3.2" class="P S"/><g opacity=".95"><circle cx="132.2" cy="86" r="2.8" class="R"/><linearGradient id="i" x1="132.199" x2="132.199" y1="83.6" y2="83.6" gradientUnits="userSpaceOnUse"><stop offset="0" stop-color="#4531a7"/><stop offset="1" stop-color="#423179"/></linearGradient><path fill="none" stroke="url(#i)" d="M132.2 83.6z" class="Y Z" opacity=".4"/><linearGradient id="j" x1="132.199" x2="132.199" y1="88.4" y2="88.4" gradientUnits="userSpaceOnUse"><stop offset="0" stop-color="#4531a7"/><stop offset="1" stop-color="#423179"/></linearGradient><path fill="none" stroke="url(#j)" d="M132.2 88.4z" class="Y Z" opacity=".4"/><linearGradient id="k" x1="134.599" x2="134.599" y1="85.9" y2="85.9" gradientUnits="userSpaceOnUse"><stop offset="0" stop-color="#4531a7"/><stop offset="1" stop-color="#423179"/></linearGradient><path fill="none" stroke="url(#k)" d="M134.6 85.9z" class="Y Z" opacity=".4"/><linearGradient id="l" x1="129.799" x2="129.799" y1="85.9" y2="85.9" gradientUnits="userSpaceOnUse"><stop offset="0" stop-color="#4531a7"/><stop offset="1" stop-color="#423179"/></linearGradient><path fill="none" stroke="url(#l)" d="M129.8 85.9z" class="Y Z" opacity=".4"/><linearGradient id="m" x1="132.004" x2="133.138" y1="85.8" y2="85.8" gradientUnits="userSpaceOnUse"><stop offset="0" stop-color="#4531a7"/><stop offset="1" stop-color="#423179"/></linearGradient><path fill="none" stroke="url(#m)" stroke-linecap="round" stroke-width=".2" d="M132.1 84.6V86l1 1" class="Y"/></g><linearGradient id="n" x1="135.305" x2="140.623" y1="90.05" y2="90.05" gradientUnits="userSpaceOnUse"><stop offset="0" stop-color="#3651bf"/><stop offset="1" stop-color="#2e5bdb"/></linearGradient><path fill="url(#n)" d="M139.1 68h-.3l-3.5 7.6 1.4 3.6v32.9h3.9V78.7z"/><path d="M139.4 111.3v-31c0-1.4-1.2-2.4-1.2-2.4S137 79 137 80.3v31" class="P Q"/><path d="M138.3 77.9s-1.2 1.1-1.2 2.4v.8c0-1.4 1.2-2.4 1.2-2.4s1.2 1.1 1.2 2.4v-.8c-.1-1.3-1.2-2.4-1.2-2.4z" class="P S"/><linearGradient id="o" x1="138.363" x2="138.918" y1="79.8" y2="79.8" gradientUnits="userSpaceOnUse"><stop offset="0" stop-color="#3651bf"/><stop offset="1" stop-color="#2e5bdb"/></linearGradient><ellipse cx="138.6" cy="79.8" fill="url(#o)" class="T" rx=".3" ry=".6"/><linearGradient id="p" x1="138.746" x2="139.353" y1="81" y2="81" gradientUnits="userSpaceOnUse"><stop offset="0" stop-color="#3651bf"/><stop offset="1" stop-color="#2e5bdb"/></linearGradient><ellipse cx="139" cy="81" fill="url(#p)" class="T" rx=".3" ry=".7"/><linearGradient id="q" x1="137.928" x2="138.535" y1="81" y2="81" gradientUnits="userSpaceOnUse"><stop offset="0" stop-color="#3651bf"/><stop offset="1" stop-color="#2e5bdb"/></linearGradient><ellipse cx="138.2" cy="81" fill="url(#q)" class="T" rx=".3" ry=".7"/><path d="M137.9 111.5V82.2c0-.2.1-.4.2-.4s.2.2.2.4v29.3m.7 0V82.2c0-.2.1-.4.2-.4s.2.2.2.4v29.3m-.9 0V82.2c0-.2.1-.4.2-.4s.2.2.2.4v29.3" class="P S"/><path d="M136.7 79.3v.9l2.2-10.2 1.3 8.7v33.4h.4V78.7L139.1 68h-.3l-3.5 7.6z" opacity=".25"/><linearGradient id="r" x1="117.962" x2="146.962" y1="135" y2="135" gradientUnits="userSpaceOnUse"><stop offset="0" stop-color="#3651bf"/><stop offset="1" stop-color="#2e5bdb"/></linearGradient><path fill="url(#r)" d="M118 111h29v48h-29z"/><linearGradient id="s" x1="122.435" x2="141.597" y1="108.141" y2="108.141" gradientUnits="userSpaceOnUse"><stop offset="0" stop-color="#3651bf"/><stop offset="1" stop-color="#2e5bdb"/></linearGradient><path fill="url(#s)" d="M122.4 105.3h19.2v5.7h-19.2z"/><path d="M122.4 105.3h19.2v1.4h-19.2zm0 1.9h19.2v.7h-19.2zm22.8 3.8H118v48h3v-33h-1v-11h25v11h-1v33h3v-47.9l-1.8-.1zm-25.2 3v-1h25v1h-25z" class="P Q"/><path d="M132.5 116.5s-4.6 2.5-4.6 5.6v1.7c0-3.1 4.6-5.6 4.6-5.6s4.6 2.5 4.6 5.6v-1.7c0-3-4.6-5.6-4.6-5.6z" class="P S"/><path d="M137 135v-13.1c0-3-4.5-5.5-4.5-5.5s-4.5 2.4-4.5 5.5V135h9z" class="P Q"/><path d="M128.6 135.1V127c0-.4.4-.8.8-.8s.8.3.8.8v8.1m4.4-.1v-8.1c0-.4.4-.8.8-.8s.8.3.8.8v8.1m-4.6.1V127c0-.4.4-.8.8-.8s.8.3.8.8v8.1" class="P S"/><linearGradient id="t" x1="131.006" x2="133.796" y1="121" y2="121" gradientUnits="userSpaceOnUse"><stop offset="0" stop-color="#3651bf"/><stop offset="1" stop-color="#2e5bdb"/></linearGradient><circle cx="132.4" cy="121" r="1.4" fill="url(#t)" class="T"/><linearGradient id="u" x1="132.93" x2="135.996" y1="123.7" y2="123.7" gradientUnits="userSpaceOnUse"><stop offset="0" stop-color="#3651bf"/><stop offset="1" stop-color="#2e5bdb"/></linearGradient><circle cx="134.5" cy="123.7" r="1.5" fill="url(#u)" class="T"/><linearGradient id="v" x1="128.806" x2="131.872" y1="123.7" y2="123.7" gradientUnits="userSpaceOnUse"><stop offset="0" stop-color="#3651bf"/><stop offset="1" stop-color="#2e5bdb"/></linearGradient><circle cx="130.3" cy="123.7" r="1.5" fill="url(#v)" class="T"/><path d="M127.1 136.3h10.5c.1 0 .2.1.2.2v.4c0 .1-.1.2-.2.2h-10.5c-.1 0-.2-.1-.2-.2v-.4c0-.1.1-.2.2-.2zm-13.6 17.9v-11.9c0-1.6-2.6-2.9-2.6-2.9s-2.6 1.3-2.6 2.9v11.9h5.2z" class="P Q"/><use class="P S" xlink:href="#BL"/><linearGradient id="w" x1="110.124" x2="111.521" y1="141.6" y2="141.6" gradientUnits="userSpaceOnUse"><stop offset="0" stop-color="#3651bf"/><stop offset="1" stop-color="#2e5bdb"/></linearGradient><ellipse cx="110.8" cy="141.6" fill="url(#w)" class="T" rx=".7" ry=".8"/><linearGradient id="x" x1="111.086" x2="112.619" y1="143" y2="143" gradientUnits="userSpaceOnUse"><stop offset="0" stop-color="#3651bf"/><stop offset="1" stop-color="#2e5bdb"/></linearGradient><circle cx="111.9" cy="143" r=".8" fill="url(#x)" class="T"/><linearGradient id="y" x1="109.022" x2="110.559" y1="143" y2="143" gradientUnits="userSpaceOnUse"><stop offset="0" stop-color="#3651bf"/><stop offset="1" stop-color="#2e5bdb"/></linearGradient><circle cx="109.8" cy="143" r=".8" fill="url(#y)" class="T"/><use class="P S" xlink:href="#BM"/><path d="M107.8 154.7h6v.5h-6zm49.3-.5v-11.9c0-1.6-2.6-2.9-2.6-2.9s-2.6 1.3-2.6 2.9v11.9h5.2z" class="P Q"/><use x="43.6" class="P S" xlink:href="#BL"/><linearGradient id="z" x1="153.88" x2="155.278" y1="141.6" y2="141.6" gradientUnits="userSpaceOnUse"><stop offset="0" stop-color="#3651bf"/><stop offset="1" stop-color="#2e5bdb"/></linearGradient><ellipse cx="154.6" cy="141.6" fill="url(#z)" class="T" rx=".7" ry=".8"/><linearGradient id="AA" x1="154.842" x2="156.379" y1="143" y2="143" gradientUnits="userSpaceOnUse"><stop offset="0" stop-color="#3651bf"/><stop offset="1" stop-color="#2e5bdb"/></linearGradient><circle cx="155.6" cy="143" r=".8" fill="url(#AA)" class="T"/><linearGradient id="AB" x1="152.778" x2="154.315" y1="143" y2="143" gradientUnits="userSpaceOnUse"><stop offset="0" stop-color="#3651bf"/><stop offset="1" stop-color="#2e5bdb"/></linearGradient><circle cx="153.5" cy="143" r=".8" fill="url(#AB)" class="T"/><use class="P S" xlink:href="#BN"/><path d="M151.5 154.7h6v.5h-6zm29.6-.5v-11.9c0-1.6-2.4-2.9-2.4-2.9s-2.4 1.3-2.4 2.9v11.9h4.8z" class="P Q"/><path d="M178.7 139.4s-2.4 1.3-2.4 2.9v.9c0-1.6 2.4-2.9 2.4-2.9s2.4 1.3 2.4 2.9v-.9c0-1.6-2.4-2.9-2.4-2.9z" class="P S"/><linearGradient id="AC" x1="177.948" x2="179.345" y1="141.6" y2="141.6" gradientUnits="userSpaceOnUse"><stop offset="0" stop-color="#3651bf"/><stop offset="1" stop-color="#2e5bdb"/></linearGradient><ellipse cx="178.6" cy="141.6" fill="url(#AC)" class="T" rx=".7" ry=".8"/><linearGradient id="AD" x1="178.91" x2="180.443" y1="143" y2="143" gradientUnits="userSpaceOnUse"><stop offset="0" stop-color="#3651bf"/><stop offset="1" stop-color="#2e5bdb"/></linearGradient><circle cx="179.7" cy="143" r=".8" fill="url(#AD)" class="T"/><linearGradient id="AE" x1="176.846" x2="178.379" y1="143" y2="143" gradientUnits="userSpaceOnUse"><stop offset="0" stop-color="#3651bf"/><stop offset="1" stop-color="#2e5bdb"/></linearGradient><circle cx="177.6" cy="143" r=".8" fill="url(#AE)" class="T"/><use x="67.8" class="P S" xlink:href="#BM"/><path d="M175.6 154.7h6v.5h-6zm-6.7-.5v-11.9c0-1.6-2.6-2.9-2.6-2.9s-2.6 1.3-2.6 2.9v11.9h5.2z" class="P Q"/><path d="M166.3 139.4s-2.6 1.3-2.6 2.9v.9c0-1.6 2.6-2.9 2.6-2.9s2.6 1.3 2.6 2.9v-.9c0-1.6-2.6-2.9-2.6-2.9z" class="P S"/><linearGradient id="AF" x1="165.916" x2="167.309" y1="141.6" y2="141.6" gradientUnits="userSpaceOnUse"><stop offset="0" stop-color="#3651bf"/><stop offset="1" stop-color="#2e5bdb"/></linearGradient><ellipse cx="166.6" cy="141.6" fill="url(#AF)" class="T" rx=".7" ry=".8"/><linearGradient id="AG" x1="166.878" x2="168.411" y1="143" y2="143" gradientUnits="userSpaceOnUse"><stop offset="0" stop-color="#3651bf"/><stop offset="1" stop-color="#2e5bdb"/></linearGradient><circle cx="167.7" cy="143" r=".8" fill="url(#AG)" class="T"/><linearGradient id="AH" x1="164.814" x2="166.347" y1="143" y2="143" gradientUnits="userSpaceOnUse"><stop offset="0" stop-color="#3651bf"/><stop offset="1" stop-color="#2e5bdb"/></linearGradient><circle cx="165.6" cy="143" r=".8" fill="url(#AH)" class="T"/><use x="12" class="P S" xlink:href="#BN"/><path d="M163.6 154.7h6v.5h-6zm-26.5 4V146c0-3-4.7-5.5-4.7-5.5s-4.7 2.5-4.7 5.5v12.7h9.4z" class="P Q"/><path d="M137.1 158.7V146c0-3-4.3-5.5-4.3-5.5v18.2h4.3z" class="P S"/><linearGradient id="AI" x1="86.1" x2="91.37" y1="44.75" y2="44.75" gradientUnits="userSpaceOnUse"><stop offset="0" stop-color="#2e59bf"/><stop offset="1" stop-color="#593192"/></linearGradient><path fill="url(#AI)" d="M86.9 35.9l-.8 17.7h5.3l-.9-17.7z"/><linearGradient id="AJ" x1="97.964" x2="79.521" y1="118.9" y2="118.9" gradientUnits="userSpaceOnUse"><stop offset="0" stop-color="#2e59bf"/><stop offset="1" stop-color="#593192"/></linearGradient><path fill="url(#AJ)" d="M92.6 74.1l-.3-3.6h-7.2l-.2 3.6v.8l-5.4 92.4H98l-5.4-92.4z"/><path d="M93.1 167.3h-8.8l4-96.8h.8z" class="P S"/><linearGradient id="AK" x1="71.9" x2="105.6" y1="66" y2="66" gradientUnits="userSpaceOnUse"><stop offset="0" stop-color="#2e59bf"/><stop offset="1" stop-color="#593192"/></linearGradient><use fill="url(#AK)" xlink:href="#BO"/><path d="M73 55.3h32v6.2H73z" class="P Q R"/><linearGradient id="AL" x1="72" x2="105.5" y1="53.4" y2="53.4" gradientUnits="userSpaceOnUse"><stop offset="0" stop-color="#2e59bf"/><stop offset="1" stop-color="#593192"/></linearGradient><path fill="url(#AL)" d="M104.1 53.2h-5.9c-.1-.9-.9-1.6-1.8-1.6H81.3c-.9 0-1.6.7-1.8 1.6h-6.1c-.8 0-1.4.9-1.4 2h33.5c0-1.1-.7-2-1.4-2z"/><linearGradient id="AM" x1="83.114" x2="94.347" y1="47.8" y2="47.8" gradientUnits="userSpaceOnUse"><stop offset="0" stop-color="#2e59bf"/><stop offset="1" stop-color="#593192"/></linearGradient><use fill="url(#AM)" xlink:href="#BP"/><use y="-2.8" fill="url(#AM)" xlink:href="#BP"/><linearGradient id="AN" x1="83.114" x2="94.347" y1="42.1" y2="42.1" gradientUnits="userSpaceOnUse"><stop offset="0" stop-color="#2e59bf"/><stop offset="1" stop-color="#593192"/></linearGradient><use fill="url(#AN)" xlink:href="#BQ"/><use y="-2.8" fill="url(#AN)" xlink:href="#BQ"/><linearGradient id="AO" x1="86.954" x2="90.515" y1="27.3" y2="27.3" gradientUnits="userSpaceOnUse"><stop offset="0" stop-color="#2e59bf"/><stop offset="1" stop-color="#593192"/></linearGradient><path fill="url(#AO)" d="M89.1 30.6V18.7h-.8v11.9l-1.4 5.3h3.6z"/><use class="P S" xlink:href="#BO"/><path d="M88.6 18.3l-.1 4.6h.4v-4.6z" class="R"/><linearGradient id="AP" x1="81.557" x2="64.711" y1="165" y2="165" gradientUnits="userSpaceOnUse"><stop offset="0" stop-color="#451088"/><stop offset="1" stop-color="#593179"/></linearGradient><use fill="url(#AP)" xlink:href="#BR"/><use class="P Q" xlink:href="#BR"/><linearGradient id="AQ" x1="177.486" x2="172.316" y1="132.5" y2="132.5" gradientUnits="userSpaceOnUse"><stop offset="0" stop-color="#2e3192"/><stop offset="1" stop-color="#2f0b81"/></linearGradient><path fill="url(#AQ)" d="M173.6 129.4h2.6l1.3 3.1-1.3 3.1h-2.6l-1.3-3.1z"/><path d="M172.5 131.9l1.1-2.5h2.6l1 2.5z" class="P Q"/><path d="M173.2 134.5l-.9-2 .1-.2h5l.1.2-.9 2z" class="P Q R"/><path d="M176.5 134.9l-.3.7h-2.6l-.3-.7z" class="P Q"/><linearGradient id="AR" x1="175.322" x2="174.419" y1="144.2" y2="144.2" gradientUnits="userSpaceOnUse"><stop offset="0" stop-color="#2e3192"/><stop offset="1" stop-color="#2f0b81"/></linearGradient><path fill="url(#AR)" d="M174.4 134.8h.9v18.8h-.9z"/><path d="M174.5 132.5h.7v1.5h-.7z" class="R"/><linearGradient id="AS" x1="120.36" x2="115.193" y1="125.55" y2="125.55" gradientUnits="userSpaceOnUse"><stop offset="0" stop-color="#2e3192"/><stop offset="1" stop-color="#2f0b81"/></linearGradient><path fill="url(#AS)" d="M116.5 122.4h2.6l1.3 3.2-1.3 3.1h-2.6l-1.3-3.1z"/><path d="M115.4 125l1.1-2.6h2.6l1 2.6z" class="P Q"/><path d="M116 127.6l-.8-2v-.2h5.1l.1.2-.9 2z" class="P Q R"/><path d="M119.4 128l-.3.7h-2.6l-.3-.7z" class="P Q"/><linearGradient id="AT" x1="118.192" x2="117.29" y1="137.3" y2="137.3" gradientUnits="userSpaceOnUse"><stop offset="0" stop-color="#2e3192"/><stop offset="1" stop-color="#2f0b81"/></linearGradient><path fill="url(#AT)" d="M117.3 127.9h.9v18.8h-.9z"/><path d="M117.4 125.6h.7v1.5h-.7z" class="R"/><linearGradient id="AU" x1="148.811" x2="143.641" y1="127.75" y2="127.75" gradientUnits="userSpaceOnUse"><stop offset="0" stop-color="#2e3192"/><stop offset="1" stop-color="#2f0b81"/></linearGradient><path fill="url(#AU)" d="M145 124.6h2.5l1.3 3.2-1.3 3.1H145l-1.4-3.1z"/><path d="M143.9 127.2l1.1-2.6h2.5l1.1 2.6z" class="P Q"/><path d="M144.5 129.8l-.9-2 .1-.2h5l.1.2-.8 2z" class="P Q R"/><path d="M147.8 130.2l-.3.7H145l-.4-.7z" class="P Q"/><linearGradient id="AV" x1="146.646" x2="145.745" y1="139.5" y2="139.5" gradientUnits="userSpaceOnUse"><stop offset="0" stop-color="#2e3192"/><stop offset="1" stop-color="#2f0b81"/></linearGradient><path fill="url(#AV)" d="M145.7 130.1h.9v18.8h-.9z"/><path d="M145.9 127.8h.7v1.5h-.7z" class="R"/><linearGradient id="AW" x1="91.685" x2="86.52" y1="127.35" y2="127.35" gradientUnits="userSpaceOnUse"><stop offset="0" stop-color="#2e3192"/><stop offset="1" stop-color="#2f0b81"/></linearGradient><path fill="url(#AW)" d="M87.8 124.2h2.6l1.3 3.2-1.3 3.1h-2.6l-1.3-3.1z"/><path d="M86.7 126.8l1.1-2.6h2.6l1.1 2.6z" class="P Q"/><path d="M87.3 129.4l-.8-2 .1-.2h5l.1.2-.8 2z" class="P Q R"/><path d="M90.7 129.8l-.3.7h-2.6l-.3-.7z" class="P Q"/><linearGradient id="AX" x1="89.525" x2="88.623" y1="139.1" y2="139.1" gradientUnits="userSpaceOnUse"><stop offset="0" stop-color="#2e3192"/><stop offset="1" stop-color="#2f0b81"/></linearGradient><path fill="url(#AX)" d="M88.6 129.7h.9v18.8h-.9z"/><path d="M88.7 127.4h.7v1.5h-.7z" class="R"/><linearGradient id="AY" x1="52.882" x2="47.717" y1="134.3" y2="134.3" gradientUnits="userSpaceOnUse"><stop offset="0" stop-color="#2e3192"/><stop offset="1" stop-color="#2f0b81"/></linearGradient><path fill="url(#AY)" d="M49 131.2h2.6l1.3 3.1-1.3 3.1H49l-1.3-3.1z"/><path d="M47.9 133.7l1.1-2.5h2.6l1.1 2.5z" class="P Q"/><path d="M48.5 136.3l-.8-2 .1-.2h5l.1.2-.8 2z" class="P Q R"/><path d="M51.9 136.7l-.3.7H49l-.3-.7z" class="P Q"/><linearGradient id="AZ" x1="50.719" x2="49.817" y1="146" y2="146" gradientUnits="userSpaceOnUse"><stop offset="0" stop-color="#2e3192"/><stop offset="1" stop-color="#2f0b81"/></linearGradient><path fill="url(#AZ)" d="M49.8 136.6h.9v18.8h-.9z"/><path d="M49.9 134.4h.7v1.5h-.7z" class="R"/><linearGradient id="Aa" x1="42.8" x2="184.2" y1="158.527" y2="158.527" gradientUnits="userSpaceOnUse"><stop offset="0" stop-color="#451088"/><stop offset="1" stop-color="#593179"/></linearGradient><path fill="url(#Aa)" d="M113.5 144.8c23.8-.4 49.5 1.7 70.7 9.1v18.4h-7.7c-.3-8.5-7.5-15.1-15.9-14.9-8.1.3-14.5 6.7-14.9 14.9h-8c-1.3-13.4-13.2-23.2-26.5-21.9a24.32 24.32 0 0 0-21.9 21.9h-7.8c-.3-8.5-7.5-15.1-15.9-14.9-8.1.3-14.5 6.7-14.9 14.9h-7.9V154c21.2-7.4 47-9.5 70.7-9.2z"/><linearGradient id="Ab" x1="137.725" x2="114.571" y1="161.348" y2="161.348" gradientUnits="userSpaceOnUse"><stop offset="0" stop-color="#451088"/><stop offset="1" stop-color="#593179"/></linearGradient><path fill="url(#Ab)" d="M133.5 172.4c-.8-10.7-8.5-19.7-18.9-22.1 12.1.5 21.9 9.9 23.2 22.1h-4.3z"/><path d="M113.5 144.8c23.8-.4 49.5 1.7 70.7 9.1v2.8c-21.2-7.4-46.9-9.5-70.7-9.1-23.8-.4-49.5 1.7-70.7 9.1v-2.8c21.2-7.4 47-9.5 70.7-9.1zm20 27.6c-.8-10.7-8.5-19.6-18.9-22.1 12.1.5 21.9 9.9 23.2 22.1h-4.3z" class="P Q"/><linearGradient id="Ac" x1="184.2" x2="42.8" y1="145.977" y2="145.977" gradientUnits="userSpaceOnUse"><stop offset="0" stop-color="#451088"/><stop offset="1" stop-color="#593179"/></linearGradient><path fill="url(#Ac)" d="M113.5 140.6c23.8-.4 49.5 1.7 70.7 9.1v1.7c-21.2-7.4-46.9-9.5-70.7-9.1-23.8-.4-49.5 1.7-70.7 9.1v-1.7c21.2-7.4 47-9.5 70.7-9.1z"/><path d="M113.5 140.4c23.8-.4 49.5 1.7 70.7 9.1v1.7c-21.2-7.4-46.9-9.5-70.7-9.1-23.8-.4-49.5 1.7-70.7 9.1v-1.7c21.2-7.3 47-9.4 70.7-9.1z" class="P Q"/><linearGradient id="Ad" x1="22.595" x2="23.226" y1="46.5" y2="46.5" gradientUnits="userSpaceOnUse"><stop offset="0" stop-color="#4c3ea1"/><stop offset="1" stop-color="#2e3192"/></linearGradient><path fill="url(#Ad)" d="M22.6 36.7h.6v19.6h-.6z"/><linearGradient id="Ae" x1="21.018" x2="21.969" y1="58.8" y2="58.8" gradientUnits="userSpaceOnUse"><stop offset="0" stop-color="#4c3ea1"/><stop offset="1" stop-color="#2e3192"/></linearGradient><path fill="url(#Ae)" d="M22 67V50.6l-1 .8V67z"/><linearGradient id="Af" x1="21.554" x2="23.508" y1="58.5" y2="58.5" gradientUnits="userSpaceOnUse"><stop offset="0" stop-color="#4c3ea1"/><stop offset="1" stop-color="#2e3192"/></linearGradient><path fill="url(#Af)" d="M21.6 50.6h1.9v15.8h-1.9z"/><linearGradient id="Ag" x1="23.5" x2="25.509" y1="58.7" y2="58.7" gradientUnits="userSpaceOnUse"><stop offset="0" stop-color="#4c3ea1"/><stop offset="1" stop-color="#2e3192"/></linearGradient><path fill="url(#Ag)" d="M25.5 66.8V52.3l-2-1.7v16.2z"/><path d="M22 51h2v14h-2z" class="P R S"/><path d="M25 66.3V51.7L23 50v16.3z" class="P Q"/><linearGradient id="Ah" x1="19.399" x2="20.41" y1="72.787" y2="72.787" gradientUnits="userSpaceOnUse"><stop offset="0" stop-color="#4c3ea1"/><stop offset="1" stop-color="#2e3192"/></linearGradient><path fill="url(#Ah)" d="M20.4 80.8v-16l-1 .8v15.2z"/><linearGradient id="Ai" x1="20.3" x2="24.506" y1="72.7" y2="72.7" gradientUnits="userSpaceOnUse"><stop offset="0" stop-color="#4c3ea1"/><stop offset="1" stop-color="#2e3192"/></linearGradient><path fill="url(#Ai)" d="M20.3 64.8h4.2v15.8h-4.2z"/><linearGradient id="Aj" x1="24.432" x2="26.986" y1="72.85" y2="72.85" gradientUnits="userSpaceOnUse"><stop offset="0" stop-color="#4c3ea1"/><stop offset="1" stop-color="#2e3192"/></linearGradient><path fill="url(#Aj)" d="M27 80.8V66.6l-2.6-1.7v15.9z"/><path d="M27 80.9V66.7L24.5 65v15.9z" class="P Q"/><path d="M20.3 64.8h4.2v16h-4.2z" class="P R S"/><linearGradient id="Ak" x1="44.048" x2="56" y1="132.492" y2="132.492" gradientUnits="userSpaceOnUse"><stop offset="0" stop-color="#4c3ea1"/><stop offset="1" stop-color="#2e3192"/></linearGradient><path fill="url(#Ak)" d="M56 173H44V92h9.5l2.5 1.6z"/><linearGradient id="Al" x1="54.063" x2="56.996" y1="132.387" y2="132.387" gradientUnits="userSpaceOnUse"><stop offset="0" stop-color="#4c3ea1"/><stop offset="1" stop-color="#2e3192"/></linearGradient><path fill="url(#Al)" d="M57 172.8h-2.9V92l2.9 1.6z"/><path d="M57 173.3h-3V92.5l3 1.6z" class="P Q"/><linearGradient id="Am" x1="43" x2="54.54" y1="135.05" y2="135.05" gradientUnits="userSpaceOnUse"><stop offset="0" stop-color="#4c3ea1"/><stop offset="1" stop-color="#2e3192"/></linearGradient><path fill="url(#Am)" d="M43 94h11l.5 82-11.5.1z" class="V"/><linearGradient id="An" x1="35.984" x2="26.012" y1="124.75" y2="124.75" gradientUnits="userSpaceOnUse"><stop offset="0" stop-color="#4c3ea1"/><stop offset="1" stop-color="#2e3192"/></linearGradient><path fill="url(#An)" d="M26 80.3V172h10V77.5z"/><linearGradient id="Ao" x1="36.013" x2="31.983" y1="122.939" y2="122.939" gradientUnits="userSpaceOnUse"><stop offset="0" stop-color="#4c3ea1"/><stop offset="1" stop-color="#2e3192"/></linearGradient><path fill="url(#Ao)" d="M32 173h4V72.9l-4 1.9z"/><path d="M32 173h4V72.9l-4 1.9z" class="P X"/><linearGradient id="Ap" x1="1.797" x2="9.035" y1="120" y2="120" gradientUnits="userSpaceOnUse"><stop offset="0" stop-color="#4c3ea1"/><stop offset="1" stop-color="#2e3192"/></linearGradient><path fill="url(#Ap)" d="M1.8 67H9v106H1.8z"/><path d="M1.8 67H9v106H1.8z" class="P R X"/><linearGradient id="Aq" x1="12" x2="26.028" y1="123.5" y2="123.5" gradientUnits="userSpaceOnUse"><stop offset="0" stop-color="#4c3ea1"/><stop offset="1" stop-color="#2e3192"/></linearGradient><path fill="url(#Aq)" d="M26 77.9V172H12V75z"/><path d="M26 78v94.3H12V75z" class="P W"/><linearGradient id="Ar" x1="8.989" x2="12.982" y1="119.998" y2="119.998" gradientUnits="userSpaceOnUse"><stop offset="0" stop-color="#4c3ea1"/><stop offset="1" stop-color="#2e3192"/></linearGradient><path fill="url(#Ar)" d="M13 173H9V67l4 2z"/><path d="M13 173H9V67l4 2z" class="P Q"/><linearGradient id="As" x1="40.411" x2="44.398" y1="122.7" y2="122.7" gradientUnits="userSpaceOnUse"><stop offset="0" stop-color="#4c3ea1"/><stop offset="1" stop-color="#2e3192"/></linearGradient><path fill="url(#As)" d="M44.4 172.5h-4V72.9l4 1.9z"/><path d="M44.4 172.7h-4V72.9l4 1.9z" class="P Q"/><linearGradient id="At" x1="36.01" x2="40.453" y1="122.934" y2="122.934" gradientUnits="userSpaceOnUse"><stop offset="0" stop-color="#4c3ea1"/><stop offset="1" stop-color="#2e3192"/></linearGradient><path fill="url(#At)" d="M36 72.9h4.4V173H36z"/><linearGradient id="Au" x1="44.487" x2="51.515" y1="131.7" y2="131.7" gradientUnits="userSpaceOnUse"><stop offset="0" stop-color="#4c3ea1"/><stop offset="1" stop-color="#2e3192"/></linearGradient><path fill="url(#Au)" d="M51.5 95.9l-7-2.3v76.2h7z"/><linearGradient id="Av" x1="9" x2="36" y1="131" y2="131" gradientUnits="userSpaceOnUse"><stop offset="0" stop-color="#4c3ea1"/><stop offset="1" stop-color="#2e3192"/></linearGradient><path fill="url(#Av)" d="M9 89h27v84H9z"/><linearGradient id="Aw" x1="1.843" x2="-.175" y1="120.164" y2="120.164" gradientUnits="userSpaceOnUse"><stop offset="0" stop-color="#4c3ea1"/><stop offset="1" stop-color="#2e3192"/></linearGradient><path fill="url(#Aw)" d="M1.8 67v106.3h-2V68z"/><path d="M9 89h27v2H9z" class="P Q"/><path d="M36 72.9h4.4V173H36z" class="P R X"/><g class="Q R P"><use class="Q" xlink:href="#BS"/><path d="M50.5 128.8c0-.1-.1-.2-.2-.3l-4.9-1.6c-.1 0-.3 0-.3.2v.1c0 .1.1.2.2.3l4.9 1.7c.2 0 .3 0 .3-.2v-.2z" class="T"/><use class="Q" xlink:href="#BT"/></g><g class="Q R P"><use y="11.4" class="Q" xlink:href="#BS"/><use y="9.5" class="T" xlink:href="#BT"/><use y="11.3" class="Q" xlink:href="#BT"/></g><g class="R"><circle cx="23" cy="49.1" r="1.1"/><path d="M23 36.6h-.3"/></g><path d="M44.5 92H54v2h-9.5z" class="P Q"/><linearGradient id="Ax" x1="198" x2="168.032" y1="127.75" y2="127.75" gradientUnits="userSpaceOnUse"><stop offset="0" stop-color="#3651bf"/><stop offset="1" stop-color="#2e5bdb"/></linearGradient><path fill="url(#Ax)" d="M198 173V82.5l-30 32.6V173h30"/><linearGradient id="Ay" x1="199.989" x2="197.983" y1="127.75" y2="127.75" gradientUnits="userSpaceOnUse"><stop offset="0" stop-color="#2e3192"/><stop offset="1" stop-color="#4c3ea1"/></linearGradient><path fill="url(#Ay)" d="M200 173h-2V82.5l2 3.2z"/><g class="R P"><use class="S" xlink:href="#BU"/><use y="23" class="S" xlink:href="#BU"/><use y="46" class="S" xlink:href="#BU"/><path d="M172 163h22v3h-22zm0-24h22v3h-22zm0 6h22v3h-22zm0 6h22v3h-22zm0 6h22v3h-22zm0-30h22v3h-22zm0 6h22v3h-22z" opacity=".16"/></g><g class="Q R P"><path d="M50.5 147.8c0-.1-.1-.2-.2-.3l-4.9-1.7c-.1 0-.3 0-.3.2v.1c0 .1.1.2.2.3l4.9 1.7c.1 0 .2-.1.3-.3zm0 1.8c0-.1-.1-.2-.2-.3l-4.9-1.7c-.1 0-.3 0-.3.2v.1c0 .1.1.2.2.3l4.9 1.7c.1 0 .3 0 .3-.2v-.1z" class="Q"/><use y="20.8" class="T" xlink:href="#BT"/><use y="22.7" class="Q" xlink:href="#BT"/></g><g class="Q R P"><path d="M50.5 159.3c0-.1-.1-.2-.2-.3l-4.9-1.6c-.1 0-.3 0-.3.2v.1c0 .1.1.2.2.3l4.9 1.7c.2 0 .3 0 .3-.2v-.2zm0 1.9c0-.1-.1-.2-.2-.3l-4.9-1.6c-.1 0-.3 0-.3.2v.1c0 .1.1.2.2.3l4.9 1.7c.1 0 .3 0 .3-.2v-.2z" class="Q"/><use y="32.4" class="T" xlink:href="#BT"/><use y="34.3" class="Q" xlink:href="#BT"/></g><linearGradient id="Az" x1="24.459" x2="91.338" y1="144.05" y2="144.05" gradientUnits="userSpaceOnUse"><stop offset="0" stop-color="#451088"/><stop offset="1" stop-color="#593179"/></linearGradient><path fill="url(#Az)" d="M70.5 115.9v7.4h-25v-7.4c-17 7.1-25.7 26.7-18.5 43.7 2.1 5 5.3 9.3 9.4 12.7h42.9c14.2-11.9 16.1-32.9 4.3-47.1-3.4-4.1-7.8-7.3-12.7-9.4l-.4.1z"/><path d="M32.7 128H83v.6H32.7zm38.2-1.3v-3.5h-26v3.5h-2.7v1.3h31.3v-1.3z" class="P Q"/><path d="M52.4 124.8h11c.2 0 .4.2.4.4s-.2.4-.4.4h-11c-.2 0-.4-.2-.4-.4s.2-.4.4-.4z" class="R"/><path d="M33 169.1c1.1 1.2 2.2 2.3 3.5 3.4h42.9c1.2-1 2.4-2.2 3.5-3.4H33z" class="P Q"/><path d="M32.5 128.8h50v38h-50z" class="P V"/><g class="R"><path d="M57 153.3h1.6v1.6H57zm-8.6 0H50v1.6h-1.6zm-8.9 0h1.6v1.6h-1.6zm-4.3 0h1.6v1.6h-1.6zm17.5-4.3h1.6v1.6h-1.6zm-4.3 0H50v1.6h-1.6zm-4.2 0h1.6v1.6h-1.6zm-4.7 0h1.6v1.6h-1.6zm17.5-4.3h1.6v1.6H57zm-4.3 0h1.6v1.6h-1.6zm-4.3 0H50v1.6h-1.6zm-8.9 0h1.6v1.6h-1.6zm-4.3 0h1.6v1.6h-1.6zm21.8-4.6h1.6v1.6H57zm-4.3 0h1.6v1.6h-1.6zm-4.3 0H50v1.6h-1.6zm-4.2 0h1.6v1.6h-1.6zm-4.7 0h1.6v1.6h-1.6zm17.5-4.3h1.6v1.6H57zm-8.6 0H50v1.6h-1.6zm-4.2 0h1.6v1.6h-1.6zm-4.7 0h1.6v1.6h-1.6zm-4.3 0h1.6v1.6h-1.6zm21.8-4.3h1.6v1.6H57zm-4.3 0h1.6v1.6h-1.6zm-8.5 0h1.6v1.6h-1.6zm-9 0h1.6v1.6h-1.6zm35.1 21.8h1.6v1.6h-1.6zm-8.9 0H63v1.6h-1.6zm8.9-4.3h1.6v1.6h-1.6zm-4.3 0h1.6v1.6H66zm-4.6 0H63v1.6h-1.6zm8.9-4.3h1.6v1.6h-1.6zm-8.9 0H63v1.6h-1.6zm8.9-4.6h1.6v1.6h-1.6zm-4.3 0h1.6v1.6H66zm-4.6 0H63v1.6h-1.6zm8.9-4.3h1.6v1.6h-1.6zm-4.3 0h1.6v1.6H66zm-4.6 0H63v1.6h-1.6zm4.6-4.3h1.6v1.6H66zm13 21.8h1.6v1.6H79zm0-4.3h1.6v1.6H79zm-4.3 0h1.6v1.6h-1.6zm4.3-4.3h1.6v1.6H79zm0-4.6h1.6v1.6H79zm-4.3 0h1.6v1.6h-1.6zm4.3-4.3h1.6v1.6H79zm-4.3 0h1.6v1.6h-1.6zm0-4.3h1.6v1.6h-1.6zM57 162.2h1.6v1.6H57zm-8.6 0H50v1.6h-1.6zm-8.9 0h1.6v1.6h-1.6zm-4.3 0h1.6v1.6h-1.6zm17.5-4.3h1.6v1.6h-1.6zm-4.3 0H50v1.6h-1.6zm-4.2 0h1.6v1.6h-1.6zm-4.7 0h1.6v1.6h-1.6zm30.8 4.3h1.6v1.6h-1.6zm-8.9 0H63v1.6h-1.6zm8.9-4.3h1.6v1.6h-1.6zm-4.3 0h1.6v1.6H66zm-4.6 0H63v1.6h-1.6zm17.6 4.3h1.6v1.6H79z" class="P U"/><path d="M52.7 153.4h1.6v1.6h-1.6zm-8.5 0h1.6v1.6h-1.6zm12.8-4.3h1.6v1.6H57zm-21.8 0h1.6v1.6h-1.6zm9-4.3h1.6v1.6h-1.6zm-9-4.6h1.6v1.6h-1.6zm17.5-4.3h1.6v1.6h-1.6zm-4.3-4.3H50v1.6h-1.6zm-8.9 0h1.6v1.6h-1.6zM66 153.4h1.6v1.6H66zm0-8.6h1.6v1.6H66zm4.3-13.2h1.6v1.6h-1.6zm-8.9 0H63v1.6h-1.6zm13.3 21.8h1.6v1.6h-1.6zm0-8.6h1.6v1.6h-1.6zm4.3-13.2h1.6v1.6H79zm-26.3 30.5h1.6v1.6h-1.6zm-8.5 0h1.6v1.6h-1.6zm12.8-4.3h1.6v1.6H57zm-21.8 0h1.6v1.6h-1.6zm30.8 4.3h1.6v1.6H66zm8.7 0h1.6v1.6h-1.6z" opacity=".9"/><path d="M79 157.9h1.6v1.6H79zm-4.3 0h1.6v1.6h-1.6z" class="P U"/></g><g opacity=".8"><defs><path id="BA" d="M197 121h-25v-5.4l25-26.8z"/><path id="BB" d="M175.7 132.4h1.3v1.3h-1.3zm4.6 0h1.3v1.3h-1.3zm-23.5-4.6h1.3v1.3h-1.3z"/><path id="BC" d="M131.7 61.9h.4c.1 0 .2.1.2.2v4.7c0 .1-.1.2-.2.2h-.4c-.1 0-.2-.1-.2-.2v-4.7c0-.1.1-.2.2-.2z"/><path id="BD" d="M131.9 68.2l-.4-.7c-.1-.1-.1-.2-.1-.3v-1.3c0-.1 0-.2.1-.3l.4-.7.4.7c.1.1.1.2.1.3v1.3c0 .1 0 .2-.1.3l-.4.7z"/><path id="BE" d="M131 67h1.9c.1 0 .2.1.2.2v.4c0 .1-.1.2-.2.2H131c-.1 0-.2-.1-.2-.2v-.4c0-.1.1-.2.2-.2z"/><path id="BF" d="M138.9 64.4c.2 0 .2 0 .2.1v2.9c0 .1 0 .1-.1.1h-.1c-.1 0-.1 0-.1-.1v-2.9c-.1-.1 0-.1.1-.1z"/><path id="BG" d="M138.9 68.2l-.2-.4v-1.2l.2-.4.2.4v1.2l-.2.4z"/><path id="BH" d="M138.5 67.5h.8c.1 0 .1.1.1.1v.2c0 .1-.1.1-.1.1h-.8c-.1 0-.1-.1-.1-.1v-.2s0-.1.1-.1z"/><path id="BI" d="M125 64.5c.2 0 .2 0 .2.1v2.9c0 .1 0 .1-.1.1h-.1c-.1 0-.1 0-.1-.1l.1-3z"/><path id="BJ" d="M125.1 68.4l-.2-.4v-1.2l.2-.4.2.4V68l-.2.4z"/><path id="BK" d="M124.7 67.6h.8c.1 0 .1.1.1.1v.3c0 .1-.1.1-.1.1h-.8c-.1 0-.1-.1-.1-.1v-.2c0-.1 0-.2.1-.2z"/><path id="BL" d="M111 139.4s-2.6 1.3-2.6 2.9v.9c0-1.6 2.6-2.9 2.6-2.9s2.6 1.3 2.6 2.9v-.9c-.1-1.6-2.6-2.9-2.6-2.9z"/><path id="BM" d="M108.8 154.2V145c0-.2.2-.4.4-.4s.4.2.4.4v9.2m2.4 0V145c0-.2.2-.4.4-.4s.4.2.4.4v9.2m-2.4 0V145c0-.2.2-.4.4-.4s.4.2.4.4v9.2"/><path id="BN" d="M152.6 154.2V145c0-.2.2-.4.4-.4s.4.2.4.4v9.2m2.3 0V145c0-.2.2-.4.4-.4s.4.2.4.4v9.2m-2.3 0V145c0-.2.2-.4.4-.4s.4.2.4.4v9.2"/><path id="BO" d="M71.9 61.6v.6c0 1 .8 1.7 1.8 1.6h.1l11.3 6.6h7.2l11.3-6.6h.2c1 0 1.8-.7 1.8-1.6v-.6H71.9z"/><path id="BP" d="M83.7 47.2h10.1c.3 0 .6.3.6.6s-.3.6-.6.6H83.7c-.3 0-.6-.3-.6-.6 0-.4.3-.6.6-.6z"/><path id="BQ" d="M83.7 41.5h10.1c.3 0 .6.3.6.6s-.3.6-.6.6H83.7c-.3 0-.6-.3-.6-.6s.3-.6.6-.6z"/><path id="BR" d="M78.4 172.4c-.2-7.7-6.1-13.9-13.7-14.7.5 0 1-.1 1.6-.1 8.3 0 15 6.5 15.3 14.8h-3.2z"/><path id="BS" d="M50.5 125c0-.1-.1-.2-.2-.3l-4.9-1.6c-.1 0-.3 0-.3.2v.1c0 .1.1.2.2.3l4.9 1.7c.1 0 .3 0 .3-.2v-.2zm0 1.9c0-.1-.1-.2-.2-.3l-4.9-1.6c-.1 0-.3 0-.3.2v.1c0 .1.1.2.2.3l4.9 1.7c.1 0 .3 0 .3-.2v-.2z"/><path id="BT" d="M50.5 130.7c0-.1-.1-.2-.2-.3l-4.9-1.6c-.1 0-.3 0-.3.2v.1c0 .1.1.2.2.3l4.9 1.7c.1 0 .3 0 .3-.2v-.2z"/><path id="BU" d="M14 98h16v3H14zm0 6h16v3H14zm0 6h16v3H14z"/></defs><clipPath id="BV"><use xlink:href="#BA"/></clipPath><g class="P R" clip-path="url(#BV)"><path d="M172 95h22v3h-22zm0 6h22v3h-22zm0 6h22v3h-22zm0 6h22v3h-22z" class="W"/></g></g></svg>