<svg xmlns="http://www.w3.org/2000/svg" xmlns:xlink="http://www.w3.org/1999/xlink" viewBox="0 0 200 172"><style><![CDATA[.L{fill:none}.M{enable-background:new}.N{stroke-linejoin:round}.O{stroke-linecap:round}.P{stroke-width:.798}.Q{opacity:.2}.R{stroke-width:.399}.S{fill:#fff}.T{stroke-miterlimit:10}.U{opacity:.3}.V{stroke:#fff}.W{opacity:.1}.X{stroke-width:1.597}.Y{stroke:#000}]]></style><linearGradient id="A" gradientUnits="userSpaceOnUse" x1="102.25" y1="172.2" x2="102.25" y2="24.795"><stop offset="0" stop-color="#1d7ee8"/><stop offset="1" stop-color="#2ea7db"/></linearGradient><path d="M17 110.6v61.6h170.5v-62.3c0-49-41.5-88.3-91.3-84.9C51.5 28.1 17 65.8 17 110.6z" fill="url(#A)"/><path d="M175 172.2H25l.8-103.5 22.7-23.3L65 62.8l1 30.6v12.5h8V94.4l7-7.5h23v19h8.2L123 44.4l13.6 62.1 5.3-29.4 16.6-6 15.2-.9L186 87v84.7h-11v.5z" class="M Q"/><path d="M6.9 157.5H198v14.8H6.9z" class="M Q"/><linearGradient id="B" gradientUnits="userSpaceOnUse" x1="51.139" y1="144.4" x2="84.153" y2="144.4"><stop offset="0" stop-color="#4c3ea1"/><stop offset="1" stop-color="#2e3192"/></linearGradient><g class="L N O"><path stroke="url(#B)" d="M83.4 140.2l-4.4 9.4-10.4-7-10.4 7-6.3-10.4" class="X"/><path d="M68.3 98.5v52" class="P U Y"/></g><linearGradient id="C" gradientUnits="userSpaceOnUse" x1="67.743" y1="124.5" x2="68.482" y2="124.5"><stop offset="0" stop-color="#4c3ea1"/><stop offset="1" stop-color="#2e3192"/></linearGradient><path stroke="url(#C)" stroke-width=".74" d="M68.1 98.5v52" class="L N O"/><linearGradient id="D" gradientUnits="userSpaceOnUse" x1="25.502" y1="75.95" x2="38.755" y2="75.95"><stop offset="0" stop-color="#4c3ea1"/><stop offset="1" stop-color="#2e3192"/></linearGradient><path stroke="url(#D)" d="M28.6 82.9l-2.3-12.1L38 69" class="L N O X"/><linearGradient id="E" gradientUnits="userSpaceOnUse" x1="17.647" y1="112.5" x2="52.743" y2="112.5"><stop offset="0" stop-color="#4c3ea1"/><stop offset="1" stop-color="#2e3192"/></linearGradient><path stroke="url(#E)" d="M51.9 139.2l-11.7 2.9-2.2-12.3-11.7-2.8 2.3-11.1-10-6 6.8-10.6-7-9.1 10.2-7.3" class="L N O X"/><linearGradient id="F" gradientUnits="userSpaceOnUse" x1="37.202" y1="95.8" x2="119.298" y2="95.8"><stop offset="0" stop-color="#4c3ea1"/><stop offset="1" stop-color="#2e3192"/></linearGradient><path stroke="url(#F)" d="M38 69l2.1-11.9 11.7 2.1 6.5-9.7 10 6.9 10.5-6.9 6.1 10.1L97 57.2 98.8 69l12.2 3-2.8 10.9 10.3 7.5-6.9 8.9 6.6 9.7-10 6.9 2.5 11.4-11.9 2.5-1.9 12.3-13.5-1.9" class="L N O X"/><linearGradient id="G" gradientUnits="userSpaceOnUse" x1="16.902" y1="99.5" x2="120.297" y2="99.5"><stop offset="0" stop-color="#4c3ea1"/><stop offset="1" stop-color="#2e3192"/></linearGradient><ellipse cx="68.6" cy="99.5" rx="50.9" ry="51" stroke="url(#G)" stroke-width="1.595" class="L"/><linearGradient id="H" gradientUnits="userSpaceOnUse" x1="25.001" y1="99.4" x2="111.899" y2="99.4"><stop offset="0" stop-color="#4c3ea1"/><stop offset="1" stop-color="#2e3192"/></linearGradient><path stroke="url(#H)" d="M25.4 99.4h86.1" class="L N O P"/><linearGradient id="I" gradientUnits="userSpaceOnUse" x1="37.601" y1="99.4" x2="99.277" y2="99.4"><stop offset="0" stop-color="#4c3ea1"/><stop offset="1" stop-color="#2e3192"/></linearGradient><path stroke="url(#I)" d="M38 129.8L98.8 69" class="L N O P"/><g class="L"><path stroke="url(#I)" d="M38 69l60.8 60.8" class="N O P"/><path d="M84.9 139.2l3 7.2" stroke="#999" class="R T"/></g><linearGradient id="J" gradientUnits="userSpaceOnUse" x1="28.201" y1="99.4" x2="108.599" y2="99.4"><stop offset="0" stop-color="#4c3ea1"/><stop offset="1" stop-color="#2e3192"/></linearGradient><path stroke="url(#J)" d="M28.6 115.9l79.6-33" class="L N O P"/><linearGradient id="K" gradientUnits="userSpaceOnUse" x1="67.601" y1="77.85" x2="68.306" y2="77.85"><stop offset="0" stop-color="#4c3ea1"/><stop offset="1" stop-color="#2e3192"/></linearGradient><path stroke="url(#K)" stroke-width=".704" d="M68 56.3v43.1" class="L N O"/><linearGradient id="L" gradientUnits="userSpaceOnUse" x1="51.539" y1="99.4" x2="85.337" y2="99.4"><stop offset="0" stop-color="#4c3ea1"/><stop offset="1" stop-color="#2e3192"/></linearGradient><path stroke="url(#L)" d="M51.9 59.6l33 79.6" class="L N O P"/><g class="L"><path stroke="url(#L)" d="M51.9 139.2l33-79.6" class="N O P"/><path d="M48.9 146.4l3-7.2" stroke="#999" class="R T"/></g><path stroke="url(#J)" d="M28.6 82.9l79.6 33" class="L N O P"/><linearGradient id="M" gradientUnits="userSpaceOnUse" x1="0" y1="99.3" x2="12.5" y2="99.3"><stop offset="0" stop-color="#451088"/><stop offset="1" stop-color="#593179"/></linearGradient><path d="M3.7 95.6h5.1c2 0 3.7 1.6 3.7 3.7 0 2-1.6 3.7-3.7 3.7H3.7c-2 0-3.7-1.6-3.7-3.7 0-2 1.6-3.7 3.7-3.7z" fill="url(#M)"/><path d="M.1 100.4h12.3" class="L R T V"/><path d="M2.7 97.3h2.2c.6 0 1 .4 1 1s-.5 1-1 1H2.7c-.6 0-1-.4-1-1 0-.5.5-1 1-1zm4.9 0h2.2c.6 0 1 .4 1 1s-.5 1-1 1H7.6c-.6 0-1-.4-1-1 0-.5.4-1 1-1z" class="M Q S"/><linearGradient id="N" gradientUnits="userSpaceOnUse" x1="3.914" y1="79.2" x2="16.414" y2="79.2"><stop offset="0" stop-color="#451088"/><stop offset="1" stop-color="#593179"/></linearGradient><path d="M7.6 75.5h5.1c2 0 3.7 1.6 3.7 3.7 0 2-1.6 3.7-3.7 3.7H7.6c-2 0-3.7-1.6-3.7-3.7s1.7-3.7 3.7-3.7z" fill="url(#N)"/><path d="M4 80.3h12.3" class="L R T V"/><path d="M6.6 77.2h2.2c.6 0 1 .4 1 1s-.5 1-1 1H6.6c-.6 0-1-.4-1-1s.4-1 1-1zm4.9 0h2.2c.6 0 1 .4 1 1s-.5 1-1 1h-2.2c-.6 0-1-.4-1-1s.4-1 1-1z" class="M Q S"/><linearGradient id="O" gradientUnits="userSpaceOnUse" x1="33.654" y1="45.8" x2="46.154" y2="45.8"><stop offset="0" stop-color="#451088"/><stop offset="1" stop-color="#593179"/></linearGradient><path d="M37.3 42.1h5.1c2 0 3.7 1.6 3.7 3.7 0 2-1.6 3.7-3.7 3.7h-5.1c-2 0-3.7-1.6-3.7-3.7.1-2 1.7-3.7 3.7-3.7z" fill="url(#O)"/><path d="M33.7 46.9h12.4" class="L R T V"/><path d="M36.4 43.9h2.2c.6 0 1 .4 1 1s-.5 1-1 1h-2.2c-.6 0-1-.4-1-1-.1-.6.4-1 1-1zm4.9 0h2.2c.6 0 1 .4 1 1s-.5 1-1 1h-2.2c-.6 0-1-.4-1-1-.1-.6.4-1 1-1z" class="M Q S"/><path d="M62.3 40.6h12.3m-9.7-3.1h2.2c.6 0 1 .4 1 1s-.5 1-1 1h-2.2c-.6 0-1-.4-1-1 0-.5.4-1 1-1zm4.9 0H72c.6 0 1 .4 1 1s-.5 1-1 1h-2.2c-.6 0-1-.4-1-1 0-.5.4-1 1-1z" stroke="#999" class="L R T"/><linearGradient id="P" gradientUnits="userSpaceOnUse" x1="13.828" y1="61.8" x2="26.328" y2="61.8"><stop offset="0" stop-color="#451088"/><stop offset="1" stop-color="#593179"/></linearGradient><path d="M17.5 58.1h5.1c2 0 3.7 1.6 3.7 3.7 0 2-1.6 3.7-3.7 3.7h-5.1c-2 0-3.7-1.6-3.7-3.7s1.7-3.7 3.7-3.7z" fill="url(#P)"/><path d="M13.9 62.9h12.3" class="L R T V"/><path d="M16.5 59.7h2.2c.6 0 1 .4 1 1s-.5 1-1 1h-2.2c-.6 0-1-.4-1-1 0-.5.5-1 1-1zm4.9 0h2.2c.6 0 1 .4 1 1s-.5 1-1 1h-2.2c-.6 0-1-.4-1-1 0-.5.5-1 1-1z" class="M Q S"/><linearGradient id="Q" gradientUnits="userSpaceOnUse" x1="124.4" y1="99.3" x2="136.9" y2="99.3"><stop offset="0" stop-color="#451088"/><stop offset="1" stop-color="#593179"/></linearGradient><path d="M133.2 103h-5.1c-2 0-3.7-1.6-3.7-3.7 0-2 1.6-3.7 3.7-3.7h5.1c2 0 3.7 1.6 3.7 3.7 0 2-1.7 3.7-3.7 3.7z" fill="url(#Q)"/><path d="M136.8 100.4h-12.3" class="L R T V"/><path d="M134.2 99.3H132c-.6 0-1-.4-1-1s.5-1 1-1h2.2c.6 0 1 .4 1 1s-.5 1-1 1zm-4.9 0h-2.2c-.6 0-1-.4-1-1s.5-1 1-1h2.2c.6 0 1 .4 1 1s-.5 1-1 1z" class="M Q S"/><linearGradient id="R" gradientUnits="userSpaceOnUse" x1="120.48" y1="79.1" x2="132.98" y2="79.1"><stop offset="0" stop-color="#451088"/><stop offset="1" stop-color="#593179"/></linearGradient><path d="M129.3 82.8h-5.1c-2 0-3.7-1.6-3.7-3.7 0-2 1.6-3.7 3.7-3.7h5.1c2 0 3.7 1.6 3.7 3.7s-1.7 3.7-3.7 3.7z" fill="url(#R)"/><path d="M132.9 80.3h-12.3" class="L R T V"/><path d="M130.3 79.2h-2.2c-.6 0-1-.4-1-1s.5-1 1-1h2.2c.6 0 1 .4 1 1s-.5 1-1 1zm-4.9 0h-2.2c-.6 0-1-.4-1-1s.5-1 1-1h2.2c.6 0 1 .4 1 1s-.5 1-1 1z" class="Q S"/><linearGradient id="S" gradientUnits="userSpaceOnUse" x1="90.738" y1="45.8" x2="103.238" y2="45.8"><stop offset="0" stop-color="#451088"/><stop offset="1" stop-color="#593179"/></linearGradient><path d="M99.6 49.5h-5.1c-2 0-3.7-1.6-3.7-3.7 0-2 1.6-3.7 3.7-3.7h5.1c2 0 3.7 1.6 3.7 3.7-.1 2-1.7 3.7-3.7 3.7z" fill="url(#S)"/><path d="M103.2 46.9H90.8" class="L R T V"/><path d="M100.5 45.9h-2.2c-.6 0-1-.4-1-1s.5-1 1-1h2.2c.6 0 1 .4 1 1 .1.5-.4 1-1 1zm-4.9 0h-2.2c-.6 0-1-.4-1-1s.5-1 1-1h2.2c.6 0 1 .4 1 1 0 .5-.4 1-1 1z" class="M Q S"/><linearGradient id="T" gradientUnits="userSpaceOnUse" x1="62.2" y1="39.5" x2="74.7" y2="39.5"><stop offset="0" stop-color="#451088"/><stop offset="1" stop-color="#593179"/></linearGradient><path d="M71 43.2h-5.1c-2 0-3.7-1.6-3.7-3.7 0-2 1.6-3.7 3.7-3.7H71c2 0 3.7 1.6 3.7 3.7 0 2-1.6 3.7-3.7 3.7z" fill="url(#T)"/><path d="M74.6 40.6H62.3" class="L R T V"/><path d="M72 39.6h-2.2c-.6 0-1-.4-1-1s.5-1 1-1H72c.6 0 1 .4 1 1 0 .5-.5 1-1 1zm-4.9 0h-2.2c-.6 0-1-.4-1-1s.5-1 1-1h2.2c.6 0 1 .4 1 1 0 .5-.4 1-1 1z" class="M Q S"/><linearGradient id="U" gradientUnits="userSpaceOnUse" x1="110.566" y1="61.7" x2="123.066" y2="61.7"><stop offset="0" stop-color="#451088"/><stop offset="1" stop-color="#593179"/></linearGradient><path d="M119.4 65.4h-5.1c-2 0-3.7-1.6-3.7-3.7 0-2 1.6-3.7 3.7-3.7h5.1c2 0 3.7 1.6 3.7 3.7s-1.7 3.7-3.7 3.7z" fill="url(#U)"/><path d="M123 62.9h-12.3" class="L R T V"/><path d="M120.4 61.8h-2.2c-.6 0-1-.4-1-1s.5-1 1-1h2.2c.6 0 1 .4 1 1 0 .5-.5 1-1 1zm-4.9 0h-2.2c-.6 0-1-.4-1-1s.5-1 1-1h2.2c.6 0 1 .4 1 1 0 .5-.5 1-1 1z" class="M Q S"/><linearGradient id="V" gradientUnits="userSpaceOnUse" x1="3.613" y1="120.9" x2="16.113" y2="120.9"><stop offset="0" stop-color="#451088"/><stop offset="1" stop-color="#593179"/></linearGradient><path d="M7.3 117.2h5.1c2 0 3.7 1.6 3.7 3.7 0 2-1.6 3.7-3.7 3.7H7.3c-2 0-3.7-1.6-3.7-3.7 0-2 1.7-3.7 3.7-3.7z" fill="url(#V)"/><path d="M3.7 122.1H16" class="L R T V"/><path d="M6.3 118.9h2.2c.6 0 1 .4 1 1s-.5 1-1 1H6.3c-.6 0-1-.4-1-1 0-.5.5-1 1-1zm4.9 0h2.2c.6 0 1 .4 1 1s-.5 1-1 1h-2.2c-.6 0-1-.4-1-1 0-.5.5-1 1-1z" class="M Q S"/><linearGradient id="W" gradientUnits="userSpaceOnUse" x1="120.48" y1="120.9" x2="132.98" y2="120.9"><stop offset="0" stop-color="#451088"/><stop offset="1" stop-color="#593179"/></linearGradient><path d="M124.2 117.2h5.1c2 0 3.7 1.6 3.7 3.7 0 2-1.6 3.7-3.7 3.7h-5.1c-2 0-3.7-1.6-3.7-3.7 0-2 1.6-3.7 3.7-3.7z" fill="url(#W)"/><path d="M120.6 122.1h12.3" class="L R T V"/><path d="M123.2 118.9h2.2c.6 0 1 .4 1 1s-.5 1-1 1h-2.2c-.6 0-1-.4-1-1 0-.5.4-1 1-1zm4.9 0h2.2c.6 0 1 .4 1 1s-.5 1-1 1h-2.2c-.6 0-1-.4-1-1 0-.5.4-1 1-1z" class="M Q S"/><path d="M119.6 99.6c0 28.2-22.8 51-51 51s-51.1-22.8-51.1-51 22.8-51 51-51c28.3 0 51.1 22.8 51.1 51z" class="L M T U X Y"/><linearGradient id="X" gradientUnits="userSpaceOnUse" x1="41.4" y1="128" x2="95.3" y2="128"><stop offset="0" stop-color="#4c3ea1"/><stop offset="1" stop-color="#2e3192"/></linearGradient><path fill="url(#X)" d="M69.3 95.3l-20 65.5h-7.9l27.5-65.5-1.1-.1 27.5 65.6h-7.8l-20-65.6"/><path d="M69.3 95.5l-20 65.4h-7.9l27.5-65.5-1.1-.1 27.5 65.6h-7.8l-20-65.5"/><linearGradient id="Y" gradientUnits="userSpaceOnUse" x1="67.603" y1="52.45" x2="68.402" y2="52.45"><stop offset="0" stop-color="#4c3ea1"/><stop offset="1" stop-color="#2e3192"/></linearGradient><path stroke="url(#Y)" d="M68 56.4v-7.9" class="L N O P"/><linearGradient id="Z" gradientUnits="userSpaceOnUse" x1="111.059" y1="99.4" x2="119.738" y2="99.4"><stop offset="0" stop-color="#4c3ea1"/><stop offset="1" stop-color="#2e3192"/></linearGradient><path stroke="url(#Z)" d="M111.5 99.4h7.8" class="L N O P"/><linearGradient id="a" gradientUnits="userSpaceOnUse" x1="17.088" y1="99.4" x2="25.762" y2="99.4"><stop offset="0" stop-color="#4c3ea1"/><stop offset="1" stop-color="#2e3192"/></linearGradient><path stroke="url(#a)" d="M17.5 99.4h7.9" class="L N O P"/><linearGradient id="b" gradientUnits="userSpaceOnUse" x1="98.454" y1="66.2" x2="104.826" y2="66.2"><stop offset="0" stop-color="#4c3ea1"/><stop offset="1" stop-color="#2e3192"/></linearGradient><path stroke="url(#b)" d="M98.8 69l5.6-5.6" class="L N O P"/><linearGradient id="c" gradientUnits="userSpaceOnUse" x1="32.008" y1="132.6" x2="38.379" y2="132.6"><stop offset="0" stop-color="#4c3ea1"/><stop offset="1" stop-color="#2e3192"/></linearGradient><path stroke="url(#c)" d="M32.4 135.4l5.6-5.6" class="L N O P"/><linearGradient id="d" gradientUnits="userSpaceOnUse" x1="98.454" y1="132.6" x2="104.826" y2="132.6"><stop offset="0" stop-color="#4c3ea1"/><stop offset="1" stop-color="#2e3192"/></linearGradient><path stroke="url(#d)" d="M98.8 129.8l5.6 5.6" class="L N O P"/><linearGradient id="e" gradientUnits="userSpaceOnUse" x1="107.801" y1="81.4" x2="115.865" y2="81.4"><stop offset="0" stop-color="#4c3ea1"/><stop offset="1" stop-color="#2e3192"/></linearGradient><path stroke="url(#e)" d="M108.2 82.9l7.3-3" class="L N O P"/><linearGradient id="f" gradientUnits="userSpaceOnUse" x1="20.97" y1="117.4" x2="29.034" y2="117.4"><stop offset="0" stop-color="#4c3ea1"/><stop offset="1" stop-color="#2e3192"/></linearGradient><path stroke="url(#f)" d="M21.4 118.9l7.2-3" class="L N O P"/><linearGradient id="g" gradientUnits="userSpaceOnUse" x1="84.494" y1="56" x2="88.303" y2="56"><stop offset="0" stop-color="#4c3ea1"/><stop offset="1" stop-color="#2e3192"/></linearGradient><path stroke="url(#g)" d="M84.9 59.6l3-7.2" class="L N O P"/><linearGradient id="h" gradientUnits="userSpaceOnUse" x1="107.786" y1="117.4" x2="115.849" y2="117.4"><stop offset="0" stop-color="#4c3ea1"/><stop offset="1" stop-color="#2e3192"/></linearGradient><path stroke="url(#h)" d="M108.2 115.9l7.3 3" class="L N O P"/><linearGradient id="i" gradientUnits="userSpaceOnUse" x1="48.531" y1="56" x2="52.339" y2="56"><stop offset="0" stop-color="#4c3ea1"/><stop offset="1" stop-color="#2e3192"/></linearGradient><path stroke="url(#i)" d="M51.9 59.6l-3-7.2" class="L N O P"/><linearGradient id="j" gradientUnits="userSpaceOnUse" x1="32.008" y1="66.2" x2="38.375" y2="66.2"><stop offset="0" stop-color="#4c3ea1"/><stop offset="1" stop-color="#2e3192"/></linearGradient><path stroke="url(#j)" d="M38 69l-5.6-5.6" class="L N O P"/><linearGradient id="k" gradientUnits="userSpaceOnUse" x1="20.97" y1="81.4" x2="29.034" y2="81.4"><stop offset="0" stop-color="#4c3ea1"/><stop offset="1" stop-color="#2e3192"/></linearGradient><g class="L N O"><path stroke="url(#k)" d="M21.4 79.9l7.2 3" class="P"/><g class="U Y"><path stroke-width=".732" d="M68 56.4v-7.9"/><path d="M111.5 99.4h7.8m-101.8 0h7.9M98.8 69l5.6-5.6m-72 72l5.6-5.6m60.8 0l5.6 5.6m3.8-52.5l7.3-3m-94.1 39l7.2-3m56.3-56.3l3-7.2m20.3 63.5l7.3 3M51.9 59.6l-3-7.2M38 69l-5.6-5.6m-11 16.5l7.2 3" class="P"/></g></g><path d="M92.1 160.7h3.2L69.4 99zm-47.3.2h-3.3l25.9-61.6z" class="M U"/><linearGradient id="l" gradientUnits="userSpaceOnUse" x1="64.433" y1="99.35" x2="72.405" y2="99.35"><stop offset="0" stop-color="#4c3ea1"/><stop offset="1" stop-color="#2e3192"/></linearGradient><path fill="url(#l)" d="M70.6 95h-4.3l-1.9 1.9v5l1.9 1.8h4.3l1.8-1.8v-5z"/><path d="M70.6 95h-4.3l-1.9 1.9v5l1.9 1.8h4.3l1.8-1.8v-5z" class="M U"/><linearGradient id="m" gradientUnits="userSpaceOnUse" x1="24.702" y1="99.5" x2="112.298" y2="99.5"><stop offset="0" stop-color="#4c3ea1"/><stop offset="1" stop-color="#2e3192"/></linearGradient><g class="L X"><circle cx="68.5" cy="99.5" r="43" stroke="url(#m)"/><circle cx="68.5" cy="99.5" r="43" class="M U Y"/></g><linearGradient id="n" gradientUnits="userSpaceOnUse" x1="93.734" y1="165.8" x2="86.46" y2="165.8"><stop offset="0" stop-color="#4c3ea1"/><stop offset="1" stop-color="#2e3192"/></linearGradient><circle cx="90.1" cy="165.8" r="3.6" fill="url(#n)"/><linearGradient id="o" gradientUnits="userSpaceOnUse" x1="62.219" y1="165.8" x2="54.946" y2="165.8"><stop offset="0" stop-color="#4c3ea1"/><stop offset="1" stop-color="#2e3192"/></linearGradient><circle cx="58.6" cy="165.8" r="3.6" fill="url(#o)"/><linearGradient id="p" gradientUnits="userSpaceOnUse" x1="91.05" y1="165.8" x2="89.146" y2="165.8"><stop offset="0" stop-color="#2e60e8"/><stop offset="1" stop-color="#2e74db"/></linearGradient><circle cx="90.1" cy="165.8" r="1" fill="url(#p)"/><linearGradient id="q" gradientUnits="userSpaceOnUse" x1="59.533" y1="165.8" x2="57.628" y2="165.8"><stop offset="0" stop-color="#2e60e8"/><stop offset="1" stop-color="#2e74db"/></linearGradient><circle cx="58.6" cy="165.8" r="1" fill="url(#q)"/><g opacity=".6"><circle cx="90.1" cy="165.8" r="3.6"/><circle cx="58.6" cy="165.8" r="3.6"/></g><linearGradient id="r" gradientUnits="userSpaceOnUse" x1="102.839" y1="142" x2="41.938" y2="142"><stop offset="0" stop-color="#451088"/><stop offset="1" stop-color="#593179"/></linearGradient><path d="M42 148v-5c0-3.8 3.2-7 7.3-7h46.4c4 0 7.2 3.2 7.3 7v5H42z" fill="url(#r)"/><linearGradient id="s" gradientUnits="userSpaceOnUse" x1="103" y1="157" x2="42" y2="157"><stop offset="0" stop-color="#451088"/><stop offset="1" stop-color="#593179"/></linearGradient><path d="M93 148v7.6l8.4 3.5c1 .3 1.6 1.1 1.6 2.1v3.1c0 .9-.8 1.7-1.7 1.7H95c-.1-2.7-2.5-4.8-5.2-4.7-2.6.1-4.6 2.2-4.7 4.7H63.8c-.1-2.7-2.4-4.9-5.1-4.8s-4.7 2.2-4.8 4.8H43.7c-.9 0-1.7-.7-1.7-1.7V148h51z" fill="url(#s)"/><linearGradient id="t" gradientUnits="userSpaceOnUse" x1="100.76" y1="140.65" x2="82.916" y2="140.65"><stop offset="0" stop-color="#4c3ea1"/><stop offset="1" stop-color="#2e3192"/></linearGradient><path d="M82.9 141.1c0-1.8 1.4-3.2 3.2-3.2h9.5c2.8 0 5.1 2.3 5.1 5.1v.4H83l-.1-2.3z" fill="url(#t)"/><linearGradient id="u" gradientUnits="userSpaceOnUse" x1="100.99" y1="153.105" x2="92.99" y2="153.105"><stop offset="0" stop-color="#4c3ea1"/><stop offset="1" stop-color="#2e3192"/></linearGradient><path fill="url(#u)" d="M101 147.3v11.6l-8-3.3v-8.3z"/><linearGradient id="v" gradientUnits="userSpaceOnUse" x1="61.279" y1="140.65" x2="43.435" y2="140.65"><stop offset="0" stop-color="#4c3ea1"/><stop offset="1" stop-color="#2e3192"/></linearGradient><path d="M61.3 141.1c0-1.8-1.4-3.2-3.2-3.2h-9.5c-2.8 0-5.1 2.3-5.1 5.1v.4h17.8v-2.3z" fill="url(#v)"/><linearGradient id="w" gradientUnits="userSpaceOnUse" x1="80.658" y1="140.7" x2="63.689" y2="140.7"><stop offset="0" stop-color="#4c3ea1"/><stop offset="1" stop-color="#2e3192"/></linearGradient><path d="M63.7 143.5v-2.1c0-1.9 1.6-3.5 3.5-3.5h10.1c1.9 0 3.5 1.6 3.5 3.5v2.1H63.7z" fill="url(#w)"/><linearGradient id="x" gradientUnits="userSpaceOnUse" x1="89.662" y1="152.05" x2="77.542" y2="152.05"><stop offset="0" stop-color="#4c3ea1"/><stop offset="1" stop-color="#2e3192"/></linearGradient><use xlink:href="#AQ" fill="url(#x)"/><linearGradient id="y" gradientUnits="userSpaceOnUse" x1="89.679" y1="152.05" x2="77.559" y2="152.05"><stop offset="0" stop-color="#4c3ea1"/><stop offset="1" stop-color="#2e3192"/></linearGradient><use xlink:href="#AQ" x="-15.6" fill="url(#y)"/><linearGradient id="z" gradientUnits="userSpaceOnUse" x1="89.685" y1="152.05" x2="77.565" y2="152.05"><stop offset="0" stop-color="#4c3ea1"/><stop offset="1" stop-color="#2e3192"/></linearGradient><use xlink:href="#AQ" x="-31.2" fill="url(#z)"/><path d="M41.9 145.7h61v1.6h-61zm.1 11.1h48v1H42zm-.1-12.1H103v.4H41.9z" class="M U"/><linearGradient id="AA" gradientUnits="userSpaceOnUse" x1="34" y1="102.35" x2="5" y2="102.35"><stop offset="0" stop-color="#451088"/><stop offset="1" stop-color="#593179"/></linearGradient><path fill="url(#AA)" d="M7 78.4V67.6h1.7l2.1-7.9H13v-9.9h-.8L20 32.5l7.8 17.3H27v9.9h1l2.3 7.9H32v10.8h2v27.7h-2v66.1H7v-66.1H5V78.4z"/><path d="M8.3 82.2h21.4v21.4H8.3z" class="M Q"/><linearGradient id="AB" gradientUnits="userSpaceOnUse" x1="28.5" y1="93.3" x2="9.5" y2="93.3"><stop offset="0" stop-color="#4c3ea1"/><stop offset="1" stop-color="#2e3192"/></linearGradient><path opacity=".5" fill="url(#AB)" d="M9.5 83.8h19v19h-19z"/><path opacity=".7" fill="#29255b" d="M19.8 30.8V26h.3v4.8h.4v3.1h-1v-3.1z"/><path d="M5.3 105.5h28.5v.4H5.3zM5 79.2h28.9v.4H5z" class="M W"/><path d="M25 118.6c-.2 0-.4-.2-.4-.4v-7.9c0-.2.2-.4.4-.4s.4.2.4.4v7.9c0 .3-.2.4-.4.4zm-2.8 0c-.2 0-.4-.2-.4-.4v-7.9c0-.2.2-.4.4-.4s.4.2.4.4v7.9c0 .3-.2.4-.4.4zm-6.5 0c-.2 0-.4-.2-.4-.4v-7.9c0-.2.2-.4.4-.4s.4.2.4.4v7.9c-.1.3-.2.4-.4.4zm-2.8 0c-.2 0-.4-.2-.4-.4v-7.9c0-.2.2-.4.4-.4s.4.2.4.4v7.9c0 .3-.2.4-.4.4z" class="M Q"/><path d="M7.1 68.3h25v.3h-25zm3.4-8.1h17v1h-17z" class="M W"/><path d="M27 79v-5.8c0-.9-.6-1.6-1.5-1.6s-1.5.8-1.5 1.6V79m-3 0v-5.8c0-.9-.6-1.6-1.5-1.6s-1.5.8-1.5 1.6V79m-3 0v-5.8c0-.9-.6-1.6-1.5-1.6s-1.5.8-1.5 1.6V79m12-19v-5.4c0-.8-.7-1.5-1.5-1.5s-1.5.6-1.5 1.5V60m-3 0v-5.4c0-.8-.7-1.5-1.5-1.5s-1.5.6-1.5 1.5V60" class="S"/><use xlink:href="#AR" class="M Q"/><path d="M7 122.3h24.9v.4H7z" class="M W"/><use xlink:href="#AR" y="15.9" class="M Q"/><path d="M7 138.9h24.9v.4H7zm0 16.2h24.9v.4H7z" class="M W"/><path d="M25 168.3c-.2 0-.4-.2-.4-.4V160c0-.2.2-.4.4-.4s.4.2.4.4v7.9c0 .2-.2.4-.4.4zm-2.8 0c-.2 0-.4-.2-.4-.4V160c0-.2.2-.4.4-.4s.4.2.4.4v7.9c0 .2-.2.4-.4.4zm-6.5 0c-.2 0-.4-.2-.4-.4V160c0-.2.2-.4.4-.4s.4.2.4.4v7.9c-.1.2-.2.4-.4.4zm-2.8 0c-.2 0-.4-.2-.4-.4V160c0-.2.2-.4.4-.4s.4.2.4.4v7.9c0 .2-.2.4-.4.4zM7 78.5v-11h1.7l2.1-7.9h1.4l-2.3 8.2-1.8.1v10H7V106h1.1v66.3H7v-66.2H5V78.5zm5.9-18.6V49.8h-.8l7.3-16.1h.9l.4 1L14 49.8h-.3l.1 10.1z" class="M Q"/><circle cx="19" cy="92.6" r="7.8" class="S"/><linearGradient id="AC" gradientUnits="userSpaceOnUse" x1="19" y1="85.9" x2="19" y2="85.9"><stop offset="0" stop-color="#4531a7"/><stop offset="1" stop-color="#423179"/></linearGradient><path d="M19 85.9z" opacity=".4" stroke="url(#AC)" class="L N R"/><linearGradient id="AD" gradientUnits="userSpaceOnUse" x1="19" y1="99.5" x2="19" y2="99.5"><stop offset="0" stop-color="#4531a7"/><stop offset="1" stop-color="#423179"/></linearGradient><path d="M19 99.5z" opacity=".4" stroke="url(#AD)" class="L N R"/><linearGradient id="AE" gradientUnits="userSpaceOnUse" x1="12" y1="92.401" x2="12" y2="92.401"><stop offset="0" stop-color="#4531a7"/><stop offset="1" stop-color="#423179"/></linearGradient><path d="M12 92.4z" opacity=".4" stroke="url(#AE)" class="L N R"/><linearGradient id="AF" gradientUnits="userSpaceOnUse" x1="25.6" y1="92.401" x2="25.6" y2="92.401"><stop offset="0" stop-color="#4531a7"/><stop offset="1" stop-color="#423179"/></linearGradient><path d="M25.6 92.4z" opacity=".4" stroke="url(#AF)" class="L N R"/><linearGradient id="AG" gradientUnits="userSpaceOnUse" x1="19.533" y1="91.55" x2="16.067" y2="91.55"><stop offset="0" stop-color="#4531a7"/><stop offset="1" stop-color="#423179"/></linearGradient><path stroke="url(#AG)" d="M19.1 87.8v4.9l-2.7 2.6" class="L N O P"/><path d="M156.8 68.5h1.6v4.4h-1.6zm-11.1 0h1.6v4.4h-1.6z" class="M U"/><linearGradient id="AH" gradientUnits="userSpaceOnUse" x1="140" y1="132.5" x2="116" y2="132.5"><stop offset="0" stop-color="#3651bf"/><stop offset="1" stop-color="#2e5bdb"/></linearGradient><path fill="url(#AH)" d="M116 110h24v45h-24z"/><g class="S"><path d="M136.9 148.7h-6.4c-.2 0-.4-.2-.4-.4v-.4c0-.2.2-.4.4-.4h6.4c.2 0 .4.2.4.4v.4c0 .2-.2.4-.4.4zm-12 0h-6.4c-.2 0-.4-.2-.4-.4v-.4c0-.2.2-.4.4-.4h6.4c.2 0 .4.2.4.4v.4c0 .2-.1.4-.4.4zm12-4h-6.4c-.2 0-.4-.2-.4-.4v-.4c0-.2.2-.4.4-.4h6.4c.2 0 .4.2.4.4v.4c0 .2-.2.4-.4.4zm-12 0h-6.4c-.2 0-.4-.2-.4-.4v-.4c0-.2.2-.4.4-.4h6.4c.2 0 .4.2.4.4v.4c0 .2-.1.4-.4.4z" class="U"/><path d="M136.9 132.8h-18.4c-.2 0-.4-.2-.4-.4v-.4c0-.2.2-.4.4-.4h18.4c.2 0 .4.2.4.4v.4c0 .2-.2.4-.4.4z"/></g><path d="M116 110h24v3h-24z" class="M U"/><linearGradient id="AI" gradientUnits="userSpaceOnUse" x1="142.476" y1="131.95" x2="139.685" y2="131.95"><stop offset="0" stop-color="#2e42bf"/><stop offset="1" stop-color="#593192"/></linearGradient><path fill="url(#AI)" d="M142.5 115.6v38.7h-2.8v-44.7z"/><path d="M142.5 115.6v38.7h-2.8v-44.7z" opacity=".15" class="M"/><linearGradient id="AJ" gradientUnits="userSpaceOnUse" x1="166" y1="118.5" x2="138" y2="118.5"><stop offset="0" stop-color="#2e59bf"/><stop offset="1" stop-color="#593192"/></linearGradient><path fill="url(#AJ)" d="M138 73h28v91h-28z"/><path d="M138 73h28v4h-28z" class="M U"/><linearGradient id="AK" gradientUnits="userSpaceOnUse" x1="169.013" y1="118.5" x2="166.017" y2="118.5"><stop offset="0" stop-color="#2e59bf"/><stop offset="1" stop-color="#593192"/></linearGradient><path fill="url(#AK)" d="M169 77v87h-3V73z"/><path d="M169 77.5v87h-3v-91z" opacity=".15" class="M"/><path d="M157.2 55h.8v13.6h-.8zm-11.1 0h.8v13.6h-.8z" class="M U"/><path d="M138 72.9h28V164h-28z" class="M W"/><linearGradient id="AL" gradientUnits="userSpaceOnUse" x1="153.488" y1="146.8" x2="151.491" y2="146.8"><stop offset="0" stop-color="#2e40bf"/><stop offset="1" stop-color="#593192"/></linearGradient><path fill="url(#AL)" d="M153.5 135.8v28h-2v-34"/><path d="M153.5 135.7v28.1h-2v-34z" opacity=".15" class="M"/><linearGradient id="AM" gradientUnits="userSpaceOnUse" x1="163.554" y1="120.75" x2="200.002" y2="120.75"><stop offset="0" stop-color="#2e59bf"/><stop offset="1" stop-color="#593192"/></linearGradient><path d="M191.7 83.3c-3.2-8.9-6.8-14.1-10-14.1-6.5 0-14.7 21.7-17.4 51.4-.6 6.2-.8 12.7-.8 19.4 0 5.2.2 10.3.4 15.2.3 6 .9 11.8 1.6 17.1H198c1.4-10.7 2-21.5 2-32.3 0-23.3-3.7-43.9-8.3-56.7" fill="url(#AM)"/><path d="M164.4 120v.3c-.6 6.2-.9 12.7-.9 19.4v3.1C169 153 176.6 163 182.4 172H197c-7.1-17-22.7-33.9-32.6-52zm-.3 36.5c.4 5.5.8 10.7 1.5 15.5h8.3c-3.6-5-7.1-10.2-9.8-15.5zm5.9-67.3c-1.8 6.4-3.2 12.9-4.2 19.4 9.1 18.6 27.3 35.7 33.3 53.1.4-5.1.7-10.4.8-16-2.9-18.5-25-36.2-29.9-56.5zm11.8-9.3c4 0 7.5 1.2 10 3.2-3.2-8.9-6.8-14.1-10-14.1s-6.8 5.3-10 14.1c2.5-2 6-3.2 10-3.2zm2 3.6c-.6-.1-1.3-.1-2-.1-2.9 0-5.7.7-8.3 2.1 7.5 16.4 23.2 33 26.4 45.3-.3-8.6-1.2-17.1-2.6-25.6-5.1-7-10.7-14.1-13.8-21.7h.3zm10.6 8.6c-.3-1.3-.6-2.5-1-3.7-.6-.9-1.4-1.7-2.4-2.4 1.1 2.1 2.2 4.2 3.4 6.1z" class="M Q"/><linearGradient id="AN" gradientUnits="userSpaceOnUse" x1="169.1" y1="85.05" x2="194.472" y2="85.05"><stop offset="0" stop-color="#2e59bf"/><stop offset="1" stop-color="#593192"/></linearGradient><path d="M181.8 83.4c6.1 0 11.2 3.2 12.4 7.3.2-.6.3-1.3.3-2 0-5.1-5.7-9.3-12.7-9.3s-12.7 4.2-12.7 9.3c0 .7.1 1.3.3 2 1.2-4.2 6.3-7.3 12.4-7.3z" fill="url(#AN)"/><path d="M181.8 83.4c6.1 0 11.1 3.2 12.4 7.3.2-.6.3-1.3.3-2 0-5.1-5.7-9.3-12.7-9.3s-12.6 4.2-12.6 9.3c0 .7.1 1.3.3 2 1.1-4.2 6.2-7.3 12.3-7.3z" class="M U"/><path d="M142 90h20v3h-20zm0 5h20v3h-20zm0 5h20v3h-20zm0-20h20v3h-20zm0 5h20v3h-20zm0 30h20v3h-20zm0 5h20v3h-20zm0 5h20v3h-20zm0-20h20v3h-20zm0 5h20v3h-20zm0 20h20v3h-20zm0 15h20v3h-20zm0 5h20v3h-20zm0 6h20v3h-20zm0-21h20v3h-20zm0 5h20v3h-20z" class="M S W"/><linearGradient id="AO" gradientUnits="userSpaceOnUse" x1="152" y1="147" x2="116" y2="147"><stop offset="0" stop-color="#2e59bf"/><stop offset="1" stop-color="#593192"/></linearGradient><path fill="url(#AO)" d="M116 130h36v34h-36z"/><path d="M116 130h36v3h-36z" class="M U"/><g class="S M"><use xlink:href="#AS" opacity=".08"/><use xlink:href="#AS" x="11" opacity=".08"/><use xlink:href="#AS" x="22" opacity=".08"/><path d="M118 125h17v3h-17zm0-10h17v3h-17zm0 5h17v3h-17z" class="W"/></g><defs ><path id="AQ" d="M88.4 155.1h-9.6c-.7 0-1.2-.6-1.2-1.2v-3.7c0-.7.6-1.2 1.2-1.2h9.6c.7 0 1.2.6 1.2 1.2v3.7c.1.7-.5 1.2-1.2 1.2z"/><path id="AR" d="M25 135.7c-.2 0-.4-.2-.4-.4v-7.9c0-.2.2-.4.4-.4s.4.2.4.4v7.9c0 .2-.2.4-.4.4zm-2.8 0c-.2 0-.4-.2-.4-.4v-7.9c0-.2.2-.4.4-.4s.4.2.4.4v7.9c0 .2-.2.4-.4.4zm-6.5 0c-.2 0-.4-.2-.4-.4v-7.9c0-.2.2-.4.4-.4s.4.2.4.4v7.9c-.1.2-.2.4-.4.4zm-2.8 0c-.2 0-.4-.2-.4-.4v-7.9c0-.2.2-.4.4-.4s.4.2.4.4v7.9c0 .2-.2.4-.4.4z"/><path id="AS" d="M119 147h8v3h-8zm0 5h8v3h-8zm0 5h8v3h-8zm0-20h8v3h-8zm0 5h8v3h-8z"/></defs></svg>