<svg xmlns="http://www.w3.org/2000/svg" xmlns:xlink="http://www.w3.org/1999/xlink" viewBox="0 0 200 172"><style><![CDATA[.I{enable-background:new}.J{fill:#fff}.K{opacity:.1}.L{opacity:.3}.M{opacity:.2}.N{clip-path:url(#AC)}]]></style><path d="M132.1 50.4c-13.8 6.4-23 .9-25-.5s-13.8 0-21.4 2.8c-5 1.8-13.2-.4-18.6-3.1l17.6-16.7c20.9-18.8 45.9 0 45.9 0l19.2 14.7c-6.1-.7-12.2.2-17.7 2.8z" opacity=".8" fill="#bde6ff"/><linearGradient id="A" gradientUnits="userSpaceOnUse" x1="1.939" y1="109.824" x2="183.552" y2="109.824"><stop offset="0" stop-color="#1d7ee8"/><stop offset="1" stop-color="#2ea7db"/></linearGradient><path d="M183.6 73.7l-33.8-26c-6-.8-12.1.2-17.6 2.8-13.8 6.4-23 .9-25-.5s-13.8 0-21.4 2.8c-5 1.8-13.2-.4-18.6-3.1-26.5 25.6-64.7 64.6-64.7 64.6v19.9h-.6v38h181.6V73.7z" fill="url(#A)"/><path d="M184 109h-23v14h-12V99l-21-9.6V123h-3v-18h-22v9H84V84H67v30h-6V97.7l-13-9.2V122H38v-17H13v67h171z" class="I M"/><linearGradient id="B" gradientUnits="userSpaceOnUse" x1="98.186" y1="83.343" x2="98.186" y2="77.274"><stop offset="0" stop-color="#2e3192"/><stop offset="1" stop-color="#2f0b81"/></linearGradient><path d="M93 80.1l-2.2-2.7-.4.2 2.3 2.8-2.3 2.8.4.2 2.2-2.7 2.2 2.7.3-.2.3.2 2.2-2.7 2.2 2.7.3-.2.3.2 2.2-2.7 2.2 2.7.3-.2h.3v-5.7h-.3l-.3-.2L103 80l-2.2-2.7-.3.2-.3-.2L98 80l-2.2-2.7-.3.2-.3-.2-2.2 2.8zm2.4-2.4V83l-2.2-2.7 2.2-2.6zm9.9 0V83l-2.2-2.7 2.2-2.6zm-4.5 5.1v-4.9l2 2.4-2 2.5zm-.4-5.1V83l-2.2-2.7 2.2-2.6zm-4.6 5.1v-4.9l2 2.4-2 2.5z" fill="url(#B)"/><linearGradient id="C" gradientUnits="userSpaceOnUse" x1="90.545" y1="83.619" x2="105.706" y2="83.619"><stop offset="0" stop-color="#2e3192"/><stop offset="1" stop-color="#2f0b81"/></linearGradient><path fill="url(#C)" d="M90.5 83.1h15.2v1H90.5z"/><linearGradient id="D" gradientUnits="userSpaceOnUse" x1="67.383" y1="118.821" x2="67.383" y2="72.098"><stop offset="0" stop-color="#2e3192"/><stop offset="1" stop-color="#2f0b81"/></linearGradient><path d="M105.5 72.2C89.3 99 60.7 116.8 28.1 116.8v2c33.5 0 62.8-18.8 78.6-46.7l-1.2.1z" fill="url(#D)"/><linearGradient id="E" gradientUnits="userSpaceOnUse" x1="52.102" y1="118.221" x2="52.102" y2="71.498"><stop offset="0" stop-color="#2e3192"/><stop offset="1" stop-color="#2f0b81"/></linearGradient><path d="M90.2 71.6C74 98.4 45.4 116.2 12.8 116.2v2c33.5 0 62.7-18.8 78.6-46.7l-1.2.1z" fill="url(#E)"/><linearGradient id="F" gradientUnits="userSpaceOnUse" x1="145.289" y1="119.221" x2="145.289" y2="71.464"><stop offset="0" stop-color="#2e3192"/><stop offset="1" stop-color="#2f0b81"/></linearGradient><path d="M107.5 72.9l-.9-1.4-.7.6c15.8 28.2 45.2 47.1 78.8 47.1v-2c-32.5 0-61.1-17.7-77.2-44.3z" fill="url(#F)"/><linearGradient id="G" gradientUnits="userSpaceOnUse" x1="129.288" y1="119.421" x2="129.288" y2="72.298"><stop offset="0" stop-color="#2e3192"/><stop offset="1" stop-color="#2f0b81"/></linearGradient><path d="M91.5 73.1l-1.6-.8c15.8 28.2 45.2 47.1 78.8 47.1v-2c-32.5 0-61.1-17.7-77.2-44.3z" fill="url(#G)"/><linearGradient id="H" gradientUnits="userSpaceOnUse" x1="98.126" y1="77.499" x2="98.126" y2="71.522"><stop offset="0" stop-color="#2e3192"/><stop offset="1" stop-color="#2f0b81"/></linearGradient><path fill="url(#H)" d="M90.3 71.5H106v6H90.3z"/><path d="M90.5 76.7h15.2v.8H90.5z" class="I L"/><linearGradient id="I" gradientUnits="userSpaceOnUse" x1="106.406" y1="168.825" x2="106.406" y2="70.658"><stop offset="0" stop-color="#2e3192"/><stop offset="1" stop-color="#2f0b81"/></linearGradient><path fill="url(#I)" d="M106.7 71.4h-.2V71h-.2v-.3h-1v.3h-.2v97.8h2.6z"/><linearGradient id="J" gradientUnits="userSpaceOnUse" x1="89.656" y1="168.825" x2="89.656" y2="70.658"><stop offset="0" stop-color="#2e3192"/><stop offset="1" stop-color="#2f0b81"/></linearGradient><path fill="url(#J)" d="M89.4 71.4h.1V71h.2v-.3h1.1v.3h.1v97.8h-2.5z"/><linearGradient id="K" gradientUnits="userSpaceOnUse" x1="98.186" y1="102.52" x2="98.186" y2="95.544"><stop offset="0" stop-color="#2e3192"/><stop offset="1" stop-color="#2f0b81"/></linearGradient><path d="M93 98.7l-2.2-3.2-.4.2 2.3 3.3-2.3 3.3.4.2 2.2-3.2 2.2 3.2.3-.2.3.2 2.2-3.2 2.2 3.2.3-.2.3.2 2.2-3.2 2.2 3.2.3-.2h.3v-6.6h-.3l-.3-.2-2.2 3.2-2.2-3.2-.3.2-.3-.2-2.2 3.2-2.2-3.2-.3.2-.3-.2-2.2 3.2zm2.4-2.7v6.2l-2.2-3.1 2.2-3.1zm9.9 0v6.2l-2.2-3.1 2.2-3.1zm-4.5 5.8v-5.6l2 2.8-2 2.8zm-.4-5.8v6.2l-2.2-3.1 2.2-3.1zm-4.6 5.8v-5.6l2 2.8-2 2.8z" fill="url(#K)"/><linearGradient id="L" gradientUnits="userSpaceOnUse" x1="90.545" y1="102.76" x2="105.706" y2="102.76"><stop offset="0" stop-color="#2e3192"/><stop offset="1" stop-color="#2f0b81"/></linearGradient><path fill="url(#L)" d="M90.5 102.2h15.2v1.1H90.5z"/><linearGradient id="M" gradientUnits="userSpaceOnUse" x1="90.545" y1="95.32" x2="105.706" y2="95.32"><stop offset="0" stop-color="#2e3192"/><stop offset="1" stop-color="#2f0b81"/></linearGradient><path fill="url(#M)" d="M90.5 94.8h15.2v1.1H90.5z"/><linearGradient id="N" gradientUnits="userSpaceOnUse" x1="102" y1="130.477" x2="102" y2="119.631"><stop offset="0" stop-color="#2e3192"/><stop offset="1" stop-color="#2f0b81"/></linearGradient><path d="M182 123.3V122c-42.7-1.4-98.4-2.2-160-2.4v1.2l22 .1v4.7c-7.3 0-14.6 0-22-.1v2.5l160 2.4v-2.6l-18-.5v-4.5l18 .5zm-115 2.4l-22-.2V121l22 .2v4.5zm24 .3l-22-.2v-4.6l22 .2v4.6zm23 .2l-22-.3v-4.5l22 .3v4.5zm1-4.5l23 .4v4.6l-23-.4v-4.6zm48 5.5l-23-.5v-4.5l23 .5v4.5z" fill="url(#N)"/><linearGradient id="O" gradientUnits="userSpaceOnUse" x1="98.186" y1="145.015" x2="98.186" y2="138.043"><stop offset="0" stop-color="#2e3192"/><stop offset="1" stop-color="#2f0b81"/></linearGradient><path d="M93 141.2l-2.2-3.2-.4.2 2.3 3.3-2.3 3.3.4.2 2.2-3.2 2.2 3.2.3-.2.3.2 2.2-3.2 2.2 3.2.3-.2.3.2 2.2-3.2 2.2 3.2.3-.2h.3v-6.5h-.3l-.3-.2-2.2 3.2-2.2-3.2-.3.2-.3-.2-2.2 3.2-2.2-3.2-.3.2-.3-.2-2.2 3.1zm2.4-2.8v6.2l-2.2-3.1 2.2-3.1zm9.9 0v6.2l-2.2-3.1 2.2-3.1zm-4.5 5.9v-5.6l2 2.8-2 2.8zm-.4-5.9v6.2l-2.2-3.1 2.2-3.1zm-4.6 5.9v-5.6l2 2.8-2 2.8z" fill="url(#O)"/><linearGradient id="P" gradientUnits="userSpaceOnUse" x1="90.545" y1="145.283" x2="105.706" y2="145.283"><stop offset="0" stop-color="#2e3192"/><stop offset="1" stop-color="#2f0b81"/></linearGradient><path fill="url(#P)" d="M90.5 144.7h15.2v1.1H90.5z"/><linearGradient id="Q" gradientUnits="userSpaceOnUse" x1="90.545" y1="137.763" x2="105.706" y2="137.763"><stop offset="0" stop-color="#2e3192"/><stop offset="1" stop-color="#2f0b81"/></linearGradient><path fill="url(#Q)" d="M90.5 137.2h15.2v1.1H90.5z"/><linearGradient id="R" gradientUnits="userSpaceOnUse" x1="155.31" y1="115.201" x2="188.752" y2="115.201"><stop offset="0" stop-color="#2e60e8"/><stop offset="1" stop-color="#2e74db"/></linearGradient><path d="M188.8 172.2v-114c-18.1 0-32.8 6.3-33.4 14.2v99.8h33.4z" fill="url(#R)"/><path d="M188.8 172V58.2c-18.3 0-33.1 6.3-33.7 14.3V172h33.7z" class="I L"/><linearGradient id="S" gradientUnits="userSpaceOnUse" x1="150" y1="116.456" x2="184" y2="116.456"><stop offset="0" stop-color="#2e60e8"/><stop offset="1" stop-color="#2e74db"/></linearGradient><path d="M184 172V61c-18.4 0-33.4 6.5-34 14.6V172h34z" fill="url(#S)"/><path d="M184 72.5c-16 0-29.5 3.8-34 9V84c4.5-5.2 18-9 34-9v-2.5zm0 9.1c-16 0-29.5 3.8-34 9v2.5c4.5-5.2 18-9 34-9v-2.5zm0 9c-16 0-29.5 3.8-34 9v2.5c4.5-5.2 18-9 34-9v-2.5zm0 9.1c-16 0-29.5 3.8-34 9v2.5c4.5-5.2 18-9 34-9v-2.5zm0 8.9c-16 0-29.5 3.8-34 9v2.5c4.5-5.3 18-9 34-9v-2.5zm0 9.2c-16 0-29.5 3.8-34 9v2.5c4.5-5.3 18-9 34-9v-2.5zm0 9.4c-16 0-29.5 3.8-34 9v2.5c4.5-5.3 18-9 34-9v-2.5z" class="I L"/><path d="M184 64.7v-3.8c-16.4 0-30.2 5.2-33.4 12.1 5.5-4.7 18.4-8.2 33.4-8.3z" opacity=".4" class="I"/><path d="M184 138.4c-16 0-29.5 3.8-34 9v2.5c4.5-5.3 18-9 34-9v-2.5zm0 9c-16 0-29.5 3.8-34 9v2.5c4.5-5.3 18-9 34-9v-2.5zm0 9.1c-16 0-29.5 3.8-34 9v2.5c4.5-5.3 18-9 34-9v-2.5zM153.1 172h5.2c6.5-2.4 15.6-4 25.8-4v-2.5c-13.3 0-24.8 2.6-31 6.5z" class="I L"/><linearGradient id="T" gradientUnits="userSpaceOnUse" x1="199.928" y1="155.264" x2="170.262" y2="155.264"><stop offset="0" stop-color="#2e3192"/><stop offset="1" stop-color="#2f0b81"/></linearGradient><path d="M190.2 160.8c-.1-.3-.1-.6 0-1l.5-1.1-1 1.3c-.4.5-1.1.6-1.6.3s-1.1-.7-1.7-1c-.6-.4-.7-1.1-.4-1.6 0 0 0-.1.1-.1l.2-.2-.2.1c-.6.4-1.3.2-1.6-.4 0-.1-.1-.1-.1-.2l-.1-.4c-3.2 4.9-5.8 10.2-7.6 15.8h-4.4c2.4-6.2 6-11.9 10.6-16.7l-.3.3c-.3.2-.6.4-1 .3-.4 0-.7-.2-.8-.6l-.1-.2.1.3c.1.6-.3 1.3-.9 1.4h-.1c-.7 0-1.4.1-2 .2-.6 0-1.2-.4-1.3-1l-.2-1.6-.1 1.2c0 .3-.2.6-.4.8-.3.2-.6.3-.9.2-1.4-.2-2.8-.6-4.2-1 2.6-6.2 8.3-6 11.1-5.5-.9-.8-2-1.4-3.1-1.7-.3-.1-.4-.4-.4-.6l.1-1-.3.8c-.1.3-.4.4-.7.4-1-.2-2-.3-3-.3-.3 0-.6-.2-.6-.6v-1l-.2 1.2c0 .2-.2.4-.5.5-.9.2-1.7.4-2.6.8.1-.4.2-.9.4-1.3 1.4-4 5.9-6.1 9.9-4.6.7.2 1.4.6 2 1.1-1.1-2.8.2-6 .2-6s3.2 1.4 4.4 4.3c.5 1.2.6 2.6.4 3.8.5-1.2 1.4-2.2 2.4-3 2.5-1.8 6-1.3 6-1.3s-.6 3.4-3.2 5.3c-.4.2-.7.5-1.1.6 4.2-.4 8 2.8 8.3 7 .1 1.1 0 2.2-.4 3.2l-.6 1.2c-.4-.8-.9-1.6-1.5-2.2-.2-.2-.2-.4-.1-.7l.6-1.1-.7.7c-.2.2-.6.2-.8 0-.8-.7-1.6-1.2-2.5-1.7-.3-.1-.4-.4-.3-.7l.3-.8-.5.8c-.1.2-.4.4-.7.2-.9-.3-1.8-.5-2.7-.6 2.6 1.3 5.4 3.9 5.1 9-1.4-.2-2.8-.6-4.2-1-.5.2-.8 0-1-.3z" fill="url(#T)"/><linearGradient id="U" gradientUnits="userSpaceOnUse" x1="75.984" y1="132.302" x2="110.146" y2="132.302"><stop offset="0" stop-color="#451088"/><stop offset="1" stop-color="#593179"/></linearGradient><path d="M110.1 127.2c-.3-.3-25.3-10.9-25.3-10.9L76 139.2l3.9 3 26 6.1 4.2-21.1z" fill="url(#U)"/><path d="M110.1 127.2c-.2-.2-14.1-6.1-21.2-9.1-.2-.1-9 24.1-9 24.1l26 6.1 4.2-21.1z" class="I L"/><linearGradient id="V" gradientUnits="userSpaceOnUse" x1="70.424" y1="159.464" x2="168.55" y2="159.464"><stop offset="0" stop-color="#451088"/><stop offset="1" stop-color="#593179"/></linearGradient><path d="M162.4 172.3h-92v-25.6h98.1v25.7l-6.1-.1" fill="url(#V)"/><path d="M162.4 172.3h-92v-25.6h92.9v25.7l-.9-.1z" class="I L"/><linearGradient id="W" gradientUnits="userSpaceOnUse" x1="133.188" y1="138.203" x2="157.71" y2="138.203"><stop offset="0" stop-color="#451088"/><stop offset="1" stop-color="#593179"/></linearGradient><path d="M157.7 119.1c0 .2-3.5 38.1-3.5 38.1l-21.1-3.2.6-29.8c.1.1 4.9-5.1 24-5.1z" fill="url(#W)"/><linearGradient id="X" gradientUnits="userSpaceOnUse" x1="127.828" y1="131.122" x2="148.589" y2="131.122"><stop offset="0" stop-color="#451088"/><stop offset="1" stop-color="#593179"/></linearGradient><use xlink:href="#w" fill="url(#X)"/><linearGradient id="Y" gradientUnits="userSpaceOnUse" x1="132.788" y1="129.222" x2="103.055" y2="129.222"><stop offset="0" stop-color="#451088"/><stop offset="1" stop-color="#593179"/></linearGradient><path d="M132.8 103.8c-15.1 5.5-27.6 10.8-29.4 19.2l-.3 25.8c.1-.1 24.7 5.7 24.7 5.7l5-50.7z" fill="url(#Y)"/><use xlink:href="#w" opacity=".15" class="I"/><path d="M153.7 166.2h4v.4h-4zm-32.4 6.1v-12.2h.4v12.2m-11.8 0v-12.2h.4v12.2M94 163.2h4.5v.4H94zm0 4.1h4.5v.4H94zm4.5 5v-12.6h.4v12.6m3.4 0v-12.2h.4v12.2m-17.2-11.8h4.2v.4h-4.2zm-.3 4.2h4.5v.4h-4.5zm4.5-7.7h.4v15.2h-.4zm3.9.4h.4v15.2h-.4zm39.7 13h4.4v.4h-4.4zm-4.2-7.4h.4v9.3h-.4zm-52.6-2.7h4.4v.4h-4.4zm-.3 4.3h4.6v.4h-4.6zm4.7-7.9h.4v15.9h-.4zm-4.8 11.8h4.4v.4h-4.4z" class="I J K"/><linearGradient id="Z" gradientUnits="userSpaceOnUse" x1="141.149" y1="156.584" x2="147.997" y2="156.584"><stop offset="0" stop-color="#451088"/><stop offset="1" stop-color="#593179"/></linearGradient><path fill="url(#Z)" d="M141.1 158.9l1.3-5.1 4.7.5.9 5.1z"/><path d="M141.1 158.9l1.3-5.1 4.7.5.9 5.1z" opacity=".4" class="I"/><linearGradient id="a" gradientUnits="userSpaceOnUse" x1="76" y1="129.242" x2="88.249" y2="129.242"><stop offset="0" stop-color="#451088"/><stop offset="1" stop-color="#593179"/></linearGradient><use xlink:href="#x" fill="url(#a)"/><use xlink:href="#x" class="I L"/><linearGradient id="b" gradientUnits="userSpaceOnUse" x1="97.585" y1="127.522" x2="77.304" y2="127.522"><stop offset="0" stop-color="#451088"/><stop offset="1" stop-color="#593179"/></linearGradient><path fill="url(#b)" d="M77.3 111.5l3.8 30.4 5.7 1.7 10.8-23.9z"/><linearGradient id="c" gradientUnits="userSpaceOnUse" x1="103.067" y1="134.903" x2="86.778" y2="134.903"><stop offset="0" stop-color="#451088"/><stop offset="1" stop-color="#593179"/></linearGradient><path d="M96 123.1s6.6 4.8 7 6.6-2.8 17.1-2.8 17.1l-13.5-3.2 9.3-20.5z" fill="url(#c)"/><linearGradient id="d" gradientUnits="userSpaceOnUse" x1="74.224" y1="146.431" x2="106.426" y2="146.431"><stop offset="0" stop-color="#451088"/><stop offset="1" stop-color="#593179"/></linearGradient><path d="M74.2 139.4c-.1-1.6 31.7 6.2 32.2 8.2l-3.9 6-27.4-2-.9-12.2z" fill="url(#d)"/><linearGradient id="e" gradientUnits="userSpaceOnUse" x1="143.17" y1="162.708" x2="99.678" y2="164.867"><stop offset="0" stop-color="#451088"/><stop offset="1" stop-color="#593179"/></linearGradient><use xlink:href="#y" fill="url(#e)"/><use xlink:href="#y" class="I M"/><linearGradient id="f" gradientUnits="userSpaceOnUse" x1="108.695" y1="154.341" x2="95.228" y2="142.148"><stop offset="0" stop-color="#451088"/><stop offset="1" stop-color="#593179"/></linearGradient><path d="M101 161.6l-1.6.3h-.3l-1.1-7.8c-.3-13.6 5.1-21.8 5.1-21.8-1.6 9.7-2.3 19.5-2.1 29.3z" fill="url(#f)"/><linearGradient id="g" gradientUnits="userSpaceOnUse" x1="145.462" y1="148.331" x2="100.832" y2="150.547"><stop offset="0" stop-color="#451088"/><stop offset="1" stop-color="#593179"/></linearGradient><path d="M103 132.3c.2 0 25.4 5.6 33.9 11 2.1 1.4 5.6 4.3 8.2 5 0 0-3.8 9.2-2.4 16.6-1.3.5-4.9 0-8-.7-10.7-2.6-30.8-2.6-33.6-2.7-.2-9.7.4-19.5 1.9-29.2z" fill="url(#g)"/><path d="M101 161.6l-1.5.3h-.4l-1.1-7.8c-.3-13.6 5.1-21.8 5.1-21.8-1.6 9.7-2.3 19.5-2.1 29.3z" opacity=".15" class="I"/><linearGradient id="h" gradientUnits="userSpaceOnUse" x1="145.058" y1="158.2" x2="154.069" y2="158.2"><stop offset="0" stop-color="#451088"/><stop offset="1" stop-color="#593179"/></linearGradient><use xlink:href="#z" fill="url(#h)"/><use xlink:href="#z" opacity=".25" class="I"/><path d="M147.3 151l-.8.1c.1.4-1.5 13.5-1.4 13.4.2 0 .4.1.7.2.1-1.9 1.1-9.9 1.5-13.7z" class="K"/><linearGradient id="i" gradientUnits="userSpaceOnUse" x1="135.948" y1="165.298" x2="157.91" y2="165.298"><stop offset="0" stop-color="#451088"/><stop offset="1" stop-color="#593179"/></linearGradient><path d="M139.4 158.2l18.5 1.8-4.3 12.3c-6.9.2-17.7 0-17.7 0l3.5-14.1z" fill="url(#i)"/><path d="M139.4 158.2l18.5 1.8-4.3 12.3c-7.1.3-17.7 0-17.7 0l3.5-14.1z" opacity=".25" class="I"/><linearGradient id="j" gradientUnits="userSpaceOnUse" x1="149.069" y1="150.998" x2="166.718" y2="150.998"><stop offset="0" stop-color="#451088"/><stop offset="1" stop-color="#593179"/></linearGradient><path d="M149.1 145.3l1.2-1.1s14.8-4 16.5-2.2l-.4 18.5-13.2-.8c-1-5.9-2.3-10.9-4.1-14.4z" fill="url(#j)"/><linearGradient id="k" gradientUnits="userSpaceOnUse" x1="149.069" y1="152.024" x2="154.577" y2="152.024"><stop offset="0" stop-color="#451088"/><stop offset="1" stop-color="#593179"/></linearGradient><use xlink:href="#AA" fill="url(#k)"/><use xlink:href="#AA" class="I M"/><linearGradient id="l" gradientUnits="userSpaceOnUse" x1="149.909" y1="158.933" x2="172.557" y2="158.933"><stop offset="0" stop-color="#451088"/><stop offset="1" stop-color="#593179"/></linearGradient><path d="M149.9 164.4c.4.3 5.4 2.5 5.4 2.5l17.2-2.1c.2 0-4.2-11.4-4.2-11.4s-4.3-3-13.1-2.3l-3 1.6-2.3 11.7z" fill="url(#l)"/><path d="M155.3 151l-3 1.6-2.4 11.6c.4.3 5.4 2.5 5.4 2.5" class="I M"/><linearGradient id="m" gradientUnits="userSpaceOnUse" x1="68" y1="153" x2="77.023" y2="153"><stop offset="0" stop-color="#451088"/><stop offset="1" stop-color="#593179"/></linearGradient><path fill="url(#m)" d="M77 172h-9v-37.8l.1-.2H77z"/><linearGradient id="n" gradientUnits="userSpaceOnUse" x1="68.008" y1="153.479" x2="64.989" y2="153.479"><stop offset="0" stop-color="#451088"/><stop offset="1" stop-color="#593179"/></linearGradient><path fill="url(#n)" d="M68 172.5h-3v-36.4l3-1.6z"/><path d="M68 172.5h-3v-36.4l3-1.6z" class="I M"/><linearGradient id="o" gradientUnits="userSpaceOnUse" x1="74.304" y1="156.024" x2="101.586" y2="156.024"><stop offset="0" stop-color="#451088"/><stop offset="1" stop-color="#593179"/></linearGradient><path d="M75.2 150.6c8-1.1 16.6-.3 24.6 0l1.7 11.3H84c-.8-5.6-3.5-8.4-8-8.7l-.2-1-1.5-1.5.9-.1z" fill="url(#o)"/><linearGradient id="p" gradientUnits="userSpaceOnUse" x1="73.984" y1="156.32" x2="84.805" y2="156.32"><stop offset="0" stop-color="#451088"/><stop offset="1" stop-color="#593179"/></linearGradient><path d="M76 150.6c-.7 0-1.4.1-2 .3l.2 4h1.1c1.5 0 3.3.2 4.2 1.2 1.8 1.8 3 6 3 6h2.3c-2.2-10.1-6.2-11.6-8.8-11.5z" fill="url(#p)"/><path d="M76 150.6c-.7 0-1.4.1-2 .3l.2 4h1.1c1.5 0 3.3.2 4.2 1.2 1.8 1.8 3 6 3 6h2.3c-2.2-10.1-6.2-11.6-8.8-11.5zm9.1 11.4h16.5l-.1-.4H85" class="I M"/><path d="M84.7 161.6h-2.3c.1.2.1.4.1.4h2.3" opacity=".25" class="I"/><linearGradient id="q" gradientUnits="userSpaceOnUse" x1="75.344" y1="170.365" x2="115.307" y2="170.365"><stop offset="0" stop-color="#451088"/><stop offset="1" stop-color="#593179"/></linearGradient><path fill="url(#q)" d="M75.3 168.5h40v3.8h-40z"/><path d="M75.3 168.5h40v3.8h-40z" class="I M"/><path d="M77.1 172.3h-1.8v-3.8h1.8z" class="I M"/><path d="M75.3 168.5h40v.4h-40z" class="I M"/><path d="M102.9 132.6c.2-1 .2-2 .2-2.9-.4-1.8-7-6.6-7-6.6l-8.4 18.4c3.8.9 7.7 2 11 3 1.2-6.6 3.5-10.8 4.2-11.9z" opacity=".15" class="I"/><path d="M98.7 144.5c-6.9-2.1-16.8-4.4-21.6-5.1v11c6.8-.7 14-.2 20.9.1.1-2 .4-4 .7-6z" class="I M"/><linearGradient id="r" gradientUnits="userSpaceOnUse" x1=".001" y1="104.833" x2="47" y2="104.833"><stop offset="0" stop-color="#2e59bf"/><stop offset="1" stop-color="#593192"/></linearGradient><path d="M1 172h46V41.3c-12.9-4.8-25.3-4.9-37.2 0C2.7 76.9-.5 109.6.1 139.2c-.3 11 0 22 .9 32.8z" fill="url(#r)"/><path d="M2.6 149.6l.1-10.5c-.6-29.9 2.6-63 9.6-98.8-.9.3-1.6.7-2.6 1-7 35.6-10.4 68.3-9.7 97.9-.2 10.9 0 21.8.9 32.8h2.6c-.5-7-.8-14.3-.9-21.7" class="I L"/><path d="M12.3 40.3l-.6 2.8c11.3-3.9 23.1-3.6 35.2.8v-2.6c-11.9-4.4-23.4-4.8-34.6-1z" class="I L"/><linearGradient id="s" gradientUnits="userSpaceOnUse" x1="10" y1="120.5" x2="22.98" y2="120.5"><stop offset="0" stop-color="#2e59bf"/><stop offset="1" stop-color="#593192"/></linearGradient><path fill="url(#s)" d="M23 172H10V71l1.9-2H23z"/><path d="M12 172h-2V70.8l2-2.1zm0-103.2h13v2H12z" class="I L"/><linearGradient id="t" gradientUnits="userSpaceOnUse" x1="14.028" y1="112.5" x2="56" y2="112.5"><stop offset="0" stop-color="#2e59bf"/><stop offset="1" stop-color="#593192"/></linearGradient><path d="M14.9 172H56V53H22.8c-6.3 32.4-9.2 62.2-8.7 89.2-.2 10.3 0 20.3.8 29.8z" fill="url(#t)"/><path d="M17.2 142.2c-.6-27 2.3-56.8 8.7-89.2h-3c-6.4 32.4-9.3 62.2-8.8 89.2-.2 10.3 0 20.3.8 29.8H18c-.8-9.5-1-19.5-.8-29.8z" class="I L"/><path d="M25.3 56H56v-3H25.9" class="I L"/><linearGradient id="u" gradientUnits="userSpaceOnUse" x1="48.93" y1="48.057" x2="50.67" y2="48.057"><stop offset="0" stop-color="#2e59bf"/><stop offset="1" stop-color="#593192"/></linearGradient><use xlink:href="#AB" fill="url(#u)"/><use xlink:href="#AB" opacity=".4" class="I"/><path d="M49.7 40.3l-.1 4.1h.4l-.1-4.1z" class="J"/><defs><path id="v" d="M29.4 55.1s-5.5 32-7.2 56.4c-1.7 24.6-.2 60.7-.2 60.7h38.4v-116l-31-1.1z"/><path id="w" d="M132.8 103.8l-5 50.8 14.4 3.8c1.3-12.3 3.4-23.4 6.4-33.1-7.3-3.7-11.8-12.1-15.8-21.5z"/><path id="x" d="M88.3 117.7l-3.4-1.4-8.9 22.9 3.9 3 8.4-24.5z"/><path id="y" d="M142.1 164.2s-4.4-.4-6.8-1c-11-2.7-31.7-2.7-34.6-2.8l-1.7.7.1.6v.2h1.9c2.8 0 23 .1 33.8 2.7 3.1.8 6.6 1.2 8 .7 0 0-.1-.7-.2-1l-.1-.2-.4.1"/><path id="z" d="M146.4 151.1c.1.4-1.5 13.5-1.4 13.4s8.8 2.6 8.8 1.8l.2-16.5-7.6 1.3z"/><path id="AA" d="M154.6 159.8l-1.5-.1c-.9-6-2.2-11-4-14.4l1.2-1.1c2.1 5 3.6 10.3 4.3 15.6z"/><path id="AB" d="M50 49.9v-7.2h-.4v7.2h-.7v3.5h1.8v-3.5z"/></defs><clipPath id="AC"><use xlink:href="#v"/></clipPath><path d="M17 72h35v5H17z" class="K N I J"/><path d="M16.9 63.9h35v5h-35z" class="K N I J"/><defs><path id="AD" d="M29.4 55.1s-5.5 32-7.2 56.4c-1.7 24.6-.2 60.7-.2 60.7h38.4v-116l-31-1.1z"/></defs><clipPath id="AE"><use xlink:href="#AD"/></clipPath><g clip-path="url(#AE)" class="I J"><path d="M16 80h36v5H16z" class="K"/></g><defs><path id="AF" d="M29.4 55.1s-5.5 32-7.2 56.4c-1.7 24.6-.2 60.7-.2 60.7h38.4v-116l-31-1.1z"/></defs><clipPath id="AG"><use xlink:href="#AF"/></clipPath><g clip-path="url(#AG)" class="I J"><path d="M15 88h37v5H15z" class="K"/></g><defs><path id="AH" d="M29 54.9s-5.5 32-7.2 56.4c-1.7 24.6-.2 60.7-.2 60.7H60V56l-31-1.1z"/></defs><clipPath id="AI"><use xlink:href="#AH"/></clipPath><g clip-path="url(#AI)" class="I J"><path d="M15 96h37v5H15z" class="K"/></g><defs><path id="AJ" d="M29 54.9s-5.5 32-7.2 56.4c-1.7 24.6-.2 60.7-.2 60.7H60V56l-31-1.1z"/></defs><clipPath id="AK"><use xlink:href="#AJ"/></clipPath><g clip-path="url(#AK)" class="I J"><path d="M13 104h39v5H13z" class="K"/></g><defs><path id="AL" d="M29 53.9s-5.5 32-7.2 56.4c-1.7 24.6-.2 60.7-.2 60.7H60V55l-31-1.1z"/></defs><clipPath id="AM"><use xlink:href="#AL"/></clipPath><g clip-path="url(#AM)" class="I J"><path d="M13 112h39v5H13z" class="K"/></g><defs><path id="AN" d="M29 53.9s-5.5 32-7.2 56.4c-1.7 24.6-.2 60.7-.2 60.7H60V55l-31-1.1z"/></defs><clipPath id="AO"><use xlink:href="#AN"/></clipPath><g clip-path="url(#AO)" class="I J"><path d="M13 120h39v5H13z" class="K"/></g><defs><path id="AP" d="M29 53.9s-5.5 32-7.2 56.4c-1.7 24.6-.2 60.7-.2 60.7H60V55l-31-1.1z"/></defs><clipPath id="AQ"><use xlink:href="#AP"/></clipPath><g clip-path="url(#AQ)" class="I J"><path d="M13 128h39v5H13z" class="K"/></g><defs><path id="AR" d="M29 53.9s-5.5 32-7.2 56.4c-1.7 24.6-.2 60.7-.2 60.7H60V55l-31-1.1z"/></defs><clipPath id="AS"><use xlink:href="#AR"/></clipPath><g clip-path="url(#AS)" class="I J"><path d="M13 136h39v5H13z" class="K"/></g><defs><path id="AT" d="M29 53.9s-5.5 32-7.2 56.4c-1.7 24.6-.2 60.7-.2 60.7H60V55l-31-1.1z"/></defs><clipPath id="AU"><use xlink:href="#AT"/></clipPath><g clip-path="url(#AU)" class="I J"><path d="M13 144h39v5H13z" class="K"/></g><defs><path id="AV" d="M29 53.9s-5.5 32-7.2 56.4c-1.7 24.6-.2 60.7-.2 60.7H60V55l-31-1.1z"/></defs><clipPath id="AW"><use xlink:href="#AV"/></clipPath><g clip-path="url(#AW)" class="I J"><path d="M13 152h39v5H13z" class="K"/></g><linearGradient id="AX" gradientUnits="userSpaceOnUse" x1="34.269" y1="155.244" x2="63.934" y2="155.244"><stop offset="0" stop-color="#2e3192"/><stop offset="1" stop-color="#2f0b81"/></linearGradient><path d="M43.9 160.8c.1-.3.1-.6 0-1l-.5-1.1 1 1.3c.4.5 1.1.6 1.6.3l1.7-1c.6-.4.7-1.1.4-1.6 0 0 0-.1-.1-.1l-.2-.2.2.1c.6.4 1.3.2 1.6-.4 0-.1.1-.1.1-.2l.1-.4c3.2 4.9 5.8 10.2 7.6 15.8h4.4c-2.4-6.2-6-11.8-10.6-16.7l.3.3c.5.4 1.2.4 1.7-.1l.2-.2.1-.2v.3c-.1.6.3 1.3.9 1.4h.1c.7 0 1.4.1 2 .2.6 0 1.2-.4 1.3-1l.2-1.6.1 1.2c0 .3.2.6.4.8.3.2.6.3.9.2 1.4-.2 2.8-.6 4.2-1-2.6-6.2-8.3-6-11.1-5.5.9-.8 2-1.4 3.1-1.7.2-.1.4-.4.4-.6l-.1-1 .3.8c.1.3.4.4.7.4 1-.2 2-.3 3-.3.3 0 .6-.2.6-.6v-1l.2 1.2c0 .2.2.4.5.5.9.2 1.7.4 2.6.8-.1-.4-.2-.9-.4-1.3-1.4-4-5.9-6.1-9.9-4.6-.7.2-1.4.6-2 1.1 1.1-2.8-.2-6-.2-6s-3.2 1.4-4.4 4.3c-.5 1.2-.6 2.6-.4 3.8-.5-1.2-1.4-2.2-2.4-3-2.5-1.8-6-1.3-6-1.3s.6 3.4 3.2 5.3c.4.2.7.5 1.1.6-4.2-.4-8 2.8-8.3 7-.1 1.1 0 2.2.4 3.2l.6 1.2c.4-.8.9-1.6 1.4-2.3.2-.2.2-.4.1-.7l-.6-1.1.7.7c.2.2.6.2.8 0 .8-.7 1.6-1.2 2.5-1.7.3-.1.4-.4.3-.7l-.3-.8.5.8c.2.2.4.4.7.2.9-.3 1.8-.5 2.7-.6-2.6 1.3-5.4 3.9-5.1 9 1.4-.2 2.8-.6 4.2-1 .5.3.8.1.9-.2z" fill="url(#AX)"/></svg>