<svg xmlns="http://www.w3.org/2000/svg" xmlns:xlink="http://www.w3.org/1999/xlink" viewBox="0 0 200 172"><style>.K{enable-background:new}.L{opacity:.3}.M{opacity:.08}.N{opacity:.2}.O{fill:#fff}</style><linearGradient id="A" x1="96.25" x2="96.25" y1="172.1" y2="24.995" gradientUnits="userSpaceOnUse"><stop offset="0" stop-color="#1d7ee8"/><stop offset="1" stop-color="#2ea7db"/></linearGradient><path fill="url(#A)" d="M11 110.8v61.3h170.5v-62c0-49-41.5-88.3-91.3-84.9C45.5 28.4 11 66 11 110.8z"/><path d="M181 123v-1h-11V90h-22v19h-11V77.7l-19-12.5V109h-3V85H95v12H78V58H63v39h-6V75.9L45 64v43H34.5l-.3-23H13v89h168v-22z" class="K N"/><path d="M15.4 159h173.7v13.8H15.4z" class="K N"/><linearGradient id="B" x1="97" x2="122.629" y1="111.35" y2="111.35" gradientUnits="userSpaceOnUse"><stop offset="0" stop-color="#2e3192"/><stop offset="1" stop-color="#2f0b81"/></linearGradient><path fill="url(#B)" d="M111.1 61.5h-2.5L97 161.2h1l.3-2.8 11-11v13.8h.9v-13.9l11 11 .3 2.8h1l-11.4-99.6zm-2.5 8.9l.7.7-.5.5-.4.3.2-1.5zm-.3 2l.9.9-1.2 1.2.3-2.1zm-.4 3.6l1.4 1.4-1.6 1.6.2-3zm-.4 3.4l1.6 1.6-2.2 2.2.6-3.8zm-.6 5.6l2.4 2.4-2.9 2.9h-.1l.6-5.3zm-.7 6.1l3.1 3.1-3.9 3.9.8-7zm-1.1 8.8l4.1 4.1-4.9 4.9h-.3l1.1-9zm-1.1 9.5l5.2 5.2-6.6 6.6 1.4-11.8zm-1.5 13.1l.2-.1 6.6 6.6-8.4 8.4h-.1l1.7-14.9zm-4 34.6l1.2-10.5h9.3l-10.5 10.5zm1.3-11l1-8.1h.2l8.1 8.1h-9.3zm9.6-.8l-7.3-7.3h7.3v7.3zm0-7.9h-7.3l7.3-7.3v7.3zm0-9.4l-6.1-6.1h6.1v6.1zm0-6.7h-5.6l5.6-5.6v5.6zm0-7.7l-4.2-4.2h4.2v4.2zm0-4.7h-3.8l3.8-3.8v3.8zm0-6l-3.6-3.6h3.6v3.6zm0-4.1h-3.5l3.5-3.5v3.5zm0-5.7l-2.2-2.2h2.2v2.2zm0-2.7h-1.8l1.8-1.8v1.8zm0-4l-1.8-1.8h1.8v1.8zm0-2.3h-2l2-2v2zm0-4.2l-.8-.8.8-.8v1.6zm0-3.6l-1-.9 1-1v1.9zm0-4zm0-2.2l-.6-.6.7-5.9-.1 6.5zm7.7 52.4l1.8 14.9-8.4-8.4 6.6-6.5zm-.1-1.3l-6.5-6.5 5.1-5.1 1.4 11.6zm-1.5-12.3h-.2l-4.9-4.9 4-4 1.1 8.9zM114.3 98l-3.8-3.8 3-3 .8 6.8zm-.9-7.6l-2.9-2.9 2.3-2.3.6 5.2zm-.9-7.4l-2.1-2.1 1.6-1.6.5 3.7zm-.4-4.2l-1.5-1.5 1.3-1.3.2 2.8zm-.6-4.4l-1.1-1.1.8-.8.3 1.9zm-.3-2.6l-.7-.7.6-.6.1 1.3zm-.9-8.2l.7 5.9-.7.7v-6.6zm0 8.5v.2-.2zm0 2.2l1 1-1 1v-2zm0 4l.8.8-.8.8v-1.6zm0 3.7l2.1 2.1h-2.1V82zm0 2.6h1.8l-1.8 1.8v-1.8zm0 3.9l1.9 1.9h-1.9v-1.9zm0 2.4h2.2l-2.2 2.2v-2.2zm0 4.3l3.6 3.6h-3.6v-3.6zm0 4.1h3.6l-3.6 3.6v-3.6zm0 5.7l3.9 3.9h-3.9V105zm0 4.4h4.2l-4.2 4.2v-4.2zm0 6.2l5.7 5.7h-5.7v-5.7zm0 6.2h6.1l-6.1 6.1v-6.1zm0 8.2l7.4 7.4h-7.4V130zm0 8h7.4l-7.4 7.3V138zm.5 8.6h9v-.6h-9.1l8.1-8.1h.1l2.2 19-10.3-10.3z"/><linearGradient id="C" x1="109.493" x2="110.279" y1="60.6" y2="60.6" gradientUnits="userSpaceOnUse"><stop offset="0" stop-color="#2e3192"/><stop offset="1" stop-color="#2f0b81"/></linearGradient><path fill="url(#C)" d="M109.5 52.5h.8v16.2h-.8z"/><path d="M109 56.5v-.2c0-.4.4-.8.8-.8s.8.4.8.8v.2c0 .4-.4.8-.8.8s-.8-.3-.8-.8zm2.8 22.9v-.2c0-.4.4-.8.8-.8s.8.4.8.8v.2c0 .4-.4.8-.8.8-.5 0-.8-.4-.8-.8zm-5.5 0v-.2c0-.4.4-.8.8-.8s.8.4.8.8v.2c0 .4-.4.8-.8.8-.5 0-.8-.4-.8-.8zm2.7 19.7v-.2c0-.4.4-.8.8-.8s.8.4.8.8v.2c0 .4-.4.8-.8.8s-.8-.4-.8-.8zm-3.9 0v-.2c0-.4.4-.8.8-.8s.8.4.8.8v.2c0 .4-.4.8-.8.8-.5 0-.8-.4-.8-.8zm4.3 22.8v-.2c0-.4.4-.8.8-.8s.8.4.8.8v.2c0 .4-.4.8-.8.8s-.8-.3-.8-.8zm6.7 0v-.2c0-.4.4-.8.8-.8s.8.4.8.8v.2c0 .4-.4.8-.8.8s-.8-.3-.8-.8zM109 79.4v-.2c0-.4.4-.8.8-.8s.8.4.8.8v.2c0 .4-.4.8-.8.8s-.8-.4-.8-.8zm-6.6 42.5v-.2c0-.4.4-.8.8-.8s.8.4.8.8v.2c0 .4-.4.8-.8.8-.5 0-.8-.3-.8-.8zM113 99.1v-.2c0-.4.4-.8.8-.8s.8.4.8.8v.2c0 .4-.4.8-.8.8-.5 0-.8-.4-.8-.8z" class="O"/><linearGradient id="D" x1="94" x2="64.5" y1="142.837" y2="142.837" gradientUnits="userSpaceOnUse"><stop offset="0" stop-color="#2e60e8"/><stop offset="1" stop-color="#2e74db"/></linearGradient><path fill="url(#D)" d="M64.5 119.9H94v45.9H64.5z"/><path d="M65 119.8h29v46.3H65z" class="K" opacity=".15"/><g class="O"><path d="M66.6 162.2h1.3v1.3h-1.3zm0-4.6h1.3v1.3h-1.3zm0-4.7h1.3v1.3h-1.3zm0-4.6h1.3v1.3h-1.3z" class="K" opacity=".5"/><path d="M66.6 143.6h1.3v1.3h-1.3z"/><path d="M66.6 139h1.3v1.3h-1.3zm0-4.9h1.3v1.3h-1.3zm0-4.7h1.3v1.3h-1.3zm0-4.6h1.3v1.3h-1.3z" class="K" opacity=".5"/></g><path d="M65 120.1h29v1.7H65z" class="K N"/><path fill="#373e9b" d="M42.4 92.4L40 94v58h3V92"/><linearGradient id="E" x1="73" x2="43" y1="115" y2="115" gradientUnits="userSpaceOnUse"><stop offset="0" stop-color="#2e60e8"/><stop offset="1" stop-color="#2e74db"/></linearGradient><path fill="url(#E)" d="M43 92h30v46H43z"/><path d="M43 92h30v2H43z" class="K L"/><linearGradient id="F" x1="72.932" x2="42.5" y1="152.8" y2="152.8" gradientUnits="userSpaceOnUse"><stop offset="0" stop-color="#2e60e8"/><stop offset="1" stop-color="#2e74db"/></linearGradient><path fill="url(#F)" d="M42.5 137.8h30.4v30H42.5z"/><linearGradient id="G" x1="39.036" x2="9.106" y1="105.014" y2="105.014" gradientUnits="userSpaceOnUse"><stop offset="0" stop-color="#2e59bf"/><stop offset=".04" stop-color="#3057bd"/><stop offset="1" stop-color="#593192"/></linearGradient><path fill="url(#G)" d="M37 99v-5h-2V84h-2v-3.3l-.5-1.7-.5-1.8-.5 1.8-.5 1.6V72h1v-3h-.3l-.5-.4-.3-.4a.55.55 0 0 0 .3-.5c0-.3-.2-.6-.5-.7-.3 0-.7.2-.7.5v.1c0 .2.1.4.2.5l-.3.5-.5.4H29v-8.2c0-1.9-1.4-3.6-3.3-4.1l-.5-.8-1.1-2v-.1l-1.1 2-.5.8c-2 .5-3.3 2.2-3.3 4.1V69h-.5l-.7-.5-.3-.5a.55.55 0 0 0 .3-.5c0-.3-.2-.6-.5-.7s-.7.2-.5.5v.1c-.2.2-.1.4 0 .5l-.3.5-.5 1.6H16v1h1v9.4l-1-3.8-1 3.8-.1 3.6H13v10h-2v5H9.1l-.1 4h1v57h27v-57h2v-4h-2z"/><path d="M13.1 99.2v-4.4h24v-.6H15V84l-2.1.1.1 9.9h-2.1v5H9.1l-.1 3.9h1.8v-2.3l28.2.1v-1.5zm-1.4 3.7h-1.6l-.1 56h2.1v-57l26.9.1v1l-26.9-.1z" class="K L"/><linearGradient id="H" x1="151.001" x2="127.001" y1="125" y2="125" gradientUnits="userSpaceOnUse"><stop offset="0" stop-color="#3651bf"/><stop offset="1" stop-color="#2e5bdb"/></linearGradient><path fill="url(#H)" d="M127 103h24v44h-24z"/><path d="M147.3 141.5H141c-.2 0-.4-.2-.4-.4v-.4c0-.2.2-.4.4-.4h6.3c.2 0 .4.2.4.4v.4c0 .2-.2.4-.4.4zm-11.8 0h-6.3c-.2 0-.4-.2-.4-.4v-.4c0-.2.2-.4.4-.4h6.3c.2 0 .4.2.4.4v.4c0 .2-.2.4-.4.4zm11.8-4H141c-.2 0-.4-.2-.4-.4v-.4c0-.2.2-.4.4-.4h6.3c.2 0 .4.2.4.4v.4c0 .3-.2.4-.4.4zm-11.8 0h-6.3c-.2 0-.4-.2-.4-.4v-.4c0-.2.2-.4.4-.4h6.3c.2 0 .4.2.4.4v.4c0 .3-.2.4-.4.4z" class="K L O"/><path d="M127 103h24v3h-24z" class="K L"/><linearGradient id="I" x1="152.814" x2="150.059" y1="124.95" y2="124.95" gradientUnits="userSpaceOnUse"><stop offset="0" stop-color="#2e42bf"/><stop offset="1" stop-color="#593192"/></linearGradient><path fill="url(#I)" d="M152.8 108.8V147h-2.7v-44.1z"/><path d="M152.8 108.8V147h-2.7v-44.1z" class="K" opacity=".15"/><g class="O"><use xlink:href="#R"/><use class="K L" xlink:href="#S"/><use x="-11.8" xlink:href="#R"/><use x="-11.8" class="K L" xlink:href="#S"/></g><linearGradient id="J" x1="152.814" x2="150.451" y1="146.45" y2="146.45" gradientUnits="userSpaceOnUse"><stop offset="0" stop-color="#2e40bf"/><stop offset="1" stop-color="#593192"/></linearGradient><path fill="url(#J)" d="M152.8 135.6v27.6h-2.3v-33.5"/><path d="M152.8 135.6v27.6h-2.3v-33.5z" class="K" opacity=".15"/><path d="M25.7 79v-4.8c0-.8-.6-1.4-1.3-1.5s-1.4.6-1.5 1.3v5h2.8z" class="K L"/><linearGradient id="K" x1="25.313" x2="23.265" y1="78.6" y2="78.6" gradientUnits="userSpaceOnUse"><stop offset="0" stop-color="#2e59bf"/><stop offset=".04" stop-color="#3057bd"/><stop offset="1" stop-color="#593192"/></linearGradient><path fill="url(#K)" d="M24.3 76.8l1 3.6h-2l.5-1.8z"/><path d="M16 69.9h16V71H16zm13.1-7v-1.7c0-2-1.6-4.1-3.5-4.6l-.3-.8-1.1-2v-3.9H24v4L22.7 56l-.5.7c-1.9.5-3.2 2.5-3.2 4.5v1.7h10.1zm-6.6 6.5V66c0-.6-.4-1-.9-1.1-.6.1-1 .6-.9 1.1v3.3l1.8.1zm2.6 0V66c.1-.5-.2-1-.7-1.1s-1 .2-1.1.7v3.7l1.8.1zm2.8 0V66c.1-.5-.2-1-.7-1.1s-1 .2-1.1.7v3.7l1.8.1z" class="K L"/><path d="M16 76.8l.5 1.8.4 1.8H15l.5-1.8z" class="K" opacity=".35"/><path d="M21.5 79v-4.8c0-.8-.6-1.4-1.3-1.5s-1.4.6-1.5 1.3v5h2.8zm8.4 0v-4.8c.1-.8-.4-1.5-1.2-1.6s-1.5.4-1.6 1.2V79h2.8z" class="K L"/><path d="M32 76.9l.5 1.7.5 1.8h-1.9l.5-1.8zm-7.7-.1l1 3.6h-2l.5-1.8zm-9.4 3.6h18v1.8h-18zm0 2.6h18v1h-18z" class="K" opacity=".35"/><path d="M20.3 93.8v-3.6c0-2.2 1.8-4 4-4s4 1.8 4 4v3.6m-12.3-5h2.4v2.4H16zm14.1 0h2.4v2.4h-2.4zM16 92.4h2.4v1.4H16zm14.1 0h2.4v1.4h-2.4z" class="K L"/><circle cx="17.2" cy="97" r="1.1" class="K L"/><circle cx="24.2" cy="97" r="1.1" class="K L"/><circle cx="31.5" cy="97" r="1.1" class="K L"/><path d="M16 107h3v4h-3zm14 0h3v4h-3zm-7 0h3v4h-3zm-7 7h3v4h-3zm14 0h3v4h-3zm-7 0h3v4h-3zm-7 7h3v4h-3zm14 0h3v4h-3zm-7 0h3v4h-3zm-7 7h3v4h-3zm14 0h3v4h-3zm-7 0h3v4h-3zm-7 7h3v4h-3zm14 0h3v4h-3zm-7 0h3v4h-3zm-7 7h3v4h-3zm14 0h3v4h-3zm-7 0h3v4h-3zm31.7-53.9V76.6H54v11.5h-.3v3.7H55v-3.7zm-7.1 0V76.6h-.7v11.5h-.3v3.7h1.3v-3.7zM143.3 99V87.5h-.7V99h-.3v3.7h1.3V99z" class="K L"/><g class="O K"><use class="M" xlink:href="#T"/><use x="8" class="M" xlink:href="#T"/><use x="16" class="M" xlink:href="#T"/><use class="M" xlink:href="#U"/><use x="8" class="M" xlink:href="#U"/><use x="16" class="M" xlink:href="#U"/><use class="M" xlink:href="#V"/><use x="8" class="M" xlink:href="#V"/><use x="16" class="M" xlink:href="#V"/></g><linearGradient id="L" x1="38" x2="174.1" y1="160.537" y2="160.537" gradientUnits="userSpaceOnUse"><stop offset="0" stop-color="#2e3192"/><stop offset="1" stop-color="#2f0b81"/></linearGradient><path fill="url(#L)" d="M172.1 158.5l1.9.3v-2.2l.1-.1-.1-.1v-1.8c-41.8-7.5-97.4-7.5-136 0v4.1l1.9-.3 2.2 2.2v9.1h-1.6v2.2H47v-2.2h-1.6v-9.2L49 157c5.5-.8 16.8-1.7 16.8-1.7l4.4 4.4v10h-1.8v2.4h7.1v-2.4h-1.8v-9.9l4.4-4.4 21.1-1.6 4.8 4.8v10.9h-2v2.6h7.7v-2.6H108v-10.9l4.8-4.8 21.1 1.6 4.4 4.4v9.9h-1.8v2.4h7.1v-2.4h-1.8v-9.9l4.4-4.4s11.4 1.1 17 1.9l3.5 3.5v9.1h-1.6v2.2h6.5v-2.2H170v-9.2l2.1-2.2zm-128.4.6l-1-1c.8-.1 1.6-.3 2.5-.4l-1.5 1.4zM72 158l-3.2-3.2c2.3-.2 4.6-.4 6.9-.5L72 158zm34-1.3l-3.3-3.3h6.6l-3.3 3.3zm34.1 1.3l-3.6-3.6 6.5.5-2.9 3.1zm26.9-.3l2.3.4-1 1-1.3-1.4z"/><linearGradient id="M" x1="66.171" x2="36.918" y1="141.35" y2="141.35" gradientUnits="userSpaceOnUse"><stop offset="0" stop-color="#2e3192"/><stop offset="1" stop-color="#2f0b81"/></linearGradient><path fill="url(#M)" d="M56.6 146.7c-.1-.3-.1-.6 0-1l.5-1.1-1 1.3c-.4.5-1 .6-1.6.3l-1.7-1c-.3-.2-.5-.5-.6-.8 0-.3 0-.7.2-.9l.2-.2-.2.1c-.6.4-1.3.2-1.6-.4 0-.1-.1-.1-.1-.2l-.1-.3c-3.2 4.8-5.7 10.1-7.5 15.6H39c2.4-6.1 5.9-11.7 10.4-16.4l-.3.3c-.5.4-1.2.4-1.6 0 0-.1-.1-.1-.2-.2l-.1-.2.1.3c.1.3 0 .7-.2 1s-.5.4-.8.5c-.7 0-1.4.1-2 .2-.6.1-1.2-.4-1.3-1l-.2-1.6-.1 1.2c0 .3-.2.6-.4.8-.3.2-.6.3-.9.2-1.4-.2-2.8-.6-4.2-1 2.6-6.1 8.1-5.9 10.9-5.4-.9-.7-2-1.3-3-1.7-.2-.1-.4-.4-.4-.6l.1-.9-.3.8c-.1.3-.4.4-.7.4-1-.2-2-.3-3-.3-.3 0-.6-.2-.6-.6v-1l-.2 1.2c0 .2-.2.4-.5.5-.9.2-1.7.4-2.5.8.1-.4.2-.9.3-1.3 1.4-4 5.7-6 9.7-4.6.7.2 1.4.6 2 1-1.1-2.8.2-5.9.2-5.9s3.2 1.4 4.4 4.2c.5 1.2.6 2.5.4 3.8.5-1.2 1.3-2.2 2.4-3 2.5-1.8 5.9-1.3 5.9-1.3s-.6 3.4-3.1 5.2c-.4.2-.7.4-1.1.6 4.2-.4 7.9 2.8 8.2 6.9.1 1.6-.2 3.1-1 4.4-.4-.8-.9-1.5-1.4-2.2-.2-.2-.2-.4-.1-.6l.6-1.1-.7.7c-.2.2-.6.2-.8 0-.7-.7-1.6-1.2-2.4-1.7-.3-.1-.4-.4-.3-.7l.3-.8-.5.8c-.2.2-.4.3-.7.2-.9-.3-1.8-.5-2.7-.6 2.6 1.3 5.4 3.8 5 8.9-1.4-.2-2.8-.6-4.2-1-.4-.1-.6-.3-.8-.6z"/><linearGradient id="N" x1="150.999" x2="115.999" y1="146" y2="146" gradientUnits="userSpaceOnUse"><stop offset="0" stop-color="#2e59bf"/><stop offset="1" stop-color="#593192"/></linearGradient><path fill="url(#N)" d="M116 129h35v34h-35z"/><path d="M116 129h35v3h-35z" class="K L"/><linearGradient id="O" x1="187" x2="150" y1="105.6" y2="105.6" gradientUnits="userSpaceOnUse"><stop offset="0" stop-color="#3651bf"/><stop offset="1" stop-color="#2e5bdb"/></linearGradient><path fill="url(#O)" d="M187 162l-1-112.8-36 40.7V162h37"/><linearGradient id="P" x1="189.981" x2="185.991" y1="105.6" y2="105.6" gradientUnits="userSpaceOnUse"><stop offset="0" stop-color="#2e3192"/><stop offset="1" stop-color="#4c3ea1"/></linearGradient><path fill="url(#P)" d="M190 162h-4V49.2l4 4z"/><g class="O K"><path d="M155 139h27v3h-27zm0-23h27v3h-27zm0 6h27v3h-27zm0 5h27v3h-27zm0 6h27v3h-27zm0-29h27v3h-27zm0 6h27v3h-27z" class="N"/><use class="M" xlink:href="#W"/><use x="15" class="M" xlink:href="#W"/></g><g opacity=".8"><defs><path id="Q" d="M184 96h-29v-5.4l29-31.7z"/><path id="R" d="M147.7 160h-6.3c-.2 0-.4-.2-.4-.4v-.4c0-.2.2-.4.4-.4h6.3c.2 0 .4.2.4.4v.4c0 .2-.2.4-.4.4z"/><path id="S" d="M147.7 156.1h-6.3c-.2 0-.4-.2-.4-.4v-.4c0-.2.2-.4.4-.4h6.3c.2 0 .4.2.4.4v.4c0 .2-.2.4-.4.4zm0-4h-6.3c-.2 0-.4-.2-.4-.4v-.4c0-.2.2-.4.4-.4h6.3c.2 0 .4.2.4.4v.4c0 .2-.2.4-.4.4z"/><path id="T" d="M47 108h6v3h-6zm0 5h6v3h-6zm0 5h6v3h-6zm0-20h6v3h-6zm0 5h6v3h-6z"/><path id="U" d="M47 132h6v3h-6zm0 5h6v3h-6zm0 5h6v3h-6zm0-19h6v3h-6zm0 4h6v3h-6z"/><path id="V" d="M47 158h6v3h-6zm0 5h6v3h-6zm0-15h6v3h-6zm0 5h6v3h-6z"/><path id="W" d="M120 146h12v3h-12zm0 5h12v3h-12zm0 5h12v3h-12zm0-20h12v3h-12zm0 5h12v3h-12z"/></defs><clipPath id="X"><use xlink:href="#Q"/></clipPath><g class="K O" clip-path="url(#X)"><path d="M155 71h27v3h-27zm0 6h27v3h-27zm0-12h27v3h-27zm0 18h27v3h-27zm0 6h27v3h-27z" class="N"/></g></g><linearGradient id="Y" x1="159.377" x2="188.595" y1="144.1" y2="144.1" gradientUnits="userSpaceOnUse"><stop offset="0" stop-color="#2e3192"/><stop offset="1" stop-color="#2f0b81"/></linearGradient><path fill="url(#Y)" d="M168.9 149.5c.1-.3.1-.6 0-1l-.5-1.1 1 1.3c.4.5 1 .6 1.6.3.5-.3 1.1-.7 1.7-1 .6-.3.7-1.1.4-1.6 0 0 0-.1-.1-.1l-.2-.2.2.1c.6.4 1.3.2 1.6-.4 0-.1.1-.1.1-.2l.1-.3c3.2 4.8 5.7 10.1 7.5 15.6h4.3c-2.4-6.1-5.9-11.7-10.4-16.4l.3.3c.3.2.6.4 1 .3.4 0 .6-.2.8-.6l.1-.2-.1.3c-.1.6.3 1.3 1 1.4h.1c.7 0 1.4.1 2 .2.6 0 1.2-.4 1.3-1l.2-1.6.1 1.2c0 .3.2.6.4.8s.6.3.9.2c1.4-.2 2.8-.6 4.2-1-2.6-6.1-8.1-5.9-10.9-5.4.9-.7 2-1.3 3-1.7.2-.1.4-.4.4-.6l-.1-.9.3.8c.1.3.4.4.7.4 1-.2 2-.3 3-.3.3 0 .6-.2.6-.6v-1l.2 1.2c0 .2.2.4.5.5.9.2 1.7.4 2.5.8-.7-4.1-4.6-6.9-8.7-6.2-1.2.2-2.3.7-3.2 1.4 1-2.8-.2-5.9-.2-5.9s-3.2 1.4-4.4 4.2c-.4 1.2-.6 2.5-.4 3.8-.5-1.2-1.3-2.2-2.4-3-2.5-1.8-5.9-1.3-5.9-1.3s.6 3.4 3.1 5.2c.4.2.7.4 1.1.6-4.2-.4-7.8 2.8-8.2 6.9-.1 1.6.2 3.1 1 4.4.4-.8.9-1.5 1.4-2.2.2-.2.2-.4.1-.6l-.6-1.1.7.7c.2.2.6.2.8 0 .7-.7 1.6-1.2 2.4-1.7.3-.1.4-.4.3-.7l-.3-.8.5.8c.2.2.4.3.7.2.9-.3 1.8-.5 2.7-.6-2.6 1.3-5.4 3.8-5 8.9 1.4-.2 2.8-.6 4.2-1 .1 0 .4-.2.5-.5z"/><linearGradient id="Z" x1="103.553" x2="199.749" y1="154.735" y2="156.263" gradientUnits="userSpaceOnUse"><stop offset="0" stop-color="#451088"/><stop offset="1" stop-color="#593179"/></linearGradient><path fill="url(#Z)" d="M199.4 160.7l-27-3.9c-1-.5-24-10.6-43.5-8.3v-1c.3 0 .5-.4.5-.7 0-.2-.2-.4-.4-.5l.2-9.2h-.3l-.1 8.6c-.2-.8-.8-1.3-1.6-1.4v-1c0-.1-.1-.2-.2-.2s-.2.1-.2.2v1c-.9.1-1.6.8-1.6 1.8v.2h-.2c-.1 0-.2 0-.3.1l-2.8-2.9-.2.2 2.8 3c0 .1-.1.2-.1.3 0 .3.2.6.6.6h.9l1.4 1.3c-2.5.4-4.9 1-7.2 1.9-.2 0-.2.2-.2.4 0 .1.1.2.2.2l4 1c.1 0 .2.2.2.3v2.4c0 .2-.1.3-.3.3h-.5c-.2 0-.3.1-.3.3l-.1 3.9c0 .1-.1.2-.2.3l-1.4.8c-9.4 3-14.5 7.5-15.2 8.2 0 0-.1.1-.2.1h-1.2c-.1 0-.2 0-.2.1l-1.1 1.2c-.1.1-.1.3 0 .4 0 0 .1 0 .1.1l7.5 2.1h.1l77.4.1c.1 0 .2 0 .2-.1l10.8-11.4c.1-.1.1-.3 0-.4-.2-.4-.2-.4-.3-.4zm-71.3-12.6l.1-.6h.4v1.1h-.1l-.4-.5z"/><circle cx="154.7" cy="168.9" r=".8" class="K L"/><circle cx="157.3" cy="168.9" r=".8" class="K L"/><path d="M131.7 159.9c-4.8.8-9 2.6-11.8 4.8l6.7.1 5.1-4.9zm7.2-.6c-2 0-4.1.1-6.1.4l-5.3 5.1 16.2.2 2.7-4.9c-2.5-.5-5-.8-7.5-.8zm-3.7-2.8l2.3-2.2c-2.1.5-4.1 1.3-5.9 2.4h1.4c.7 0 1.5-.1 2.2-.2zm18.5-2.8l-3.5 3.4.5.1h.2l13.7.4c-2.6-1.8-6.4-3.2-10.9-3.9zm-.6 0c-1.8-.2-3.5-.4-5.3-.4-3.2-.1-6.3.2-9.4.9l-2.4 2.4c1.2-.1 2.5-.1 3.8-.1h1.6c2.8 0 5.5.2 8.2.6l3.5-3.4zm9.5-.8l-2.5.3c1.2.6 2.1 1 2.3 1.1 1.9.8 3.7 1.7 5.5 2.7l4.4-.6c-1-.3-4.6-1.8-9.7-3.5z" class="K N O"/><path d="M135.6 157.2zm0-3.3zm63.3 7.6l.6-.6-18.3-.8-6.5-.3-19.1-.8-5.1-.5-9.3-.8h-1.6c-4.4-.1-8.8.4-13 1.6l-1.6.1 6.9-3.8s17.3-8.4 35.8 2.6l7.1-.9-2.4-.5-4.7.6c-2.7-1.6-5.6-2.9-8.6-3.8l2.5-.3c4.2 1.2 7.9 2.4 10.4 3.4-5.6-2.4-11.3-4.3-17.1-5.8-7.8-2-17.1-3.4-25.8-2.4v-.9c.3 0 .5-.4.5-.7 0-.2-.2-.4-.4-.5l.2-9.1h-.3l-.1 8.6c-.2-.8-.8-1.3-1.6-1.4v-1c0-.1-.1-.2-.2-.2s-.2.1-.2.2v1c-.9.1-1.6.8-1.6 1.8v.2h-.4c-.1 0-.2 0-.3.1l-2.8-2.9-.2.2 2.8 2.9c0 .1-.1.2-.1.3 0 .3.2.6.6.6h.9l1.2 1.2c-.4.1-.8.2-1.3.2l-.8.2-.9.2h-.1c-1.4.4-2.8.8-4.2 1.3-.2.1-.2.2-.2.4 0 .1.1.2.2.2l4.1 1c.1 0 .2.2.2.3v2.4c0 .2-.2.3-.3.3h-.6c-.2 0-.3.1-.3.3l-.1 4h-.1l-1.5.8c-9.3 3-14.4 7.5-15.1 8.2 0 0-.1.1-.2.1h-1.2c-.1 0-.2 0-.2.1l-1.1 1.2c-.1.1-.1.2-.1.3 0 .2 0 .3.2.4l7.5 2.1h.1l77 .1c.1 0 .2 0 .2-.1l1.1-1.2-78.9-.1-.8-1.3a12.4 12.4 0 0 1 2.8-2.8l79.5 1.3.5-.5h.2l1.1-1.1h-.1l-.4.5-78.5-1.3c5-4.8 14.2-8 24.8-7.8h2.1c1.7.8 4.9 2.2 5 2.2l1.3.1 2.4.3c.8.1 5.1.5 5.1.5l42 1.7.6-.6-4.8-.2 1.2-1.2 4.4.1zm-70.6-13.7h.4v.9h-.2l-.2-.3v-.6zm-2.5 3.8c10.8-3.3 24-1.4 34.1 1.3l-2.4.3c-14.2-3.8-25.7 1.8-25.7 1.8l-6.1 3.3.1-6.7zm-11.7 14.7h-.2c.3-.2.6-.4.8-.6-.2.1-.4.3-.6.6zm73-5.2l-1.2 1.2-6.1-.2 1.2-1.2 6.1.2zm-7.8.9l-5.9-.2 1.2-1.2 5.9.2-1.2 1.2zm-6.6-.3l-5.8-.2 1.2-1.2 5.8.2-1.2 1.2zm-6.4-.3l-5.9-.2 1.2-1.2 5.9.2-1.2 1.2zm-18.4-2.4l-1.2 1.1c-.2 0-2.4-.9-3.8-1.5 1.8.1 3.4.2 5 .4zm-.2 1.2h-.4l1.2-1.1c.6.1 1.2.2 1.9.2.6.1 2.8.3 4.2.4l-1.2 1.1c-1.2-.1-2.7-.2-3.2-.3l-2.5-.3zm6.2.7l1.2-1.2h.4l5.6.2-1.2 1.2-4.6-.2h-1.4zm38.6 1.6l-5.9-.2 1.2-1.2 5.9.2-1.2 1.2z" class="K N"/><circle cx="185.5" cy="164.8" r=".8" class="K L"/><circle cx="188.1" cy="164.8" r=".8" class="K L"/><linearGradient id="a" x1="49" x2="0" y1="156.172" y2="156.172" gradientUnits="userSpaceOnUse"><stop offset="0" stop-color="#2e59bf"/><stop offset=".04" stop-color="#3057bd"/><stop offset="1" stop-color="#593192"/></linearGradient><path fill="url(#a)" d="M0 149v24h48.7l.3-23.8V146h-.8l-.8-1.1-.4-.6c.4-.2.6-.7.4-1.1-.2-.6-.9-.5-.9-.5v-3.4h.4v3.4c-.6-.1-1.1.5-1 1 0 .2.2.4.4.5l-.4.6-.7 1.2H45v3H3v-3h.3l-.7-1.1-.4-.6c.3-.1.4-.4.4-.7 0-.4-.2-.7-.6-.8v.2-.2c-.7.1-.9.4-.9.8 0 .3.2.6.4.7l-.4.6L0 146"/><path d="M17.844 157.318l1.202-1.202 1.202 1.202-1.202 1.202zm10.484.015l1.202-1.202 1.202 1.202-1.202 1.202zM5.5 154.8h3v5h-3zm7 0h3v5h-3zm21 0h3v5h-3zm7 0h3v5h-3zm-14 5.5v-4c0-1.2-1-2.1-2.1-2.1-1.2 0-2.1 1-2.1 2.1v4h-1v.8h6.2v-.8h-1zm3.1 12.4v-4.2c0-2.9-2.4-5.2-5.2-5.2s-5.2 2.4-5.2 5.2v4.2h10.4zm-24.1-8.9h3v5h-3zm7 0h3v5h-3zm21 0h3v5h-3zm7 0h3v5h-3zm-38.7-21c-.7.1-.7.7-.7.7 0 .2.2.6.4.8l-.4.6-1 1.1H0v26.6l4-.1V153h44.8v-1H4v-1h44.9l.1-2H3v-3h.3l-.6-.9-.5-.8c.4-.2.5-.7.3-1.1 0 0-.2-.5-.7-.4z" class="K L"/><path d="M49 149v-3h-.8l-.8-1.1-.4-.6c.4-.2.6-.7.4-1.1-.1-.2-.3-.4-.5-.4v-3.4h-.4v3.4a.89.89 0 0 0-.6 1c0 .2.2.4.4.5l-1.2 1.8h-.2v2.9H49z" class="K N"/></svg>