<svg xmlns="http://www.w3.org/2000/svg" xmlns:xlink="http://www.w3.org/1999/xlink" viewBox="0 0 200 172"><style>.L{enable-background:new}.M{opacity:.1}.N{fill:#fff}.O{opacity:.3}.P{opacity:.2}.Q{opacity:.15}.R{opacity:.6}.S{opacity:.4}.T{fill:none}.U{stroke-linejoin:round}.V{stroke-width:.108}.W{fill:#451088}.X{stroke-linecap:round}</style><linearGradient id="A" x1="180.738" x2="182.213" y1="43.55" y2="43.55" gradientUnits="userSpaceOnUse"><stop offset="0" stop-color="#3651bf"/><stop offset="1" stop-color="#2e5bdb"/></linearGradient><use fill="url(#A)" xlink:href="#t"/><use class="L O" xlink:href="#t"/><linearGradient id="B" x1="174.575" x2="176.546" y1="41.25" y2="41.25" gradientUnits="userSpaceOnUse"><stop offset="0" stop-color="#3651bf"/><stop offset="1" stop-color="#2e5bdb"/></linearGradient><use fill="url(#B)" xlink:href="#u"/><use class="L O" xlink:href="#u"/><linearGradient id="C" x1="97.802" x2="98.265" y1="172.369" y2="25.008" gradientUnits="userSpaceOnUse"><stop offset="0" stop-color="#1d7ee8"/><stop offset="1" stop-color="#2ea7db"/></linearGradient><path fill="url(#C)" d="M12.3 111l-.3 61.1 171.5.2.3-61.4c.2-49.3-41.5-89-91.6-85.7-45 2.8-79.8 40.6-79.9 85.8z"/><path d="M184 117v-1h-12V79h-23v21h-11V64.3l-19-14.2V101h-3V73H96v14H78V42H62v45h-6V63L44 49.5V99h-8V74H13v98.5h170V149h1z" class="L P"/><linearGradient id="D" x1="50.387" x2="62.663" y1="139.35" y2="139.35" gradientUnits="userSpaceOnUse"><stop offset="0" stop-color="#2e3192"/><stop offset="1" stop-color="#2f0b81"/></linearGradient><path fill="url(#D)" d="M62.4 131.2l.1-.3H50.6l.1.3-.3 1L56 139l-5.5 6.9.4 1v.9h11.6v-.9l.4-1-5.6-6.9 5.5-6.9-.4-.9zm-.5 15.3H51.1l5.4-6.7 5.4 6.7zm-5.4-8.3l-4.9-6.1h9.8l-4.9 6.1z"/><linearGradient id="E" x1="122" x2="122" y1="110.878" y2="67.778" gradientUnits="userSpaceOnUse"><stop offset="0" stop-color="#2e3192"/><stop offset="1" stop-color="#2f0b81"/></linearGradient><path fill="url(#E)" d="M122 109.1c-24.9 0-46.7-16.2-59-40.5l-1.2-.7C73.9 93.7 96.3 111 122.1 111c25.6 0 48-17.1 60.1-42.7l-1 .1c-12.4 24.4-34.2 40.7-59.2 40.7z"/><linearGradient id="F" x1="110.2" x2="110.2" y1="110" y2="66.9" gradientUnits="userSpaceOnUse"><stop offset="0" stop-color="#2e3192"/><stop offset="1" stop-color="#2f0b81"/></linearGradient><path fill="url(#F)" d="M110.3 108.2c-24.9 0-46.7-16.2-59-40.5l-1.3-.8C62.1 92.7 84.6 110 110.3 110c25.6 0 48-17.2 60.1-42.7l-1 .1c-12.3 24.5-34.1 40.8-59.1 40.8z"/><linearGradient id="G" x1="50.381" x2="62.661" y1="94" y2="94" gradientUnits="userSpaceOnUse"><stop offset="0" stop-color="#2e3192"/><stop offset="1" stop-color="#2f0b81"/></linearGradient><path fill="url(#G)" d="M57.1 77.9l5.5-6.9-.4-1.1-5.8 7.2-5.8-7.2-.2 1.1 5.5 6.9-5.5 6.9.3 1-.3.9 5.5 6.9-5.5 6.9.3 1-.3.9 5.5 6.9-5.5 6.9.4 1v.9h11.6V117l.4-1-5.5-6.9 5.5-6.9-.3-.9.3-1-5.5-6.9 5.5-6.9-.3-.9.3-1-5.7-6.7zm4.8 7.4H51.1l5.4-6.7 5.4 6.7zm0 31.2H51.1l5.4-6.7 5.4 6.7zm-10.3-14.3h9.8l-4.9 6.1-4.9-6.1zm10.3-1.3H51.1l5.4-6.7 5.4 6.7zM51.6 86.6h9.8l-4.9 6.1-4.9-6.1z"/><linearGradient id="H" x1="56.6" x2="56.6" y1="71" y2="65.537" gradientUnits="userSpaceOnUse"><stop offset="0" stop-color="#2e3192"/><stop offset="1" stop-color="#2f0b81"/></linearGradient><path fill="url(#H)" d="M50.6 65.5h12V71h-12z"/><path d="M50.8 70.2h11.6v.8H50.8z" class="L O"/><linearGradient id="I" x1="63.15" x2="63.15" y1="156.3" y2="64.8" gradientUnits="userSpaceOnUse"><stop offset="0" stop-color="#2e3192"/><stop offset="1" stop-color="#2f0b81"/></linearGradient><path fill="url(#I)" d="M63.4 65.4h-.2v-.3h-.1v-.3h-.7v.3h-.2v91.2h1.9z"/><linearGradient id="J" x1="50" x2="50" y1="156.3" y2="64.8" gradientUnits="userSpaceOnUse"><stop offset="0" stop-color="#2e3192"/><stop offset="1" stop-color="#2f0b81"/></linearGradient><path fill="url(#J)" d="M49.8 65.4h.1v-.3h.2v-.3h.7v.3h.1v91.2h-1.8z"/><linearGradient id="K" x1="46.324" x2="66.724" y1="154.45" y2="154.45" gradientUnits="userSpaceOnUse"><stop offset="0" stop-color="#2e3192"/><stop offset="1" stop-color="#2f0b81"/></linearGradient><path fill="url(#K)" d="M65.4 154.9v-3.2H47.3v3.2h-1v2.3h7.1v-1.8h6.3v1.8h7v-2.3z"/><linearGradient id="L" x1="115.85" x2="115.85" y1="129.753" y2="114.525" gradientUnits="userSpaceOnUse"><stop offset="0" stop-color="#2e3192"/><stop offset="1" stop-color="#2f0b81"/></linearGradient><path fill="url(#L)" d="M189.4 126c-8.2-.9-17.6-1.6-27.8-2.2v-6.3c10.2.6 19.6 1.3 27.8 2.2v-1.8c-19.2-2-44.9-3.3-73.1-3.3-28.6 0-54.6 1.3-74 3.4v1.8c9-1 19.4-1.8 30.8-2.4v6.3c-11.4.6-21.8 1.4-30.8 2.4v3.6c19.4-2.1 45.4-3.4 74-3.4 28.2 0 53.8 1.2 73.1 3.3V126zM83 123.3l-9.3.4v-6.3c3-.2 6.1-.3 9.3-.4v6.3zm9.8-.3l-9.3.3V117l9.3-.3v6.3zm9.7-.2c-3.1 0-6.2.1-9.3.2v-6.3l9.3-.2v6.3zm9.8-.1l-9.3.1v-6.3l9.3-.1v6.3zm9.7 0h-9.3v-6.3h9.3v6.3zm9.8.1c-3.1 0-6.1-.1-9.3-.1v-6.3l9.3.1v6.3zm9.8.2l-9.3-.2v-6.3c3.1 0 6.2.1 9.3.2v6.3zm9.8.4l-9.3-.3v-6.3l9.3.3v6.3zm9.7.4c-3-.2-6.1-.3-9.3-.4V117l9.3.4v6.4z"/><linearGradient id="M" x1="102.5" x2="165.5" y1="148.3" y2="148.3" gradientUnits="userSpaceOnUse"><stop offset="0" stop-color="#4c3ea1"/><stop offset="1" stop-color="#2e3192"/></linearGradient><path fill="url(#M)" d="M102.5 132.8h63v31h-63z"/><linearGradient id="N" x1="103.1" x2="165.763" y1="126.2" y2="126.2" gradientUnits="userSpaceOnUse"><stop offset="0" stop-color="#4c3ea1"/><stop offset="1" stop-color="#2e3192"/></linearGradient><path fill="url(#N)" d="M134.4 119.6l15.7 6.6 15.6 6.6h-62.6l15.6-6.6z"/><path d="M133.9 119.5l-31.4 12.9v.2h-.1.1v1h1v30h2v-30h57v30h3v-31.2l-31.6-12.9zm-25.1 13.3l4-1.7 21.6-9.1 25.6 10.8h-51.2z" class="L P"/><linearGradient id="O" x1="130.05" x2="140.944" y1="69.8" y2="69.8" gradientUnits="userSpaceOnUse"><stop offset="0" stop-color="#4c3ea1"/><stop offset="1" stop-color="#2e3192"/></linearGradient><path fill="url(#O)" d="M141 82.8l-5.5-25.9v-.1.2L130 82.8l2.4-.8 2.1-16.9-2.2 17.3h6.4l-3-23.5 2.9 23.1z"/><path d="M130 82.8l5.5-26-3.1 25.2zm11 0l-5.5-26 3.1 25.2z" class="L Q"/><path d="M135.5 56.8l3.1 25.6h-6.2z" opacity=".05"/><path d="M132.1 81.6h6.6v.8h-6.6zm6.6 0v.8l2.7 1v-.8zm-9.3 1v.8l2.7-1v-.8z"/><linearGradient id="P" x1="122.5" x2="147.5" y1="133.8" y2="133.8" gradientUnits="userSpaceOnUse"><stop offset="0" stop-color="#4c3ea1"/><stop offset="1" stop-color="#2e3192"/></linearGradient><path fill="url(#P)" d="M122.5 102.8h25v62h-25z"/><path d="M129.4 164.3v-31.7c0-3.3 2.7-6 6.1-6.1 3.3 0 6 2.7 6.1 6.1v31.7" class="L Q"/><path d="M139.8 145.1v-11.9c0-2.7-4.3-5-4.3-5s-4.3 2.2-4.3 5v11.9h8.6z" class="L O"/><path d="M132 144.9v-7.3a.68.68 0 1 1 1.4 0v7.3m4.1-.2v-7.3a.68.68 0 1 1 1.4 0v7.3m-4.1.2v-7.3a.68.68 0 1 1 1.4 0v7.3" class="L M"/><g class="M N L"><circle cx="135.5" cy="132.1" r="1.2" class="R"/><circle cx="137.3" cy="134.5" r="1.4" class="R"/><circle cx="133.6" cy="134.5" r="1.4" class="R"/></g><path d="M130.7 146h9.6c.1 0 .2.1.2.2v.4c0 .1-.1.2-.2.2h-9.6c-.1 0-.2-.1-.2-.2v-.4c0-.1.1-.2.2-.2z" class="L O"/><path d="M135.5 128.2s-4.3 2.2-4.3 5v1.6c0-2.7 4.3-5 4.3-5s4.3 2.2 4.3 5v-1.6c0-2.8-4.3-5-4.3-5z" class="L M"/><path d="M135.5 164.3h-5v-13.9h5" class="L Q"/><path d="M135.5 150.4h5v13.9h-5m0-39.2c-3.9 0-7.1 2.9-7.1 6.5v32.7h1.1v-31.7c0-3.3 2.7-6.1 6.1-6.1 3.3 0 6 2.7 6.1 6.1v31.7h1v-32.7c-.1-3.6-3.3-6.5-7.2-6.5zm4.6-15.3c-1.3 0-2.3.9-2.3 2 0-1.1-1-2-2.3-2-1 0-1.9.6-2.2 1.5-.3-.9-1.2-1.5-2.2-1.5-1.3 0-2.3.9-2.3 2v8.3h13.7v-8.3c-.1-1.1-1.1-2-2.4-2z" class="L P"/><path d="M130.9 109.8c-1.3 0-2.3.9-2.3 2v8.3h4.6v-8.3c0-1.1-1.1-2-2.3-2zm0 .8c.9 0 1.6.8 1.6 1.8v1h-3.2v-1c-.1-1 .7-1.8 1.6-1.8zm1.6 3.1v2.2h-3.2v-2.2h3.2zm-3.2 5.7v-3h3.2v3h-3.2zm6.2-9.6c-1.3 0-2.3.9-2.3 2v8.3h4.6v-8.3c0-1.1-1-2-2.3-2zm0 .8c.9 0 1.6.8 1.6 1.8v1h-3.2v-1c0-1 .7-1.8 1.6-1.8zm1.6 3.1v2.2h-3.2v-2.2h3.2zm-3.2 5.7v-3h3.2v3h-3.2zm6.2-9.6c-1.3 0-2.3.9-2.3 2v8.3h4.6v-8.3c0-1.1-1-2-2.3-2zm0 .8c.9 0 1.6.8 1.6 1.8v1h-3.2v-1c0-1 .7-1.8 1.6-1.8zm1.6 3.1v2.2h-3.2v-2.2h3.2zm-3.2 5.7v-3h3.2v3h-3.2z" class="L M"/><path d="M146.4 102.8h-23.9v62h1v-61h23v61h1v-62z" class="L P"/><linearGradient id="Q" x1="121.8" x2="149.235" y1="102.35" y2="102.35" gradientUnits="userSpaceOnUse"><stop offset="0" stop-color="#4c3ea1"/><stop offset="1" stop-color="#2e3192"/></linearGradient><path fill="url(#Q)" d="M121.8 101.8h27.4v1.1h-27.4z"/><path d="M121.7 101.7h27.5v1h-27.5z" class="L O"/><linearGradient id="R" x1="129.5" x2="141.5" y1="95.3" y2="95.3" gradientUnits="userSpaceOnUse"><stop offset="0" stop-color="#4c3ea1"/><stop offset="1" stop-color="#2e3192"/></linearGradient><path fill="url(#R)" d="M129.5 88.8h12v13h-12z"/><linearGradient id="S" x1="141.426" x2="146.326" y1="95.3" y2="95.3" gradientUnits="userSpaceOnUse"><stop offset="0" stop-color="#4c3ea1"/><stop offset="1" stop-color="#2e3192"/></linearGradient><path fill="url(#S)" d="M146.3 101.7h-4.9V88.9l4.9 1.8z"/><linearGradient id="T" x1="124.506" x2="129.506" y1="95.35" y2="95.35" gradientUnits="userSpaceOnUse"><stop offset="0" stop-color="#4c3ea1"/><stop offset="1" stop-color="#2e3192"/></linearGradient><path fill="url(#T)" d="M124.5 101.8h5V88.9l-5 1.8z"/><path d="M132.6 99.8v-5.5c0-1.7 1.4-3 3-3 1.7 0 3 1.4 3 3v5.5" class="L P"/><path d="M146.3 101.8h-4.8V88.9l4.8 1.8zm-21.8 0h5V88.9l-5 1.8z" class="L Q"/><path d="M129.3 88.9h12.1v1.4h-12.1zm12.2 0v1.4l4.8 1.8v-1.4zm-17 1.8v1.4l4.8-1.8v-1.4z"/><linearGradient id="U" x1="132.135" x2="138.859" y1="85.2" y2="85.2" gradientUnits="userSpaceOnUse"><stop offset="0" stop-color="#4c3ea1"/><stop offset="1" stop-color="#2e3192"/></linearGradient><path fill="url(#U)" d="M132.1 81.6h6.7v7.2h-6.7z"/><linearGradient id="V" x1="138.658" x2="141.35" y1="85.2" y2="85.2" gradientUnits="userSpaceOnUse"><stop offset="0" stop-color="#4c3ea1"/><stop offset="1" stop-color="#2e3192"/></linearGradient><path fill="url(#V)" d="M141.4 88.8h-2.7v-7.2l2.7 1z"/><linearGradient id="W" x1="129.444" x2="132.135" y1="85.2" y2="85.2" gradientUnits="userSpaceOnUse"><stop offset="0" stop-color="#4c3ea1"/><stop offset="1" stop-color="#2e3192"/></linearGradient><path fill="url(#W)" d="M129.4 88.8h2.7v-7.2l-2.7 1z"/><path d="M141.4 88.9h-2.7v-7.3l2.7 1zm-12 0h2.7v-7.3l-2.7 1z" class="L Q"/><circle cx="135.7" cy="85.4" r="2" class="L M"/><circle cx="135.7" cy="85.4" r="1.9" class="L M"/><g opacity=".8"><circle cx="135.7" cy="85.4" r="1.6" class="N"/><linearGradient id="X" x1="135.699" x2="135.699" y1="84" y2="84" gradientUnits="userSpaceOnUse"><stop offset="0" stop-color="#4531a7"/><stop offset="1" stop-color="#423179"/></linearGradient><path stroke="url(#X)" d="M135.7 84z" class="S T U V"/><linearGradient id="Y" x1="135.699" x2="135.699" y1="86.8" y2="86.8" gradientUnits="userSpaceOnUse"><stop offset="0" stop-color="#4531a7"/><stop offset="1" stop-color="#423179"/></linearGradient><path stroke="url(#Y)" d="M135.7 86.8z" class="S T U V"/><linearGradient id="Z" x1="137.1" x2="137.1" y1="85.3" y2="85.3" gradientUnits="userSpaceOnUse"><stop offset="0" stop-color="#4531a7"/><stop offset="1" stop-color="#423179"/></linearGradient><path stroke="url(#Z)" d="M137.1 85.3z" class="S T U V"/><linearGradient id="a" x1="134.302" x2="134.302" y1="85.3" y2="85.3" gradientUnits="userSpaceOnUse"><stop offset="0" stop-color="#4531a7"/><stop offset="1" stop-color="#423179"/></linearGradient><path stroke="url(#a)" d="M134.3 85.3z" class="S T U V"/><linearGradient id="b" x1="135.57" x2="136.233" y1="85.3" y2="85.3" gradientUnits="userSpaceOnUse"><stop offset="0" stop-color="#4531a7"/><stop offset="1" stop-color="#423179"/></linearGradient><path stroke="url(#b)" stroke-width=".117" d="M135.6 84.6v.8l.6.6" class="T U X"/></g><linearGradient id="c" x1="134.248" x2="136.742" y1="59.1" y2="59.1" gradientUnits="userSpaceOnUse"><stop offset="0" stop-color="#4c3ea1"/><stop offset="1" stop-color="#2e3192"/></linearGradient><ellipse cx="135.5" cy="59.1" fill="url(#c)" rx="1.2" ry=".5"/><path d="M118.1 157.6v-16c0-2.2-3.5-3.9-3.5-3.9s-3.5 1.8-3.5 3.9v16h7z" class="L O"/><use class="L M" xlink:href="#v"/><ellipse cx="114.5" cy="140.7" class="L M N" rx=".9" ry="1"/><g class="M N L"><ellipse cx="115.9" cy="142.7" class="R" rx="1" ry="1.1"/><ellipse cx="113" cy="142.7" class="R" rx="1" ry="1.1"/></g><use class="L M" xlink:href="#w"/><path d="M110.4 158.3h8.1v.6h-8.1zm48.6-.7v-16c0-2.2-3.5-3.9-3.5-3.9s-3.5 1.8-3.5 3.9v16h7z" class="L O"/><use x="40.9" class="L M" xlink:href="#v"/><g class="M N L"><ellipse cx="155.4" cy="140.7" class="R" rx=".9" ry="1"/><ellipse cx="156.8" cy="142.7" class="R" rx="1" ry="1.1"/><ellipse cx="154" cy="142.7" class="R" rx="1" ry="1.1"/></g><use x="40.9" class="L M" xlink:href="#w"/><path d="M151.3 158.3h8.1v.6h-8.1z" class="L O"/><path d="M31 50h-1v1h1.1z" class="N" opacity=".06"/><linearGradient id="d" x1="87.311" x2="91.247" y1="89.15" y2="89.15" gradientUnits="userSpaceOnUse"><stop offset="0" stop-color="#451088"/><stop offset="1" stop-color="#593179"/></linearGradient><use fill="url(#d)" xlink:href="#x"/><use class="L S" xlink:href="#x"/><linearGradient id="e" x1="47.735" x2="42.881" y1="81.575" y2="82.111" gradientUnits="userSpaceOnUse"><stop offset="0" stop-color="#451088"/><stop offset="1" stop-color="#593179"/></linearGradient><path fill="url(#e)" d="M78.2 91.8l.1 2.2 3.1 1.3.5-13.7-3.1 1.8.1.1-.7 8.3"/><path d="M78.1 91.8l.2 2.2 3.1 1.3.5-13.7-3.1 1.8.1.1-.8 8.3" class="L S"/><linearGradient id="f" x1="80.119" x2="88.856" y1="87.45" y2="87.45" gradientUnits="userSpaceOnUse"><stop offset="0" stop-color="#451088"/><stop offset="1" stop-color="#593179"/></linearGradient><path fill="url(#f)" d="M84.5 77.9c-2.4 0-4.4 2.5-4.4 5.7 0 1.5.5 3 1.4 4.2V97H88V87c.6-1 .8-2.2.8-3.3.1-3.3-1.9-5.8-4.3-5.8z"/><linearGradient id="g" x1="69.662" x2="99.162" y1="73.8" y2="73.8" gradientUnits="userSpaceOnUse"><stop offset="0" stop-color="#451088"/><stop offset="1" stop-color="#593179"/></linearGradient><path fill="url(#g)" d="M90.2 79.1c-.2-.9-.6-1.7-1.1-2.5l4.3-10.1-5.6 8.8c-.7-.6-1.6-.9-2.5-1l-.9-11-.9 11c-.9.2-1.8.5-2.5 1.1l-5.6-8.8 4.3 10.2c-.5.7-.9 1.6-1.1 2.5l-9-4.6 8.8 6.8c0 .5.1 1 .3 1.4 0 .2.1.4.1.6.1-3.9 2.5-6.9 5.4-6.9 3 0 5.4 3.3 5.4 7.2v.5c.4-.9.6-1.9.7-2.9l8.8-6.7-8.9 4.4z"/><path d="M78.7 81.4c0-3.5 2.6-6.3 5.8-6.3s5.8 2.9 5.8 6.3c0 .4 0 .9-.1 1.3.2-.6.3-1.4.3-2 0-3.6-2.7-6.5-5.9-6.5s-5.9 2.9-5.9 6.5c0 .7.1 1.4.3 2-.3-.4-.3-.8-.3-1.3z" class="L O"/><path stroke="#000" stroke-width=".177" d="M84.3 76.4c3 0 5.4 3.3 5.4 7.2v.5c.4-.8.6-1.8.6-2.7 0-3.5-2.6-6.3-5.8-6.3s-5.8 2.9-5.8 6.3c0 .6.1 1.2.2 1.8.2-3.7 2.5-6.8 5.4-6.8zm.1-1.3v1.3m-5.7 4.1l.5.6m-.1-2l.6.6m0-1.9l.6.9m.3-1.9l.5 1m.7-2l.3 1.2m.9-1.6l.1 1.1m7 4.3l-.6.7m.3-2.1l-.7.7m.2-1.9l-.8.9m-.2-2.2l-.5 1.1m-.7-2l-.3 1.1m-.9-1.7l-.1 1.2" class="O T U X"/><ellipse cx="84.5" cy="83.5" class="L M N" rx="4.4" ry="5.7"/><linearGradient id="h" x1="64.199" x2="110.554" y1="110.4" y2="110.4" gradientUnits="userSpaceOnUse"><stop offset="0" stop-color="#451088"/><stop offset="1" stop-color="#593179"/></linearGradient><path fill="url(#h)" d="M104 116.7l6.5-12.1-7.1-4.7-2.2 4.6-1.8-1.4-3.4-9.9-5.2-1.6h-8.1l-5.9-4.8-3.1-7.2-2-18.4c.4-.1.7-.5.6-.9 0-.3-.3-.5-.6-.6.3-.2.5-.6.5-1v-2c0-.4-.2-.8-.6-.9h-.2l-2.6.4v3.4h-.1c-.4 0-.7.4-.7.8s.3.6.6.7l-.8 17.6h-.6l-2.9 4v3.2l2 2.8v12.1l-.8 1.8 2.5 3.7-.8 2 1 2.2-1.8 1.2 2.9 5.7.6-.7-.5 5.9-1.6 2.1.7 6.5-2.2 19.4.7-.6-.6 15h36l-3.3-36 4.6-2.1 1.4-5.8-.3-4.8-.8.4z"/><linearGradient id="i" x1="78.941" x2="89.723" y1="80.65" y2="80.65" gradientUnits="userSpaceOnUse"><stop offset="0" stop-color="#451088"/><stop offset="1" stop-color="#593179"/></linearGradient><use fill="url(#i)" xlink:href="#y"/><use class="L S" xlink:href="#y"/><linearGradient id="j" x1="67.289" x2="72.116" y1="47.109" y2="47.109" gradientUnits="userSpaceOnUse"><stop offset="0" stop-color="#451088"/><stop offset="1" stop-color="#593179"/></linearGradient><path fill="url(#j)" d="M70.8 45.3c2 3.3 1.2 4.9.8 5.3-.5.6-1.2.9-2 .8-.3 0-.7 0-1-.2-1.2-.4-1.4-2-1.4-2.2 0-1.6.4-4.3 2.3-6.2-.4 1.8-.6 3.3.1 4.7.6-.4.9-1.3 1.2-2.2z"/><linearGradient id="k" x1="63.155" x2="105.555" y1="166.6" y2="166.6" gradientUnits="userSpaceOnUse"><stop offset="0" stop-color="#451088"/><stop offset="1" stop-color="#593179"/></linearGradient><path fill="url(#k)" d="M63.2 164.9h42.4v3.4H63.2z"/><linearGradient id="l" x1="61.8" x2="106.9" y1="170.2" y2="170.2" gradientUnits="userSpaceOnUse"><stop offset="0" stop-color="#451088"/><stop offset="1" stop-color="#593179"/></linearGradient><path fill="url(#l)" d="M61.8 168.2h45.1v4H61.8z"/><path d="M90.8 95.6l5.1-2.4.4 6.1-7.4 7.2z" class="L P"/><path d="M93.2 111.3l-4 4.6-.7 16-7.8 6.6.1 21.8 13.4-10.8z" class="L Q"/><path d="M101.6 154.6l-.4-4-7.2-9 .3 8-2.2 1.6z" class="L M"/><path d="M63.1 164.8h42.4v3.5H63.1z" class="L P"/><path d="M61.9 168.5H107v3.5H61.9z" class="L O"/><path d="M70.7 78.7h-3.6l-2.9 4V86l2 2.7v12.1l-.8 1.8 2.6 3.7-.8 2 1 2.3-1.8 1.2 2.9 5.6.7-.7-.5 5.9-1.6 2.1.7 6.4-2.2 19.4.7-.6-.6 15h3.6l.6-15-.7.6 2.2-19.4-.8-6.4 1.7-2.1.5-5.9-.7.7-2.9-5.6 1.8-1.2-1.1-2.3.9-2-2.6-3.7.8-1.8V88.7l-.9-2.8-1.5-1.5.2-5.2 3.2-.6" class="O W"/><path d="M71.6 61.1l2.5 22.3-5.2 2.5-1.4-1.7 1-23.1" class="N" opacity=".05"/><path d="M90.8 95.6l-19.2 10.7-2.5-3.7.8-1.8V88.7l-.8-2.9-1.6-1.5.2-5.2.1-.5h-.5l-2.9 4v3.2l2 2.8v12.1l-.8 1.8 2.5 3.7-.8 2 1 2.2-1.8 1.2 2.9 5.7.6-.7-.5 5.9-1.6 2.1.7 6.5-2.2 19.4.7-.6-.6 15H70l.3-7.2 10.4-19.2 7.8-6.5.7-17.8-11 10.5 9.3-9 3.3-20.1zm-10.1 42.9l-10.4 8.7 10.4-8.7zm-7.2-21l.1-.8-.6.7-1.2-2.4 18.9-19.2-17.2 21.7z" class="L Q"/><path d="M80.7 138.7l-14.2 26.4.6-15z" class="L Q"/><path d="M71 146.7l1.5-13-.7-6.5 19-31.6-22.9 29.1.7 6.5-2.2 19.4zm22.2-35.4l-2.4 35.8-10 9.6v3.6l13.4-10.8z" class="L M"/><path d="M80.8 152.6l-3.7 12.2h-1l4.7-15z" class="L Q"/><path d="M90.7 91.6h-8.1l-5.9-4.9-2.5-5.7v.1l3.4 8 5.9 4.9h8.1l1.5.5 2.8-1.3z" class="L P"/><path d="M95.5 152.4l-1-.3 3.8 12.7h1z" class="L Q"/><path d="M87.5 115.8l-.8 17.7 1.7-1.5.9-17.9z" class="L M"/><g class="W"><use xlink:href="#z"/><use xlink:href="#AA"/></g><path d="M101.2 104.6l-1.9-1.4-3.4-10 1.2 19.9z" class="P"/><path d="M103.4 99.8l7.2 4.7-10 18.3-2.2-2.5-1.3-7.3z" class="L M N"/><path d="M105.1 121l-1.2 5.8-4.8 2-.7-8.7 2.1 2.7 3.4-6.1 1-.4z" class="L M"/><path d="M100.5 122.8l-2.1-2.7.7 8.7 4.8-2z" class="L P"/><path d="M103.4 104.8l3.1 2.1v.3l-3.6-2.4zm-1.4 2.4l3.1 2.1v.3l-3.5-2.4z" class="N Q"/><g class="M N"><use xlink:href="#z"/><use xlink:href="#AA"/></g><path d="M71.5 55.8v3.9c.3 0 .6-.4.6-1v-1.9c0-.5-.3-1-.6-1z" class="L M N"/><linearGradient id="m" x1="65.7" x2="73.798" y1="54.8" y2="54.8" gradientUnits="userSpaceOnUse"><stop offset="0" stop-color="#451088"/><stop offset="1" stop-color="#593179"/></linearGradient><path fill="url(#m)" d="M66 54.5h7.6c.2 0 .3.1.3.3s-.1.3-.3.3H66c-.2 0-.3-.1-.3-.3s.1-.3.3-.3z"/><linearGradient id="n" x1="66.957" x2="72.549" y1="55.55" y2="55.55" gradientUnits="userSpaceOnUse"><stop offset="0" stop-color="#451088"/><stop offset="1" stop-color="#593179"/></linearGradient><path fill="url(#n)" d="M72.6 54.9v.4c0 .5-.3.9-.6.9h-4.3c-.4 0-.6-.4-.6-.9v-.4"/><linearGradient id="o" x1="65.7" x2="73.8" y1="53.6" y2="53.6" gradientUnits="userSpaceOnUse"><stop offset="0" stop-color="#451088"/><stop offset="1" stop-color="#593179"/></linearGradient><path fill="url(#o)" d="M66.3 52.6h6.9c.3 0 .6.3.6.6v.8c0 .3-.3.6-.6.6h-6.9c-.3 0-.6-.3-.6-.6v-.8c0-.3.3-.6.6-.6z"/><path d="M66 54.5h7.6c.2 0 .3.1.3.3s-.1.3-.3.3H66c-.2 0-.3-.1-.3-.3s.1-.3.3-.3zm6.2 5.9c0-.4-.3-.7-.7-.8h-2.9c-.4 0-.7.4-.7.8s.3.6.6.7v.1h3.1v-.1c.4 0 .6-.3.6-.7zm37.3 43.4l-9.8 18.1.9.9 10-18.3z" class="L P"/><g class="W"><use xlink:href="#AB"/><use xlink:href="#AC"/></g><g class="M"><use xlink:href="#AB"/><use xlink:href="#AC"/><path d="M95.6 152.5l3.7 12.3h-5.1l-2.9-13 .8-.6zm-14.8.2l-3.3 12.1-6.8.1 9.9-22z" class="L M"/></g><linearGradient id="p" x1="-.049" x2="13.045" y1="114.25" y2="114.25" gradientUnits="userSpaceOnUse"><stop offset="0" stop-color="#2e59bf"/><stop offset="1" stop-color="#593192"/></linearGradient><path fill="url(#p)" d="M13 172.5H0V58.3L2 56h11z"/><path d="M2 172.5H0V58.3L2 56zM2 56h13v2H2z" class="L O"/><linearGradient id="q" x1="4.386" x2="48" y1="105.25" y2="105.25" gradientUnits="userSpaceOnUse"><stop offset="0" stop-color="#2e59bf"/><stop offset="1" stop-color="#593192"/></linearGradient><path fill="url(#q)" d="M5.3 172.5H48V38H13.5c-6.6 36.7-9.6 70.6-9 101.2-.3 11.6 0 22.4.8 33.3z"/><path d="M7.6 138.8C7 108.3 9.6 74.6 16.2 38h-2.7c-6.6 36.6-9.6 70.3-9 100.8-.2 11.7 0 22.4.8 33.2h3.1c-.8-10.6-1-21.4-.8-33.2z" class="L O"/><path d="M15.7 41H48v-3H16.2z" class="L O"/><linearGradient id="r" x1="40.104" x2="41.9" y1="31.9" y2="31.9" gradientUnits="userSpaceOnUse"><stop offset="0" stop-color="#2e59bf"/><stop offset="1" stop-color="#593192"/></linearGradient><use fill="url(#r)" xlink:href="#AD"/><use class="L S" xlink:href="#AD"/><path d="M40.9 23.1l-.1 4.6h.4l-.1-4.6z" class="N"/><defs><path id="s" d="M20.8 47.8s-5.5 34.9-7.2 61.5c-1.7 26.9-.2 65.2-.2 65.2H52V48.9l-31.2-1.1z"/><path id="t" d="M181 50.4v-3.8h-.1c-.1 0-.2-.1-.2-.3s.1-.3.2-.3h.3v-9.3h.4V46h.3c.1 0 .2.1.2.3s-.1.3-.2.3h-.1v3.8"/><path id="u" d="M174.9 50.4v-5.1h-.1c-.1 0-.3-.2-.3-.4s.1-.4.3-.4h.5V32.1h.5v12.4h.5c.1 0 .3.2.3.4s-.1.4-.3.4h-.1v5.1"/><path id="v" d="M114.7 137.7s-3.5 1.8-3.5 3.9v1.2c0-2.2 3.5-3.9 3.5-3.9s3.5 1.8 3.5 3.9v-1.2c-.1-2.1-3.5-3.9-3.5-3.9z"/><path id="w" d="M111.8 157.7v-12.4c0-.3.3-.6.6-.6s.6.2.6.6v12.4m3 0v-12.4c0-.3.3-.6.6-.6s.6.2.6.6v12.4m-3.3 0v-12.4c0-.3.3-.6.6-.6s.6.2.6.6v12.4"/><path id="x" d="M91.2 91.5l-1.6-8.1.1-.1-.9-.4v.6c0 1.6-.5 3.1-1.6 4.3l1 7.6 2.9-1.7.1-2.2z"/><path id="y" d="M84.3 76.4c-3 0-5.4 3.3-5.4 7.3.1.4.3.8.6 1.2 0 0 1-.6 1.4-2.9.9-.2 3.4-3.5 3.5-3.4.4.7.8 1.4 1.4 2 .7.8 1.6 1.4 2.5 1.8 0 .2-.1.4-.1.6 0 1 .4 1.7 1 1.7l.5-.1c0-.4.1-.7 0-1.1 0-3.8-2.4-7.1-5.4-7.1z"/><path id="z" d="M67.8 56.2h2.9c.2 0 .4.2.4.4v.2c0 .2-.2.4-.4.4h-2.9c-.2 0-.4-.2-.4-.4v-.2c-.1-.2.1-.4.4-.4zm.3 1.1h2.8c.3 0 .5.2.5.5v.1c0 .3-.2.5-.5.5h-2.8c-.3 0-.5-.2-.5-.5v-.1c0-.3.2-.5.5-.5z"/><path id="AA" d="M68.3 58.3h2c.2 0 .4.2.4.4v.1c0 .2-.2.4-.4.4h-2c-.2 0-.4-.2-.4-.4v-.1c.1-.2.2-.4.4-.4z"/><path id="AB" d="M104.8 115.7l-1.5-1c-.2-.1-.2-.4-.1-.6l.1-.2c.1-.2.3-.2.5-.2l1.5 1c.2.1.2.4.1.6l-.1.2c-.1.3-.3.4-.5.2zm-.4 1l-1.4-.9c-.2-.2-.2-.4-.1-.6l.1-.1c.1-.2.4-.3.5-.2l1.4.9c.2.2.3.4.2.6l-.1.1c-.1.3-.4.4-.6.2z"/><path id="AC" d="M103.6 117.2l-1-.6c-.2-.1-.2-.3-.1-.5l.1-.2c.1-.2.2-.2.4-.1l1 .6c.2.1.2.3.1.5l-.1.2c0 .2-.2.2-.4.1 0 .1 0 .1 0 0zm1.9-2l-1.4-.9c-.2-.2-.3-.4-.2-.6l.1-.1c.1-.2.4-.3.5-.2l1.4.9c.2.2.2.4.2.6l-.1.1c0 .3-.3.4-.5.2.1.1.1 0 0 0z"/><path id="AD" d="M41.2 33.9v-8.1h-.4v8.1h-.7V38h1.8v-4.1z"/></defs><clipPath id="AE"><use xlink:href="#s"/></clipPath><g class="L N" clip-path="url(#AE)"><path d="M8 58h35v5H8zm0-8h35v5H8z" class="M"/></g><defs><path id="AF" d="M20.8 46.8s-5.5 34.9-7.2 61.5c-1.7 26.9-.2 65.2-.2 65.2H52V47.9l-31.2-1.1z"/></defs><clipPath id="AG"><use xlink:href="#AF"/></clipPath><g class="L N" clip-path="url(#AG)"><path d="M8 66h35v5H8z" class="M"/></g><defs><path id="AH" d="M20.8 45.8s-5.5 34.9-7.2 61.5c-1.7 26.9-.2 65.2-.2 65.2H52V46.9l-31.2-1.1z"/></defs><clipPath id="AI"><use xlink:href="#AH"/></clipPath><g class="L N" clip-path="url(#AI)"><path d="M7 74h36v5H7z" class="M"/></g><defs><path id="AJ" d="M20.5 45.8s-5.4 34.9-7 61.5c-1.7 26.9-.2 65.2-.2 65.2H51V46.9l-30.5-1.1z"/></defs><clipPath id="AK"><use xlink:href="#AJ"/></clipPath><g class="L N" clip-path="url(#AK)"><path d="M7 83h36.2v5H7z" class="M"/></g><defs><path id="AL" d="M20.5 45.3s-5.4 34.9-7 61.5c-1.7 26.9-.2 65.7-.2 65.7H51V46.4l-30.5-1.1z"/></defs><clipPath id="AM"><use xlink:href="#AL"/></clipPath><g class="L N" clip-path="url(#AM)"><path d="M6 91h37.2v5H6z" class="M"/></g><defs><path id="AN" d="M20.8 45.3s-5.5 34.9-7.2 61.5c-1.7 26.9-.2 65.7-.2 65.7H52V46.4l-31.2-1.1z"/></defs><clipPath id="AO"><use xlink:href="#AN"/></clipPath><g class="L N" clip-path="url(#AO)"><path d="M4 99h39v5H4z" class="M"/></g><defs><path id="AP" d="M20.8 44.3s-5.5 34.9-7.2 61.5c-1.7 26.9-.2 66.2-.2 66.2H52V45.4l-31.2-1.1z"/></defs><clipPath id="AQ"><use xlink:href="#AP"/></clipPath><g class="L N" clip-path="url(#AQ)"><path d="M4 107h39v5H4z" class="M"/></g><defs><path id="AR" d="M20.8 43.3s-5.5 34.9-7.2 61.5c-1.7 26.9-.2 66.2-.2 66.2H52V44.4l-31.2-1.1z"/></defs><clipPath id="AS"><use xlink:href="#AR"/></clipPath><g class="L N" clip-path="url(#AS)"><path d="M4 115h39v5H4z" class="M"/></g><defs><path id="AT" d="M20.8 42.3s-5.5 34.9-7.2 61.5c-1.7 26.9-.2 66.2-.2 66.2H52V43.4l-31.2-1.1z"/></defs><clipPath id="AU"><use xlink:href="#AT"/></clipPath><g class="L N" clip-path="url(#AU)"><path d="M4 123h39v5H4z" class="M"/></g><defs><path id="AV" d="M20.8 41.3s-5.5 34.9-7.2 61.5c-1.7 26.9-.2 66.2-.2 66.2H52V42.4l-31.2-1.1z"/></defs><clipPath id="AW"><use xlink:href="#AV"/></clipPath><g class="L N" clip-path="url(#AW)"><path d="M4 131h39v5H4z" class="M"/></g><defs><path id="AX" d="M20.8 40.3s-5.5 34.9-7.2 61.5c-1.7 26.9-.2 66.2-.2 66.2H52V41.4l-31.2-1.1z"/></defs><clipPath id="AY"><use xlink:href="#AX"/></clipPath><g class="L N" clip-path="url(#AY)"><path d="M4 139h39v5H4z" class="M"/></g><defs><path id="AZ" d="M20.8 40.3s-5.5 34.9-7.2 61.5c-1.7 26.9-.2 66.2-.2 66.2H52V41.4l-31.2-1.1z"/></defs><clipPath id="Aa"><use xlink:href="#AZ"/></clipPath><g class="L N" clip-path="url(#Aa)"><path d="M4 147h39v5H4z" class="M"/></g><defs><path id="Ab" d="M20.8 47.8s-5.5 34.9-7.2 61.5c-1.7 26.9-.2 65.2-.2 65.2H52V48.9l-31.2-1.1z"/></defs><clipPath id="Ac"><use xlink:href="#Ab"/></clipPath><g class="L N" clip-path="url(#Ac)"><path d="M4 155h39v5H4z" class="M"/></g><linearGradient id="Ad" x1="162.103" x2="197.032" y1="111.264" y2="111.264" gradientUnits="userSpaceOnUse"><stop offset="0" stop-color="#3651bf"/><stop offset="1" stop-color="#2e5bdb"/></linearGradient><path fill="url(#Ad)" d="M167 50.1l.1 26.9H162l.1 95.5H197V97h-4.1l.1-.1V77h-5V50l-21 .1z"/><linearGradient id="Ae" x1="175.516" x2="180.997" y1="49.8" y2="49.8" gradientUnits="userSpaceOnUse"><stop offset="0" stop-color="#3651bf"/><stop offset="1" stop-color="#2e5bdb"/></linearGradient><path fill="url(#Ae)" d="M181 49.8h-5.5"/><path d="M193 97V77h-5V50.1h-21V77h-5l.1 95H197V97z" class="L M"/><path d="M174 50.1l-7 .1v2.9h21v-3h-14z" class="L O"/><path d="M193.1 123h-6.6c-.2 0-.4-.2-.5-.4v-.1c.1-.2.3-.4.5-.5h6.7c.2.1.4.3.8.5v.1l-.9.4z" class="N O"/><linearGradient id="Af" x1="188.01" x2="183.99" y1="100" y2="100" gradientUnits="userSpaceOnUse"><stop offset="0" stop-color="#3651bf"/><stop offset="1" stop-color="#2e5bdb"/></linearGradient><path fill="url(#Af)" d="M184 77h4v46h-4z"/><path d="M185 77h3v44h-3z" class="L O"/><linearGradient id="Ag" x1="200.011" x2="196.999" y1="146.75" y2="146.75" gradientUnits="userSpaceOnUse"><stop offset="0" stop-color="#3651bf"/><stop offset="1" stop-color="#2e5bdb"/></linearGradient><path fill="url(#Ag)" d="M197 121h3v51.5h-3z"/><path d="M197 121h3v51.5h-3z" class="L O"/><linearGradient id="Ah" x1="166" x2="197" y1="124.75" y2="124.75" gradientUnits="userSpaceOnUse"><stop offset="0" stop-color="#3651bf"/><stop offset="1" stop-color="#2e5bdb"/></linearGradient><path fill="url(#Ah)" d="M185 120.9V77l-19 .1v20.1l.1 75.3H197V121z"/><path d="M197 121h3v3h-3zm-31-44h19v3h-19zm19 43.9h12v3.1h-12z" class="L O"/><linearGradient id="Ai" x1="188.01" x2="192.99" y1="63.519" y2="63.519" gradientUnits="userSpaceOnUse"><stop offset="0" stop-color="#3651bf"/><stop offset="1" stop-color="#2e5bdb"/></linearGradient><path fill="url(#Ai)" d="M193 77h-5V50l5 2.3z"/><linearGradient id="Aj" x1="193.02" x2="196.961" y1="87" y2="87" gradientUnits="userSpaceOnUse"><stop offset="0" stop-color="#3651bf"/><stop offset="1" stop-color="#2e5bdb"/></linearGradient><path fill="url(#Aj)" d="M193 77h4v20h-4z"/><linearGradient id="Ak" x1="197.015" x2="200.012" y1="109" y2="109" gradientUnits="userSpaceOnUse"><stop offset="0" stop-color="#3651bf"/><stop offset="1" stop-color="#2e5bdb"/></linearGradient><path fill="url(#Ak)" d="M197 97h3v24h-3z"/><path d="M193 77h-5V50l5 2.3zm0 0h4v20h-4zm4 20h3v24h-3z" class="L O"/><path d="M170 66h14v3h-14zm0 5h14v3h-14zm0-15h14v3h-14zm0 5h14v3h-14zm20 48h5v3h-5zm0 5h5v3h-5zm0-15h5v3h-5zm0 5h5v3h-5zm-21-9h11v3h-11zm0 5h11v3h-11zm0 5h11v3h-11zm0-20h11v3h-11zm0 5h11v3h-11zm0 30h11v3h-11zm0 5h11v3h-11zm0 5h11v3h-11zm0-20h11v3h-11zm0 5h11v3h-11zm0 20h11v3h-11zm0 15h11v3h-11zm0 5h11v3h-11zm0 5h11v3h-11zm0-20h11v3h-11zm0 5h11v3h-11zm0 20h11v3h-11zm17-35h9v3h-9zm0 5h9v3h-9zm0 15h9v3h-9zm0 5h9v3h-9zm0 5h9v3h-9zm0-20h9v3h-9zm0 5h9v3h-9zm0 20h9v3h-9z" class="M N L"/></svg>