<svg xmlns="http://www.w3.org/2000/svg" viewBox="0 0 200 172"><style><![CDATA[.G{enable-background:new}.H{opacity:.3}.I{opacity:.2}.J{fill:#fff}.K{opacity:.15}.L{stroke-width:.798}.M{stroke-miterlimit:10}]]></style><linearGradient id="A" gradientUnits="userSpaceOnUse" x1="99.65" y1="172.4" x2="99.65" y2="25.295"><stop offset="0" stop-color="#1d7ee8"/><stop offset="1" stop-color="#2ea7db"/></linearGradient><path d="M14.4 111.1v61.3h170.5v-62c0-49-41.5-88.3-91.3-84.9-44.8 3.1-79.2 40.7-79.2 85.6z" fill="url(#A)"/><path d="M14.4 154.8h182.8v17.6H14.4z" class="G I"/><path d="M185.6 80.8l-38.6-24V106h-23V93H56v41.6l-8 12.2V101H15v71.5h170V75" class="G I"/><linearGradient id="B" gradientUnits="userSpaceOnUse" x1="124.95" y1="128.45" x2="160.95" y2="128.45"><stop offset="0" stop-color="#2e60e8"/><stop offset="1" stop-color="#2e74db"/></linearGradient><path fill="url(#B)" d="M125 100.9h36V156h-36z"/><path d="M125 101h36v56h-36z" class="G K"/><path d="M125 101h36v3h-36z" class="G I"/><path fill="#373e9b" d="M190 68.2l3 2.4V140h-3"/><linearGradient id="C" gradientUnits="userSpaceOnUse" x1="154" y1="96" x2="190" y2="96"><stop offset="0" stop-color="#2e60e8"/><stop offset="1" stop-color="#2e74db"/></linearGradient><path fill="url(#C)" d="M154 68h36v56h-36z"/><path d="M154 68h36v3h-36z" class="G I"/><linearGradient id="D" gradientUnits="userSpaceOnUse" x1="153" y1="141" x2="189" y2="141"><stop offset="0" stop-color="#2e60e8"/><stop offset="1" stop-color="#2e74db"/></linearGradient><path fill="url(#D)" d="M153 123h36v36h-36z"/><path d="M115 164c-.2 0-.4 0-.6.1v-.2c0-.2 0-.4-.1-.5-.1-.2-.1-.4 0-.6 0-.1 0-.2.1-.2v-.3l-.1-.1v-.4s0-.1-.1-.1h-.2l-.2-.2-.8-1.2c-.2-.1-.3-.3-.4-.4-.1-.2-.3-.7-.4-.8s-.1-.2-.2-.3v-.2c.1-.1.2-.1.2-.1h.2v-.5h.1v-.1c0-.1-.1-.2-.1-.2v-.2l.2-.1h.1c-.1-.1-.2-.2-.2-.3-.2-.2-.4-.4-.8-.4-.3 0-.6 0-.8.2v.2s-.1.1-.1.2v.4l.1.1h.1v.2s0 .1-.1.1c0 0-.2 0-.3.1l-.2.2a.76.76 0 0 1-.4-.2c-.2 0-.2.1-.3.1v-.2c-.1-.2-.3 0-.4-.1-.1 0-.2.1-.2.1s-.2 0-.3.1v.2h-.2c-.1 0 0 .1-.1.1s0-.1 0-.1c-.1 0-.2.1-.2.2v.1c0 .1-.2.2-.2.2 0 .1 0 .1-.1.2s-.1.2-.1.3c-.1.2.1.4 0 .6v.1c0 .2.1.5.3.6-.1.2-.1.4-.2.5v.4c0 .2.2.4.4.5s.3.2.5.2a1.38 1.38 0 0 0 .3.4c0 .1.2.5.2.5v.1h.1c-.1 0-.1 0-.2.1v.1l.3.3v.1h-.1c-.1 0-.2.1-.2.2h-.1c-.1.1-.1.2-.2.2-.4-.3-.9-.4-1.4-.4-1.3 0-2.4 1-2.4 2.3s1 2.4 2.3 2.4c.9 0 1.8-.5 2.2-1.4l.4-.1s.1 0 .2.1c.2 0 .4.1.4.1h.3l.1.1.1-.1c.1 0 .1-.1.2-.1v-.1h.1l.2-.1h.1s.1-.2-.2-.2h-.3s-.1 0-.2-.1v-.1h-.1v-.2s0-.2-.1-.3v-.1l2.2-2.9s0 .1.1.2v.1c.1.1.1.2.2.3s.1 0 .2.1l.2.4c-1.1.6-1.6 2-.9 3.2.6 1.1 2 1.6 3.2.9 1.1-.6 1.6-2 .9-3.2-.4-.8-1.2-1.2-2-1.1zm1.9 2h-.9l.8-.4c0 .1.1.2.1.4zm-.1-.5l-.8.5h-.2s0-.1-.1-.2v-.1l.2-.2.8-.4c-.1.1 0 .3.1.4zm-1.1.5zm.1.4h-.2v-.1l.2.1zm.7-1.3l-.6.4.4-.6c.1 0 .1.1.2.2zm-1.2-.7c.1 0 .3 0 .4.1l-.4.7v-.8zm0 .9l.4-.8c.1 0 .2.1.4.2l-.7.9h-.1v-.3zm.3 1.3l.1.1-.1-.1c-.1.1 0 .1 0 0zm-.7-1.2l.1.1h-.1v-.1zm0 1.4v.1-.1zm-.4-1.2l-.5-.9.1-.1c.1.4.3.7.4 1zm-.3-3.5c.1.1.1.1.1.2h-.1v-.2zm0 .1c.1.1.1.2.1.2 0 .1-.1.1-.2.2 0-.1.1-.2 0-.2.1 0 0-.1.1-.2-.1.1-.1.1 0 0zm-.1-.1l.1.1-.1-.1c0 .1-.1 0 0 0zm.1.1zm-.5.1h.5s0 .1-.1.2h-.1c-.1 0-.1-.1-.3-.2.1.1 0 0 0 0zm-3.8 3.7c0-.2 0-.3-.1-.5h.2c0 .1 0 .2.1.2v.2h-.2v.1zm.2 0l-.1.1.1-.1zm-.8-2.6s.1 0 .2-.1v.1s-.1 0-.1.1c-.1 0-.1-.1-.1-.1zm.1.2c0-.1.1-.1.1-.1s0 .1-.1.1zm0 0s.1 0 .1-.1l-.1.1c.1.1.1 0 0 0zm-.1 1.8l-.8.5h-.2s0-.1-.1-.2v-.1l.2-.2.8-.4c0 .2.1.3.1.4zm-.7.5l.8-.4c.1.1.1.3.1.4h-.9zm.9 0s0 .1 0 0h-1 1zm-1.1 0zm.7-.9l-.6.4.4-.6c0 .1.1.2.2.2zm-1.2-.6c.1 0 .3.1.4.1l-.4.7v-.8zm0 .9l.4-.8c.1 0 .2.1.4.2l-.7.9h-.1v-.3zm.7 2.1l-.4.1v-.2h-.1v-.5l.2.1.3.5zm-.3-.5l.8.4-.4.1-.4-.5zm-.2-.2l.1.1-.1-.1zm-.7-1.3l.1.1h-.1v-.1zm0 1.5v.1-.1zm-.9-2.2l.4.8-.8-.4c.2-.2.2-.3.4-.4zm-.4.3l.8.5.1.2s-.1.1-.1.2h-.2l-.9-.5c.1-.1.2-.2.3-.4zm1 .6l.1.1-.1-.1zm-.1.8h-.2.2c-.1-.1-.1 0 0 0zm-.2-.4h.2v.1l-.2-.1zm-.9-.6l.8.4h-1l.2-.4zm-.2.9v-.3h1l.2.1v.2l-.2.1-1-.1zm0 .1h1l-.9.5c-.1-.1-.1-.3-.1-.5zm.1.6l1-.6h.2s0 .1.1.2l-.1.2-1 .6c-.1-.2-.2-.3-.2-.4zm1.3-.2zm-1.1.6l.9-.5-.5.9-.4-.4zm1.3.8c-.2 0-.4-.1-.5-.2l.5-.9v1.1zm0-1.1l-.6 1c-.1 0-.2-.1-.4-.2l.6-1 .1-.1h.2v.3h.1zm0-1.5s-.1 0-.2.1l-.2-.1-.5-.8c.1-.1.2-.2.4-.2l.5.8v.2zm0-.4l-.4-.7c.1 0 .3-.1.4-.1v.8zm.5 3h-.4v-1.1l.1-.2s.1.1.2.1h.1v1.2zm0-2.7v-.1.1zm0-.2l-.1.2h-.2l-.1-.2v-.9h.4v.9zm.1 2.9v-.5s0 .1.1.1l.2-.1.2.4c-.2 0-.4.1-.5.1zm.5-.2l-.2-.4.4-.1.2.3a.76.76 0 0 1-.4.2zm.4-.2l-.2-.3.5-.1c0 .1-.2.2-.3.4zm.4-.5l-.9-.5-.1-.2s0-.1.1-.1l.5.1.6.4c-.1.1-.1.2-.2.3zm.2-.4l-.5-.3.5.1v.2zm-1.1-.7l1.2-.1v.1h-1.2zm1.1-2.1c0-.1.1-.1.2-.2-.1.1-.1.2-.2.2zm.2-.1c-.1 0-.2.1-.2.2h-.1c0-.1.1-.2.3-.2 0-.1 0-.1 0 0zm.1-.6zm0 .1l.2.1s-.1 0-.2-.1c0 .1 0 0 0 0zm0 3.7c.1-.2.1-.3.2-.4 0 .1.1.2.2.2v.2h-.4zm.9-6.1s.1-.2.2-.3.2-.2.2-.3 0-.2.1-.3a1.44 1.44 0 0 0 .2.3c.1.1.2.4.2.4a1.38 1.38 0 0 0 .3.4l.8.8v.1h-.1s.1 0 .1-.1v-.1l.2.2s.1.2.2.2h.1l-1.6.6.3-.3c.2-.2.2-.4.2-.6s-.2-.4-.4-.4c-.2-.1-.4-.3-.5-.4-.2 0-.4 0-.5-.2zm.9 2.3l-.5.2.5-.2zm.4 1v-.1l.1-.1.1-.2v-.2l-.1-.1v-.1l-.1-.1h-.2l-.1.2-.6.8v.2l.2.2h.2v.1h.1l-.5.6c-.1 0-.2-.1-.2-.1v-.2c0-.1 0-.2.1-.3v-.6c0-.2 0-.4.1-.5v-.2l.8-.4.8-.3h.4l-1.1 1.4zm1.1-1.4h-.4l.5-.2-.1.2zm.3-1s0-.1 0 0c.1-.1.1-.1 0-.2s-.2 0-.2 0h-.1c-.1 0-.1-.1-.2-.1h-.1s-.4-.7-.5-1c-.1-.2-.3-.4-.4-.6s-.2-.3-.2-.3.2.2.2.3c.1.1.2.3.4.4.1.1.2.2.2.3.2.2.4.4.6.5l.2.2v.1h.1v.1l.1.1c.1.2-.1.2-.1.2zm.1.6c.1 0 .2 0 .2-.1v-.1h.4c-.1.2-.3.3-.6.4v-.2zm.1.2c.2 0 .4-.2.6-.4 0 0 0 .1-.1.2-.1.2-.3.2-.5.2zm0 .1c.2 0 .3-.1.5-.2.1-.1.1-.1.1-.2 0 0 0-.1.1-.1v.1c0 .1 0 .2-.1.3 0 0-.1 0-.1.1-.1-.1-.3 0-.5 0zm0 0c.2 0 .3-.1.4-.2 0 .2-.2.3-.4.2zm.4.5l-.2-.1-.1-.3c.2-.1.4-.2.5-.3.1 0 .1-.1.2-.2v.1c-.1.2-.1.4 0 .6 0 .2.1.3.1.5h-.2l-.3-.3zm0 1.3l.4.8-.8-.4.4-.4zm-.4.4l.8.5.1.2s-.1.1-.1.2h-.2l-.9-.5c.2-.2.3-.3.3-.4zm1 .7l-.1-.1.1.1zm.1.9l-.1.1.1-.1zm-.2-.3h-.2.2zm-.1-.4h.2v.1l-.2-.1zm-1-.5l.8.5h-1c.1-.2.1-.4.2-.5zm-.2.8v-.3h1l.2.1v.2l-.2.1-1-.1c0 .1 0 0 0 0zm0 .1h1l-.9.5c-.1-.1-.1-.3-.1-.5zm.1.6l1-.5h.2s0 .1.1.2l-.1.2-1 .6c-.1-.2-.1-.4-.2-.5zm.3.4l.9-.5-.5.9a.78.78 0 0 1-.4-.4zm1.3.8c-.2 0-.4-.1-.5-.2l.5-.9v1.1zm0-1.1l-.6 1c-.1 0-.2-.1-.4-.2l.6-1 .2-.1s.1.1.2.1v.2zm0-1.7l-.2-.5.2.4v.1zm0-.2l-.4-.7v-.1c.1 0 .3-.1.4-.1v.9zm.4 3h-.4V167l.1-.2h.2l.1.2v1.2zm0-1.2l-.1-.1h.1v.1zm0-1.4v-.1.1zm0-.3l-.1.2h-.2l-.1-.2v-1h.4v1zm0 2.9v-1l.5.9c-.1.1-.2.1-.5.1zm.6-.2l-.6-1v-.2s.1 0 .2-.1l.2.1.5 1c-.1.1-.2.2-.3.2zm.4-.2l-.4-.9.8.5c-.1.1-.2.3-.4.4zm.4-.4l-.9-.5-.1-.2s.1-.1.1-.2h.2l.9.5c-.1.2-.2.3-.2.4zm.2-.4l-.8-.5h.9c0 .1 0 .3-.1.5zm-.9-.6l-.2-.1v-.2l.2-.1h1v.4h-1z" fill="#1d1d1b" opacity=".7"/><path d="M157 84h8v3h-8zm0 5h8v3h-8zm0 5h8v3h-8zm0-20h8v3h-8zm0 5h8v3h-8zm11 5h8v3h-8zm0 5h8v3h-8zm0 5h8v3h-8zm0-20h8v3h-8zm0 5h8v3h-8zm11 5h8v3h-8zm0 5h8v3h-8zm0 5h8v3h-8zm-22 5h8v3h-8zm11 0h8v3h-8zm11 0h8v3h-8zm0-25h8v3h-8zm0 5h8v3h-8zm-22 36h8v3h-8zm0 4h8v3h-8zm0 5h8v3h-8zm0-20h8v3h-8zm0 6h8v3h-8zm11 5h8v3h-8zm-1 4h8v3h-8zm0 5h8v3h-8zm1-20h8v3h-8zm0 6h8v3h-8zm11 5h8v3h-8zm-1 4h8v3h-8zm0 5h8v3h-8zm-21 6h8v3h-8zm10 0h8v3h-8zm11 0h8v3h-8zm1-26h8v3h-8zm0 6h8v3h-8zm-21 35h8v3h-8zm0 5h8v3h-8zm0-15h8v3h-8zm0 5h8v3h-8zm11 5h8v3h-8zm0 5h8v3h-8zm-1-15h8v3h-8zm1 5h8v3h-8zm10 5h8v3h-8zm0 5h8v3h-8zm0-15h8v3h-8zm0 5h8v3h-8zm-51-23h6v3h-6zm0 5h6v3h-6zm0 5h6v3h-6zm0-21h6v3h-6zm0 5h6v3h-6zm9 6h6v3h-6zm0 4h6v3h-6zm0 5h6v3h-6zm0-20h6v3h-6zm0 5h6v3h-6zm9 6h6v3h-6zm0 4h6v3h-6zm0 5h6v3h-6zm-18 6h6v3h-6zm9 0h6v3h-6zm9 0h6v3h-6zm0-26h6v3h-6zm0 5h6v3h-6zm-18 36h6v3h-6zm0-10h6v3h-6zm0 5h6v3h-6zm9 5h6v3h-6zm0-10h6v3h-6zm0 5h6v3h-6zm9 5h6v3h-6zm0-10h6v3h-6zm0 5h6v3h-6z" opacity=".1" class="G J"/><linearGradient id="E" gradientUnits="userSpaceOnUse" x1="135" y1="147.25" x2="195" y2="147.25"><stop offset="0" stop-color="#2e3192"/><stop offset="1" stop-color="#4c3ea1"/></linearGradient><path fill="url(#E)" d="M135 122v50.5h16V134h27v38.5h17V122z"/><linearGradient id="F" gradientUnits="userSpaceOnUse" x1="133.581" y1="153" x2="194.71" y2="153"><stop offset="0" stop-color="#2e3192"/><stop offset="1" stop-color="#4c3ea1"/></linearGradient><path d="M150 134v38h2v-24.5c0-6.5 5.1-12.1 11.7-12.3s12.1 5.1 12.3 11.7V172h2v-38h-28z" fill="url(#F)"/><path d="M150 134v38h2v-24.6c0-6.5 5.1-12 11.7-12.2 6.7-.2 12.2 5 12.3 11.6V172h1v-38h-27zm41 35v-12.9c0-2.3-1.8-4.1-4.1-4.1h-.8c-2.3 0-4.1 1.8-4.1 4.1V169m-35 0v-12.9c0-2.3-1.8-4.1-4.1-4.1h-.8c-2.3 0-4.1 1.8-4.1 4.1V169" class="G K"/><linearGradient id="G" gradientUnits="userSpaceOnUse" x1="151.96" y1="153.585" x2="166.531" y2="153.585"><stop offset="0" stop-color="#4c3ea1"/><stop offset="1" stop-color="#2e3192"/></linearGradient><path d="M166.6 135.3c-.5 0-1-.1-1.5-.1-7.2-.5-13.1 5.4-13.1 12V172h3v-24.8c0-6.1 5-11.2 11.6-11.9z" fill="url(#G)"/><path d="M166.6 135.3c-.5 0-1-.1-1.5-.1-7.1-.6-13.1 5.4-13.1 12V172h3v-24.8c0-6.1 5-11.2 11.6-11.9z" class="G H"/><path d="M135 146.9h15v.7h-15zm-1-16.9h60v1h-60zm43 17h18v1.2h-18z" class="G K"/><linearGradient id="H" gradientUnits="userSpaceOnUse" x1="132.5" y1="125" x2="197.5" y2="125"><stop offset="0" stop-color="#2e3192"/><stop offset="1" stop-color="#4c3ea1"/></linearGradient><path fill="url(#H)" d="M132.5 119h65v12h-65z"/><path d="M132.5 119h65l.5 1.2h-65.5z" class="G H"/><linearGradient id="I" gradientUnits="userSpaceOnUse" x1="195" y1="145.75" x2="199.989" y2="145.75"><stop offset="0" stop-color="#4c3ea1"/><stop offset="1" stop-color="#2e3192"/></linearGradient><path fill="url(#I)" d="M197.5 119v11H195v42.5h2V134h3v-12.1z"/><path d="M197.5 119v11H195v42.5h2V134h3v-12.1z" class="G H"/><path d="M138 121.3c.9 0 1.5.6 1.5 1.3v4.9c0 .8-.6 1.3-1.5 1.3s-1.5-.6-1.5-1.3v-4.9c0-.8.6-1.3 1.5-1.3zm6.5 0c.9 0 1.5.6 1.5 1.3v4.9c0 .8-.6 1.3-1.5 1.3s-1.5-.6-1.5-1.3v-4.9c0-.8.6-1.3 1.5-1.3zm6.5 0c.9 0 1.5.6 1.5 1.3v4.9c0 .8-.6 1.3-1.5 1.3s-1.5-.6-1.5-1.3v-4.9c0-.8.6-1.3 1.5-1.3zm7 0c.9 0 1.5.6 1.5 1.3v4.9c0 .8-.6 1.3-1.5 1.3s-1.5-.6-1.5-1.3v-4.9c.1-.8.8-1.3 1.5-1.3zm7 0c.9 0 1.5.6 1.5 1.3v4.9c0 .8-.6 1.3-1.5 1.3s-1.5-.6-1.5-1.3v-4.9c.1-.8.7-1.3 1.5-1.3zm7 0c.9 0 1.5.6 1.5 1.3v4.9c0 .8-.6 1.3-1.5 1.3s-1.5-.6-1.5-1.3v-4.9c.1-.8.8-1.3 1.5-1.3zm7 0c.9 0 1.5.6 1.5 1.3v4.9c0 .8-.6 1.3-1.5 1.3s-1.5-.6-1.5-1.3v-4.9c0-.8.6-1.3 1.5-1.3zm7 0c.9 0 1.5.6 1.5 1.3v4.9c0 .8-.6 1.3-1.5 1.3s-1.5-.6-1.5-1.3v-4.9c0-.8.6-1.3 1.5-1.3zm6.3 0c.9 0 1.5.6 1.5 1.3v4.9c0 .8-.6 1.3-1.5 1.3s-1.5-.6-1.5-1.3v-4.9c0-.8.7-1.3 1.5-1.3z" class="G K"/><linearGradient id="J" gradientUnits="userSpaceOnUse" x1="95.417" y1="41.9" x2="104.199" y2="41.9"><stop offset="0" stop-color="#2e3192"/><stop offset="1" stop-color="#4c3ea1"/></linearGradient><path fill="url(#J)" d="M102.2 37.1h-4.8l-2 2v5.6l2 2h4.8l2-2v-5.6z"/><path d="M101.8 41.1h1.6v1.6h-1.6zm-2.8 0h1.6v1.6H99zm-2.8 0h1.6v1.6h-1.6z" class="J"/><linearGradient id="K" gradientUnits="userSpaceOnUse" x1="97.413" y1="24.95" x2="102.203" y2="24.95"><stop offset="0" stop-color="#2e59bf"/><stop offset="1" stop-color="#593192"/></linearGradient><path fill="url(#K)" d="M102.2 37.1l-2.1-5.6h.1V12.8h-.8v18.7h.1l-2.1 5.6z"/><linearGradient id="L" gradientUnits="userSpaceOnUse" x1="67.5" y1="105.95" x2="132" y2="105.95"><stop offset="0" stop-color="#2e59bf"/><stop offset="1" stop-color="#593192"/></linearGradient><path d="M114.7 134.1c-.1 0-12.5-46.3-12.5-87.4h-4.8c0 41.1-12.4 87.4-12.4 87.4h-.2c-8.5 21.4-17.3 31.1-17.3 31.1h12.7s3-5.6 6.6-14c1.2-.7 11.3-11.5 25.8-.1 3.7 8.5 6.7 14.1 6.7 14.1H132c0 .1-8.9-9.7-17.3-31.1zm-30.9 20.8v-.3.3zm16-21.6H93s1.2-2.4 3.7-14.8h6.2c2.5 12.4 3.7 14.8 3.7 14.8h-6.8z" fill="url(#L)"/><linearGradient id="M" gradientUnits="userSpaceOnUse" x1="99.409" y1="106.099" x2="73.779" y2="106.099"><stop offset="0" stop-color="#4531a7"/><stop offset="1" stop-color="#423179"/></linearGradient><path d="M98.9 46.7s3.6 75.1-24.7 118.6" fill="none" stroke="url(#M)" class="L M"/><linearGradient id="N" gradientUnits="userSpaceOnUse" x1="100.454" y1="106.1" x2="126.084" y2="106.1"><stop offset="0" stop-color="#4531a7"/><stop offset="1" stop-color="#423179"/></linearGradient><path d="M125.8 165.3C97.4 121.8 101 46.7 101 46.7" fill="none" stroke="url(#N)" class="L M"/><linearGradient id="O" gradientUnits="userSpaceOnUse" x1="80.247" y1="137.5" x2="119.369" y2="137.5"><stop offset="0" stop-color="#2e3192"/><stop offset="1" stop-color="#4c3ea1"/></linearGradient><path fill="url(#O)" d="M117.9 141.7H81.7l-1.5-8.4h39.2z"/><path d="M117.9 141.7H81.7l-1.5-8.4h39.2z" class="G I"/><linearGradient id="P" gradientUnits="userSpaceOnUse" x1="87.433" y1="115.4" x2="112.583" y2="115.4"><stop offset="0" stop-color="#2e3192"/><stop offset="1" stop-color="#4c3ea1"/></linearGradient><path fill="url(#P)" d="M111.2 118.6H88.9l-1.5-6.4h25.2z"/><path d="M111.2 118.6H88.9l-1.5-6.4h25.2z" class="G I"/><linearGradient gradientUnits="userSpaceOnUse" x1="99.9" y1="116.2" x2="99.9" y2="116.2"><stop offset="0" stop-color="#4531a7"/><stop offset="1" stop-color="#423179"/></linearGradient><path d="M110.2 115.4c0 .3-.2.5-.4.5s-.4-.2-.4-.4v-.1c0-.2.2-.4.4-.4s.4.1.4.4zm-4 0c0 .3-.2.5-.4.5s-.4-.2-.4-.4v-.1c0-.2.2-.4.4-.4s.4.1.4.4zm-4 0c0 .3-.2.5-.4.5s-.4-.2-.4-.4v-.1c0-.2.2-.4.4-.4s.4.1.4.4zm-4 0c0 .3-.2.5-.4.5s-.4-.2-.4-.4v-.1c0-.2.2-.4.4-.4s.4.1.4.4zm-4 0c0 .3-.2.5-.4.5s-.4-.2-.4-.4v-.1c0-.2.2-.4.4-.4s.4.1.4.4zm-4 0c0 .3-.2.5-.4.5s-.4-.2-.4-.4v-.1c0-.2.2-.4.4-.4s.4.1.4.4z" class="J"/><linearGradient gradientUnits="userSpaceOnUse" x1="99.9" y1="141.7" x2="99.9" y2="141.7"><stop offset="0" stop-color="#4531a7"/><stop offset="1" stop-color="#423179"/></linearGradient><linearGradient id="Q" gradientUnits="userSpaceOnUse" x1="99.409" y1="79.45" x2="100.207" y2="79.45"><stop offset="0" stop-color="#4531a7"/><stop offset="1" stop-color="#423179"/></linearGradient><path fill="none" stroke="url(#Q)" d="M99.8 46.7v65.5" class="L M"/><path d="M100.2 13.2v1.6c0 .2-.2.4-.4.4s-.4-.2-.4-.4v-1.6c0-.2.2-.4.4-.4s.4.2.4.4zm14 122.9v3.6c0 .2-.2.4-.4.4s-.4-.2-.4-.4v-3.6c0-.2.2-.4.4-.4s.4.2.4.4zm-4 0v3.6c0 .2-.2.4-.4.4s-.4-.2-.4-.4v-3.6c0-.2.2-.4.4-.4s.4.2.4.4zm-4 0v3.6c0 .2-.2.4-.4.4s-.4-.2-.4-.4v-3.6c0-.2.2-.4.4-.4s.4.2.4.4zm-4 0v3.6c0 .2-.2.4-.4.4s-.4-.2-.4-.4v-3.6c0-.2.2-.4.4-.4s.4.2.4.4zm-4 0v3.6c0 .2-.2.4-.4.4s-.4-.2-.4-.4v-3.6c0-.2.2-.4.4-.4s.4.2.4.4zm-4 0v3.6c0 .2-.2.4-.4.4s-.4-.2-.4-.4v-3.6c0-.2.2-.4.4-.4s.4.2.4.4zm-4 0v3.6c0 .2-.2.4-.4.4s-.4-.2-.4-.4v-3.6c0-.2.2-.4.4-.4s.4.2.4.4zm-4 0v3.6c0 .2-.2.4-.4.4s-.4-.2-.4-.4v-3.6c0-.2.2-.4.4-.4.3 0 .4.2.4.4z" class="J"/><linearGradient id="R" gradientUnits="userSpaceOnUse" x1="1" y1="128.5" x2="29" y2="128.5"><stop offset="0" stop-color="#451088"/><stop offset="1" stop-color="#593179"/></linearGradient><path fill="url(#R)" d="M1 85h28v87H1z"/><linearGradient id="S" gradientUnits="userSpaceOnUse" x1="1" y1="128.75" x2="85" y2="128.75"><stop offset="0" stop-color="#4c3ea1"/><stop offset="1" stop-color="#2e3192"/></linearGradient><path fill="url(#S)" d="M56 85v28H29V85H1v87.5h84V85z"/><path d="M56 87h3v85h-3zm26 0h3v85h-3zM1 87h2v85H1zm25 0h3v85h-3z" opacity=".1" class="G J"/><path d="M62.7 151.2h14.8v1.2H62.7zm0-4h14.8v1.2H62.7zm0-4h14.8v1.2H62.7zm-55.9 8h14.8v1.2H6.8zm0-4h14.8v1.2H6.8zm0-4h14.8v1.2H6.8zM56 85h29v2H56zM1 85h28v2H1z" class="G H"/><path d="M28.8 135.2h27v20h-27zM29 115h27v18H29z" opacity=".1"/><path d="M29 113h27v2H29zm43 59v-10.6c0-1.7 1.3-3 3-3s3 1.3 3 3V172m-15 0v-10.6c0-1.7 1.3-3 3-3s3 1.3 3 3V172m-25 0v-10.6c0-1.7 1.3-3 3-3s3 1.3 3 3V172m-15 0v-10.6c0-1.7 1.3-3 3-3s3 1.3 3 3V172m-25 0v-10.6c0-1.7 1.3-3 3-3s3 1.3 3 3V172m-15 0v-10.6c0-1.7 1.3-3 3-3s3 1.3 3 3V172m59-34v-11.3c0-1.7 1.3-3 3-3s3 1.3 3 3V138m-15 0v-11.3c0-1.7 1.3-3 3-3s3 1.3 3 3V138m-53 0v-11.3c0-1.7 1.3-3 3-3s3 1.3 3 3V138m-15 0v-11.3c0-1.7 1.3-3 3-3s3 1.3 3 3V138m59-21V97.2c0-1.7 1.3-3 3-3s3 1.3 3 3V117m-15 0V97.2c0-1.7 1.3-3 3-3s3 1.3 3 3V117" class="G H"/><path d="M32 130v-8.9c0-1.5.7-2.6 1.5-2.6s1.5 1.2 1.5 2.6v8.9m3 0v-8.9c0-1.5.7-2.6 1.5-2.6s1.5 1.2 1.5 2.6v8.9m3 0v-8.9c0-1.5.7-2.6 1.5-2.6s1.5 1.2 1.5 2.6v8.9m3 0v-8.9c0-1.5.7-2.6 1.5-2.6s1.5 1.2 1.5 2.6v8.9" opacity=".16" class="J"/><path d="M16 117V97.2c0-1.7 1.3-3 3-3s3 1.3 3 3V117m-15 0V97.2c0-1.7 1.3-3 3-3s3 1.3 3 3V117" class="G H"/><circle cx="42.1" cy="144.6" r="7" class="G H"/><linearGradient id="T" gradientUnits="userSpaceOnUse" x1="53" y1="99" x2="55.996" y2="99"><stop offset="0" stop-color="#4c3ea1"/><stop offset="1" stop-color="#2e3192"/></linearGradient><path fill="url(#T)" d="M53 113V90.4l3-5.4v28z"/><path d="M53 113V90.4l3-5.5V113z" class="G H"/></svg>