<svg xmlns="http://www.w3.org/2000/svg" xmlns:xlink="http://www.w3.org/1999/xlink" viewBox="0 0 200 172"><style><![CDATA[.K{fill:none}.L{enable-background:new}.M{stroke-linecap:round}.N{stroke-linejoin:round}.O{stroke-width:2}.P{opacity:.3}.Q{opacity:.2}.R{fill:#fff}.S{stroke-miterlimit:10}.T{opacity:.6}.U{stroke:#fff}.V{stroke-width:.5}.W{stroke:#000}]]></style><path d="M72.9 51.1c12.6 6.6 21 .9 22.8-.5 1.9-1.4 12.6 0 19.6 2.8 4.6 1.9 12-.4 16.9-3.2-6.4-7-12-12.9-16-16.9-19.1-19.2-41.9 0-41.9 0l-17.5 15c5.6-.8 11.2.2 16.1 2.8z" opacity=".8" fill="#bde6ff"/><linearGradient id="A" gradientUnits="userSpaceOnUse" x1="24.852" y1="110.626" x2="191.145" y2="110.626"><stop offset="0" stop-color="#1d7ee8"/><stop offset="1" stop-color="#2ea7db"/></linearGradient><path d="M24.9 173.2h166.3v-57.1l-58.9-65.8c-4.9 2.8-12.4 5-16.9 3.1-7-2.8-17.7-4.2-19.6-2.8s-10.2 7-22.8.5c-4.9-2.6-10.6-3.5-16.1-2.8L25.6 75" fill="url(#A)"/><path d="M192 147h-15v-30h-16v17h-7v-29l-13-11.5V134h-3v-22h-14v11H97v-18.6L89 94v38h-6v-20H42v35H12v26h180m-88-83.2v.8c0 1.1 1.2 2 2.8 2h46.4c1.5 0 2.8-.9 2.8-2v-.8h-52z" class="L Q"/><linearGradient id="B" gradientUnits="userSpaceOnUse" x1="196" y1="116.509" x2="158" y2="116.509"><stop offset="0" stop-color="#3651bf"/><stop offset="1" stop-color="#2e5bdb"/></linearGradient><path fill="url(#B)" d="M196 173V60l-38 40.7V173h38"/><linearGradient id="C" gradientUnits="userSpaceOnUse" x1="200.023" y1="116.509" x2="196" y2="116.509"><stop offset="0" stop-color="#2e3192"/><stop offset="1" stop-color="#4c3ea1"/></linearGradient><path fill="url(#C)" d="M200 173h-4V60l4 3.9z"/><linearGradient id="D" gradientUnits="userSpaceOnUse" x1="60.708" y1="150.546" x2="80.774" y2="150.546"><stop offset="0" stop-color="#4c3ea1"/><stop offset="1" stop-color="#2e3192"/></linearGradient><g class="K M N O"><path stroke="url(#D)" d="M79.8 148.2l-2.5 5.3-6-4-6 4-3.6-6"/><path d="M71.1 124.1V154" class="P W"/></g><linearGradient id="E" gradientUnits="userSpaceOnUse" x1="70.133" y1="139.079" x2="72.133" y2="139.079"><stop offset="0" stop-color="#4c3ea1"/><stop offset="1" stop-color="#2e3192"/></linearGradient><path stroke="url(#E)" d="M71.1 124.1V154" class="K M N O"/><linearGradient id="F" gradientUnits="userSpaceOnUse" x1="45.982" y1="111.176" x2="54.687" y2="111.176"><stop offset="0" stop-color="#4c3ea1"/><stop offset="1" stop-color="#2e3192"/></linearGradient><path stroke="url(#F)" d="M48.3 115.2l-1.3-7 6.7-1" class="K M N O"/><linearGradient id="G" gradientUnits="userSpaceOnUse" x1="41.435" y1="132.199" x2="62.708" y2="132.199"><stop offset="0" stop-color="#4c3ea1"/><stop offset="1" stop-color="#2e3192"/></linearGradient><path stroke="url(#G)" d="M61.7 147.5l-6.7 1.7-1.3-7-6.7-1.7 1.3-6.3-5.7-3.5 3.9-6-4.1-5.4 5.9-4.1" class="K M N O"/><linearGradient id="H" gradientUnits="userSpaceOnUse" x1="53.201" y1="122.582" x2="100.512" y2="122.582"><stop offset="0" stop-color="#4c3ea1"/><stop offset="1" stop-color="#2e3192"/></linearGradient><path stroke="url(#H)" d="M53.7 107.2l1.2-6.9 6.7 1.3 3.8-5.6 5.8 4 6-4 3.5 5.8 6.9-1.4 1.1 6.8 7 1.7-1.6 6.3 5.9 4.3-4 5.2 3.9 5.5-5.8 4 1.4 6.5-6.8 1.5-1.1 7-7.8-1" class="K M N"/><linearGradient id="I" gradientUnits="userSpaceOnUse" x1="40.622" y1="124.735" x2="101.865" y2="124.735"><stop offset="0" stop-color="#4c3ea1"/><stop offset="1" stop-color="#2e3192"/></linearGradient><circle cx="71.2" cy="124.7" r="29.4" stroke="url(#I)" stroke-width="2.5" class="K"/><linearGradient id="J" gradientUnits="userSpaceOnUse" x1="45.459" y1="124.655" x2="96.948" y2="124.655"><stop offset="0" stop-color="#4c3ea1"/><stop offset="1" stop-color="#2e3192"/></linearGradient><path stroke="url(#J)" d="M46.5 124.7h49.4" class="K M N O"/><linearGradient id="K" gradientUnits="userSpaceOnUse" x1="52.701" y1="124.655" x2="89.706" y2="124.655"><stop offset="0" stop-color="#4c3ea1"/><stop offset="1" stop-color="#2e3192"/></linearGradient><path stroke="url(#K)" d="M53.7 142.2l35-35" class="K M N O"/><g class="K"><path stroke="url(#K)" d="M53.7 107.2l35 35" class="M N O"/><path d="M80.7 147.5l1.7 4.2" stroke="#999" class="S"/></g><linearGradient id="L" gradientUnits="userSpaceOnUse" x1="47.309" y1="124.675" x2="95.097" y2="124.675"><stop offset="0" stop-color="#4c3ea1"/><stop offset="1" stop-color="#2e3192"/></linearGradient><path stroke="url(#L)" d="M48.3 134.2l45.8-19" class="K M N O"/><linearGradient id="M" gradientUnits="userSpaceOnUse" x1="70.203" y1="112.282" x2="72.203" y2="112.282"><stop offset="0" stop-color="#4c3ea1"/><stop offset="1" stop-color="#2e3192"/></linearGradient><path stroke="url(#M)" d="M71.2 99.9v24.8" class="K M N O"/><linearGradient id="N" gradientUnits="userSpaceOnUse" x1="60.708" y1="124.675" x2="81.661" y2="124.675"><stop offset="0" stop-color="#4c3ea1"/><stop offset="1" stop-color="#2e3192"/></linearGradient><path stroke="url(#N)" d="M61.7 101.8l19 45.7" class="K M N O"/><g class="K"><path stroke="url(#N)" d="M61.7 147.5l19-45.7" class="M N O"/><path d="M60 151.7l1.7-4.2" stroke="#999" class="S"/></g><path stroke="url(#L)" d="M48.3 115.2l45.8 19" class="K M N O"/><linearGradient id="O" gradientUnits="userSpaceOnUse" x1="31.853" y1="124.594" x2="39.039" y2="124.594"><stop offset="0" stop-color="#451088"/><stop offset="1" stop-color="#593179"/></linearGradient><path d="M33.8 122.5H37c1.1 0 2 .9 2 2v.3c0 1.1-.9 2-2 2h-3.2c-1.1 0-2-.9-2-2v-.3c.1-1.1.9-2 2-2z" fill="url(#O)"/><path d="M31.9 125.3H39" class="K L S T U V"/><path d="M33.4 123.5h1.3c.3 0 .6.2.6.6v.1c0 .3-.2.6-.6.6h-1.3c-.3 0-.6-.2-.6-.6v-.1c0-.4.3-.6.6-.6zm2.8 0h1.3c.3 0 .6.2.6.6v.1c0 .3-.2.6-.6.6h-1.3c-.3 0-.6-.2-.6-.6v-.1c0-.4.3-.6.6-.6z" class="L Q R"/><linearGradient id="P" gradientUnits="userSpaceOnUse" x1="34.106" y1="113.006" x2="41.292" y2="113.006"><stop offset="0" stop-color="#451088"/><stop offset="1" stop-color="#593179"/></linearGradient><use xlink:href="#x" fill="url(#P)"/><path d="M34.1 113.7h7.1" class="K L S T U V"/><path d="M35.6 111.9H37c.3 0 .6.2.6.6v.1c0 .3-.2.6-.6.6h-1.3c-.3 0-.6-.2-.6-.6v-.1c0-.4.2-.6.5-.6zm2.9 0h1.3c.3 0 .6.2.6.6v.1c0 .3-.2.6-.6.6h-1.3c-.3 0-.6-.2-.6-.6v-.1c0-.4.2-.6.6-.6z" class="L Q R"/><linearGradient id="Q" gradientUnits="userSpaceOnUse" x1="34.106" y1="113.054" x2="41.292" y2="113.054"><stop offset="0" stop-color="#451088"/><stop offset="1" stop-color="#593179"/></linearGradient><use xlink:href="#x" x="17.1" y="-19.2" fill="url(#Q)"/><path d="M51.2 94.5h7.1" class="K L S T U V"/><path d="M52.7 92.7H54c.3 0 .6.2.6.6v.1c0 .3-.2.6-.6.6h-1.3c-.3 0-.6-.2-.6-.6v-.1c.1-.4.3-.6.6-.6zm2.9 0h1.3c.3 0 .6.2.6.6v.1c0 .3-.2.6-.6.6h-1.3c-.3 0-.6-.2-.6-.6v-.1c0-.4.2-.6.6-.6z" class="L Q R"/><path d="M67.7 90.9h7m-5.5-1.8h1.3c.3 0 .6.2.6.6v.1c0 .3-.2.6-.6.6h-1.3c-.3 0-.6-.2-.6-.6v-.1c0-.4.2-.6.6-.6zm2.8 0h1.3c.3 0 .6.2.6.6v.1c0 .3-.2.6-.6.6H72c-.3 0-.6-.2-.6-.6v-.1c0-.4.2-.6.6-.6z" stroke="#999" class="K S"/><linearGradient id="R" gradientUnits="userSpaceOnUse" x1="39.804" y1="102.988" x2="46.99" y2="102.988"><stop offset="0" stop-color="#451088"/><stop offset="1" stop-color="#593179"/></linearGradient><path d="M41.8 100.9H45c1.1 0 2 .9 2 2v.3c0 1.1-.9 2-2 2h-3.2c-1.1 0-2-.9-2-2v-.3c0-1.1.9-2 2-2z" fill="url(#R)"/><path d="M39.9 103.7h7" class="K L S T U V"/><path d="M41.3 101.9h1.3c.3 0 .6.2.6.6v.1c0 .3-.2.6-.6.6h-1.3c-.3 0-.6-.2-.6-.6v-.1c0-.4.3-.6.6-.6zm2.8 0h1.3c.3 0 .6.2.6.6v.1c0 .3-.2.6-.6.6h-1.3c-.3 0-.6-.2-.6-.6v-.1c.1-.4.3-.6.6-.6z" class="L Q R"/><linearGradient id="S" gradientUnits="userSpaceOnUse" x1="103" y1="125" x2="110.024" y2="125"><stop offset="0" stop-color="#451088"/><stop offset="1" stop-color="#593179"/></linearGradient><path d="M108.1 127H105c-1.1 0-2-.9-2-2s.9-2 2-2h3.1c1.1 0 2 .9 2 2v.2c-.1 1-.9 1.8-2 1.8z" fill="url(#S)"/><linearGradient id="T" gradientUnits="userSpaceOnUse" x1="101.008" y1="113" x2="108.031" y2="113"><stop offset="0" stop-color="#451088"/><stop offset="1" stop-color="#593179"/></linearGradient><path d="M106.1 115H103c-1.1 0-2-.9-2-2s.9-2 2-2h3.1c1.1 0 2 .9 2 2v.2c-.1.9-.9 1.8-2 1.8z" fill="url(#T)"/><linearGradient id="U" gradientUnits="userSpaceOnUse" x1="84" y1="94" x2="91.024" y2="94"><stop offset="0" stop-color="#451088"/><stop offset="1" stop-color="#593179"/></linearGradient><path d="M89.1 96H86c-1.1 0-2-.9-2-2s.9-2 2-2h3c1.1 0 2 .9 2 2v.2c0 1-.8 1.8-1.9 1.8z" fill="url(#U)"/><linearGradient id="V" gradientUnits="userSpaceOnUse" x1="68" y1="90" x2="75.024" y2="90"><stop offset="0" stop-color="#451088"/><stop offset="1" stop-color="#593179"/></linearGradient><path d="M73.1 92H70c-1.1 0-2-.9-2-2s.9-2 2-2h3c1.1 0 2 .9 2 2v.2c0 1-.8 1.8-1.9 1.8z" fill="url(#V)"/><linearGradient id="W" gradientUnits="userSpaceOnUse" x1="95.976" y1="103" x2="103" y2="103"><stop offset="0" stop-color="#451088"/><stop offset="1" stop-color="#593179"/></linearGradient><path d="M101 105h-3c-1.1 0-2-.9-2-2s.9-2 2-2h3.1c1.1 0 2 .9 2 2v.1c-.1 1-1 1.9-2.1 1.9z" fill="url(#W)"/><linearGradient id="X" gradientUnits="userSpaceOnUse" x1="34.129" y1="113.027" x2="41.315" y2="113.027"><stop offset="0" stop-color="#451088"/><stop offset="1" stop-color="#593179"/></linearGradient><use xlink:href="#x" x="-0.2" y="24" fill="url(#X)"/><path d="M34 137.7h7.1" class="K L S T U V"/><path d="M35.4 135.9h1.3c.3 0 .6.2.6.6v.1c0 .3-.2.6-.6.6h-1.3c-.3 0-.6-.2-.6-.6v-.1c.1-.3.4-.6.6-.6zm2.9 0h1.3c.3 0 .6.2.6.6v.1c0 .3-.2.6-.6.6h-1.3c-.3 0-.6-.2-.6-.6v-.1c0-.3.3-.6.6-.6z" class="L Q R"/><linearGradient id="Y" gradientUnits="userSpaceOnUse" x1="101.008" y1="137" x2="108.031" y2="137"><stop offset="0" stop-color="#451088"/><stop offset="1" stop-color="#593179"/></linearGradient><path d="M103 135h3.1c1.1 0 2 .9 2 2v.1c0 1.1-.9 2-2 2H103c-1.1 0-2-.9-2-2v-.1c0-1.1.9-2 2-2z" fill="url(#Y)"/><path d="M100.7 124.8c0 16.2-13.2 29.4-29.4 29.4S41.9 141 41.9 124.8s13.2-29.4 29.4-29.4 29.4 13.2 29.4 29.4z" class="K L P S W"/><linearGradient id="Z" gradientUnits="userSpaceOnUse" x1="55.672" y1="141.15" x2="86.694" y2="141.15"><stop offset="0" stop-color="#4c3ea1"/><stop offset="1" stop-color="#2e3192"/></linearGradient><path fill="url(#Z)" d="M71.7 122.4L60.2 160h-4.5l15.8-37.7h-.7L86.7 160h-4.6l-11.4-37.7"/><linearGradient id="a" gradientUnits="userSpaceOnUse" x1="70.203" y1="97.637" x2="72.203" y2="97.637"><stop offset="0" stop-color="#4c3ea1"/><stop offset="1" stop-color="#2e3192"/></linearGradient><path stroke="url(#a)" d="M71.2 99.9v-4.5" class="K M N O"/><linearGradient id="b" gradientUnits="userSpaceOnUse" x1="94.963" y1="124.655" x2="101.495" y2="124.655"><stop offset="0" stop-color="#4c3ea1"/><stop offset="1" stop-color="#2e3192"/></linearGradient><path stroke="url(#b)" d="M95.9 124.7h4.6" class="K M N O"/><linearGradient id="c" gradientUnits="userSpaceOnUse" x1="40.912" y1="124.655" x2="47.439" y2="124.655"><stop offset="0" stop-color="#4c3ea1"/><stop offset="1" stop-color="#2e3192"/></linearGradient><path stroke="url(#c)" d="M41.9 124.7h4.6" class="K M N O"/><linearGradient id="d" gradientUnits="userSpaceOnUse" x1="87.706" y1="105.563" x2="92.904" y2="105.563"><stop offset="0" stop-color="#4c3ea1"/><stop offset="1" stop-color="#2e3192"/></linearGradient><path stroke="url(#d)" d="M88.7 107.2l3.2-3.2" class="K M N O"/><linearGradient id="e" gradientUnits="userSpaceOnUse" x1="49.493" y1="143.766" x2="54.691" y2="143.766"><stop offset="0" stop-color="#4c3ea1"/><stop offset="1" stop-color="#2e3192"/></linearGradient><path stroke="url(#e)" d="M50.5 145.4l3.2-3.2" class="K M N O"/><linearGradient id="f" gradientUnits="userSpaceOnUse" x1="87.706" y1="143.766" x2="92.904" y2="143.766"><stop offset="0" stop-color="#4c3ea1"/><stop offset="1" stop-color="#2e3192"/></linearGradient><path stroke="url(#f)" d="M88.7 142.2l3.2 3.2" class="K M N O"/><linearGradient id="g" gradientUnits="userSpaceOnUse" x1="93.077" y1="114.334" x2="99.262" y2="114.334"><stop offset="0" stop-color="#4c3ea1"/><stop offset="1" stop-color="#2e3192"/></linearGradient><path stroke="url(#g)" d="M94.1 115.2l4.2-1.7" class="K M N O"/><linearGradient id="h" gradientUnits="userSpaceOnUse" x1="43.145" y1="135.015" x2="49.329" y2="135.015"><stop offset="0" stop-color="#4c3ea1"/><stop offset="1" stop-color="#2e3192"/></linearGradient><path stroke="url(#h)" d="M44.1 135.9l4.2-1.7" class="K M N O"/><linearGradient id="i" gradientUnits="userSpaceOnUse" x1="79.669" y1="99.709" x2="83.405" y2="99.709"><stop offset="0" stop-color="#4c3ea1"/><stop offset="1" stop-color="#2e3192"/></linearGradient><path stroke="url(#i)" d="M80.7 101.8l1.7-4.2" class="K M N O"/><linearGradient id="j" gradientUnits="userSpaceOnUse" x1="93.077" y1="135.015" x2="99.262" y2="135.015"><stop offset="0" stop-color="#4c3ea1"/><stop offset="1" stop-color="#2e3192"/></linearGradient><path stroke="url(#j)" d="M94.1 134.2l4.2 1.7" class="K M N O"/><linearGradient id="k" gradientUnits="userSpaceOnUse" x1="59.001" y1="99.709" x2="62.731" y2="99.709"><stop offset="0" stop-color="#4c3ea1"/><stop offset="1" stop-color="#2e3192"/></linearGradient><path stroke="url(#k)" d="M61.7 101.8L60 97.6" class="K M N O"/><linearGradient id="l" gradientUnits="userSpaceOnUse" x1="49.493" y1="105.563" x2="54.691" y2="105.563"><stop offset="0" stop-color="#4c3ea1"/><stop offset="1" stop-color="#2e3192"/></linearGradient><path stroke="url(#l)" d="M53.7 107.2l-3.2-3.2" class="K M N O"/><linearGradient id="m" gradientUnits="userSpaceOnUse" x1="43.145" y1="114.334" x2="49.329" y2="114.334"><stop offset="0" stop-color="#4c3ea1"/><stop offset="1" stop-color="#2e3192"/></linearGradient><g class="K M N O"><path stroke="url(#m)" d="M44.1 113.5l4.2 1.7"/><path d="M71.2 99.9v-4.5m24.7 29.3h4.6m-58.6 0h4.6m42.2-17.5l3.2-3.2m-41.4 41.4l3.2-3.2m35 0l3.2 3.2m2.2-30.2l4.2-1.7m-54.2 22.4l4.2-1.7m32.4-32.4l1.7-4.2m11.7 36.6l4.2 1.7m-36.6-34.1L60 97.6m-6.3 9.6l-3.2-3.2m-6.4 9.5l4.2 1.7" class="P W"/></g><path d="M84.8 159.9h1.9l-14.9-35.5zm-27.2.2h-1.9l14.9-35.5z" class="L P"/><linearGradient id="n" gradientUnits="userSpaceOnUse" x1="45.249" y1="124.735" x2="97.238" y2="124.735"><stop offset="0" stop-color="#4c3ea1"/><stop offset="1" stop-color="#2e3192"/></linearGradient><g class="K"><circle cx="71.2" cy="124.7" r="24.7" stroke="url(#n)" stroke-width="2.5"/><circle cx="71.2" cy="124.7" r="24.7" class="L P W"/></g><path d="M71.7 122.4l-11.5 37.7h-4.5l15.8-37.7h-.7l15.9 37.7h-4.6l-11.4-37.7" class="Q"/><linearGradient id="o" gradientUnits="userSpaceOnUse" x1="68.91" y1="124.675" x2="73.497" y2="124.675"><stop offset="0" stop-color="#4c3ea1"/><stop offset="1" stop-color="#2e3192"/></linearGradient><use xlink:href="#y" fill="url(#o)"/><use xlink:href="#y" class="L P"/><path d="M108 83h43v7h-43z" class="L P R"/><linearGradient id="p" gradientUnits="userSpaceOnUse" x1="104" y1="124.044" x2="156" y2="124.044"><stop offset="0" stop-color="#451088"/><stop offset="1" stop-color="#593179"/></linearGradient><path d="M104 90v1.1c0 1.1 1.2 1.9 2.7 1.9h.2l11 6.3 2.9 1.7h1l5.6 25.4c2.3 10.7-2.5 27.7-4.3 30.6h-.8s-.7.1-.7.5.3.7.7.5h15.3c.4.3.7-.1.7-.5s-.7-.5-.7-.5h-.6c-1.9-3-6.7-19.9-4.3-30.6l5.6-25.4h.5l2.9-1.7 11-6.3h.6c1.5 0 2.8-1 2.8-2.2V90H104zm26 22.9s-3.1-.5-4-11.9h8c-1 11.4-4 11.9-4 11.9z" fill="url(#p)"/><path d="M129 90v11h5c-.9 11.5-4 12-4 12v44h7.2c-1.6-1.3-7-19.4-4.6-30.7l5.6-25.3h.5l2.9-1.7 11-6.3h.5c1.6 0 2.9-1 2.9-2.2V90h-27z" class="L Q"/><linearGradient id="q" gradientUnits="userSpaceOnUse" x1="104" y1="63.555" x2="156" y2="63.555"><stop offset="0" stop-color="#451088"/><stop offset="1" stop-color="#593179"/></linearGradient><path d="M153.2 80h-.2l-11.5-6.3-3-1.7c-.1-.1-.2-.2-.6-.4v-2.3c.4-.2.2-.4-.1-.4-.2 0-.3-.1-.4-.2l-.5-1v-3.1c-.1-.2-.5-.4-.5-.4h-2.1c-.2 0-.4-.2-.4-.4v-1.1c0-.2-.2-.4-.4-.4h-1.1c-.2 0-.4-.2-.4-.4l-1.6-17.2c0-.2-.2-.4-.5-.3-.2 0-.3.2-.3.3l-1.8 17.2c0 .2-.2.4-.4.4h-1.1c-.2 0-.4.2-.4.4v1.1c0 .2-.2.4-.4.4h-2s-.4.1-.5.4v2.9c.1.1.1.1 0 .2l-.5 1c-.1.2-.2.2-.4.2s-.4.2-.1.4v2.3c-.3.2-.4.3-.5.4l-3 1.7L107 80h-.2c-1.5 0-2.8 1-2.8 2.2v.3c0 .3.2.5.4.5h51.1c.2 0 .4-.2.4-.5v-.3c.1-1.2-1.1-2.2-2.7-2.2z" fill="url(#q)"/><path d="M155.9 83.1v-.8c0-1.1-1.2-2-2.8-2h-46.4c-1.5 0-2.8.9-2.8 2v.8h52z" class="L Q"/><path d="M153.2 80.3h-.2l-11.5-6.6-3-1.7c-.1-.1-.2-.2-.2-.4v-2.3c0-.2-.2-.4-.4-.4s-.3-.1-.4-.2l-.5-1v-3.1c0-.2-.2-.4-.4-.4h-1.9c-.2 0-.4-.2-.4-.4v-1.2c0-.2-.2-.4-.4-.4h-1.1c-.2 0-.4-.2-.4-.4l-1.6-17.9c0-.2-.2-.4-.4-.4h-.1V83h25.6c.2 0 .4-.2.4-.4v-.3c-.4-1.1-1.6-2-3.1-2z" class="L Q"/><linearGradient id="r" gradientUnits="userSpaceOnUse" x1="62.394" y1="168.572" x2="143.424" y2="168.572"><stop offset="0" stop-color="#2e3192"/><stop offset="1" stop-color="#2f0b81"/></linearGradient><path d="M142.3 163.8H63.5c-.5 0-1 .3-1.1.8-.2.6.2 1.2.8 1.3h14.5v7.3h5.6V166H94v7.3h5.6V166h10.7v7.3h5.6V166h10.7v7.3h5.6V166h10.1c.5 0 1-.3 1.1-.8.2-.6-.2-1.2-.8-1.3-.1-.1-.2-.1-.3-.1z" fill="url(#r)"/><linearGradient id="s" gradientUnits="userSpaceOnUse" x1="67.818" y1="158.422" x2="136.029" y2="158.422"><stop offset="0" stop-color="#451088"/><stop offset="1" stop-color="#593179"/></linearGradient><path d="M133.5 153h-16.3c-1.4 0-2.7 1.2-2.7 2.7v5.3h-1.7v-5.3c0-1.4-1.2-2.7-2.7-2.7H93.8c-1.4 0-2.7 1.2-2.7 2.7v5.3h-1.7v-5.3c0-1.4-1.2-2.7-2.7-2.7H70.5c-1.4 0-2.7 1.2-2.7 2.7v5.5c0 1.4 1.2 2.7 2.7 2.7h16.4c1.2 0 2.3-.9 2.6-2.1h1.6c.3 1.2 1.3 2.1 2.6 2.1h16.4c1.2 0 2.3-.9 2.6-2.1h1.7c.3 1.2 1.3 2.1 2.6 2.1h16.4c1.4 0 2.7-1.2 2.7-2.7v-5.5c0-1.5-1.2-2.7-2.6-2.7z" fill="url(#s)"/><linearGradient id="t" gradientUnits="userSpaceOnUse" x1="0" y1="117.78" x2="64" y2="117.78"><stop offset="0" stop-color="#3651bf"/><stop offset="1" stop-color="#2e5bdb"/></linearGradient><path fill="url(#t)" d="M53 90V76.8L35.1 62.6H35L12 78.2V90H6v34H0v49h64V90z"/><path d="M28.8 90c.2-5.6 4.9-9.9 10.5-9.6 5.2.2 9.4 4.4 9.6 9.6H28.8zM15 138h9v9h-9zm0 13h9v22h-9zm36-55h7v26h-7zm-10 0h7v26h-7zm-10 0h7v26h-7zm-10 0h7v26h-7zm10 42h7v35h-7zm10 0h7v35h-7zm10 0h7v35h-7z" class="L P"/><path opacity=".35" d="M35 62.6V75H24v15H12V78.2z"/><path d="M15 128h44v1H15zm0 3h44v1H15z" class="L P"/><path d="M0 124h6v49H0zm6-34h6v34H6z" opacity=".4"/><path d="M171.5 151.6h-6.3c-.2 0-.4-.2-.4-.4v-.4c0-.2.2-.4.4-.4h6.3c.2 0 .4.2.4.4v.4c0 .2-.2.4-.4.4zm-11.9 0h-6.3c-.2 0-.4-.2-.4-.4v-.4c0-.2.2-.4.4-.4h6.3c.2 0 .4.2.4.4v.4c0 .2-.2.4-.4.4zm11.9-4h-6.3c-.2 0-.4-.2-.4-.4v-.4c0-.2.2-.4.4-.4h6.3c.2 0 .4.2.4.4v.4c0 .2-.2.4-.4.4zm-11.9 0h-6.3c-.2 0-.4-.2-.4-.4v-.4c0-.2.2-.4.4-.4h6.3c.2 0 .4.2.4.4v.4c0 .2-.2.4-.4.4z" class="L P R"/><path d="M150.5 112.8h23.7v2.8h-23.7z" class="L P"/><linearGradient id="u" gradientUnits="userSpaceOnUse" x1="176.996" y1="134.85" x2="174.004" y2="134.85"><stop offset="0" stop-color="#2e42bf"/><stop offset="1" stop-color="#593192"/></linearGradient><path fill="url(#u)" d="M177 118.7V157h-3v-44.3z"/><linearGradient id="v" gradientUnits="userSpaceOnUse" x1="176.996" y1="156.5" x2="174.996" y2="156.5"><stop offset="0" stop-color="#2e40bf"/><stop offset="1" stop-color="#593192"/></linearGradient><path fill="url(#v)" d="M177 146v27h-2v-33"/><path d="M166 145.6V173h-2v-33.3z" opacity=".15" class="L"/><path d="M163 127h28v3h-28zm0 6h28v3h-28zm0 6h28v3h-28zm0 5h28v3h-28zm0 6h28v3h-28zm0 6h28v3h-28zm0 6h28v3h-28zm0-46h28v3h-28zm0 5h28v3h-28z" opacity=".15" class="R"/><g class="T"><defs><path id="w" d="M193.8 108.8h-30.3v-5.3l30.3-31.8z"/><path id="x" d="M36.1 110.9h3.2c1.1 0 2 .9 2 2v.3c0 1.1-.9 2-2 2h-3.2c-1.1 0-2-.9-2-2v-.3c0-1.1.9-2 2-2z"/><path id="y" d="M72.5 122.2H70l-1.1 1v2.9l1.1 1.1h2.5l1-1.1v-2.9z"/><path id="z" d="M142 155h8v3h-8zm0 5h8v3h-8zm0 5h8v3h-8zm0-20h8v3h-8zm0 5h8v3h-8z"/></defs><clipPath id="AA"><use xlink:href="#w"/></clipPath><g clip-path="url(#AA)" class="L R"><path d="M163 83h28v3h-28zm0 6h28v3h-28zm-.2-17.3H191v3.1h-28.2zm.2 5.3h28v3h-28zm0 18h28v3h-28zm0 6h28v3h-28z" class="Q"/></g></g><linearGradient id="AB" gradientUnits="userSpaceOnUse" x1="174" y1="135" x2="150" y2="135"><stop offset="0" stop-color="#3651bf"/><stop offset="1" stop-color="#2e5bdb"/></linearGradient><path fill="url(#AB)" d="M150 113h24v44h-24z"/><path d="M177 118.7V157h-3v-44.3z" opacity=".15" class="L"/><linearGradient id="AC" gradientUnits="userSpaceOnUse" x1="175" y1="156" x2="139" y2="156"><stop offset="0" stop-color="#2e59bf"/><stop offset="1" stop-color="#593192"/></linearGradient><path fill="url(#AC)" d="M139 139h36v34h-36z"/><path d="M139 139.3h35.6v2.8H139z" class="L P"/><g class="R L"><use xlink:href="#z" opacity=".08"/><use xlink:href="#z" x="11" opacity=".08"/><use xlink:href="#z" x="22" opacity=".08"/><path d="M154 127h17v3h-17zm0 5h17v3h-17zm0-15h17v3h-17zm0 5h17v3h-17z" opacity=".1"/></g></svg>