<svg xmlns="http://www.w3.org/2000/svg" xmlns:xlink="http://www.w3.org/1999/xlink" viewBox="0 0 200 172"><style><![CDATA[.N{enable-background:new}.O{opacity:.1}.P{opacity:.3}.Q{fill:#fff}.R{opacity:.2}.S{opacity:.06}.T{opacity:.08}.U{opacity:.4}.V{fill:#451088}]]></style><linearGradient id="A" gradientUnits="userSpaceOnUse" x1="98.511" y1="172.035" x2="98.511" y2="24.764"><stop offset="0" stop-color="#1d7ee8"/><stop offset="1" stop-color="#2ea7db"/></linearGradient><path d="M13.3 98.1l-.3 73.8 170.8.2.3-74c.2-42.2-41.3-75.7-91.2-72.9C48 27.6 13.4 59.5 13.3 98.1z" fill="url(#A)"/><path d="M184.5 120.8h-1v-2h-12v-33h-23v19h-11V72l-19-13v46.8h-3v-26h-20v13h-17v-41h-16v41h-6V70.7l-12-12.3v45.4h-9v-23h-22v91.5l170 .5v-23h1z" class="N R"/><linearGradient id="B" gradientUnits="userSpaceOnUse" x1="180.322" y1="39.281" x2="181.826" y2="39.281"><stop offset="0" stop-color="#3651bf"/><stop offset="1" stop-color="#2e5bdb"/></linearGradient><use xlink:href="#AA" fill="url(#B)"/><use xlink:href="#AA" class="N P"/><linearGradient id="C" gradientUnits="userSpaceOnUse" x1="174.036" y1="36.915" x2="176.046" y2="36.915"><stop offset="0" stop-color="#3651bf"/><stop offset="1" stop-color="#2e5bdb"/></linearGradient><use xlink:href="#AB" fill="url(#C)"/><use xlink:href="#AB" class="N P"/><linearGradient id="D" gradientUnits="userSpaceOnUse" x1="161.603" y1="109.059" x2="196.608" y2="109.059"><stop offset="0" stop-color="#3651bf"/><stop offset="1" stop-color="#2e5bdb"/></linearGradient><path d="M173.5 45.6h-7v27.2h-5l.1 99.7h35l-.1-79.5h-3.9v-.1l.3-20h-4.7l-.6-27.2h-5" fill="url(#D)"/><linearGradient id="E" gradientUnits="userSpaceOnUse" x1="175.546" y1="45.624" x2="180.913" y2="45.624"><stop offset="0" stop-color="#3651bf"/><stop offset="1" stop-color="#2e5bdb"/></linearGradient><path d="M180.9 45.6h-5.4" fill="url(#E)"/><path d="M192.3 92.9l.1-20.1h-4.8l-.1-27.1h-20.8v27.1h-5.2v99.5h34.9V92.9z" class="N O"/><path d="M173.8 45.6h-7.3v3h20.9v-3h-5.1" class="N P"/><path d="M192.4 119.1h-6.6c-.2-.5-.4-.7-.3-.9v-.1c-.1-.2.1-.4.3 0h6.6c.2-.4.4-.2.1 0v.1c.3.3.1.4-.1.9z" class="N P Q"/><linearGradient id="F" gradientUnits="userSpaceOnUse" x1="187.51" y1="96.976" x2="183.49" y2="96.976"><stop offset="0" stop-color="#3651bf"/><stop offset="1" stop-color="#2e5bdb"/></linearGradient><path fill="url(#F)" d="M183.5 73.8h4v46.3h-4z"/><path d="M184.5 72.8h3v44.3h-3z" class="N P"/><path d="M183.5 72.8h4v3h-4z" class="N P"/><linearGradient id="G" gradientUnits="userSpaceOnUse" x1="200.515" y1="144.804" x2="196.498" y2="144.804"><stop offset="0" stop-color="#3651bf"/><stop offset="1" stop-color="#2e5bdb"/></linearGradient><path fill="url(#G)" d="M196.5 117.1h4v55.4h-4z"/><path d="M196.5 117.1h4v55.4h-4z" class="N P"/><linearGradient id="H" gradientUnits="userSpaceOnUse" x1="156.5" y1="122.652" x2="196.5" y2="122.652"><stop offset="0" stop-color="#3651bf"/><stop offset="1" stop-color="#2e5bdb"/></linearGradient><path fill="url(#H)" d="M184.5 117.1V72.8h-18v20.1h-10l.1 79.6h39.9v-55.4z"/><path d="M196.5 117.1h4v3h-4zm-30-44.3h18v3h-18zm18 44.3h12v3h-12z" class="N P"/><linearGradient id="I" gradientUnits="userSpaceOnUse" x1="187.515" y1="59.217" x2="192.49" y2="59.217"><stop offset="0" stop-color="#3651bf"/><stop offset="1" stop-color="#2e5bdb"/></linearGradient><path fill="url(#I)" d="M192.5 72.8h-5V45.6l5 2.4z"/><linearGradient id="J" gradientUnits="userSpaceOnUse" x1="192.52" y1="82.879" x2="196.461" y2="82.879"><stop offset="0" stop-color="#3651bf"/><stop offset="1" stop-color="#2e5bdb"/></linearGradient><path fill="url(#J)" d="M192.5 72.8h4v20.1h-4z"/><linearGradient id="K" gradientUnits="userSpaceOnUse" x1="196.521" y1="105.031" x2="200.516" y2="105.031"><stop offset="0" stop-color="#3651bf"/><stop offset="1" stop-color="#2e5bdb"/></linearGradient><path fill="url(#K)" d="M196.5 92.9h4v24.2h-4z"/><path d="M192.5 72.8h-5V45.6l5 2.4zm0 0h4v20.1h-4zm4 20.1h4v24.2h-4z" class="N P"/><path d="M170.5 61.8h14v3h-14zm0 5h14v3h-14zm0-15h14v3h-14zm0 5h14v3h-14zm19 48h5v3h-5zm0 5h5v3h-5zm0-15h5v3h-5zm0 5h5v3h-5zm-20-9h11v3h-11zm0 5h11v3h-11zm0 5h11v3h-11zm0-20h11v3h-11zm0 5h11v3h-11zm0 30h11v3h-11zm0 5h11v3h-11zm0 5h11v3h-11zm0-20h11v3h-11zm0 5h11v3h-11zm0 20h11v3h-11zm0 15.5h11v3h-11zm0 5h11v3h-11zm0 5.1h11v3h-11zm0-20.2h11v3h-11zm0 5.1h11v3h-11zm0 20.1h11v3h-11zm-10-59.6h6v3h-6zm0 15h6v3h-6zm0 5h6v3h-6zm0 5.4h6v3h-6zm0-20.4h6v3h-6zm0 5h6v3h-6zm0 20.4h6v3h-6zm0 15.1h6v3h-6zm0 5.1h6v3h-6zm0 5h6v3h-6zm0-20.1h6v3h-6zm0 5h6v3h-6zm0 20.1h6v3h-6zm26-36.6h9v3h-9zm0 5h9v3h-9zm0 15.5h9v3h-9zm0 5h9v3h-9zm0 5.1h9v3h-9zm0-19.6h9v3h-9zm0 5h9v3h-9zm0 19.6h9v3h-9z" class="O Q N"/><linearGradient id="L" gradientUnits="userSpaceOnUse" x1="21.626" y1="127.204" x2="185.513" y2="127.204"><stop offset="0" stop-color="#2e3192"/><stop offset="1" stop-color="#2f0b81"/></linearGradient><path d="M185.5 148.5h-1.2c-2-3.3-4.1-6.5-6.6-9.5h7.4v-2h-9c-14.6-17-39.2-32-72.5-33.2-33.3 1.2-57.9 16.2-72.4 33.3h-3.5l-.2 2h2c-2.4 3-4.6 6.2-6.6 9.5h-1.4v1.6h21.4v.4h.8v-.4h2.6v-1.6h-.4c1.4-3.4 3.2-6.6 5.4-9.5h104.3c2.2 2.9 4 6.1 5.4 9.5h-.6v1.6h3.3v.4h.8v-.4h20.8l.2-1.7zm-11.9-11.4h-8.8v-8.4c3 2.5 6 5.3 8.8 8.4zM53.3 120.7c2.1-1.4 4.4-2.7 6.7-3.9v10.9c-2.4 1.8-4.6 3.9-6.7 6.1v-13.1zm39.5-14.2v8.3c-2.7.3-5.3.8-7.9 1.4v-8.4c2.6-.5 5.2-.9 7.9-1.3zm9.5 7.8c-2.9 0-5.8.1-8.7.4v-8.4c2.8-.4 5.7-.6 8.7-.8v8.8zm-18.2 1.4v.7c-2.4.6-4.8 1.3-7.1 2.2v-8.7c2.3-.7 4.7-1.3 7.1-1.8v7.6zm-7.8 3.2c-2.6 1-5.1 2.1-7.5 3.4v-9.4c2.4-1 4.9-1.9 7.5-2.7v8.7zm-8.4 3.8c-2.5 1.4-4.8 2.8-7.1 4.5v-10.7c2.3-1.2 4.6-2.2 7.1-3.3v9.5zm-14.6 14.1c2-2.4 4.3-4.6 6.7-6.5v6.8h-6.7v-.3zm7.6-7.2c2.2-1.8 4.6-3.4 7.1-4.8V137h-7.1v-7.4zm7.8-4.8v-.4c2.4-1.3 4.9-2.5 7.5-3.5v16.2h-7.5v-12.3zm8.4-4.2c2.3-.9 4.7-1.6 7.1-2.2v18.7h-7.1v-16.5zm7.8-2.4c2.6-.6 5.2-1.1 7.9-1.4v20.4h-7.9v-19zm8.7-1.6c2.9-.3 5.8-.5 8.7-.5V137h-8.7v-20.4zm9.5-.4h.6c2.8 0 5.7 0 8.5.3v20.6h-9.1v-20.9zm9.9.4c2.5.2 5 .6 7.5 1.2v19.4H113v-20.6zm0-10.3c2.6.3 5.1.7 7.5 1.2v8.4c-2.5-.5-5-.9-7.5-1.1v-8.5zm24.4 6.1v9.2c-2.4-1.2-4.9-2.3-7.5-3.2v-8.6c2.6.8 5.1 1.6 7.5 2.6zm.8.3c2.6 1 5.1 2.2 7.5 3.4v10.6c-2.4-1.7-4.9-3.2-7.5-4.6v-9.4zm-9 5.5c-2.6-.9-5.2-1.6-7.9-2.2v-8.4c2.7.5 5.3 1.2 7.9 1.9v8.7zm-7.9-.3c2.7.6 5.3 1.4 7.9 2.3V137h-7.9v-19.1zm8.6 2.5c2.6 1 5.1 2.1 7.5 3.4v13.3h-7.5v-16.7zm8.3 3.8c2.6 1.4 5.1 3 7.5 4.8v8h-7.5v-12.8zm8.3 5.5c2.7 2.2 5.2 4.6 7.5 7.2v.2h-7.5v-7.4zm0-2.5v-10.8c2.6 1.3 5.1 2.8 7.4 4.2l.1 13.2c-2.3-2.4-4.8-4.6-7.5-6.6zm-34.3-21v8.4c-2.8-.2-5.7-.4-8.5-.3h-.6v-8.7h.6c2.9.1 5.7.3 8.5.6zm-69.1 22.1v8.8h-9.3c2.9-3.2 6-6.1 9.3-8.8zM32 139.1h11v9.5H25c2.1-3.4 4.5-6.6 7-9.5zm12.2 9.4h-.3V139h5.3c-2.1 3-3.8 6.2-5 9.5zm6.4-11.4h-6.7v-9.5c.4-.3.7-.6 1-.8 2.5-2 5-3.9 7.7-5.6v13.5c-.7.8-1.4 1.6-2 2.4zm104.2-2.3v-13.6c2.6 1.7 5.2 3.6 7.6 5.6.5.4 1 .8 1.4 1.2v9.1h-7.2c-.5-.8-1.1-1.6-1.8-2.3zm3.4 4.3h5.7v9.5h-.8c-1.2-3.4-2.8-6.6-4.9-9.5zm6.5 9.4V139h10.6c2.6 3 4.9 6.2 7 9.5h-17.6z" fill="url(#L)"/><path d="M12.9 153.2h175.2v19.3L12.9 172z" class="N R"/><linearGradient id="M" gradientUnits="userSpaceOnUse" x1="80.5" y1="124.75" x2="34.5" y2="124.75"><stop offset="0" stop-color="#2e60e8"/><stop offset="1" stop-color="#2e74db"/></linearGradient><path fill="url(#M)" d="M34.5 89.8h46v70h-46z"/><path opacity=".15" d="M34.5 89.8h46v74h-46z"/><g class="Q"><path d="M34.8 154.1h2v2h-2zm0-7h2v2h-2zm0-7h2v2h-2zm0-7.1h2v2h-2z" opacity=".5" class="N"/><path d="M34.8 126h2v2h-2z"/><path d="M34.8 119h2v2h-2zm0-7.6h2v2h-2zm0-7h2v2h-2zm0-7h2v2h-2z" opacity=".5" class="N"/></g><path d="M34.5 89.8h46v3h-46z" class="N R"/><g class="Q"><path d="M182.9 145h-10.4c-.2 0-.4-.2-.4-.4s.2-.4.4-.4h10.4c.2 0 .4.2.4.4-.1.2-.2.4-.4.4z" opacity=".8" class="N"/><path d="M182.9 147.7h-10.4c-.2 0-.4-.2-.4-.4s.2-.4.4-.4h10.4c.2 0 .4.2.4.4-.1.2-.2.4-.4.4zm0 5.4h-10.4c-.2 0-.4-.2-.4-.4s.2-.4.4-.4h10.4c.2 0 .4.2.4.4-.1.2-.2.4-.4.4zm0 2.7h-10.4c-.2 0-.4-.2-.4-.4s.2-.4.4-.4h10.4c.2 0 .4.2.4.4-.1.2-.2.4-.4.4zm-12.6-24.3h-6c-.2 0-.4-.2-.4-.4s.2-.4.4-.4h6c.2 0 .4.2.4.4-.1.2-.2.4-.4.4zm0 2.7h-6c-.2 0-.4-.2-.4-.4s.2-.4.4-.4h6c.2 0 .4.2.4.4-.1.2-.2.4-.4.4z" class="N P"/><use xlink:href="#AC" opacity=".8" class="N"/><path d="M170.3 139.6h-6c-.2 0-.4-.2-.4-.4s.2-.4.4-.4h6c.2 0 .4.2.4.4-.1.2-.2.4-.4.4zm0 2.7h-6c-.2 0-.4-.2-.4-.4s.2-.4.4-.4h6c.2 0 .4.2.4.4-.1.2-.2.4-.4.4zm0 2.7h-6c-.2 0-.4-.2-.4-.4s.2-.4.4-.4h6c.2 0 .4.2.4.4-.1.2-.2.4-.4.4zm0 2.7h-6c-.2 0-.4-.2-.4-.4s.2-.4.4-.4h6c.2 0 .4.2.4.4-.1.2-.2.4-.4.4z" class="N P"/><use xlink:href="#AC" y="13.5" opacity=".6"/><use xlink:href="#AC" y="16.2" class="N P"/><use xlink:href="#AC" y="18.9" opacity=".8" class="N"/><path d="M170.3 158.5h-6c-.2 0-.4-.2-.4-.4s.2-.4.4-.4h6c.2 0 .4.2.4.4-.1.2-.2.4-.4.4zm0 2.7h-6c-.2 0-.4-.2-.4-.4s.2-.4.4-.4h6c.2 0 .4.2.4.4-.1.2-.2.4-.4.4zm0 3.2h-6c-.2 0-.4-.2-.4-.4s.2-.4.4-.4h6c.2 0 .4.2.4.4-.1.3-.2.4-.4.4zm0 5.4h-6c-.2 0-.4-.2-.4-.4s.2-.4.4-.4h6c.2 0 .4.2.4.4-.1.3-.2.4-.4.4z" class="N P"/></g><linearGradient id="N" gradientUnits="userSpaceOnUse" x1="73.667" y1="142.641" x2="103.405" y2="142.641"><stop offset="0" stop-color="#2e3192"/><stop offset="1" stop-color="#2f0b81"/></linearGradient><path d="M83.3 148.2c.1-.3.1-.6 0-1l-.4-1.1 1 1.3c.4.5 1.1.6 1.6.3s1.1-.7 1.7-1c.6-.4.7-1.1.4-1.6 0 0 0-.1-.1-.1l-.2-.2.2.1c.6.4 1.3.2 1.6-.4 0-.1.1-.1.1-.2l.1-.3c3.2 4.9 5.8 10.2 7.6 15.8h4.4c-2.4-6.2-6-11.9-10.6-16.7l.3.3c.5.4 1.2.4 1.7-.1 0 0 .1-.1.1-.2l.1-.2-.1.3c-.1.6.3 1.3.9 1.4h.1c.7 0 1.4.1 2 .2.6 0 1.2-.4 1.3-1l.2-1.6.1 1.2c0 .7.6 1.2 1.3 1.1h.1c1.4-.2 2.8-.6 4.2-1-2.6-6.2-8.3-6-11.1-5.5.9-.8 2-1.3 3.1-1.7.3-.1.4-.4.4-.6l-.1-1 .3.8c.1.3.4.4.7.4 1-.2 2-.3 3-.3.3 0 .6-.2.6-.6v-1l.2 1.2c0 .2.2.4.5.5.9.2 1.8.4 2.6.8-.1-.4-.2-.9-.4-1.3-1.4-4-5.9-6.1-9.9-4.6-.7.2-1.4.6-2 1.1 1.1-2.8-.2-6-.2-6s-3.2 1.4-4.4 4.3c-.5 1.2-.6 2.5-.4 3.8-.5-1.2-1.4-2.2-2.4-3-2.5-1.8-6-1.3-6-1.3s.6 3.4 3.2 5.3c.4.2.7.5 1.1.6-4.2-.4-8 2.8-8.4 7-.1 1.1 0 2.2.4 3.3l.6 1.2c.4-.8.9-1.6 1.5-2.2.2-.2.2-.4.1-.7l-.6-1.1.7.7c.2.2.6.2.8 0 .8-.7 1.6-1.2 2.5-1.7.3-.1.4-.4.3-.7l-.3-.8.5.8c.2.2.4.4.7.2.9-.3 1.8-.5 2.7-.6-2.6 1.3-5.4 3.9-5.1 9 1.4-.2 2.8-.6 4.2-1 .5-.1.8-.4.9-.6z" fill="url(#N)"/><linearGradient id="O" gradientUnits="userSpaceOnUse" x1=".482" y1="118" x2="12.482" y2="118"><stop offset="0" stop-color="#2e59bf"/><stop offset="1" stop-color="#593192"/></linearGradient><path fill="url(#O)" d="M12.5 172.3H.5V65.9l1.8-2.1h10.2z"/><path d="M2.5 172.3h-2V65.8l2-2.1zm0-108.5h12v2h-12z" class="N P"/><linearGradient id="P" gradientUnits="userSpaceOnUse" x1="4.3" y1="110" x2="44.5" y2="110"><stop offset="0" stop-color="#2e59bf"/><stop offset="1" stop-color="#593192"/></linearGradient><path d="M5.1 172.3h39.4V47.8H12.7c-6.1 33.9-8.9 65.1-8.3 93.3-.3 10.8 0 21.2.7 31.2z" fill="url(#P)"/><path d="M7.3 141.1c-.6-28.2 2.2-59.4 8.3-93.3h-2.9c-6.1 33.9-8.9 65.1-8.3 93.3-.2 10.8 0 21.2.8 31.2h2.9c-.7-10.1-1-20.5-.8-31.2z" class="N P"/><path d="M15.1 50.8h29.4v-3h-29" class="N P"/><linearGradient id="Q" gradientUnits="userSpaceOnUse" x1="34.325" y1="42.321" x2="35.985" y2="42.321"><stop offset="0" stop-color="#2e59bf"/><stop offset="1" stop-color="#593192"/></linearGradient><use xlink:href="#AD" fill="url(#Q)"/><use xlink:href="#AD" class="N U"/><g class="Q"><path d="M35.5 33.7v4.2h.3v-4.2z"/><use xlink:href="#AE" class="N T"/><use xlink:href="#AE" x="11" class="N T"/><use xlink:href="#AE" x="22" class="N T"/><use xlink:href="#AF" class="N T"/><use xlink:href="#AF" x="11" class="N T"/><use xlink:href="#AF" x="22" class="N T"/><use xlink:href="#AG" class="N T"/><use xlink:href="#AG" x="11" class="N T"/><use xlink:href="#AG" x="22" class="N T"/><path d="M186.5 163.8h9v3h-9zm0-10.9h9.2v2.7h-9.2zm0 5h9.2v2.7h-9.2zm-14.4-9.9h11.2v2.7h-11.2zm0 5h11.2v2.7h-11.2zm.4 4.8h11v3h-11zm0 6h11v3h-11zm0-26h11v3h-11zm-.4 5.1h11.2v2.7h-11.2z" class="N O"/></g><linearGradient id="R" gradientUnits="userSpaceOnUse" x1="150.85" y1="150.89" x2="176.525" y2="150.89"><stop offset="0" stop-color="#451088"/><stop offset="1" stop-color="#593179"/></linearGradient><path d="M176.6 172.5v-42.1c-2-.6-7.3-1.1-13.5-1.1-5.1 0-9.6.3-12.1.8v42.4h25.6z" fill="url(#R)"/><path d="M150.9 130c2.6-.5 7-.8 12.1-.8 6.2 0 11.4.4 13.5 1.1v.4c-2.6-.6-7.7-.9-13.5-.9-4 0-8.1.2-12.1.7v-.5z" class="N P"/><path d="M162.2 129.3h.9v43.2h-12.2V130c2.3-.4 6.5-.7 11.3-.7z" class="N O"/><path d="M150.9 133.6c2.6-.5 7-.8 12.1-.8 6.2 0 11.4.4 13.5 1.1v.4c-2.6-.6-7.7-.9-13.5-.9-4 0-8.1.2-12.1.7v-.5zm0 4.4c2.6-.5 7-.8 12.1-.8 6.2 0 11.4.5 13.5 1.1v.4c-2.6-.6-7.7-.9-13.5-.9-4 0-8.1.2-12.1.7v-.5zm0 4.4c2.6-.5 7-.8 12.1-.8 6.2 0 11.4.4 13.5 1.1v.4c-2.6-.6-7.7-1-13.5-1-4 0-8.1.2-12.1.7v-.4zm0 4.4c2.6-.5 7-.8 12.1-.8 6.2 0 11.4.5 13.5 1.1v.4c-2.6-.6-7.7-.9-13.5-.9-4 0-8.1.2-12.1.7v-.5zm0 4.5c2.6-.5 7-.8 12.1-.8 6.2 0 11.4.4 13.5 1.1v.4c-2.6-.6-7.7-.9-13.5-.9-4 0-8.1.2-12.1.7v-.5zm0 4.4c2.6-.5 7-.8 12.1-.8 6.2 0 11.4.5 13.5 1.1v.4c-2.6-.6-7.7-.9-13.5-.9-4 0-8.1.2-12.1.7v-.5zm0 4.5c2.6-.5 7-.8 12.1-.8 6.2 0 11.4.4 13.5 1.1v.4c-2.6-.6-7.7-1-13.5-1-4 0-8.1.2-12.1.7v-.4zm0 4.9c2.6-.5 7-.8 12.1-.8 6.2 0 11.4.4 13.5 1.1v.4c-2.6-.6-7.7-.9-13.5-.9-4 0-8.1.2-12.1.7v-.5zm0 4.4c2.6-.5 7-.8 12.1-.8 6.2 0 11.4.4 13.5 1.1v.4c-2.6-.6-7.7-.9-13.5-.9-4 0-8.1.2-12.1.7v-.5z" class="N R"/><path d="M176.5 172.7v-42.1c-2-.6-7.4-1.1-13.7-1.1-5.1 0-9.7.3-12.3.8v42.4h26z" class="N O"/><linearGradient id="S" gradientUnits="userSpaceOnUse" x1="158.5" y1="130.294" x2="135.5" y2="130.294"><stop offset="0" stop-color="#451088"/><stop offset="1" stop-color="#593179"/></linearGradient><path d="M135.5 149.8v-37.9c1.8-.6 6.6-1 12.1-1 4.6 0 8.6.3 10.8.7v38.2h-22.9z" fill="url(#S)"/><path d="M158.5 114.8c-2.3-.4-6.3-.7-10.9-.7-5.6 0-10.3.4-12.2 1v.4c2.4-.5 7-.8 12.2-.8 3.6 0 7.3.2 10.9.6v-.5zm0 4c-2.3-.4-6.3-.7-10.9-.7-5.6 0-10.3.4-12.2 1v.4c2.4-.5 7-.8 12.2-.8 3.6 0 7.3.2 10.9.6v-.5z" class="N R"/><path d="M158.5 111.6c-2.3-.4-6.3-.7-10.9-.7-5.6 0-10.3.4-12.2 1v.4c2.4-.5 7-.8 12.2-.8 3.6 0 7.3.2 10.9.6v-.5z" class="N P"/><path d="M158.5 122.8c-2.3-.4-6.3-.7-10.9-.7-5.6 0-10.3.4-12.2 1v.4c2.4-.5 7-.8 12.2-.8 3.6 0 7.3.2 10.9.6v-.5zm0 4c-2.3-.4-6.3-.7-10.9-.7-5.6 0-10.3.4-12.2 1v.4c2.4-.5 7-.8 12.2-.8 3.6 0 7.3.2 10.9.6v-.5zm0 4.1c-2.3-.4-6.3-.7-10.9-.7-5.6 0-10.3.4-12.2 1v.4c2.4-.5 7-.8 12.2-.8 3.6 0 7.3.2 10.9.6v-.5z" class="N R"/><path d="M158.5 135c-2.3-.4-6.3-.7-10.9-.7-5.6 0-10.3.4-12.2 1v.4c2.4-.5 7-.8 12.2-.8 3.6 0 7.3.2 10.9.6v-.5zm0 4c-2.3-.4-6.3-.7-10.9-.7-5.6 0-10.3.4-12.2 1v.4c2.4-.5 7-.8 12.2-.8 3.6 0 7.3.2 10.9.6v-.5zm0 4c-2.3-.4-6.3-.7-10.9-.7-5.6 0-10.3.4-12.2 1v.4c2.4-.5 7-.8 12.2-.8 3.6 0 7.3.2 10.9.6v-.5zm0 4.1c-2.3-.4-6.3-.7-10.9-.7-5.6 0-10.3.4-12.2 1v.4c2.4-.5 7-.8 12.2-.8 3.6 0 7.3.2 10.9.6v-.5z" class="N O Q"/><linearGradient id="T" gradientUnits="userSpaceOnUse" x1="137.669" y1="124.745" x2="138.476" y2="124.745"><stop offset="0" stop-color="#451088"/><stop offset="1" stop-color="#593179"/></linearGradient><path fill="url(#T)" d="M137.8 119.1l.7.2v11.1h-.8z"/><path d="M137.8 119.1l.7.2v11.1h-.8z" opacity=".35" class="N"/><linearGradient id="U" gradientUnits="userSpaceOnUse" x1="137.803" y1="126.124" x2="115.967" y2="126.124"><stop offset="0" stop-color="#451088"/><stop offset="1" stop-color="#593179"/></linearGradient><path fill="url(#U)" d="M116 124.2l21.8-5.1v11.3l-21.8 2.8z"/><linearGradient id="V" gradientUnits="userSpaceOnUse" x1="137.963" y1="122.065" x2="115.887" y2="122.065"><stop offset="0" stop-color="#451088"/><stop offset="1" stop-color="#593179"/></linearGradient><use xlink:href="#AH" fill="url(#V)"/><linearGradient id="W" gradientUnits="userSpaceOnUse" x1="137.843" y1="121.785" x2="116.007" y2="121.785"><stop offset="0" stop-color="#451088"/><stop offset="1" stop-color="#593179"/></linearGradient><path fill="url(#W)" d="M137.8 119.3v-.2l-21.8 5.1v.3z"/><use xlink:href="#AH" class="N P"/><path d="M137.8 119.3v-.2l-21.8 5.1v.3z" class="N R"/><linearGradient id="X" gradientUnits="userSpaceOnUse" x1="137.963" y1="126.244" x2="115.887" y2="126.244"><stop offset="0" stop-color="#451088"/><stop offset="1" stop-color="#593179"/></linearGradient><path fill="url(#X)" d="M115.9 128.7v.3l22.1-5.2v-.4z"/><linearGradient id="Y" gradientUnits="userSpaceOnUse" x1="137.843" y1="125.944" x2="116.007" y2="125.944"><stop offset="0" stop-color="#451088"/><stop offset="1" stop-color="#593179"/></linearGradient><use xlink:href="#AI" fill="url(#Y)"/><path d="M115.9 128.7v.3l22.1-5.2v-.4z" class="N O"/><use xlink:href="#AI" class="N S"/><linearGradient id="Z" gradientUnits="userSpaceOnUse" x1="137.963" y1="122.064" x2="115.887" y2="122.064"><stop offset="0" stop-color="#451088"/><stop offset="1" stop-color="#593179"/></linearGradient><use xlink:href="#AH" y="8.8" fill="url(#Z)"/><use xlink:href="#AI" y="4.6" fill="url(#Y)"/><g class="Q"><use xlink:href="#AH" y="8.8" class="N O"/><use xlink:href="#AI" y="4.6" class="S"/></g><linearGradient id="a" gradientUnits="userSpaceOnUse" x1="156.439" y1="142.971" x2="129.084" y2="142.971"><stop offset="0" stop-color="#451088"/><stop offset="1" stop-color="#593179"/></linearGradient><path d="M129.1 162.7v-38.4c2.1-.6 7.8-1 14.4-1 5.4 0 10.2.3 12.9.7v38.7h-27.3z" fill="url(#a)"/><path d="M156.4 124c-2.7-.4-7.5-.7-12.9-.7-6.6 0-12.2.4-14.4 1v.4c2.8-.5 8.2-.8 14.4-.8 4.3 0 8.6.2 12.9.6v-.5z" class="N P"/><path d="M144.4 123.2h-.9v39.4h13V124c-2.6-.5-7.1-.8-12.1-.8z" class="N O"/><path d="M156.4 127.1c-2.7-.4-7.5-.7-12.9-.7-6.6 0-12.2.4-14.4 1v.4c2.8-.5 8.2-.8 14.4-.8 4.3 0 8.6.2 12.9.6v-.5zm0 4.1c-2.7-.4-7.5-.7-12.9-.7-6.6 0-12.2.4-14.4 1v.4c2.8-.5 8.2-.8 14.4-.8 4.3 0 8.6.2 12.9.6v-.5z" class="N R"/><path d="M156.4 135.2c-2.7-.4-7.5-.7-12.9-.7-6.6 0-12.2.4-14.4 1v.4c2.8-.5 8.2-.8 14.4-.8 4.3 0 8.6.2 12.9.6v-.5zm0 4c-2.7-.4-7.5-.7-12.9-.7-6.6 0-12.2.4-14.4 1v.4c2.8-.5 8.2-.8 14.4-.8 4.3 0 8.6.2 12.9.6v-.5zm0 4.1c-2.7-.4-7.5-.7-12.9-.7-6.6 0-12.2.4-14.4 1v.4c2.8-.5 8.2-.8 14.4-.8 4.3 0 8.6.2 12.9.6v-.5zm0 4.1c-2.7-.4-7.5-.7-12.9-.7-6.6 0-12.2.4-14.4 1v.4c2.8-.5 8.2-.8 14.4-.8 4.3 0 8.6.2 12.9.6v-.5zm0 4c-2.7-.4-7.5-.7-12.9-.7-6.6 0-12.2.4-14.4 1v.4c2.8-.5 8.2-.8 14.4-.8 4.3 0 8.6.2 12.9.6v-.5zm0 4c-2.7-.4-7.5-.7-12.9-.7-6.6 0-12.2.4-14.4 1v.4c2.8-.5 8.2-.8 14.4-.8 4.3 0 8.6.2 12.9.6v-.5zm0 4.1c-2.7-.4-7.5-.7-12.9-.7-6.6 0-12.2.4-14.4 1v.4c2.8-.5 8.2-.8 14.4-.8 4.3 0 8.6.2 12.9.6v-.5z" class="N O Q"/><linearGradient id="b" gradientUnits="userSpaceOnUse" x1="142.324" y1="132.963" x2="143.607" y2="132.963"><stop offset="0" stop-color="#451088"/><stop offset="1" stop-color="#593179"/></linearGradient><path fill="url(#b)" d="M142.5 127.7l1.1.3v10.2h-1.3z"/><path d="M142.5 127.7l1.1.3v10.2h-1.3z" opacity=".35" class="N"/><linearGradient id="c" gradientUnits="userSpaceOnUse" x1="142.522" y1="134.243" x2="107.928" y2="134.243"><stop offset="0" stop-color="#451088"/><stop offset="1" stop-color="#593179"/></linearGradient><path fill="url(#c)" d="M107.9 132.4l34.6-4.7v10.5l-34.6 2.6z"/><linearGradient id="d" gradientUnits="userSpaceOnUse" x1="142.802" y1="130.523" x2="107.769" y2="130.523"><stop offset="0" stop-color="#451088"/><stop offset="1" stop-color="#593179"/></linearGradient><use xlink:href="#AJ" fill="url(#d)"/><linearGradient id="e" gradientUnits="userSpaceOnUse" x1="142.602" y1="130.224" x2="107.969" y2="130.224"><stop offset="0" stop-color="#451088"/><stop offset="1" stop-color="#593179"/></linearGradient><path fill="url(#e)" d="M142.6 128v-.3l-34.6 4.7v.3z"/><use xlink:href="#AJ" class="N P"/><path d="M142.6 128v-.3l-34.6 4.7v.3z" class="N R"/><linearGradient id="f" gradientUnits="userSpaceOnUse" x1="142.802" y1="134.383" x2="107.769" y2="134.383"><stop offset="0" stop-color="#451088"/><stop offset="1" stop-color="#593179"/></linearGradient><path fill="url(#f)" d="M107.8 136.6v.4l35-4.9v-.3z"/><linearGradient id="g" gradientUnits="userSpaceOnUse" x1="142.602" y1="134.103" x2="107.969" y2="134.103"><stop offset="0" stop-color="#451088"/><stop offset="1" stop-color="#593179"/></linearGradient><path fill="url(#g)" d="M142.6 131.8v-.2l-34.6 4.7v.3z"/><path d="M107.8 136.6v.4l35-4.9v-.3z" class="N O"/><path d="M142.6 131.8v-.2l-34.6 4.7v.3z" class="N S"/><linearGradient id="h" gradientUnits="userSpaceOnUse" x1="142.802" y1="130.542" x2="107.769" y2="130.542"><stop offset="0" stop-color="#451088"/><stop offset="1" stop-color="#593179"/></linearGradient><use xlink:href="#AJ" y="8.1" fill="url(#h)"/><linearGradient id="i" gradientUnits="userSpaceOnUse" x1="142.602" y1="138.362" x2="107.969" y2="138.362"><stop offset="0" stop-color="#451088"/><stop offset="1" stop-color="#593179"/></linearGradient><path fill="url(#i)" d="M142.6 136.1v-.2l-34.6 4.7v.2z"/><use xlink:href="#AJ" y="8.1" class="N O"/><path d="M142.6 136.1v-.2l-34.6 4.7v.2z" class="N S"/><linearGradient id="j" gradientUnits="userSpaceOnUse" x1="148.602" y1="154.909" x2="149.47" y2="154.909"><stop offset="0" stop-color="#451088"/><stop offset="1" stop-color="#593179"/></linearGradient><path fill="url(#j)" d="M149 137.4h-.4l.4 35.1h.5z"/><path d="M149 137.4h-.4l.4 35.1h.5z" class="N R"/><linearGradient id="k" gradientUnits="userSpaceOnUse" x1="158.518" y1="152.569" x2="130.444" y2="152.569"><stop offset="0" stop-color="#451088"/><stop offset="1" stop-color="#593179"/></linearGradient><use xlink:href="#AK" fill="url(#k)"/><path d="M158.4 133.4c-2.8-.4-7.7-.7-13.2-.7-6.8 0-12.5.4-14.7 1v.4c2.9-.5 8.4-.9 14.8-.9 4.4 0 8.8.2 13.2.6l-.1-.4z" class="N P"/><path d="M146.1 132.6h-1v39.8h13.3v-39.1c-2.5-.3-7-.7-12.3-.7z" class="N O"/><path d="M158.4 136.6c-2.8-.4-7.7-.7-13.2-.7-6.8 0-12.5.4-14.7 1v.4c2.9-.5 8.4-.9 14.8-.9 4.4 0 8.8.2 13.2.6l-.1-.4zm0 4.1c-2.8-.4-7.7-.7-13.2-.7-6.8 0-12.5.4-14.7 1v.4c2.9-.5 8.4-.9 14.8-.9 4.4 0 8.8.2 13.2.6l-.1-.4zm0 4.1c-2.8-.4-7.7-.7-13.2-.7-6.8 0-12.5.4-14.7 1v.4c2.9-.5 8.4-.9 14.8-.9 4.4 0 8.8.2 13.2.6l-.1-.4zm0 4c-2.8-.4-7.7-.7-13.2-.7-6.8 0-12.5.4-14.7 1v.4c2.9-.5 8.4-.9 14.8-.9 4.4 0 8.8.2 13.2.6l-.1-.4zm0 4.1c-2.8-.4-7.7-.7-13.2-.7-6.8 0-12.5.4-14.7 1v.4c2.9-.5 8.4-.9 14.8-.9 4.4 0 8.8.2 13.2.6l-.1-.4zm0 4.1c-2.8-.4-7.7-.7-13.2-.7-6.8 0-12.5.4-14.7 1v.4c2.9-.5 8.4-.9 14.8-.9 4.4 0 8.8.2 13.2.6l-.1-.4zm0 4.1c-2.8-.4-7.7-.7-13.2-.7-6.8 0-12.5.4-14.7 1v.4c2.9-.5 8.4-.9 14.8-.9 4.4 0 8.8.2 13.2.6l-.1-.4zm0 4.6c-2.8-.4-7.7-.7-13.2-.7-6.8 0-12.5.4-14.7 1v.4c2.9-.5 8.4-.8 14.8-.8 4.4 0 8.8.2 13.2.6l-.1-.5zm0 4.1c-2.8-.4-7.7-.7-13.2-.7-6.8 0-12.5.4-14.7 1v.4c2.9-.5 8.4-.9 14.8-.9 4.4 0 8.8.2 13.2.6l-.1-.4z" class="N R"/><use xlink:href="#AK" class="N O"/><linearGradient id="l" gradientUnits="userSpaceOnUse" x1="149.5" y1="155.403" x2="96.46" y2="155.403"><stop offset="0" stop-color="#451088"/><stop offset="1" stop-color="#593179"/></linearGradient><path d="M149.1 138.1l-52.6 3.8v30.9h53l-.4-34.7zm-7.6 23.6l-11 1.3v-17.7l11-.8v17.2z" fill="url(#l)"/><linearGradient id="m" gradientUnits="userSpaceOnUse" x1="149" y1="139.482" x2="96.171" y2="139.482"><stop offset="0" stop-color="#451088"/><stop offset="1" stop-color="#593179"/></linearGradient><path fill="url(#m)" d="M149 137.8v-.5l-52.8 3.9v.4z"/><linearGradient id="n" gradientUnits="userSpaceOnUse" x1="149.2" y1="139.942" x2="95.931" y2="139.942"><stop offset="0" stop-color="#451088"/><stop offset="1" stop-color="#593179"/></linearGradient><path fill="url(#n)" d="M149.2 138.2v-.4l-53.3 3.9v.4z"/><path d="M149 137.8v-.5l-52.8 3.9v.4z" class="N R"/><path d="M149.2 138.2v-.4l-53.3 3.9v.4z" class="N P"/><linearGradient id="o" gradientUnits="userSpaceOnUse" x1="149.04" y1="145.041" x2="96.45" y2="145.041"><stop offset="0" stop-color="#451088"/><stop offset="1" stop-color="#593179"/></linearGradient><path fill="url(#o)" d="M149 143.4v-.5l-52.5 3.9v.4z"/><linearGradient id="p" gradientUnits="userSpaceOnUse" x1="149.24" y1="145.501" x2="96.498" y2="145.501"><stop offset="0" stop-color="#451088"/><stop offset="1" stop-color="#593179"/></linearGradient><path fill="url(#p)" d="M149.2 143.8v-.5l-52.7 3.9v.5z"/><path d="M149 143.4v-.5l-52.5 3.9v.4z" class="N S"/><path d="M149.2 143.8v-.5l-52.7 3.9v.5z" class="N O"/><g class="V"><path d="M141.9 156.3l7.1-.6v-.4l-7.1.5"/><path d="M141.9 156.7l7.3-.5v-.5l-7.3.6"/></g><path d="M149 155.3l-7.1.5v.5l7.1-.6z" class="N S"/><path d="M141.9 156.7l7.3-.5v-.5l-7.3.6" class="N O"/><linearGradient id="q" gradientUnits="userSpaceOnUse" x1="149.04" y1="163.687" x2="96.498" y2="163.687"><stop offset="0" stop-color="#451088"/><stop offset="1" stop-color="#593179"/></linearGradient><path fill="url(#q)" d="M149 161.7v-.4l-52.5 4.3v.5z"/><linearGradient id="r" gradientUnits="userSpaceOnUse" x1="149.24" y1="164.147" x2="96.45" y2="164.147"><stop offset="0" stop-color="#451088"/><stop offset="1" stop-color="#593179"/></linearGradient><path fill="url(#r)" d="M149.2 162.7v-1l-52.7 4.4v.5z"/><path d="M149 161.7v-.4l-52.5 4.3v.5z" class="N S"/><path d="M149.2 162.7v-1l-52.7 4.4v.5z" class="N O"/><linearGradient id="s" gradientUnits="userSpaceOnUse" x1="149.04" y1="169.936" x2="96.45" y2="169.936"><stop offset="0" stop-color="#451088"/><stop offset="1" stop-color="#593179"/></linearGradient><path fill="url(#s)" d="M149 168.2v-.4l-52.5 3.8v.5z"/><linearGradient id="t" gradientUnits="userSpaceOnUse" x1="149.24" y1="170.356" x2="96.402" y2="170.356"><stop offset="0" stop-color="#451088"/><stop offset="1" stop-color="#593179"/></linearGradient><path fill="url(#t)" d="M149.2 168.7v-.5l-52.8 3.9v.4z"/><path d="M149 168.2v-.4l-52.5 3.8v.5z" class="N S"/><path d="M149.2 168.7v-.5l-52.7 3.9v.4z" class="N O"/><g class="V"><path d="M141.9 150.3l7.1-.5v-.5l-7.1.5"/><path d="M141.9 150.8l7.3-.6v-.5l-7.3.6"/></g><path d="M149 149.3l-7.1.5v.5l7.1-.5z" class="N S"/><path d="M141.9 150.8l7.3-.6v-.5l-7.3.6" class="N O"/><linearGradient id="u" gradientUnits="userSpaceOnUse" x1="130.604" y1="151.719" x2="96.402" y2="151.719"><stop offset="0" stop-color="#451088"/><stop offset=".09" stop-color="#481486"/><stop offset=".64" stop-color="#54297c"/><stop offset="1" stop-color="#593179"/></linearGradient><use xlink:href="#AL" fill="url(#u)"/><linearGradient id="v" gradientUnits="userSpaceOnUse" x1="130.904" y1="152.179" x2="96.498" y2="152.179"><stop offset="0" stop-color="#451088"/><stop offset=".09" stop-color="#481486"/><stop offset=".64" stop-color="#54297c"/><stop offset="1" stop-color="#593179"/></linearGradient><path fill="url(#v)" d="M130.9 150.7l-34.4 2.5v.5l34.4-2.6"/><use xlink:href="#AL" x="0.1" class="N S"/><path d="M131 150.7l-34.5 2.5v.5l34.5-2.6" class="N O"/><linearGradient id="w" gradientUnits="userSpaceOnUse" x1="130.604" y1="151.718" x2="96.402" y2="151.718"><stop offset="0" stop-color="#451088"/><stop offset=".09" stop-color="#481486"/><stop offset=".64" stop-color="#54297c"/><stop offset="1" stop-color="#593179"/></linearGradient><use xlink:href="#AL" y="6.4" fill="url(#w)"/><linearGradient id="x" gradientUnits="userSpaceOnUse" x1="130.804" y1="158.578" x2="96.355" y2="158.578"><stop offset="0" stop-color="#451088"/><stop offset=".09" stop-color="#481486"/><stop offset=".64" stop-color="#54297c"/><stop offset="1" stop-color="#593179"/></linearGradient><path fill="url(#x)" d="M130.8 157.1l-34.4 2.5v.5l34.4-2.6"/><use xlink:href="#AL" x="0.1" y="6.4" class="N S"/><path d="M131 157.1l-34.5 2.5v.5l34.5-2.6" class="N O"/><path d="M129.1 163.2v-17.9l1.7-.1v17.9z" class="N P"/><g class="Q"><path d="M148.9 115.8h5.7c.2 0 .4.2.4.4v.1c0 .2-.2.4-.4.4h-5.7c-.2 0-.4-.2-.4-.4v-.1c0-.2.2-.4.4-.4z" class="N O"/><path d="M149.1 116h5.2c.1 0 .2.1.2.2s-.1.2-.2.2h-5.2c-.1 0-.2-.1-.2-.2s.1-.2.2-.2z" opacity=".15"/></g><linearGradient id="y" gradientUnits="userSpaceOnUse" x1="199.75" y1="155.269" x2="170.052" y2="155.269"><stop offset="0" stop-color="#2e3192"/><stop offset="1" stop-color="#2f0b81"/></linearGradient><path d="M190.1 160.6c-.1-.3-.1-.6 0-1l.5-1.2-1 1.3c-.4.5-1.1.6-1.6.3s-1.1-.7-1.7-1c-.6-.4-.7-1.1-.4-1.6 0 0 0-.1.1-.1l.2-.2-.2.1c-.3.2-.7.2-1 .1-.4-.1-.6-.4-.7-.7l-.1-.4c-3.2 4.9-5.8 10.7-7.6 16.3h-4.4c2.4-6.2 6-12.4 10.6-17.2l-.3.3c-.5.4-1.2.4-1.7-.1 0 0-.1-.1-.1-.2l-.1-.2v.3c.1.6-.3 1.3-.9 1.4h-.1c-.7 0-1.4.1-2 .2-.6 0-1.2-.4-1.3-1l-.3-1.6-.1 1.2c0 .7-.6 1.2-1.3 1.1h-.1c-1.4-.2-2.8-.6-4.2-1 2.6-6.2 8.3-6.1 11.1-5.5-.9-.8-2-1.3-3.1-1.7-.3-.1-.4-.4-.4-.6l.1-.9-.3.8c-.1.3-.4.4-.7.4-1-.2-2-.3-3-.3-.3 0-.6-.2-.6-.6v-1l-.2 1.2c0 .2-.2.4-.5.5-.9.2-1.8.4-2.6.8.1-.4.2-.9.4-1.3 1.4-4 5.9-6.1 9.9-4.6.7.2 1.4.6 2 1.1-1.1-2.8.2-6 .2-6s3.2 1.4 4.4 4.3c.5 1.2.6 2.5.4 3.8.5-1.2 1.4-2.2 2.4-3 2.5-1.8 6-1.3 6-1.3s-.6 3.4-3.1 5.3c-.4.2-.7.5-1.1.6 4.2-.4 8 2.8 8.3 7 .1 1.1 0 2.2-.4 3.3l-.6 1.2c-.4-.8-.9-1.6-1.5-2.2-.2-.2-.2-.4-.1-.7l.6-1.1-.7.7c-.2.2-.6.2-.8 0-.8-.7-1.6-1.2-2.5-1.7-.3-.1-.4-.4-.3-.7l.3-.8-.5.8c-.2.2-.4.4-.7.2-.9-.3-1.8-.5-2.7-.6 2.6 1.3 5.4 4.4 5.1 9.5-1.4-.2-2.8-1.1-4.2-1.5-.4 0-.7-.2-.8-.5z" fill="url(#y)"/><defs><path id="z" d="M17.5 55.1s-5.5 34.7-7.2 61.2c-1.7 26.8-.2 55.9-.2 55.9h38.4v-116l-31-1.1z"/><path id="AA" d="M180.6 46.3v-3.9h-.1c-.1 0-.2-.1-.2-.3s.1-.3.2-.3h.4v-9.6h.4v9.6h.4c.1 0 .2.1.2.3s-.1.3-.2.3h-.1v3.9"/><path id="AB" d="M174.4 46.3v-5.2h-.1c-.1 0-.3-.2-.3-.4s.1-.4.3-.4h.5V27.5h.5v12.8h.5c.1 0 .3.2.3.4s-.1.4-.3.4h-.1v5.2"/><path id="AC" d="M170.3 136.9h-6c-.2 0-.4-.2-.4-.4s.2-.4.4-.4h6c.2 0 .4.2.4.4-.1.2-.2.4-.4.4z"/><path id="AD" d="M35.4 44.2v-7.5h-.5v7.5h-.6v3.7H36v-3.7z"/><path id="AE" d="M45.5 105.8h8v3h-8zm0 5h8v3h-8zm0 5h8v3h-8zm0-20h8v3h-8zm0 5h8v3h-8z"/><path id="AF" d="M45.5 130.8h8v3h-8zm0 5h8v3h-8zm0 6h8v3h-8zm0-21h8v3h-8zm0 5h8v3h-8z"/><path id="AG" d="M45.5 156.8h8v3h-8zm0 5h8v3h-8zm0-15h8v3h-8zm0 5h8v3h-8z"/><path id="AH" d="M115.9 124.5v.3l22.1-5.2v-.3z"/><path id="AI" d="M137.8 123.5v-.3l-21.8 5.1v.3z"/><path id="AJ" d="M107.8 132.8v.3l35-4.8v-.3z"/><path id="AK" d="M130.4 172.5v-38.8c2.2-.6 8-1 14.8-1 5.6 0 10.5.3 13.2.7v39.1h-28z"/><path id="AL" d="M130.6 150.2l-34.2 2.6v.4l34.2-2.5z"/><path id="AM" d="M24.5 157.6v2.4h5.2c-.9-1.6-2.6-2.5-4.4-2.4h-.8z"/><path id="AN" d="M32.5 168.8h-.3s-4-.3-6.7-1.4c.2.3.5.6.8.8 1.9 1.3 5.5 1.9 6.9 2-.3-.5-.5-.9-.7-1.4z"/><path id="AO" d="M85.7 168.7c-.2.5-.5 1-.8 1.4H89s3.3-.6 3.5-1.4h-6.8z"/><path id="AP" d="M79.9 160.5c3.2 0 5.8 3.1 5.8 6.3s-2.6 5.8-5.8 5.8-5.8-2.6-5.8-5.8 2.6-6.3 5.8-6.3z"/><path id="AQ" d="M79.9 161.7c-2.5 0-4.6 2.5-4.6 5.1 0 2.5 2 4.6 4.6 4.6s4.6-2 4.6-4.6c0-2.5-2-5.1-4.6-5.1zm3.8 4.4h-2.6l1.3-2.3c.7.6 1.2 1.4 1.3 2.3zm-2.4-3l-1.3 2.3-1.3-2.3c.8-.3 1.7-.3 2.6 0zm-3.8.7l1.3 2.3h-2.6c.1-.9.5-1.7 1.3-2.3zm-1.4 3.7h2.6l-1.3 2.3c-.7-.7-1.1-1.5-1.3-2.3zm2.5 2.9l1.3-2.3 1.3 2.3c-.8.3-1.7.3-2.6 0zm3.8-.7l-1.3-2.3h2.6c-.1.9-.6 1.7-1.3 2.3z"/><path id="AR" d="M38.3 160.5c3.2 0 5.8 3.1 5.8 6.3s-2.6 5.3-5.8 5.3-5.8-2.1-5.8-5.3 2.6-6.3 5.8-6.3z"/><path id="AS" d="M86.7 160.6s4.8.9 5.2 2.1 0 1.6 0 1.6-3.6-.4-4-1.2l-1.2-2.5z"/></defs><clipPath id="AT"><use xlink:href="#z"/></clipPath><g clip-path="url(#AT)" class="N Q"><path d="M5.5 64.8h35v5h-35zm0-8h35v5h-35z" class="O"/></g><defs><path id="AU" d="M17.5 55.1s-5.5 34.7-7.2 61.2c-1.7 26.8-.2 55.9-.2 55.9h38.4v-116l-31-1.1z"/></defs><clipPath id="AV"><use xlink:href="#AU"/></clipPath><g clip-path="url(#AV)" class="N Q"><path d="M5.5 73.8h35v5h-35z" class="O"/></g><defs><path id="AW" d="M17.5 55.1s-5.5 34.7-7.2 61.2c-1.7 26.8-.2 55.9-.2 55.9h38.4v-116l-31-1.1z"/></defs><clipPath id="AX"><use xlink:href="#AW"/></clipPath><g clip-path="url(#AX)" class="N Q"><path d="M4.5 82.8h36v5h-36z" class="O"/></g><defs><path id="AY" d="M17.5 55.1s-5.5 34.7-7.2 61.2c-1.7 26.8-.2 55.9-.2 55.9h38.4v-116l-31-1.1z"/></defs><clipPath id="AZ"><use xlink:href="#AY"/></clipPath><g clip-path="url(#AZ)" class="N Q"><path d="M3.5 91.8h37v5h-37z" class="O"/></g><defs><path id="Aa" d="M17.5 55.1s-5.5 34.7-7.2 61.2c-1.7 26.8-.2 55.9-.2 55.9h38.4v-116l-31-1.1z"/></defs><clipPath id="Ab"><use xlink:href="#Aa"/></clipPath><g clip-path="url(#Ab)" class="N Q"><path d="M3.5 99.8h37v5h-37z" class="O"/></g><defs><path id="Ac" d="M17.5 55.1s-5.5 34.7-7.2 61.2c-1.7 26.8-.2 55.9-.2 55.9h38.4v-116l-31-1.1z"/></defs><clipPath id="Ad"><use xlink:href="#Ac"/></clipPath><g clip-path="url(#Ad)" class="N Q"><path d="M1.5 108.8h39v5h-39z" class="O"/></g><defs><path id="Ae" d="M17.5 55.1s-5.5 34.7-7.2 61.2c-1.7 26.8-.2 55.9-.2 55.9h38.4v-116l-31-1.1z"/></defs><clipPath id="Af"><use xlink:href="#Ae"/></clipPath><g clip-path="url(#Af)" class="N Q"><path d="M1.5 117.8h39v5h-39z" class="O"/></g><defs><path id="Ag" d="M17.5 55.1s-5.5 34.7-7.2 61.2c-1.7 26.8-.2 55.9-.2 55.9h38.4v-116l-31-1.1z"/></defs><clipPath id="Ah"><use xlink:href="#Ag"/></clipPath><g clip-path="url(#Ah)" class="N Q"><path d="M1.5 126.8h39v5h-39z" class="O"/></g><defs><path id="Ai" d="M17.5 55.1s-5.5 34.7-7.2 61.2c-1.7 26.8-.2 55.9-.2 55.9h38.4v-116l-31-1.1z"/></defs><clipPath id="Aj"><use xlink:href="#Ai"/></clipPath><g clip-path="url(#Aj)" class="N Q"><path d="M1.5 135.8h39v5h-39z" class="O"/></g><defs><path id="Ak" d="M17.5 55.1s-5.5 34.7-7.2 61.2c-1.7 26.8-.2 55.9-.2 55.9h38.4v-116l-31-1.1z"/></defs><clipPath id="Al"><use xlink:href="#Ak"/></clipPath><g clip-path="url(#Al)" class="N Q"><path d="M1.5 143.8h39v5h-39z" class="O"/></g><defs><path id="Am" d="M17.5 55.1s-5.5 34.7-7.2 61.2c-1.7 26.8-.2 55.9-.2 55.9h38.4v-116l-31-1.1z"/></defs><clipPath id="An"><use xlink:href="#Am"/></clipPath><g clip-path="url(#An)" class="N Q"><path d="M1.5 152.8h39v5h-39z" class="O"/></g><defs><path id="Ao" d="M17.9 55.3s-5.5 34.7-7.2 61.2c-1.7 26.8-.2 55.9-.2 55.9h38.4v-116l-31-1.1z"/></defs><clipPath id="Ap"><use xlink:href="#Ao"/></clipPath><g clip-path="url(#Ap)" class="N Q"><path d="M1.3 161.5h39v5.9h-39z" class="O"/></g><linearGradient id="Aq" gradientUnits="userSpaceOnUse" x1="22.818" y1="159.494" x2="93.752" y2="159.494"><stop offset="0" stop-color="#451088"/><stop offset="1" stop-color="#593179"/></linearGradient><path d="M93.1 163c-1.6-1.6-7.6-6.9-18-6.5 0 .2-10.8-6.1-21.1-6.4s-17.2 1.6-23.9 4.4l-6.4 1.6.4 1.2v3.2l-1.2.8s-.8 4.1 1.6 5.7 7.6 2 7.6 2h.4c-1.2-3.2.4-7.3 3.6-8.5s6.8.9 8 4.1c.6 1.4.6 3 0 4.4H74c-1.2-3.2.4-7.3 3.6-8.5s6.8.9 8 4.1c.6 1.4.6 3 0 4.4h7.2c-.1-.1 1.9-4.5.3-6z" fill="url(#Aq)"/><path d="M93.1 163c-1.5-1.5-7-6.4-16.4-6.5 7 1.2 11.1 5.1 12.4 6.4 1.4 1.5.1 5.1-.3 6.1h4c-.1-.1 1.9-4.5.3-6zm-66.2-1.4c0-2.7 1.5-5.3 4.2-7.6l-1 .4-6.4 1.6.4 1.2v3.2l-1.2.8s-.8 4.1 1.6 5.7c1.4.9 3.8 1.4 5.5 1.7-1.9-1.9-3.1-4.6-3.1-7z" class="N O"/><use xlink:href="#AM" class="V"/><path d="M29.9 154.2l-.8.2H32s4.9-2.4 9.2-3.4c-3.9.7-7.6 1.8-11.3 3.2z" class="N P Q"/><use xlink:href="#AM" class="N R"/><linearGradient id="Ar" gradientUnits="userSpaceOnUse" x1="25.465" y1="168.736" x2="33.183" y2="168.736"><stop offset="0" stop-color="#451088"/><stop offset="1" stop-color="#593179"/></linearGradient><use xlink:href="#AN" fill="url(#Ar)"/><use xlink:href="#AN" class="N P"/><linearGradient id="As" gradientUnits="userSpaceOnUse" x1="43.621" y1="169.436" x2="74.655" y2="169.436"><stop offset="0" stop-color="#451088"/><stop offset="1" stop-color="#593179"/></linearGradient><path d="M43.6 170.1h31c-.3-.4-.5-.9-.7-1.4H44.1" fill="url(#As)"/><path d="M73.9 168.7H44.1l-.5 1.4h31c-.3-.4-.5-.8-.7-1.4z" class="N P"/><linearGradient id="At" gradientUnits="userSpaceOnUse" x1="84.871" y1="169.436" x2="92.55" y2="169.436"><stop offset="0" stop-color="#451088"/><stop offset="1" stop-color="#593179"/></linearGradient><use xlink:href="#AO" fill="url(#At)"/><use xlink:href="#AO" class="N P"/><g class="U"><linearGradient id="Au" gradientUnits="userSpaceOnUse" x1="54.979" y1="162.591" x2="72.157" y2="162.591"><stop offset="0" stop-color="#451088"/><stop offset="1" stop-color="#593179"/></linearGradient><path d="M71.9 158.4v-.4L55 156.9c.6 2.4.9 5.5.8 8 0 1.2 0 2.2-.2 3.3l15.8.2c1.3-5.6.5-10 .5-10z" fill="url(#Au)"/><linearGradient id="Av" gradientUnits="userSpaceOnUse" x1="40.182" y1="162.007" x2="55.442" y2="162.007"><stop offset="0" stop-color="#451088"/><stop offset="1" stop-color="#593179"/></linearGradient><path d="M55.4 164.9c0-2.5-.2-5.5-.8-8l-14.4-.9c2.8 4.8 5.7 10.6 7.6 12.1l7.5.1c.1-1.1.1-2.2.1-3.3z" fill="url(#Av)"/></g><linearGradient id="Aw" gradientUnits="userSpaceOnUse" x1="74.135" y1="166.526" x2="85.733" y2="166.526"><stop offset="0" stop-color="#451088"/><stop offset="1" stop-color="#593179"/></linearGradient><use xlink:href="#AP" fill="url(#Aw)"/><use xlink:href="#AP" x="0.1" y="-0.1" class="N P"/><linearGradient id="Ax" gradientUnits="userSpaceOnUse" x1="75.385" y1="166.526" x2="84.479" y2="166.526"><stop offset="0" stop-color="#451088"/><stop offset="1" stop-color="#593179"/></linearGradient><use xlink:href="#AQ" fill="url(#Ax)"/><circle cx="79.9" cy="166.8" r=".6" class="N U"/><path d="M37.5 153.8s8-3.6 16.4-2.8 12.4 2.4 18 6v.8l-31.6-1.9c-1.2-.4-2.2-1.1-2.8-2.1z" class="Q R"/><path d="M43.1 157.6h2.8v.4h-2.8zm14.2.4h2.8v.4h-2.8z" opacity=".5"/><path d="M88.7 164.7c.1 1.1.1 2 .8 2.8h2.8s0-1.2-.8-1.6-2.8-1.2-2.8-1.2z" class="N P"/><linearGradient id="Ay" gradientUnits="userSpaceOnUse" x1="32.544" y1="166.276" x2="44.141" y2="166.276"><stop offset="0" stop-color="#451088"/><stop offset="1" stop-color="#593179"/></linearGradient><use xlink:href="#AR" fill="url(#Ay)"/><use xlink:href="#AR" x="0.1" y="-0.1" class="N P"/><linearGradient id="Az" gradientUnits="userSpaceOnUse" x1="75.393" y1="166.526" x2="84.488" y2="166.526"><stop offset="0" stop-color="#451088"/><stop offset="1" stop-color="#593179"/></linearGradient><use xlink:href="#AQ" x="-41.6" fill="url(#Az)"/><circle cx="38.3" cy="166.8" r=".6" class="N U"/><path d="M24.3 166.5H26c-.3-.7-.8-1.4-1.2-2-.3-.3-1.2-.4-1.6-.4 0 1 .4 1.8 1.1 2.4z" class="N U"/><path d="M88.7 164.7c.1 1.1.1 2 .8 2.8h.8c-.6-.7-.7-1.5-.8-2.5-.4-.1-.8-.3-.8-.3z" class="N R"/><path d="M73.1 156.6h2.2c-3.7-2-7.7-3.6-11.7-4.9 4 1.7 7.5 3.4 9.5 4.9z" class="N P Q"/><linearGradient id="BA" gradientUnits="userSpaceOnUse" x1="52.957" y1="153.859" x2="54.957" y2="153.859"><stop offset="0" stop-color="#451088"/><stop offset="1" stop-color="#593179"/></linearGradient><path d="M53.3 151h-.4c.8 1.8 1.4 3.8 1.6 5.8h.4c-.2-2-.7-4-1.6-5.8z" fill="url(#BA)"/><path d="M53.7 151h-.4c.9 1.8 1.4 3.8 1.7 5.8l16.7 1v-.8c-5.6-3.6-9.6-5.2-18-6z" class="N O Q"/><linearGradient id="BB" gradientUnits="userSpaceOnUse" x1="41.24" y1="154.019" x2="42.72" y2="154.019"><stop offset="0" stop-color="#451088"/><stop offset="1" stop-color="#593179"/></linearGradient><path d="M42.3 152.2c-.5 1.2-.8 2.4-1 3.7h.4c.2-1.3.6-2.6 1.1-3.9l-.5.2z" fill="url(#BB)"/><path d="M24.5 157.6v2.4h2.6l.6-1.8c-.8-.4-1.6-.6-2.4-.6h-.8z" class="N R"/><linearGradient id="BC" gradientUnits="userSpaceOnUse" x1="86.751" y1="162.487" x2="92.127" y2="162.487"><stop offset="0" stop-color="#451088"/><stop offset="1" stop-color="#593179"/></linearGradient><use xlink:href="#AS" fill="url(#BC)"/><use xlink:href="#AS" class="N R"/><path d="M89.3 163.6l-1.4-2.8h.3l-1.5-.2 1.2 2.5c.2.4 1 .6 1.8.8-.1 0-.3-.2-.4-.3z" class="N R"/><path d="M48.2 167.3c-1.8-1.4-4.5-6.7-7.1-11.3h-.9c2.8 4.8 5.7 10.6 7.6 12.1l7.5.1v-.8l-7.1-.1zm8.3 0v-.4c.1-1 .1-2 .2-3.1 0-2.2-.2-4.8-.6-6.9l-1-.1c.6 2.4.9 5.5.8 8 0 1.2 0 2.2-.2 3.3l15.8.2c0-.3.1-.5.2-.8-2.2 0-9.4-.1-15.2-.2z" class="N S"/></svg>