<svg xmlns="http://www.w3.org/2000/svg" xmlns:xlink="http://www.w3.org/1999/xlink" viewBox="0 0 200 172"><style>.F{enable-background:new}.G{opacity:.3}.H{fill:#fff}.I{opacity:.2}</style><g class="H"><path d="M63.2 169.7h1.6v1.6h-1.6zm-2.4 0h1.6v1.6h-1.6z" class="F G"/><path d="M58.4 169.7H60v1.6h-1.6z"/><path d="M56 169.7h1.6v1.6H56zm-2.4 0h1.6v1.6h-1.6zm-2.4 0h1.6v1.6h-1.6zm-2.4 0h1.6v1.6h-1.6zm-2.4 0H48v1.6h-1.6zm-2.4 0h1.6v1.6H44zm-2.4 0h1.6v1.6h-1.6z" class="F G"/><path d="M39.2 169.7h1.6v1.6h-1.6z"/><path d="M36.8 169.7h1.6v1.6h-1.6zm-2.4 0H36v1.6h-1.6zm-2.4 0h1.6v1.6H32z" class="F G"/><path d="M59.2 157.7h-4.4c-.2 0-.4-.2-.4-.4v-.4c0-.2.2-.4.4-.4h4.4c.2 0 .4.2.4.4v.4c0 .2-.2.4-.4.4z"/><path d="M59.2 153.7h-4.4c-.2 0-.4-.2-.4-.4v-.4c0-.2.2-.4.4-.4h4.4c.2 0 .4.2.4.4v.4c0 .2-.2.4-.4.4zm0-16.4h-4.4c-.2 0-.4-.2-.4-.4v-.4c0-.2.2-.4.4-.4h4.4c.2 0 .4.2.4.4v.4c0 .2-.2.4-.4.4zm-8 0h-4.4c-.2 0-.4-.2-.4-.4v-.4c0-.2.2-.4.4-.4h4.4c.2 0 .4.2.4.4v.4c0 .2-.2.4-.4.4zm-8 0h-4.4c-.2 0-.4-.2-.4-.4v-.4c0-.2.2-.4.4-.4h4.4c.2 0 .4.2.4.4v.4c0 .2-.1.4-.4.4zm16 4h-4.4c-.2 0-.4-.2-.4-.4v-.4c0-.2.2-.4.4-.4h4.4c.2 0 .4.2.4.4v.4c0 .2-.2.4-.4.4zm-8 0h-4.4c-.2 0-.4-.2-.4-.4v-.4c0-.2.2-.4.4-.4h4.4c.2 0 .4.2.4.4v.4c0 .2-.2.4-.4.4zm-8 0h-4.4c-.2 0-.4-.2-.4-.4v-.4c0-.2.2-.4.4-.4h4.4c.2 0 .4.2.4.4v.4c0 .2-.1.4-.4.4zm16 8h-4.4c-.2 0-.4-.2-.4-.4v-.4c0-.2.2-.4.4-.4h4.4c.2 0 .4.2.4.4v.4c0 .2-.2.4-.4.4z" class="F G"/><path d="M59.2 145.3h-4.4c-.2 0-.4-.2-.4-.4v-.4c0-.2.2-.4.4-.4h4.4c.2 0 .4.2.4.4v.4c0 .2-.2.4-.4.4zm-8 12.4h-4.4c-.2 0-.4-.2-.4-.4v-.4c0-.2.2-.4.4-.4h4.4c.2 0 .4.2.4.4v.4c0 .2-.2.4-.4.4z"/><path d="M51.2 153.7h-4.4c-.2 0-.4-.2-.4-.4v-.4c0-.2.2-.4.4-.4h4.4c.2 0 .4.2.4.4v.4c0 .2-.2.4-.4.4zm0-4.4h-4.4c-.2 0-.4-.2-.4-.4v-.4c0-.2.2-.4.4-.4h4.4c.2 0 .4.2.4.4v.4c0 .2-.2.4-.4.4z" class="F G"/><path d="M51.2 145.3h-4.4c-.2 0-.4-.2-.4-.4v-.4c0-.2.2-.4.4-.4h4.4c.2 0 .4.2.4.4v.4c0 .2-.2.4-.4.4zm-8 12.4h-4.4c-.2 0-.4-.2-.4-.4v-.4c0-.2.2-.4.4-.4h4.4c.2 0 .4.2.4.4v.4c0 .2-.1.4-.4.4z"/><path d="M43.2 153.7h-4.4c-.2 0-.4-.2-.4-.4v-.4c0-.2.2-.4.4-.4h4.4c.2 0 .4.2.4.4v.4c0 .2-.1.4-.4.4zm0-4.4h-4.4c-.2 0-.4-.2-.4-.4v-.4c0-.2.2-.4.4-.4h4.4c.2 0 .4.2.4.4v.4c0 .2-.1.4-.4.4z" class="F G"/><path d="M43.2 145.3h-4.4c-.2 0-.4-.2-.4-.4v-.4c0-.2.2-.4.4-.4h4.4c.2 0 .4.2.4.4v.4c0 .2-.1.4-.4.4z"/><path d="M81.1 108.6h16c.9 0 1.6.7 1.6 1.6v1.2c0 .9-.7 1.6-1.6 1.6h-16c-.9 0-1.6-.7-1.6-1.6v-1.2c0-.9.8-1.6 1.6-1.6zm-27.9 16h16c.9 0 1.6.7 1.6 1.6v1.2c0 .9-.7 1.6-1.6 1.6h-16c-.9 0-1.6-.7-1.6-1.6v-1.2c0-.9.7-1.6 1.6-1.6zm100.2-6.4h-15.1c-1.1 0-2 .9-2 2h-5.5c-1.1 0-2 .9-2 2v.3c0 1.1.9 2 2 2h15.1c1.1 0 2-.9 2-2h5.5c1.1 0 2-.9 2-2v-.3c0-1.2-.9-2-2-2z" opacity=".8"/></g><linearGradient id="A" x1="99.682" x2="99.682" y1="172.216" y2="24.681" gradientUnits="userSpaceOnUse"><stop offset="0" stop-color="#1d7ee8"/><stop offset="1" stop-color="#2ea7db"/></linearGradient><path fill="url(#A)" d="M13.3 110.4v61.8h172.8v-62.5c0-49-42-88.3-92.6-84.9-45.3 3.2-80.2 40.8-80.2 85.6z"/><path d="M13.5 104.8h16V87.2l23-22.6v57.2l29-.5V85.8h24v49.5l14-16V91.6L132 79l10.5 10.6v25.2h18v-21h23v79h-170z" class="F I"/><linearGradient id="B" x1="78.519" x2="153.819" y1="167.685" y2="167.685" gradientUnits="userSpaceOnUse"><stop offset="0" stop-color="#2e3192"/><stop offset="1" stop-color="#2f0b81"/></linearGradient><path fill="url(#B)" d="M152.9 163.3H79.6c-.5 0-.9.3-1 .8s.2 1.1.7 1.2h13.4v6.8h5.2v-6.8h10v6.8h5.2v-6.8h10v6.8h5.2v-6.8h10v6.8h5.2v-6.8h9.4c.5 0 .9-.3 1-.8s-.2-1.1-.7-1.2h-.3z"/><linearGradient id="C" x1="82.736" x2="148.213" y1="158.045" y2="158.045" gradientUnits="userSpaceOnUse"><stop offset="0" stop-color="#2e3192"/><stop offset="1" stop-color="#2f0b81"/></linearGradient><path fill="url(#C)" d="M145.6 152.9H130c-1.4 0-2.5 1.1-2.6 2.5v5.1h-1.6v-5.1c0-1.4-1.1-2.5-2.6-2.6h-15.7c-1.4 0-2.5 1.1-2.6 2.6v5h-1.6v-5c0-1.4-1.1-2.5-2.6-2.6H85.2c-1.4 0-2.5 1.1-2.6 2.6v5.3c0 1.4 1.1 2.5 2.6 2.5h15.7c1.2 0 2.2-.8 2.5-2h1.6c.2 1.2 1.3 2 2.5 2h15.7c1.2 0 2.2-.8 2.5-2h1.6c.2 1.2 1.3 2 2.5 2h15.7c1.4 0 2.5-1.1 2.6-2.5v-5.3c.1-1.4-1.1-2.5-2.5-2.5z"/><path d="M143.9 155.3h2.8c.4 0 .8.4.8.8v2.8c0 .4-.4.8-.8.8h-2.8c-.4 0-.8-.4-.8-.8v-2.8c-.1-.5.3-.8.8-.8zm-5.2 0h2.8c.4 0 .8.4.8.8v2.8c0 .4-.4.8-.8.8h-2.8c-.4 0-.8-.4-.8-.8v-2.8c-.1-.5.3-.8.8-.8zm-4.8 0h2.8c.4 0 .8.4.8.8v2.8c0 .4-.4.8-.8.8h-2.8c-.4 0-.8-.4-.8-.8v-2.8c-.1-.5.3-.8.8-.8zm-5.2 0h2.8c.4 0 .8.4.8.8v2.8c0 .4-.4.8-.8.8h-2.8c-.4 0-.8-.4-.8-.8v-2.8c-.1-.5.3-.8.8-.8zm-6.8 0h2.8c.4 0 .8.4.8.8v2.8c0 .4-.4.8-.8.8h-2.8c-.4 0-.8-.4-.8-.8v-2.8c0-.5.3-.8.8-.8zm-5.2 0h2.8c.4 0 .8.4.8.8v2.8c0 .4-.4.8-.8.8h-2.8c-.4 0-.8-.4-.8-.8v-2.8c0-.5.3-.8.8-.8zm-5.2 0h2.8c.4 0 .8.4.8.8v2.8c0 .4-.4.8-.8.8h-2.8c-.4 0-.8-.4-.8-.8v-2.8c0-.5.3-.8.8-.8zm-5.2 0h2.8c.4 0 .8.4.8.8v2.8c0 .4-.4.8-.8.8h-2.8c-.4 0-.8-.4-.8-.8v-2.8c0-.5.3-.8.8-.8zm-7.2 0h2.8c.4 0 .8.4.8.8v2.8c0 .4-.4.8-.8.8h-2.8c-.4 0-.8-.4-.8-.8v-2.8c0-.5.4-.8.8-.8zm-4.7 0h2.8c.4 0 .8.4.8.8v2.8c0 .4-.4.8-.8.8h-2.8c-.4 0-.8-.4-.8-.8v-2.8c-.1-.5.3-.8.8-.8zm-5.2 0H92c.4 0 .8.4.8.8v2.8c0 .4-.4.8-.8.8h-2.8c-.4 0-.8-.4-.8-.8v-2.8c-.1-.5.3-.8.8-.8zm-5.2 0h2.8c.4 0 .8.4.8.8v2.8c0 .4-.4.8-.8.8H84c-.4 0-.8-.4-.8-.8v-2.8c-.1-.5.3-.8.8-.8z" class="F H I"/><linearGradient id="D" x1="33.808" x2="109.108" y1="167.685" y2="167.685" gradientUnits="userSpaceOnUse"><stop offset="0" stop-color="#2e3192"/><stop offset="1" stop-color="#2f0b81"/></linearGradient><use fill="url(#D)" xlink:href="#p"/><use class="F I" xlink:href="#p"/><linearGradient id="E" x1="38.025" x2="103.49" y1="158.045" y2="158.045" gradientUnits="userSpaceOnUse"><stop offset="0" stop-color="#2e3192"/><stop offset="1" stop-color="#2f0b81"/></linearGradient><path fill="url(#E)" d="M100.9 152.9H85.3c-1.4 0-2.5 1.1-2.6 2.5v5.1h-1.6v-5.1c0-1.4-1.1-2.5-2.6-2.6H62.9c-1.4 0-2.5 1.1-2.6 2.6v5h-1.6v-5c0-1.4-1.1-2.5-2.6-2.6H40.5c-1.4 0-2.5 1.1-2.5 2.6v5.3c0 1.4 1.1 2.5 2.5 2.5h15.7c1.2 0 2.2-.8 2.5-2h1.6c.2 1.2 1.3 2 2.5 2h15.7c1.2 0 2.2-.8 2.5-2h1.6c.2 1.2 1.3 2 2.5 2h15.7c1.4 0 2.5-1.1 2.5-2.5v-5.3c.2-1.4-1-2.5-2.4-2.5z"/><g class="H F"><path d="M99.1 155.3h2.8c.4 0 .8.4.8.8v2.8c0 .4-.4.8-.8.8h-2.8c-.4 0-.8-.4-.8-.8v-2.8c0-.5.4-.8.8-.8zm-5.1 0h2.8c.4 0 .8.4.8.8v2.8c0 .4-.4.8-.8.8H94c-.4 0-.8-.4-.8-.8v-2.8c-.1-.5.3-.8.8-.8z" class="I"/><path d="M89.6 155.3h2.8c.4 0 .8.4.8.8v2.8c0 .4-.4.8-.8.8h-2.8c-.4 0-.8-.4-.8-.8v-2.8c-.1-.5.3-.8.8-.8zm-5.2 0h2.8c.4 0 .8.4.8.8v2.8c0 .4-.4.8-.8.8h-2.8c-.4 0-.8-.4-.8-.8v-2.8c-.1-.5.3-.8.8-.8zm-7.6 0h2.8c.4 0 .8.4.8.8v2.8c0 .4-.4.8-.8.8h-2.8c-.4 0-.8-.4-.8-.8v-2.8c-.1-.5.3-.8.8-.8zm-4.8 0h2.8c.4 0 .8.4.8.8v2.8c0 .4-.4.8-.8.8H72c-.4 0-.8-.4-.8-.8v-2.8c0-.5.3-.8.8-.8zm-5.2 0h2.8c.4 0 .8.4.8.8v2.8c0 .4-.4.8-.8.8h-2.8c-.4 0-.8-.4-.8-.8v-2.8c0-.5.3-.8.8-.8zm-5.2 0h2.8c.4 0 .8.4.8.8v2.8c0 .4-.4.8-.8.8h-2.8c-.4 0-.8-.4-.8-.8v-2.8c0-.5.3-.8.8-.8zm-6.8 0h2.8c.4 0 .8.4.8.8v2.8c0 .4-.4.8-.8.8h-2.8c-.4 0-.8-.4-.8-.8v-2.8c0-.5.4-.8.8-.8zm-5.2 0h2.8c.4 0 .8.4.8.8v2.8c0 .4-.4.8-.8.8h-2.8c-.4 0-.8-.4-.8-.8v-2.8c0-.5.4-.8.8-.8zm-5.1 0h2.8c.4 0 .8.4.8.8v2.8c0 .4-.4.8-.8.8h-2.8c-.4 0-.8-.4-.8-.8v-2.8c-.1-.5.3-.8.8-.8zm-5.2 0H42c.4 0 .8.4.8.8v2.8c0 .4-.4.8-.8.8h-2.8c-.4 0-.8-.4-.8-.8v-2.8c0-.5.4-.8.9-.8z" class="I"/></g><linearGradient id="F" x1="3.5" x2="42.5" y1="107.75" y2="107.75" gradientUnits="userSpaceOnUse"><stop offset="0" stop-color="#3651bf"/><stop offset="1" stop-color="#2e5bdb"/></linearGradient><path fill="url(#F)" d="M3.5 172.8v-67.3l6-10V74.2l13-14.7V42.8h1v16.9l14 13.9v22.9l5 9.7v66.6z"/><linearGradient id="G" x1="148.205" x2="122.656" y1="139.921" y2="139.921" gradientUnits="userSpaceOnUse"><stop offset="0" stop-color="#451088"/><stop offset="1" stop-color="#593179"/></linearGradient><path fill="url(#G)" d="M124.3 107.8h17.6c-4.8 26.7 6.4 64.3 6.4 64.3h-25.5c-.1 0 6.2-37.6 1.5-64.3z"/><path d="M124.3 107.8h17.6c-4.8 26.7 6.4 64.3 6.4 64.3h-25.5c-.1 0 6.2-37.6 1.5-64.3z" class="F G"/><linearGradient id="H" x1="119.462" x2="143.414" y1="139.921" y2="139.921" gradientUnits="userSpaceOnUse"><stop offset="0" stop-color="#451088"/><stop offset="1" stop-color="#593179"/></linearGradient><path fill="url(#H)" d="M141.8 107.8H121c4.8 26.7-1.6 64.3-1.6 64.3h24s-6.4-37.6-1.6-64.3z"/><linearGradient id="I" x1="99.718" x2="93.985" y1="96.577" y2="100.132" gradientUnits="userSpaceOnUse"><stop offset="0" stop-color="#451088"/><stop offset="1" stop-color="#593179"/></linearGradient><path fill="url(#I)" d="M99.7 96.1c-.1 0-.1-.1-.1-.2v-.3.4c0 .2-.1.2-.3.2h-.4c-.2 0-.3-.1-.3-.3v-.1c-.2.2-.3.2-.5.2H98c0 1.3.1 2.7.4 4l-.8.5c-.3-1.5-.3-3 0-4.5v.1c0 .1-.1.2-.2.2h-.2s.1.1.1.2 0 .2-.1.2l-.4.3c-.1.1-.3.1-.4 0l-.2-.3.1.2v.2c0 .1-.1.1-.2.2l-.9.3c-.2-1.5.9-2.2 1.5-2.4h-.8c-.1 0-.1 0-.2-.1l-.1-.2v.2c0 .1 0 .1-.1.2l-.6.3h-.2l-.1-.2.1.3v.2c-.2.1-.3.3-.4.5 0-.1-.1-.2-.1-.3-.2-1 .4-1.9 1.3-2.1h.5c-.4-.3-.6-.7-.7-1.2.5-.1 1 0 1.4.3.2.2.4.4.6.7 0-.3 0-.6.1-.9.2-.4.6-.8 1-1 .2.4.2 1 0 1.4 0 .1-.1.2-.1.2.8-.6 1.9-.4 2.4.4.2.2.3.4.3.7v.3c-.2-.1-.4-.2-.6-.2l-.1-.1v-.3.2c0 .1-.1.1-.2.1h-.7c-.1 0-.1 0-.2-.1v-.2.2c0 .1 0 .1-.1.1-.2 0-.4.1-.6.2.9-.1 1.7.3 2.1 1.1l-.9.3c.2 0 .1-.1 0-.1z"/><linearGradient id="J" x1="87.526" x2="111.478" y1="139.921" y2="139.921" gradientUnits="userSpaceOnUse"><stop offset="0" stop-color="#451088"/><stop offset="1" stop-color="#593179"/></linearGradient><path fill="url(#J)" d="M109.9 107.8H89.1c4.8 26.7-1.6 64.3-1.6 64.3h24s-6.4-37.6-1.6-64.3z"/><linearGradient id="K" x1="51.199" x2="76.748" y1="139.921" y2="139.921" gradientUnits="userSpaceOnUse"><stop offset="0" stop-color="#451088"/><stop offset="1" stop-color="#593179"/></linearGradient><path fill="url(#K)" d="M75.2 107.8H57.6c4.8 26.7-6.4 64.3-6.4 64.3h25.5s-6.3-37.6-1.5-64.3z"/><path d="M75.2 107.8H57.6c4.8 26.7-6.4 64.3-6.4 64.3h25.5s-6.3-37.6-1.5-64.3z" class="F G"/><linearGradient id="L" x1="55.59" x2="79.542" y1="139.921" y2="139.921" gradientUnits="userSpaceOnUse"><stop offset="0" stop-color="#451088"/><stop offset="1" stop-color="#593179"/></linearGradient><path fill="url(#L)" d="M77.9 107.8H57.2c4.8 26.7-1.6 64.3-1.6 64.3h24c-.1 0-6.4-37.6-1.7-64.3z"/><linearGradient id="M" x1="32.037" x2="164.971" y1="105.856" y2="105.856" gradientUnits="userSpaceOnUse"><stop offset="0" stop-color="#451088"/><stop offset="1" stop-color="#593179"/></linearGradient><path fill="url(#M)" d="M32 104.2s57.9 19.2 132.9 0L155 99H45.6L32 104.2z"/><path d="M32 104.2s58.7 19.2 132.9 0L155 99H45.6L32 104.2z" class="F G"/><g class="H"><circle cx="122.3" cy="103" r="1.2" class="F G"/><circle cx="117.8" cy="103" r="1.2" class="F G"/><circle cx="113.3" cy="103" r="1.2" class="F G"/><circle cx="108.8" cy="103" r="1.2" class="F G"/><circle cx="104.3" cy="103" r="1.2" class="F G"/><circle cx="99.9" cy="103" r="1.2" class="F G"/><circle cx="95.4" cy="103" r="1.2" class="F G"/><circle cx="90.9" cy="103" r="1.2" class="F G"/><circle cx="86.4" cy="103" r="1.2" class="F G"/><circle cx="154" cy="103" r="1.2" class="F G"/><circle cx="149.4" cy="103" r="1.2"/><circle cx="145" cy="103" r="1.2" class="F G"/><circle cx="140.5" cy="103" r="1.2" class="F G"/><circle cx="136" cy="103" r="1.2" class="F G"/><circle cx="131.5" cy="103" r="1.2" class="F G"/><circle cx="127" cy="103" r="1.2"/><circle cx="81.9" cy="103" r="1.2" class="F G"/><circle cx="77.4" cy="103" r="1.2" class="F G"/><circle cx="72.9" cy="103" r="1.2" class="F G"/><circle cx="68.4" cy="103" r="1.2" class="F G"/><circle cx="63.9" cy="103" r="1.2" class="F G"/><circle cx="59.4" cy="103" r="1.2" class="F G"/><circle cx="55" cy="103" r="1.2" class="F G"/><circle cx="50.4" cy="103" r="1.2" class="F G"/><circle cx="46" cy="103" r="1.2" class="F G"/><circle cx="140" cy="106.8" r=".6"/><circle cx="136" cy="106.8" r=".6"/><circle cx="132" cy="106.8" r=".6"/><circle cx="128" cy="106.8" r=".6"/><circle cx="124.1" cy="106.8" r=".6"/><circle cx="120.1" cy="106.8" r=".6"/><circle cx="116.1" cy="106.8" r=".6"/><circle cx="112.1" cy="106.8" r=".6"/><circle cx="108.1" cy="106.8" r=".6"/><circle cx="104.1" cy="106.8" r=".6"/><circle cx="100.1" cy="106.8" r=".6"/><circle cx="96.1" cy="106.8" r=".6"/><circle cx="92.1" cy="106.8" r=".6"/><circle cx="88.1" cy="106.8" r=".6"/><circle cx="84.1" cy="106.8" r=".6"/><circle cx="80.1" cy="106.8" r=".6"/><circle cx="76.1" cy="106.8" r=".6"/><circle cx="72.2" cy="106.8" r=".6"/><circle cx="68.2" cy="106.8" r=".6"/><circle cx="64.2" cy="106.8" r=".6"/><circle cx="60.2" cy="106.8" r=".6"/></g><linearGradient id="N" x1="52.396" x2="70.76" y1="95.011" y2="95.011" gradientUnits="userSpaceOnUse"><stop offset="0" stop-color="#2e59bf"/><stop offset="1" stop-color="#593192"/></linearGradient><path fill="url(#N)" d="M64.4 91v2.4h-12V99h18.4v-8z"/><linearGradient id="O" x1="125.051" x2="147.406" y1="95.011" y2="95.011" gradientUnits="userSpaceOnUse"><stop offset="0" stop-color="#2e59bf"/><stop offset="1" stop-color="#593192"/></linearGradient><path fill="url(#O)" d="M136.2 95.4V91h-8v4.4h-3.1V99h22.3v-3.6z"/><path d="M47.2 97.8h.4V99h-.4zm1.6 0h.4V99h-.4zm1.6 0h.4V99h-.4zm1.6 0h.4V99H52zm1.6 0h.4V99h-.4zm1.6 0h.4V99h-.4zm1.6 0h.4V99h-.4zm1.6 0h.4V99h-.4zm1.6 0h.4V99H60zm1.6 0h.4V99h-.4zm1.6 0h.4V99h-.4zm1.6 0h.4V99h-.4zm1.6 0h.4V99h-.4zm1.6 0h.4V99H68zm1.6 0h.4V99h-.4zm1.6 0h.4V99h-.4zm1.6 0h.4V99h-.4zm1.6 0h.4V99h-.4zm1.5 0h.4V99h-.4zm1.6 0h.4V99h-.4zm1.6 0h.4V99h-.4zm1.6 0h.4V99h-.4zm1.6 0h.4V99h-.4zm1.6 0h.4V99h-.4zm1.6 0h.4V99h-.4zm1.6 0h.4V99h-.4zm1.6 0h.4V99h-.4zm1.6 0h.4V99h-.4zm1.6 0h.4V99h-.4zm1.6 0h.4V99h-.4zm1.6 0h.4V99h-.4zm1.6 0h.4V99h-.4zm1.6 0h.4V99h-.4zm1.6 0h.4V99h-.4zm1.6 0h.4V99h-.4zm1.6 0h.4V99h-.4zm1.6 0h.4V99h-.4zm1.6 0h.4V99h-.4zm1.6 0h.4V99h-.4zm1.6 0h.4V99h-.4zm1.6 0h.4V99h-.4zm1.6 0h.4V99h-.4zm1.6 0h.4V99h-.4zm1.6 0h.4V99h-.4zm1.6 0h.4V99h-.4zm1.6 0h.4V99h-.4zm1.6 0h.4V99h-.4zm1.6 0h.4V99h-.4zm1.6 0h.4V99h-.4zm1.6 0h.4V99h-.4zm1.5 0h.4V99h-.4zm1.6 0h.4V99h-.4zm1.6 0h.4V99h-.4zm1.6 0h.4V99h-.4zm1.6 0h.4V99h-.4zm1.6 0h.4V99h-.4zm1.6 0h.4V99h-.4zm1.6 0h.4V99h-.4zm1.6 0h.4V99h-.4zm1.6 0h.4V99h-.4zm1.6 0h.4V99h-.4zm1.6 0h.4V99h-.4zm1.6 0h.4V99h-.4zm1.6 0h.4V99h-.4zm1.6 0h.4V99h-.4zm1.6 0h.4V99h-.4zm1.6 0h.4V99h-.4zm1.6 0h.4V99h-.4zM46 97.4h109.4v.4H46z" class="F G"/><linearGradient id="P" x1="51.199" x2="52.396" y1="96.208" y2="96.208" gradientUnits="userSpaceOnUse"><stop offset="0" stop-color="#451088"/><stop offset="1" stop-color="#593179"/></linearGradient><path fill="url(#P)" d="M52.4 93.4l-1.2 1.2V99h1.2z"/><path d="M52.4 93.4l-1.2 1.2V99h1.2z" class="F G"/><linearGradient id="Q" x1="63.175" x2="64.372" y1="92.216" y2="92.216" gradientUnits="userSpaceOnUse"><stop offset="0" stop-color="#451088"/><stop offset="1" stop-color="#593179"/></linearGradient><path fill="url(#Q)" d="M64.4 91l-1.2 1.2v1.2h1.2z"/><path d="M64.4 91l-1.2 1.2v1.2h1.2z" class="F G"/><linearGradient id="R" x1="137.426" x2="136.229" y1="93.214" y2="93.214" gradientUnits="userSpaceOnUse"><stop offset="0" stop-color="#451088"/><stop offset="1" stop-color="#593179"/></linearGradient><path fill="url(#R)" d="M136.2 91l1.2 1.2v3.2h-1.2z"/><path d="M136.2 91l1.2 1.2v3.2h-1.2z" class="F G"/><linearGradient id="S" x1="148.604" x2="147.406" y1="97.206" y2="97.206" gradientUnits="userSpaceOnUse"><stop offset="0" stop-color="#451088"/><stop offset="1" stop-color="#593179"/></linearGradient><path fill="url(#S)" d="M147.4 95.4l1.2 1.2V99h-1.2z"/><path d="M147.4 95.4l1.2 1.2V99h-1.2z" class="F G"/><linearGradient id="T" x1="87.083" x2="80.332" y1="95.35" y2="95.35" gradientUnits="userSpaceOnUse"><stop offset="0" stop-color="#451088"/><stop offset="1" stop-color="#593179"/></linearGradient><path fill="url(#T)" d="M84.9 96.5v-.2l.1-.3-.2.3c-.1.1-.2.2-.4.1l-.4-.2c-.1 0-.1-.1-.1-.2v-.2h-.2c-.1 0-.1-.1-.2-.2v-.1c-.7 1.1-1.3 2.3-1.7 3.6h-1c.6-1.4 1.4-2.7 2.4-3.8l-.1.1c-.1 0-.2.1-.2.1s-.2 0-.2-.1v.3c0 .1-.1.1-.2.1h-.4c-.2 0-.3-.1-.3-.2v-.4.3c0 .1 0 .2-.1.2s-.1.1-.2 0c-.3 0-.6-.1-1-.2.4-1 1.5-1.6 2.5-1.2-.2-.2-.4-.3-.7-.4 0 0-.1-.1-.1-.2v-.2l-.2.3c0 .1-.1.1-.2.1-.2 0-.4-.1-.7-.1-.1 0-.1 0-.1-.1v-.2.3s0 .1-.1.1c-.2 0-.4.1-.6.2 0-.1 0-.2.1-.3.3-.9 1.3-1.4 2.2-1 .2 0 .3.2.4.2-.1-.4-.1-.9 0-1.4.4.2.8.6 1 1 .1.3.2.6.1.9.1-.3.3-.5.6-.7.4-.2.9-.4 1.4-.3-.1.5-.4.9-.7 1.2-.1 0-.2.1-.2.2.2 0 .5 0 .8.1.9.3 1.4 1.3 1 2.2 0 .1-.1.2-.1.3-.1-.2-.2-.4-.3-.5v-.2l.2-.2-.2.2h-.2c-.2-.2-.4-.3-.6-.4 0 0-.1-.1-.1-.2l.1-.2h-.2s-.1.1-.2 0c-.2-.1-.4-.1-.6-.1.8.4 1.3 1.2 1.2 2-.3 0-.6-.1-1-.2 0-.1-.1-.1-.1-.2z"/><linearGradient id="U" x1="109.482" x2="117.473" y1="94.552" y2="94.552" gradientUnits="userSpaceOnUse"><stop offset="0" stop-color="#451088"/><stop offset="1" stop-color="#593179"/></linearGradient><path fill="url(#U)" d="M112.1 96v-.2l-.1-.3.2.4c.1.1.3.2.4.1l.4-.3c.1 0 .1-.1.2-.2 0-.1 0-.2-.1-.2v-.1c.1 0 .2.1.3 0 .1 0 .2-.1.2-.2v-.1c.9 1.3 1.6 2.8 2 4.2h1.2c-.6-1.7-1.6-3.2-2.8-4.5l.1.1c.1.1.2.1.3.1s.2-.1.2-.2v.3c0 .1.1.1.2.1h.5c.2 0 .3-.1.4-.3l.1-.4v.3c0 .1 0 .2.1.2s.2.1.2.1l1.1-.3c-.7-1.7-2.2-1.6-3-1.5.2-.2.5-.4.8-.4.1 0 .1-.1.1-.2v-.2l.1.2c0 .1.1.1.2.1.3-.1.5-.1.8-.1.1 0 .2-.1.2-.2V92v.3c0 .1.1.1.1.1.2 0 .5.1.7.2 0-.1 0-.2-.1-.4-.4-1.1-1.6-1.6-2.6-1.2l-.6.3a2.21 2.21 0 0 0 0-1.6c-.5.2-1 .6-1.2 1.2-.1.3-.2.7-.1 1-.2-.3-.4-.6-.6-.8-.5-.3-1-.4-1.6-.4.1.6.4 1 .8 1.4.1.1.2.1.3.2-1.2-.1-2.2.8-2.2 1.9 0 .3 0 .6.1.9 0 .1.1.2.2.3.1-.2.2-.4.4-.6v-.2l-.2-.3.2.2c.1.1.2.1.2 0 .2-.2.4-.3.7-.4.1 0 .1-.1.1-.2l-.1-.2.1.2c0 .1.1.1.2.1.2-.1.5-.2.7-.2-.9.4-1.5 1.4-1.4 2.4l1.1-.3c.4.3.4.2.5.1z"/><g class="H"><path d="M53.4 97h16.4c.1 0 .2.1.2.2s-.1.2-.2.2H53.4c-.1 0-.2-.1-.2-.2s.1-.2.2-.2z" class="F G"/><path d="M53.4 95.8h16.4c.1 0 .2.1.2.2s-.1.2-.2.2H53.4c-.1 0-.2-.1-.2-.2s.1-.2.2-.2z"/><path d="M53.4 94.6h16.4c.1 0 .2.1.2.2s-.1.2-.2.2H53.4c-.1 0-.2-.1-.2-.2s.1-.2.2-.2zm12-2.8h4.4c.1 0 .2.1.2.2v1.2c0 .1-.1.2-.2.2h-4.4c-.1 0-.2-.1-.2-.2V92c0-.1.1-.2.2-.2zm63.8 2h6.2s.1 0 .1.1v1s0 .1-.1.1h-6.2s-.1 0-.1-.1v-1c-.1 0 0-.1.1-.1zm0-2h6.2s.1 0 .1.1v1s0 .1-.1.1h-6.2s-.1 0-.1-.1v-1c-.1 0 0-.1.1-.1z" class="F G"/><path d="M126 96.2h20.4c.1 0 .2.1.2.2s-.1.2-.2.2H126c-.1 0-.2-.1-.2-.2s.1-.2.2-.2z"/><path d="M135.8 166.9h1.6v1.6h-1.6zm-2.4 0h1.6v1.6h-1.6zm-2.4 0h1.6v1.6H131zm-2.4 0h1.6v1.6h-1.6zm-2.4 0h1.6v1.6h-1.6zm9.6-4h1.6v1.6h-1.6zm-2.4 0h1.6v1.6h-1.6zm-2.4 0h1.6v1.6H131zm-2.4 0h1.6v1.6h-1.6zm-2.4 0h1.6v1.6h-1.6zm9.6-4h1.6v1.6h-1.6zm-2.4 0h1.6v1.6h-1.6zm-2.4 0h1.6v1.6H131zm-2.4 0h1.6v1.6h-1.6zm-2.4 0h1.6v1.6h-1.6zm9.6-4h1.6v1.6h-1.6zm-2.4 0h1.6v1.6h-1.6zm-2.4 0h1.6v1.6H131zm-2.4 0h1.6v1.6h-1.6zm-2.4 0h1.6v1.6h-1.6zm9.6-4h1.6v1.6h-1.6zm-2.4 0h1.6v1.6h-1.6zm-2.4 0h1.6v1.6H131zm-2.4 0h1.6v1.6h-1.6zm-2.4 0h1.6v1.6h-1.6zm9.6-4h1.6v1.6h-1.6zm-2.4 0h1.6v1.6h-1.6zm-2.4 0h1.6v1.6H131zm-2.4 0h1.6v1.6h-1.6zm-2.4 0h1.6v1.6h-1.6zm9.6-4h1.6v1.6h-1.6zm-2.4 0h1.6v1.6h-1.6zm-2.4 0h1.6v1.6H131zm-2.4 0h1.6v1.6h-1.6zm-2.4 0h1.6v1.6h-1.6zm9.6-4h1.6v1.6h-1.6zm-2.4 0h1.6v1.6h-1.6zm-2.4 0h1.6v1.6H131zm-2.4 0h1.6v1.6h-1.6zm-2.4 0h1.6v1.6h-1.6zm9.6-4h1.6v1.6h-1.6zm-2.4 0h1.6v1.6h-1.6zm-2.4 0h1.6v1.6H131zm-2.4 0h1.6v1.6h-1.6zm-2.4 0h1.6v1.6h-1.6zm9.6-4h1.6v1.6h-1.6zm-2.4 0h1.6v1.6h-1.6zm-2.4 0h1.6v1.6H131zm-2.4 0h1.6v1.6h-1.6zm-2.4 0h1.6v1.6h-1.6zm9.6-4h1.6v1.6h-1.6zm-2.4 0h1.6v1.6h-1.6zm-2.4 0h1.6v1.6H131zm-2.4 0h1.6v1.6h-1.6zm-2.4 0h1.6v1.6h-1.6zm9.6-3.9h1.6v1.6h-1.6zm-2.4 0h1.6v1.6h-1.6zm-2.4 0h1.6v1.6H131zm-2.4 0h1.6v1.6h-1.6zm-2.4 0h1.6v1.6h-1.6zm9.6-4h1.6v1.6h-1.6zm-2.4 0h1.6v1.6h-1.6zm-2.4 0h1.6v1.6H131zm-2.4 0h1.6v1.6h-1.6zm-2.4 0h1.6v1.6h-1.6zm9.6-4h1.6v1.6h-1.6zm-2.4 0h1.6v1.6h-1.6zm-2.4 0h1.6v1.6H131zm-2.4 0h1.6v1.6h-1.6zm-2.4 0h1.6v1.6h-1.6zm-22.7 51.9h1.6v1.6h-1.6zm-2.4 0h1.6v1.6h-1.6zm-2.4 0h1.6v1.6h-1.6zm-2.4 0h1.6v1.6h-1.6zm-2.4 0h1.6v1.6h-1.6zm9.6-4h1.6v1.6h-1.6zm-2.4 0h1.6v1.6h-1.6zm-2.4 0h1.6v1.6h-1.6zm-2.4 0h1.6v1.6h-1.6zm-2.4 0h1.6v1.6h-1.6zm9.6-4h1.6v1.6h-1.6zm-2.4 0h1.6v1.6h-1.6zm-2.4 0h1.6v1.6h-1.6zm-2.4 0h1.6v1.6h-1.6zm-2.4 0h1.6v1.6h-1.6zm9.6-4h1.6v1.6h-1.6zm-2.4 0h1.6v1.6h-1.6zm-2.4 0h1.6v1.6h-1.6zm-2.4 0h1.6v1.6h-1.6zm-2.4 0h1.6v1.6h-1.6zm9.6-4h1.6v1.6h-1.6zm-2.4 0h1.6v1.6h-1.6zm-2.4 0h1.6v1.6h-1.6zm-2.4 0h1.6v1.6h-1.6zm-2.4 0h1.6v1.6h-1.6zm9.6-4h1.6v1.6h-1.6zm-2.4 0h1.6v1.6h-1.6zm-2.4 0h1.6v1.6h-1.6zm-2.4 0h1.6v1.6h-1.6zm-2.4 0h1.6v1.6h-1.6zm9.6-4h1.6v1.6h-1.6zm-2.4 0h1.6v1.6h-1.6zm-2.4 0h1.6v1.6h-1.6zm-2.4 0h1.6v1.6h-1.6zm-2.4 0h1.6v1.6h-1.6zm9.6-4h1.6v1.6h-1.6zm-2.4 0h1.6v1.6h-1.6zm-2.4 0h1.6v1.6h-1.6zm-2.4 0h1.6v1.6h-1.6zm-2.4 0h1.6v1.6h-1.6zm9.6-4h1.6v1.6h-1.6zm-2.4 0h1.6v1.6h-1.6zm-2.4 0h1.6v1.6h-1.6zm-2.4 0h1.6v1.6h-1.6zm-2.4 0h1.6v1.6h-1.6zm9.6-4h1.6v1.6h-1.6zm-2.4 0h1.6v1.6h-1.6zm-2.4 0h1.6v1.6h-1.6zm-2.4 0h1.6v1.6h-1.6zm-2.4 0h1.6v1.6h-1.6zm9.6-4h1.6v1.6h-1.6zm-2.4 0h1.6v1.6h-1.6zm-2.4 0h1.6v1.6h-1.6zm-2.4 0h1.6v1.6h-1.6zm-2.4 0h1.6v1.6h-1.6zm9.6-3.9h1.6v1.6h-1.6zm-2.4 0h1.6v1.6h-1.6zm-2.4 0h1.6v1.6h-1.6zm-2.4 0h1.6v1.6h-1.6zm-2.4 0h1.6v1.6h-1.6zm9.6-4h1.6v1.6h-1.6zm-2.4 0h1.6v1.6h-1.6zm-2.4 0h1.6v1.6h-1.6zm-2.4 0h1.6v1.6h-1.6zm-2.4 0h1.6v1.6h-1.6zm9.6-4h1.6v1.6h-1.6zm-2.4 0h1.6v1.6h-1.6zm-2.4 0h1.6v1.6h-1.6zm-2.4 0h1.6v1.6h-1.6zm-2.4 0h1.6v1.6h-1.6zm-22.3 51.9h1.6v1.6h-1.6zm-2.4 0h1.6v1.6h-1.6zm-2.4 0h1.6v1.6h-1.6zm-2.4 0H66v1.6h-1.6zm-2.4 0h1.6v1.6H62zm9.6-4h1.6v1.6h-1.6zm-2.4 0h1.6v1.6h-1.6zm-2.4 0h1.6v1.6h-1.6zm-2.4 0H66v1.6h-1.6zm-2.4 0h1.6v1.6H62zm9.6-4h1.6v1.6h-1.6zm-2.4 0h1.6v1.6h-1.6zm-2.4 0h1.6v1.6h-1.6zm-2.4 0H66v1.6h-1.6zm-2.4 0h1.6v1.6H62zm9.6-4h1.6v1.6h-1.6zm-2.4 0h1.6v1.6h-1.6zm-2.4 0h1.6v1.6h-1.6zm-2.4 0H66v1.6h-1.6zm-2.4 0h1.6v1.6H62zm9.6-4h1.6v1.6h-1.6zm-2.4 0h1.6v1.6h-1.6zm-2.4 0h1.6v1.6h-1.6zm-2.4 0H66v1.6h-1.6zm-2.4 0h1.6v1.6H62zm9.6-4h1.6v1.6h-1.6zm-2.4 0h1.6v1.6h-1.6zm-2.4 0h1.6v1.6h-1.6zm-2.4 0H66v1.6h-1.6zm-2.4 0h1.6v1.6H62zm9.6-4h1.6v1.6h-1.6zm-2.4 0h1.6v1.6h-1.6zm-2.4 0h1.6v1.6h-1.6zm-2.4 0H66v1.6h-1.6zm-2.4 0h1.6v1.6H62zm9.6-4h1.6v1.6h-1.6zm-2.4 0h1.6v1.6h-1.6zm-2.4 0h1.6v1.6h-1.6zm-2.4 0H66v1.6h-1.6zm-2.4 0h1.6v1.6H62zm9.6-4h1.6v1.6h-1.6zm-2.4 0h1.6v1.6h-1.6zm-2.4 0h1.6v1.6h-1.6zm-2.4 0H66v1.6h-1.6zm-2.4 0h1.6v1.6H62zm9.6-4h1.6v1.6h-1.6zm-2.4 0h1.6v1.6h-1.6zm-2.4 0h1.6v1.6h-1.6zm-2.4 0H66v1.6h-1.6zm-2.4 0h1.6v1.6H62zm9.6-4h1.6v1.6h-1.6zm-2.4 0h1.6v1.6h-1.6zm-2.4 0h1.6v1.6h-1.6zm-2.4 0H66v1.6h-1.6zm-2.4 0h1.6v1.6H62zm9.6-3.9h1.6v1.6h-1.6zm-2.4 0h1.6v1.6h-1.6zm-2.4 0h1.6v1.6h-1.6zm-2.4 0H66v1.6h-1.6zm-2.4 0h1.6v1.6H62zm9.6-4h1.6v1.6h-1.6zm-2.4 0h1.6v1.6h-1.6zm-2.4 0h1.6v1.6h-1.6zm-2.4 0H66v1.6h-1.6zm-2.4 0h1.6v1.6H62zm9.6-4h1.6v1.6h-1.6zm-2.4 0h1.6v1.6h-1.6zm-2.4 0h1.6v1.6h-1.6zm-2.4 0H66v1.6h-1.6zm-2.4 0h1.6v1.6H62z" class="F G"/></g><linearGradient id="V" x1="123.5" x2="198.5" y1="143.25" y2="143.25" gradientUnits="userSpaceOnUse"><stop offset="0" stop-color="#2e36bf"/><stop offset="1" stop-color="#593192"/></linearGradient><path fill="url(#V)" d="M176.5 158.3v-15h12v-15h-12v-14h-31v14h12v15h-12v15h-22v14h31v-14h13v14h31v-14z"/><linearGradient id="W" x1="121.857" x2="156.189" y1="171.258" y2="171.258" gradientUnits="userSpaceOnUse"><stop offset="0" stop-color="#3651bf"/><stop offset="1" stop-color="#2e5bdb"/></linearGradient><path fill="url(#W)" d="M121.9 170.1h34.3v2.4h-34.3z"/><linearGradient id="X" x1="121.857" x2="156.189" y1="167.266" y2="167.266" gradientUnits="userSpaceOnUse"><stop offset="0" stop-color="#3651bf"/><stop offset="1" stop-color="#2e5bdb"/></linearGradient><path fill="url(#X)" d="M121.9 166.1h34.3v2.4h-34.3z"/><linearGradient id="Y" x1="121.857" x2="156.189" y1="161.677" y2="161.677" gradientUnits="userSpaceOnUse"><stop offset="0" stop-color="#3651bf"/><stop offset="1" stop-color="#2e5bdb"/></linearGradient><path fill="url(#Y)" d="M121.9 160.5h34.3v2.4h-34.3z"/><linearGradient id="Z" x1="166.169" x2="200.5" y1="171.258" y2="171.258" gradientUnits="userSpaceOnUse"><stop offset="0" stop-color="#3651bf"/><stop offset="1" stop-color="#2e5bdb"/></linearGradient><path fill="url(#Z)" d="M166.2 170.1h34.3v2.4h-34.3z"/><linearGradient id="a" x1="166.169" x2="200.5" y1="167.266" y2="167.266" gradientUnits="userSpaceOnUse"><stop offset="0" stop-color="#3651bf"/><stop offset="1" stop-color="#2e5bdb"/></linearGradient><path fill="url(#a)" d="M166.2 166.1h34.3v2.4h-34.3z"/><linearGradient id="b" x1="166.169" x2="200.5" y1="161.677" y2="161.677" gradientUnits="userSpaceOnUse"><stop offset="0" stop-color="#3651bf"/><stop offset="1" stop-color="#2e5bdb"/></linearGradient><path fill="url(#b)" d="M166.2 160.5h34.3v2.4h-34.3z"/><linearGradient id="c" x1="143.813" x2="178.145" y1="155.29" y2="155.29" gradientUnits="userSpaceOnUse"><stop offset="0" stop-color="#3651bf"/><stop offset="1" stop-color="#2e5bdb"/></linearGradient><path fill="url(#c)" d="M143.8 154.1h34.3v2.4h-34.3z"/><linearGradient id="d" x1="143.813" x2="178.145" y1="151.298" y2="151.298" gradientUnits="userSpaceOnUse"><stop offset="0" stop-color="#3651bf"/><stop offset="1" stop-color="#2e5bdb"/></linearGradient><path fill="url(#d)" d="M143.8 150.1h34.3v2.4h-34.3z"/><linearGradient id="e" x1="143.813" x2="178.145" y1="147.306" y2="147.306" gradientUnits="userSpaceOnUse"><stop offset="0" stop-color="#3651bf"/><stop offset="1" stop-color="#2e5bdb"/></linearGradient><path fill="url(#e)" d="M143.8 146.1h34.3v2.4h-34.3z"/><linearGradient id="f" x1="143.414" x2="177.745" y1="126.148" y2="126.148" gradientUnits="userSpaceOnUse"><stop offset="0" stop-color="#3651bf"/><stop offset="1" stop-color="#2e5bdb"/></linearGradient><path fill="url(#f)" d="M143.4 125h34.3v2.4h-34.3z"/><linearGradient id="g" x1="143.414" x2="177.745" y1="122.156" y2="122.156" gradientUnits="userSpaceOnUse"><stop offset="0" stop-color="#3651bf"/><stop offset="1" stop-color="#2e5bdb"/></linearGradient><path fill="url(#g)" d="M143.4 121h34.3v2.4h-34.3z"/><linearGradient id="h" x1="143.414" x2="177.745" y1="118.164" y2="118.164" gradientUnits="userSpaceOnUse"><stop offset="0" stop-color="#3651bf"/><stop offset="1" stop-color="#2e5bdb"/></linearGradient><path fill="url(#h)" d="M143.4 117h34.3v2.4h-34.3z"/><linearGradient id="i" x1="155.5" x2="189.5" y1="140.25" y2="140.25" gradientUnits="userSpaceOnUse"><stop offset="0" stop-color="#3651bf"/><stop offset="1" stop-color="#2e5bdb"/></linearGradient><path fill="url(#i)" d="M155.5 139.3h34v2h-34z"/><linearGradient id="j" x1="155.5" x2="189.5" y1="136.25" y2="136.25" gradientUnits="userSpaceOnUse"><stop offset="0" stop-color="#3651bf"/><stop offset="1" stop-color="#2e5bdb"/></linearGradient><path fill="url(#j)" d="M155.5 135.3h34v2h-34z"/><linearGradient id="k" x1="155.5" x2="189.5" y1="132.25" y2="132.25" gradientUnits="userSpaceOnUse"><stop offset="0" stop-color="#3651bf"/><stop offset="1" stop-color="#2e5bdb"/></linearGradient><path fill="url(#k)" d="M155.5 131.3h34v2h-34z"/><g class="H"><path d="M146.2 115.8h28.7v.8h-28.7zm0 8h28.7v.8h-28.7z"/><path d="M146.2 119.8h28.7v.8h-28.7zm12.4 10.3h28.7v.8h-28.7z" class="F G"/><path d="M158.6 138.1h28.7v.8h-28.7z"/><path d="M158.6 134.1h28.7v.8h-28.7zm-12 10.8h28.7v.8h-28.7zm0 8h28.7v.8h-28.7z" class="F G"/><path d="M146.6 148.9h28.7v.8h-28.7zm-21.9 10.4h28.7v.8h-28.7z"/><path d="M124.7 168.9h28.7v.8h-28.7zm0-5.6h28.7v.8h-28.7zm44.3-4h28.7v.8H169zm0 9.6h28.7v.8H169z" class="F G"/><path d="M169 163.3h28.7v.8H169z"/></g><linearGradient id="l" x1="153.793" x2="147.007" y1="139.502" y2="139.502" gradientUnits="userSpaceOnUse"><stop offset="0" stop-color="#451088"/><stop offset="1" stop-color="#593179"/></linearGradient><path fill="url(#l)" d="M151.6 140.7v-.2l.1-.3-.2.3c-.1.1-.2.2-.4.1l-.4-.2c-.1 0-.1-.1-.1-.2v-.2h-.2c-.1 0-.1-.1-.2-.2v-.1c-.7 1.1-1.3 2.4-1.7 3.6h-1c.6-1.4 1.4-2.7 2.4-3.8l-.1.1-.2.1c-.1 0-.2-.1-.2-.1v.3c0 .1-.1.1-.2.1h-.4c-.2 0-.3-.1-.3-.2v-.4.3c0 .1 0 .2-.1.2 0 0-.1.1-.2 0-.3 0-.6-.1-1-.2.6-1.4 1.9-1.4 2.6-1.3-.2-.2-.4-.3-.7-.4-.1 0-.1-.1-.1-.2v-.2l-.1.2c0 .1-.1.1-.2.1-.2 0-.4-.1-.7-.1-.1 0-.1 0-.1-.1v-.2.3s0 .1-.1.1c-.2 0-.4.1-.6.2 0-.1 0-.2.1-.3.3-.9 1.3-1.4 2.2-1.1.2 0 .3.2.4.2-.1-.4-.1-.9 0-1.4.4.2.8.6 1 1 .1.3.2.6.1.9.1-.3.3-.5.6-.7.4-.2.9-.4 1.4-.3-.1.5-.4.9-.7 1.2-.1 0-.2.1-.2.2.2 0 .5 0 .8.1.9.3 1.4 1.4 1.1 2.3 0 .1-.1.2-.1.3-.1-.2-.2-.4-.3-.5v-.2l.2-.2-.2.2h-.2c-.2-.2-.4-.3-.6-.4-.1 0-.1-.1-.1-.2l.1-.2-.1.2s-.1.1-.2 0c-.2-.1-.4-.1-.6-.1.8.4 1.3 1.2 1.2 2.1-.3 0-.6-.1-1-.2-.4-.2-.5-.3-.5-.3z"/><linearGradient id="m" x1="179.742" x2="187.735" y1="153.094" y2="153.094" gradientUnits="userSpaceOnUse"><stop offset="0" stop-color="#451088"/><stop offset="1" stop-color="#593179"/></linearGradient><path fill="url(#m)" d="M182.3 154.6v-.3l-.1-.3.2.4c.1.1.3.2.4.1l.4-.3c.1 0 .1-.1.2-.2 0-.1 0-.2-.1-.2v-.1c.1 0 .2.1.3 0 .1 0 .2-.1.2-.2v-.1c.9 1.3 1.6 2.8 2 4.3h1.2c-.6-1.7-1.6-3.2-2.8-4.5l.1.1c.1.1.2.1.3.1s.2-.1.2-.2v.3c0 .1.1.1.2.1h.5c.2 0 .3-.1.4-.3l.1-.4v.3c0 .1 0 .2.1.2s.2.1.2.1l1.1-.3c-.7-1.7-2.2-1.6-3-1.5.2-.2.5-.4.8-.5.1 0 .1-.1.1-.2v-.2l.1.2c0 .1.1.1.2.1.3-.1.5-.1.8-.1.1 0 .2-.1.2-.2v-.3.3c0 .1.1.1.1.1.2 0 .5.1.7.2 0-.1 0-.2-.1-.4-.4-1.1-1.6-1.6-2.6-1.2l-.6.3a2.21 2.21 0 0 0 0-1.6c-.5.2-1 .6-1.2 1.2-.1.3-.2.7-.1 1-.2-.3-.4-.6-.6-.8-.5-.3-1-.4-1.6-.4.1.6.4 1 .8 1.4.1.1.2.1.3.2-.3 0-.6 0-.9.1-1.1.4-1.6 1.6-1.2 2.6 0 .1.1.2.2.3.1-.2.2-.4.4-.6v-.2l-.2-.3.2.2c.1.1.2.1.2 0 .2-.2.4-.3.7-.4.1 0 .1-.1.1-.2l-.1-.2.1.2c0 .1.1.1.2.1.2-.1.5-.2.7-.2-.9.4-1.5 1.4-1.4 2.4l1.1-.3c.4.4.5.4.5.3z"/><linearGradient id="n" x1=".5" x2="22.525" y1="107.783" y2="107.783" gradientUnits="userSpaceOnUse"><stop offset="0" stop-color="#2e3192"/><stop offset="1" stop-color="#4c3ea1"/></linearGradient><path fill="url(#n)" d="M22.5 42.8l-1 1.5v14.5l-15 14.4v22.9l-6 9.3.1 67.4h3.9v-67.1l6-9.8.2-22.7 11.8-13.5V42.8z"/><path d="M9.5 118.8h28v3h-28zm0 5h28v3h-28zm0 6h28v3h-28zm0-21h28v3h-28zm0 5h28v3h-28zm0 31h28v3h-28zm0 5h28v3h-28zm0 5h28v3h-28zm0-20h28v3h-28zm0 5h28v3h-28zm0 20h28v3h-28zm0 5h28v3h-28zm19-81h6v2h-6zm0 4h6v2h-6zm0 4h6v2h-6zm0-16h6v2h-6zm0 4h6v2h-6zm-8 4h6v2h-6zm0 4h6v2h-6zm0 4h6v2h-6zm0-16h6v2h-6zm0 4h6v2h-6zm-8 4h6v2h-6zm0 4h6v2h-6zm0 4h6v2h-6zm0-16h6v2h-6zm0 4h6v2h-6z" class="H" opacity=".1"/><defs><path id="p" d="M108.2 163.3H34.9c-.5 0-.9.3-1 .8s.2 1.1.7 1.2H48v6.8h5.2v-6.8h10v6.8h5.2v-6.8h10v6.8h5.2v-6.8h10v6.8h5.2v-6.8h9.4c.5 0 .9-.3 1-.8s-.2-1.1-.7-1.2h-.3z"/></defs></svg>