<svg xmlns="http://www.w3.org/2000/svg" xmlns:xlink="http://www.w3.org/1999/xlink" viewBox="0 0 200 172"><style><![CDATA[.K{enable-background:new}.L{opacity:.1}.M{opacity:.3}.N{opacity:.2}.O{fill:#fff}.P{opacity:.5}.Q{opacity:.6}.R{opacity:.08}]]></style><linearGradient id="A" gradientUnits="userSpaceOnUse" x1="23.109" y1="36.684" x2="21.605" y2="36.684"><stop offset="0" stop-color="#3651bf"/><stop offset="1" stop-color="#2e5bdb"/></linearGradient><use xlink:href="#c" fill="url(#A)"/><use xlink:href="#c" class="K M"/><linearGradient id="B" gradientUnits="userSpaceOnUse" x1="29.396" y1="34.334" x2="27.385" y2="34.334"><stop offset="0" stop-color="#3651bf"/><stop offset="1" stop-color="#2e5bdb"/></linearGradient><use xlink:href="#d" fill="url(#B)"/><use xlink:href="#d" class="K M"/><linearGradient id="C" gradientUnits="userSpaceOnUse" x1="105.136" y1="172.818" x2="105.136" y2="25.405"><stop offset="0" stop-color="#1d7ee8"/><stop offset="1" stop-color="#2ea7db"/></linearGradient><path d="M18.8 112.3v60.5h172.7v-61.2c0-49.6-42-89.5-92.5-86-45.3 3.2-80.2 41.3-80.2 86.7z" fill="url(#C)"/><path d="M194.5 123.8h-1v-1h-12v-32h-22v19h-11V78l-19-12.7v44.5h-3v-24h-20v12h-17v-40h-16v40h-6V76.4l-12-12v43.4h-9v-22h-23v87h170v-20h1z" class="K N"/><linearGradient id="D" gradientUnits="userSpaceOnUse" x1="95.488" y1="105.535" x2="112.859" y2="105.535"><stop offset="0" stop-color="#2e59bf"/><stop offset="1" stop-color="#593192"/></linearGradient><path fill="url(#D)" d="M112.9 152.2l-5-85.9.1.2 4.1-4-.6-.5-3.7 3.7v-1l-.3-5.4-6.6-.4-.3 5.8-.1.7-3.4-3.4-.5.5 3.9 3.9-5 85.8z"/><linearGradient id="E" gradientUnits="userSpaceOnUse" x1="112.295" y1="107.396" x2="96.885" y2="107.396"><stop offset="0" stop-color="#4531a7"/><stop offset="1" stop-color="#423179"/></linearGradient><path fill="url(#E)" d="M112.1 152.4l-15.2-16.6 13.3-14.5-11.8-12.8L109 97l-9.5-10.4 8.5-9.1-7.6-8.2 6.3-6.9.3.3-6.1 6.6 7.6 8.2-8.5 9.1 9.5 10.4-10.6 11.5 11.8 12.8-13.3 14.5 14.9 16.3z"/><linearGradient id="F" gradientUnits="userSpaceOnUse" x1="96.036" y1="106.89" x2="111.672" y2="106.89"><stop offset="0" stop-color="#4531a7"/><stop offset="1" stop-color="#423179"/></linearGradient><path fill="url(#F)" d="M96.3 152.4l-.3-.3 15.2-16.4L97.7 121l12-13-10.8-11.7 9.6-10.4-8.5-9.3 7.6-8.3-6.1-6.6.2-.3 6.4 6.9-7.7 8.3 8.6 9.3-9.6 10.4 10.8 11.7-12 13 13.5 14.7z"/><path d="M108.3 152.2H100l3.8-89.5h.8z" class="K L"/><linearGradient id="G" gradientUnits="userSpaceOnUse" x1="108.774" y1="62.239" x2="109.644" y2="62.239"><stop offset="0" stop-color="#2e59bf"/><stop offset="1" stop-color="#593192"/></linearGradient><path fill="url(#G)" d="M109.2 62.7l.4-.8-.3-.2-.5 1z"/><linearGradient id="H" gradientUnits="userSpaceOnUse" x1="98.703" y1="62.239" x2="99.573" y2="62.239"><stop offset="0" stop-color="#2e59bf"/><stop offset="1" stop-color="#593192"/></linearGradient><path fill="url(#H)" d="M99.6 62.7l-.6-1-.3.2.5.8z"/><linearGradient id="I" gradientUnits="userSpaceOnUse" x1="100.685" y1="35.748" x2="107.662" y2="35.748"><stop offset="0" stop-color="#2e59bf"/><stop offset="1" stop-color="#593192"/></linearGradient><path d="M107.6 62.7l-2-34h-.4v-2.4c0-.2 0-.3-.1-.4l-.4-.6V8.8h-1.1v16.6l-.4.6c-.1.1-.1.2-.1.4v2.4h-.4l-2 34 6.9-.1z" fill="url(#I)"/><linearGradient id="J" gradientUnits="userSpaceOnUse" x1="94.701" y1="50.247" x2="113.629" y2="50.247"><stop offset="0" stop-color="#4c3ea1"/><stop offset="1" stop-color="#2e3192"/></linearGradient><use xlink:href="#e" fill="url(#J)"/><use xlink:href="#e" class="K L"/><linearGradient id="K" gradientUnits="userSpaceOnUse" x1="94.337" y1="56.516" x2="113.993" y2="56.516"><stop offset="0" stop-color="#2e59bf"/><stop offset="1" stop-color="#593192"/></linearGradient><path d="M112.1 61.2v-.4l1.9-8.7c0-1.1-.8-1.9-1.9-1.9H96.2c-1.1 0-1.9.8-1.9 1.9l1.9 8.7v.4c-.4 0-.8.3-.8.8 0 .4.3.8.8.8h15.9c.4 0 .8-.3.8-.8 0-.4-.4-.8-.8-.8z" fill="url(#K)"/><linearGradient id="L" gradientUnits="userSpaceOnUse" x1="111.69" y1="41.046" x2="96.683" y2="41.046"><stop offset="0" stop-color="#4c3ea1"/><stop offset="1" stop-color="#2e3192"/></linearGradient><path d="M99.6 35.6h9.2c.8.1 1.5.8 1.5 1.7l1.5 7.6c0 .8-.6 1.6-1.5 1.7H98.1c-.8-.1-1.5-.8-1.5-1.7l1.5-7.6c0-.9.6-1.7 1.5-1.7z" fill="url(#L)"/><path d="M95.2 56h17.9l.6-2.3h-19zm17.7 1.1H95.4l.5 2.2h16.5zm-16.7 3.4l.1.3c0 1.1.8 1.9 1.9 1.9h12.1c1.1 0 1.9-.8 1.9-1.9l.1-.3H96.2zm17.7-7.9l.1-.4c0-1.1-.8-1.9-1.9-1.9H96.2c-1.1 0-1.9.8-1.9 1.9l.1.4h19.5z" class="M"/><linearGradient id="M" gradientUnits="userSpaceOnUse" x1="97.191" y1="40.925" x2="111.144" y2="40.925"><stop offset="0" stop-color="#1d7ee8"/><stop offset="1" stop-color="#2ea7db"/></linearGradient><path fill="url(#M)" d="M97.2 42.9h14l-.8-3.9H97.9z" class="Q"/><g class="O"><path d="M105 42.7h4.7l-.5-2.2H105zm-4.1-2.2h3.8v2.3h-3.8zm-2.3 0h1.9v2.3h-1.9z" opacity=".4"/><path d="M103.6 13.5l-.2 4.1h1.5l-.1-4.1z"/><circle cx="104.2" cy="33" r="1.1" class="K Q"/></g><path d="M110.2 42.6c0-.8-.6-1.5-1.4-1.5h-9.3c-.8 0-1.4.7-1.4 1.5h12.1z" class="K N"/><g class="O K"><circle cx="104.2" cy="61.8" r=".4" class="Q"/><circle cx="100.4" cy="61.8" r=".4" class="Q"/><circle cx="108" cy="61.8" r=".4" class="Q"/></g><linearGradient id="N" gradientUnits="userSpaceOnUse" x1="132.477" y1="132.371" x2="168.837" y2="132.371"><stop offset="0" stop-color="#2e60e8"/><stop offset="1" stop-color="#2e74db"/></linearGradient><path fill="url(#N)" d="M132.5 104.1h36.4v56.6h-36.4z"/><g class="O"><path d="M164.4 156.2h1.6v1.6h-1.6z" class="K P"/><path d="M158.7 156.2h1.6v1.6h-1.6z"/><path d="M141.4 156.2h1.6v1.6h-1.6zm-5.7 0h1.6v1.6h-1.6zm28.7-5.6h1.6v1.6h-1.6z" class="K P"/><path d="M158.7 150.6h1.6v1.6h-1.6z"/><path d="M164.4 144.9h1.6v1.6h-1.6z" class="K P"/><path d="M158.7 144.9h1.6v1.6h-1.6z"/><path d="M153.1 144.9h1.6v1.6h-1.6zm11.3-5.7h1.6v1.6h-1.6z" class="K P"/><path d="M158.7 139.2h1.6v1.6h-1.6zm5.7-5.6h1.6v1.6h-1.6z"/><path d="M158.7 133.6h1.6v1.6h-1.6zm5.7-5.7h1.6v1.6h-1.6zm-5.7 0h1.6v1.6h-1.6zm5.7-6h1.6v1.6h-1.6zm-5.7 0h1.6v1.6h-1.6zm5.7-5.7h1.6v1.6h-1.6z" class="K P"/><path d="M158.7 116.2h1.6v1.6h-1.6z"/><path d="M164.4 110.6h1.6v1.6h-1.6zm-5.7 0h1.6v1.6h-1.6z" class="K P"/></g><path d="M132.5 104.1h36.4v2.8h-36.4z" class="K N"/><linearGradient id="O" gradientUnits="userSpaceOnUse" x1="18.948" y1="142.745" x2="187.644" y2="142.745"><stop offset="0" stop-color="#2e3192"/><stop offset="1" stop-color="#2f0b81"/></linearGradient><path fill="url(#O)" d="M187.6 155l-.6-.7-12.5 12.5v-24.1l-.9-.4-10.6 10.6v-18.4l-1-.8-8.7 8.6v-13.8l-1-.8-8.7 8.7v-12.1l-1-.8-8.7 8.7v-11.1l-1.5-.4-8.6 8.7v-10.2l-1-.8-8.7 8.7v-10h-1.5l-10.1 10v-10.6h-.9v10.3l-10.2-10.2-.8.3v10.9l-8.9-8.9-1.3.3v10l-8.3-8.3-.9-.2v12.6l-8.8-8.7-.9.2V137l-8-7.9-1.2.3v12.2l-7.9-7.8-.9.4v17.1l-9.8-9.8-1.2-.6v26.6l-12.9-12.9-.7.7 13.6 13.5v.2h.8v-26.5l10.1 10 .1 2.7h.9v-20.1l7.9 7.8v12.3h.9v-12.5h.1l-.1-.2V130l8.3 8.3v16.9h.9v-16.1l.6-.6-.6-.6v-12l8.7 8.6h.1v20.7h.9v-33l8.3 8.3v24.7h1v-35.3l9.1 9.1.1-.1v26.7h.9V118l10 10.1.1-.1v27.2h.9v-26.8l10.7-10.6v37.4h.9v-26.8l8.8-8.7v35.1h.9v-24.1l9.2-9.2v33.3h.9v-21.3l8.8-8.8v29.6h.9v-16.7l8.8-8.7v25.4h.9v-10.7l8.8-8.7v19.4h.9v-.1l10.6-10.6v24.1l-.4.4.4.5v.4h.9v-.9z"/><linearGradient id="P" gradientUnits="userSpaceOnUse" x1="4.995" y1="141.633" x2="196.42" y2="141.633"><stop offset="0" stop-color="#2e3192"/><stop offset="1" stop-color="#2f0b81"/></linearGradient><path d="M195.1 166.8c-2.3-3.9-4.8-7.6-7.6-11.1h8.7v-2.3h-10.6c-17-19.9-45.8-37.5-84.7-38.7-38.9 1.3-67.7 18.8-84.7 38.7H12l-.2 2.3h2.4c-2.8 3.5-5.4 7.2-7.6 11.1H5v1.8h29v-1.9h-.5c1.6-4 3.8-7.7 6.3-11.1h121.8c2.6 3.4 4.7 7.1 6.3 11.1h-.7v1.9h29.1v-1.9l-1.2.1zm-163-25.3c16.6-13.5 39.7-23.8 68.7-24.8 29 1 52.1 11.3 68.7 24.8 4.7 3.6 9 7.6 12.9 12h-19.6c-11.9-15.3-34.2-27.1-62-26.5-27.8-.6-50.1 11.3-62 26.5H19.2c4-4.4 8.3-8.4 12.9-12zm-.8 25.3H9c2.4-3.9 5.2-7.6 8.2-11.1h20c-2.5 3.4-4.5 7.1-5.9 11.1zm10.4-13.4c12-14.2 33-25 59.1-24.4 26-.5 47.1 10.2 59.1 24.4H41.7zm128.6 13.4c-1.4-3.9-3.4-7.6-5.8-11.1h20c3 3.5 5.7 7.2 8.2 11.1h-22.4z" fill="url(#P)"/><linearGradient id="Q" gradientUnits="userSpaceOnUse" x1="13.5" y1="67.782" x2="4.488" y2="67.782"><stop offset="0" stop-color="#3651bf"/><stop offset="1" stop-color="#2e5bdb"/></linearGradient><path fill="url(#Q)" d="M8.5 45.6v25.9l-4 3.3v18h4v-21h5v-29z"/><linearGradient id="R" gradientUnits="userSpaceOnUse" x1="4.494" y1="108.328" x2=".485" y2="108.328"><stop offset="0" stop-color="#3651bf"/><stop offset="1" stop-color="#2e5bdb"/></linearGradient><path fill="url(#R)" d="M.5 118.3v-.1 5.6h4V92.9l-4 2.9z"/><linearGradient id="S" gradientUnits="userSpaceOnUse" x1="41.5" y1="107.75" x2="4.5" y2="107.75"><stop offset="0" stop-color="#3651bf"/><stop offset="1" stop-color="#2e5bdb"/></linearGradient><path d="M28.5 42.8h8v29h5v101h-37v-80h4v-21h5v-29h6" fill="url(#S)"/><linearGradient id="T" gradientUnits="userSpaceOnUse" x1="26.5" y1="42.75" x2="20.5" y2="42.75"><stop offset="0" stop-color="#3651bf"/><stop offset="1" stop-color="#2e5bdb"/></linearGradient><path d="M20.5 42.8h6" fill="url(#T)"/><linearGradient id="U" gradientUnits="userSpaceOnUse" x1="4.5" y1="122.25" x2="36.5" y2="122.25"><stop offset="0" stop-color="#3651bf"/><stop offset="1" stop-color="#2e5bdb"/></linearGradient><path fill="url(#U)" d="M36.5 92.8v-21h-19v46h-13v55h32z"/><linearGradient id="V" gradientUnits="userSpaceOnUse" x1="13.514" y1="96.25" x2="17.514" y2="96.25"><stop offset="0" stop-color="#3651bf"/><stop offset="1" stop-color="#2e5bdb"/></linearGradient><path fill="url(#V)" d="M13.5 71.8h4v49h-4z"/><linearGradient id="W" gradientUnits="userSpaceOnUse" x1=".486" y1="145.257" x2="4.486" y2="145.257"><stop offset="0" stop-color="#3651bf"/><stop offset="1" stop-color="#2e5bdb"/></linearGradient><path fill="url(#W)" d="M.5 172.8h4v-55l-4 2.6z"/><path d="M17.5 71.8h19.1v3H17.5zm-4 0v46h-9v3h13v-49z" class="K M"/><path d="M19.5 42.8h-6v-.1l-.2.1h.2l-5 2.6v26l-4 3.6v17.9l-4 3v76.9h4v-55h1v-26h3v-20h5v-26h23v-3h-8m-2 0h-6" class="K M"/><linearGradient id="X" gradientUnits="userSpaceOnUse" x1="71.122" y1="110.712" x2="41.759" y2="110.712"><stop offset="0" stop-color="#2e59bf"/><stop offset="1" stop-color="#593192"/></linearGradient><path d="M41.8 160.8V60.6c15.9 0 28.8 5.5 29.3 12.5v87.6H41.8z" fill="url(#X)"/><path d="M41.6 160.8V60.5c15.9 0 28.9 5.6 29.4 12.5v87.7H41.6z" class="K M"/><linearGradient id="Y" gradientUnits="userSpaceOnUse" x1="75.54" y1="114.492" x2="46.469" y2="114.492"><stop offset="0" stop-color="#2e59bf"/><stop offset="1" stop-color="#593192"/></linearGradient><path d="M46.5 161.8V67.2c15.9 0 28.6 5.5 29.1 12.3 0 0 0 .1-.1.1v81.1l-29 1z" fill="url(#Y)"/><path d="M46.5 76.7c13.6 0 25.1 3.2 29 7.7v2.1c-3.9-4.5-15.4-7.7-29-7.7v-2.1zm0 7.6c13.6 0 25.1 3.2 29 7.7v2.1c-3.9-4.5-15.4-7.7-29-7.7v-2.1zm0 7.6c13.6 0 25.1 3.2 29 7.7v2.1c-3.9-4.5-15.4-7.7-29-7.7v-2.1zm0 7.7c13.6 0 25.1 3.2 29 7.7v2.1c-3.9-4.5-15.4-7.7-29-7.7v-2.1zm0 7.6c13.6 0 25.1 3.2 29 7.7v2.1c-3.9-4.5-15.4-7.7-29-7.7v-2.1zm0 7.6c13.6 0 25.1 3.2 29 7.7v2.1c-3.9-4.5-15.4-7.7-29-7.7v-2.1zm0 8c13.6 0 25.1 3.2 29 7.7v2.1c-3.9-4.5-15.4-7.7-29-7.7v-2.1z" class="K M"/><path d="M46.5 70.4v-3.2c14 0 25.7 4.3 28.5 10-4.7-3.9-15.7-6.8-28.5-6.8z" opacity=".4"/><path d="M46.5 132.1c13.6 0 25.1 3.2 29 7.7v2.1c-3.9-4.5-15.4-7.7-29-7.7v-2.1zm.4 7.7c13.5 0 24.9 3.2 28.8 7.6v2.1c-3.8-4.4-15.2-7.6-28.8-7.6v-2.1zm0 7.6c13.5 0 24.9 3.2 28.8 7.6v2.1c-3.8-4.4-15.2-7.6-28.8-7.6v-2.1zm26 13.3h-4.4c-5.5-2.1-13.2-3.4-21.7-3.4v-2.1c11.1.1 20.8 2.2 26.1 5.5z" class="K M"/><linearGradient id="Z" gradientUnits="userSpaceOnUse" x1="197.5" y1="110.838" x2="156.5" y2="110.838"><stop offset="0" stop-color="#3651bf"/><stop offset="1" stop-color="#2e5bdb"/></linearGradient><path fill="url(#Z)" d="M197.5 172.8V48.9l-41 45.3v78.6h41"/><linearGradient id="a" gradientUnits="userSpaceOnUse" x1="200.511" y1="110.838" x2="197.511" y2="110.838"><stop offset="0" stop-color="#2e3192"/><stop offset="1" stop-color="#4c3ea1"/></linearGradient><path fill="url(#a)" d="M200.5 172.8h-3V48.9l3 4.4z"/><g class="O K"><use xlink:href="#f" class="R"/><path d="M18.5 59.8h13v3h-13zm0 5h13v3h-13zm0-15h13v3h-13zm0 5h13v3h-13z" class="L"/><use xlink:href="#f" y="26" class="R"/><path d="M7.5 133.8h9v3h-9zm0 5h9v3h-9zm0 5h9v3h-9zm0-21h9v3h-9zm0 6h9v3h-9zm0 30h9v3h-9zm0 5h9v3h-9zm0 5h9v3.5h-9zm0-20h9v3h-9zm0 5h9v3h-9zm-1-48h5v3h-5zm0 5h5v3h-5zm0-15h5v3h-5zm0 5h5v3h-5zm15 29h11v3h-11z" class="L"/><use xlink:href="#f" y="56" class="R"/><path d="M21.5 159.8h11v3h-11z" class="L"/><path d="M163.5 120.8h27v3h-27zm0 6h27v3h-27zm0 6h27v3h-27zm0 5h27v3h-27zm0 6h27v3h-27zm0 6h27v3h-27zm0 6h27v3h-27zm0 5h27v3h-27zm0-52h27v3h-27zm0 6h27v3h-27z" class="N"/></g><g opacity=".8"><defs><path id="b" d="M193.5 101.8h-30v-5.5l30-32.1z"/><path id="c" d="M21.8 43.7v-3.9h-.1c-.1 0-.2-.1-.2-.3s.1-.3.2-.3h.4v-9.5h.4v9.5h.4c.1 0 .2.1.2.3s-.1.3-.2.3h-.1v3.9"/><path id="d" d="M27.7 43.7v-5.2h-.1c-.2 0-.3-.2-.3-.4s.2-.4.3-.4h.5V25h.5v12.7h.5c.2 0 .3.2.3.4s-.2.4-.3.4H29v5.2"/><path id="e" d="M113.6 49.5c-.4-.5-.9-.8-1.5-.8H96.2c-.6 0-1.2.3-1.5.8h.8v2.3h.8v-2.3h1.9v2.3h.8v-2.3h1.9v2.3h.8v-2.3h1.9v2.3h.8v-2.3h1.9v2.3h.8v-2.3h1.9v2.3h.8v-2.3h1.9v2.3h.8v-2.3h1.1z"/><path id="f" d="M21.5 88.8h11v3h-11zm0 5h11v3h-11zm0 5h11v3h-11zm0-20h11v3h-11zm0 5h11v3h-11z"/><path id="g" d="M139.6 163.7c-.1-3.6-2.7-6.2-6.5-8.3 2.1 3.6 1.3 7.9 1.3 7.9l.2 1.8h5.1l-.1-1.4z"/></defs><clipPath id="h"><use xlink:href="#b"/></clipPath><g clip-path="url(#h)" class="K O"><path d="M163.5 75.8h27v3h-27zm0 6h27v3h-27zm0-11h27v3h-27zm0 17h27v3h-27zm0 6h27v3h-27z" class="N"/></g></g><linearGradient id="i" gradientUnits="userSpaceOnUse" x1="65.715" y1="136.86" x2="85.684" y2="136.86"><stop offset="0" stop-color="#451088"/><stop offset="1" stop-color="#593179"/></linearGradient><path d="M67.2 112.8s-2.1 14.8-1.3 17.8l.2 2.1c8.4 7.1 13 18.8 5.8 28.4h13.8c.5-39-18.5-48.3-18.5-48.3z" fill="url(#i)"/><path d="M67.2 112.8s-2.1 14.9-1.3 17.8l.2 2.1c8.2 7.2 12.7 18.9 5.6 28.5h13.5c.6-39.1-18-48.4-18-48.4z" class="K L"/><path d="M70.2 137.2c6.4 7.4 7 17.8.6 26.5h14.8c.2-16.4-2.6-28-6.2-36.1-3.1-1.9-10.1 8.6-9.2 9.6z" class="K L"/><linearGradient id="j" gradientUnits="userSpaceOnUse" x1="67.118" y1="137.184" x2="95.008" y2="137.184"><stop offset="0" stop-color="#451088"/><stop offset="1" stop-color="#593179"/></linearGradient><path d="M94.9 141.5c-2.3-17.8-14.9-23.6-27.7-29.2l-.1.6c3.6 2.6 16.4 14.1 16 47.1l6.1 2.1c0-.1 6.7-13.9 5.7-20.6z" fill="url(#j)"/><linearGradient id="k" gradientUnits="userSpaceOnUse" x1="89.409" y1="154.433" x2="100.133" y2="154.433"><stop offset="0" stop-color="#451088"/><stop offset="1" stop-color="#593179"/></linearGradient><path d="M95.5 143.2l-.6-.6c-.4 6.4-4.7 15.9-5.6 17.7v3.8c2.7 1.4 5.6 2.1 8.6 2.1.7 0 1.4 0 2.1-.1v-3.8c.3-12.7-4.5-19.1-4.5-19.1z" fill="url(#k)"/><linearGradient id="l" gradientUnits="userSpaceOnUse" x1="94.428" y1="153.139" x2="108.988" y2="153.139"><stop offset="0" stop-color="#451088"/><stop offset="1" stop-color="#593179"/></linearGradient><path d="M100.1 163.3h8.8c-.6-7.9-5.7-14.5-13.1-20.4h-1.5l1.1 1.2c.1.1 4.9 6.5 4.7 19.2z" fill="url(#l)"/><linearGradient id="m" gradientUnits="userSpaceOnUse" x1="94.823" y1="150.394" x2="119.251" y2="150.394"><stop offset="0" stop-color="#451088"/><stop offset="1" stop-color="#593179"/></linearGradient><path d="M108 162.9h4.9l6.3-23s-15.2-5.9-24.4 2.4c7.5 5.9 12.7 12.5 13.2 20.6z" fill="url(#m)"/><path d="M108.5 163.8c-.6-7.9-5.7-14.5-13.1-20.4H94l1.1 1.2c.4.6.8 1.2 1.1 1.9-.3-.6-.7-1.3-1.1-1.9l-.6-.6c-.4 6.4-4.7 15.9-5.6 17.7v3.8a18.52 18.52 0 0 0 8.6 2.1c.7 0 1.4 0 2.1-.1v-3.8c0-2.2-.1-4.3-.4-6.5l-.3-1.9.3 1.9c.3 2.1.4 4.3.4 6.5l8.9.1zm-12.1-16.9c.1.3.3.6.4.9-.2-.3-.3-.6-.4-.9z" class="O R"/><linearGradient id="n" gradientUnits="userSpaceOnUse" x1="133.122" y1="160.257" x2="139.609" y2="160.257"><stop offset="0" stop-color="#451088"/><stop offset="1" stop-color="#593179"/></linearGradient><use xlink:href="#g" fill="url(#n)"/><use xlink:href="#g" y="0.6" class="K L O"/><linearGradient id="o" gradientUnits="userSpaceOnUse" x1="131.183" y1="158.89" x2="149.059" y2="158.89"><stop offset="0" stop-color="#451088"/><stop offset="1" stop-color="#593179"/></linearGradient><path d="M131.2 155.4s6.2-4.3 17.9-2.7l-5.5 12.8-4.7-1.2c-.1-4.2-3.3-6.9-7.7-8.9z" fill="url(#o)"/><linearGradient id="p" gradientUnits="userSpaceOnUse" x1="121.638" y1="158.134" x2="134.923" y2="158.134"><stop offset="0" stop-color="#451088"/><stop offset="1" stop-color="#593179"/></linearGradient><path d="M121.6 152.3c4.7 3.8 8.7 7.7 11.2 11.6h1.9s.8-4.7-1.5-8.1c-2.3-3.5-11.6-3.5-11.6-3.5z" fill="url(#p)"/><linearGradient id="q" gradientUnits="userSpaceOnUse" x1="121.638" y1="157.992" x2="132.865" y2="157.992"><stop offset="0" stop-color="#451088"/><stop offset="1" stop-color="#593179"/></linearGradient><path d="M122.2 152.5l-.6-.1c1.3 4.5 2.6 8.9 5 11.2h6.2c-2.3-3.8-6.1-7.5-10.6-11.1z" fill="url(#q)"/><path d="M122.2 152.6l-.6-.1c1.3 4.5 2.6 8.9 5 11.2h6.2c-2.3-3.7-6.1-7.4-10.6-11.1z" class="K L"/><linearGradient id="r" gradientUnits="userSpaceOnUse" x1="52.032" y1="140.844" x2="68.646" y2="140.844"><stop offset="0" stop-color="#451088"/><stop offset="1" stop-color="#593179"/></linearGradient><path d="M58.4 156.7h10.2c.5-12.4-16.1-31.7-16.1-31.7s-1.1 11.2 0 13.9l5.9 17.8z" fill="url(#r)"/><path d="M58.3 156.3h10.1c.5-12.3-16-31.4-16-31.4s-1.1 11.1 0 13.8l5.9 17.6z" class="K L"/><path d="M54.1 143.5l4.2 12.7h10.1c.3-6.5-4.2-15-8.6-21.5-2.7 1.8-4.8 4.9-5.7 8.8z" class="K L"/><linearGradient id="s" gradientUnits="userSpaceOnUse" x1="30.273" y1="151.689" x2="40.533" y2="151.689"><stop offset="0" stop-color="#451088"/><stop offset="1" stop-color="#593179"/></linearGradient><path d="M37.8 146.2c-1.8-1.6-7.5-.4-7.5-.4l8.3 12.2h1.9l-.6-2.8c-1-2.9-1.7-5.9-2.1-9z" fill="url(#s)"/><linearGradient id="t" gradientUnits="userSpaceOnUse" x1="35.773" y1="146.425" x2="58.907" y2="146.425"><stop offset="0" stop-color="#451088"/><stop offset="1" stop-color="#593179"/></linearGradient><path d="M56.3 140.8c-6.3-5.9-20-4.4-20.5-4.9l.2.3c.5 7.5 1.6 14.6 4.2 20.5h14.4l.2.2 3.9-2.4c1-4.4-2.4-13.7-2.4-13.7z" fill="url(#t)"/><path d="M36.2 136.2s10.8 5.9 19 20.5H40.3c-2.5-5.9-3.6-13-4.1-20.5z" class="K L"/><path d="M54.8 158.9c-1.3-4.3-3.5-8.3-6.4-11.7-2.8 1.7-4.9 4.9-5.8 8.7l1 3h11.2z" class="K L"/><linearGradient id="u" gradientUnits="userSpaceOnUse" x1="51.422" y1="141.845" x2="76.469" y2="143.294"><stop offset="0" stop-color="#451088"/><stop offset="1" stop-color="#593179"/></linearGradient><path d="M52.4 125c3.1 4.3 15.2 21.6 14.6 33.2l5.4 1.8c11.1-14.8-5.3-35.2-20-35z" fill="url(#u)"/><linearGradient id="v" gradientUnits="userSpaceOnUse" x1="150.96" y1="161.276" x2="22.75" y2="161.276"><stop offset="0" stop-color="#451088"/><stop offset="1" stop-color="#593179"/></linearGradient><path fill="url(#v)" d="M134.1 163.3h-4.9l-6.1-3.3h-11.7v.1h-18l-7.1-4.8H70.5v-.1l-13-4.4h-6.8l-8.7 4.5h-7.2v4.8h-5.3v3.5h-6.8v8.2H151v-8.5z"/><path d="M137.8 162.8v1h-2.5v-1.6z" class="K M"/><path d="M29.5 159.8h9.8v.4h-9.8zm121.3 3.7h-16.6v-.1l-.1-.1h-4.9l-6.1-3.3-29.7.1-7.1-4.8H70.5v-.1l-13-4.4h-6.8l-8.7 4.5h-7.2v1.6H42l8.7-4.6h6.8l13 4.5v.1h15.8v-.1l7.1 4.8 29.7-.1 6.1 3.4h21.6z" class="K N"/><path d="M93.4 160l-7.1-4.7H70.5V171h22.9v-11z" class="K L"/><linearGradient id="w" gradientUnits="userSpaceOnUse" x1="155.247" y1="171.816" x2="17.816" y2="171.816"><stop offset="0" stop-color="#451088"/><stop offset="1" stop-color="#593179"/></linearGradient><path fill="url(#w)" d="M17.8 171h137.4v1.7H17.8z"/><path d="M95.9 167.9h29.6c.2 0 .3.1.3.3s-.1.3-.3.3H95.9c-.2 0-.3-.1-.3-.3s.2-.3.3-.3z" class="K M"/><path d="M135.7 167.9h13.6c.2 0 .3.1.3.3s-.1.3-.3.3h-13.6c-.2 0-.3-.1-.3-.3-.1-.2.1-.3.3-.3z" class="K N"/><path d="M95.6 168.8h5.8v2.1h-5.8zm6.1 0h5.8v2.1h-5.8zm6.1 0h5.8v2.1h-5.8zm6.2 0h5.8v2.1H114zm6.1 0h5.8v2.1h-5.8zm15.2 0h14.2v2.1h-14.2zm-7.6-.3h2.4v2.4h-2.4z" class="K M"/><path d="M17.9 171h137.3v1.7H17.9z" class="K N"/><path d="M95.8 166.1h18c.1 0 .2.1.2.2s-.1.2-.2.2h-18c-.1 0-.2-.1-.2-.2s.1-.2.2-.2zm21.1 0h8.9c.1 0 .2.1.2.2s-.1.2-.2.2h-8.9c-.1 0-.2-.1-.2-.2s.1-.2.2-.2zm-57.2 0h8.9c.1 0 .2.1.2.2s-.1.2-.2.2h-8.9c-.1 0-.2-.1-.2-.2s.1-.2.2-.2zm12.8 0h19c.1 0 .2.1.2.2s-.1.2-.2.2h-19c-.1 0-.2-.1-.2-.2.1-.1.1-.2.2-.2z" class="K M"/><path d="M74.2 163h4.3v1.8h-4.3zm13.1 4.9h4.3v3.1h-4.3zM29.5 162h9.8v.4h-9.8zm-6.8 1.7h16.6v.4H22.7z" class="K N"/><path d="M43.5 163.7h18.3v.4H43.5z" class="K M"/><path d="M22.7 165.8h16.6v.4H22.7zm0 2.1h16.6v.4H22.7z" class="K N"/><path d="M106.1 158v1.7h-4.3V157zm-12.2 0v1.7h4.4V157z" class="K M"/><path d="M76.7 153v2H82v-3.2z" class="K L"/></svg>