<svg xmlns="http://www.w3.org/2000/svg" xmlns:xlink="http://www.w3.org/1999/xlink" viewBox="0 0 200 172"><style>.I{enable-background:new}.J{opacity:.3}.K{fill:#fff}.L{opacity:.1}.M{opacity:.15}</style><path d="M10.5 76.8h2v4h-2zm11 0h2v4h-2z" class="I J"/><linearGradient id="A" x1="13.7" x2="187.8" y1="108.433" y2="108.433" gradientUnits="userSpaceOnUse"><stop offset="0" stop-color="#1d7ee8"/><stop offset="1" stop-color="#2ea7db"/></linearGradient><path fill="url(#A)" d="M136.7 46.8c-4.3 2.4-10.7 4.3-14.7 2.7-6.1-2.4-15.4-3.6-17-2.4s-8.9 6.1-19.8.4c-4.3-2.2-9.2-3.1-14-2.4L13.9 94l-.2 78h174.1v-68.3c.1 0-30.2-34.3-51.1-56.9z"/><path d="M164 155v-21h-14v12h-7v-19.8l-12-7.9V146h-1v-15h-13v8H93v-12.4l-8-7V145h-5v-14H43v24H16v17h173v-17z" opacity=".2"/><linearGradient id="B" x1="197" x2="159" y1="114.5" y2="114.5" gradientUnits="userSpaceOnUse"><stop offset="0" stop-color="#3651bf"/><stop offset="1" stop-color="#2e5bdb"/></linearGradient><path fill="url(#B)" d="M197 172V57l-38 41.6V172h38"/><path d="M164 128h28v3h-28zm0 5h28v3h-28zm0 6h28v3h-28zm0 6h28v3h-28zm0 6h28v3h-28zm0-35h28v3h-28zm0 6h28v3h-28z" class="I K M"/><g opacity=".6"><defs><path id="C" d="M195 109h-30l.1-7.3L195 69z"/><path id="D" d="M52.7 50.9h10.1c.3 0 .6.3.6.6s-.3.6-.6.6H52.7c-.3 0-.6-.3-.6-.6 0-.4.3-.6.6-.6z"/><path id="E" d="M52.7 55.7h10.1c.3 0 .6.3.6.6s-.3.6-.6.6H52.7c-.3 0-.6-.3-.6-.6s.3-.6.6-.6z"/><path id="F" d="M123.2 160.8h.4v3.6h-.4z"/><path id="G" d="M29 155h8v3h-8zm0 5h8v3h-8zm0 5h8v3h-8zm0-20h8v3h-8zm0 5h8v3h-8z"/></defs><clipPath id="H"><use xlink:href="#C"/></clipPath><g class="K" clip-path="url(#H)"><path d="M164 82h28v3h-28zm0 6h28v3h-28zm0-17h28v3h-28zm0 6h28v3h-28zm0 17h28v3h-28zm0 6h28v3h-28z" opacity=".2"/></g></g><path fill="#bde6ff" d="M85.3 47.5c10.9 5.7 18.2.8 19.8-.4s10.9 0 17 2.4c4 1.6 10.4-.3 14.7-2.7l-13.9-14.7c-16.6-16.6-36.4 0-36.4 0l-15.2 13c4.8-.7 9.7.2 14 2.4z" opacity=".8"/><linearGradient id="I" x1="82.424" x2="128.424" y1="108.4" y2="108.4" gradientUnits="userSpaceOnUse"><stop offset="0" stop-color="#451088"/><stop offset="1" stop-color="#593179"/></linearGradient><path fill="url(#I)" d="M111.4 122.4l-3.2-37.6-.4-8.9-.8-5.3-.8-18.2h-1.1l-.8 18.2-.8 5.3v8.9l-3.6 37.6c-2 26.3-17.4 42-17.4 42h4.8c8.3-11.7 17-11.7 17-11.7v11.7h2.8v-11.7s8.7 0 17 11.7h4.4c-16.3-17.4-17.1-42-17.1-42zm-7.2 27.1c-2.2.3-4.4.8-6.5 1.6l1.2-3.2h5.3v1.6zm0-3.3h-4.8l1.2-3.6h3.6v3.6zm0-5.2H101l.8-3.6h2.4v3.6zm0-5.3h-2.4l.4-3.6h2v3.6zm0-5.2h-1.6l.4-2h1.2v2zm2.9-2h1.2l.4 2h-1.6v-2zm0 3.6h2l.4 3.6h-2.4v-3.6zm0 5.2h2.4l.8 3.6h-3.2v-3.6zm0 5.3h3.6l1.2 3.6h-4.8v-3.6zm0 6.9v-1.6h5.3l1.2 3.2c-2.2-.8-4.3-1.4-6.5-1.6z"/><path d="M103.4 76.3h4.4v2.4h-4.4z" class="I K L"/><linearGradient id="J" x1="100.6" x2="111.1" y1="81.8" y2="81.8" gradientUnits="userSpaceOnUse"><stop offset="0" stop-color="#451088"/><stop offset="1" stop-color="#593179"/></linearGradient><path fill="url(#J)" d="M109.9 84.8h-8.1l-1.2-6h10.5z"/><linearGradient id="K" x1="95.758" x2="115.558" y1="120.35" y2="120.35" gradientUnits="userSpaceOnUse"><stop offset="0" stop-color="#451088"/><stop offset="1" stop-color="#593179"/></linearGradient><path fill="url(#K)" d="M113.1 124H98.2l-2.4-7.3h19.8z"/><linearGradient id="L" x1="102.222" x2="109.091" y1="73.3" y2="73.3" gradientUnits="userSpaceOnUse"><stop offset="0" stop-color="#451088"/><stop offset="1" stop-color="#593179"/></linearGradient><path fill="url(#L)" d="M103.6 70.3h4.3l1.2 1.6v2.8l-1.2 1.6h-4.3l-1.4-1.8v-2.6z"/><path d="M109.9 84.8h-8.1l-1.2-6h10.5zm3.2 39.2H98.2l-2.4-7.3h19.8zm-9.5-53.7h4.3l1.2 1.6v2.8l-1.2 1.6h-4.3l-1.4-1.8v-2.6z" class="I M"/><path d="M110.7 119.2c.2 0 .4.2.4.4v1.6c0 .2-.2.4-.4.4s-.4-.2-.4-.4v-1.6c0-.3.2-.4.4-.4zm-2 0c.2 0 .4.2.4.4v1.6c0 .2-.2.4-.4.4s-.4-.2-.4-.4v-1.6c0-.3.1-.4.4-.4zm-2 0c.2 0 .4.2.4.4v1.6c0 .2-.2.4-.4.4s-.4-.2-.4-.4v-1.6c0-.3.1-.4.4-.4zm-2.1 0c.2 0 .4.2.4.4v1.6c0 .2-.2.4-.4.4s-.4-.2-.4-.4v-1.6c0-.3.2-.4.4-.4zm-2 0c.2 0 .4.2.4.4v1.6c0 .2-.2.4-.4.4s-.4-.2-.4-.4v-1.6c0-.3.2-.4.4-.4zm-2 0c.2 0 .4.2.4.4v1.6c0 .2-.2.4-.4.4s-.4-.2-.4-.4v-1.6c0-.3.2-.4.4-.4z" class="K"/><linearGradient id="M" x1="4" x2="32" y1="126.161" y2="126.161" gradientUnits="userSpaceOnUse"><stop offset="0" stop-color="#2e59bf"/><stop offset="1" stop-color="#593192"/></linearGradient><path fill="url(#M)" d="M4 80.3h28V172H4z"/><path d="M3.8 80.4H32v3.1H3.8z" class="I J"/><linearGradient id="N" x1="1" x2="4" y1="126.15" y2="126.15" gradientUnits="userSpaceOnUse"><stop offset="0" stop-color="#2e59bf"/><stop offset="1" stop-color="#593192"/></linearGradient><path fill="url(#N)" d="M1 84.4V172h3V80.3z"/><path d="M1 84.4V172h3V80.3z" class="I M"/><linearGradient id="O" x1="48.5" x2="67.1" y1="106.2" y2="106.2" gradientUnits="userSpaceOnUse"><stop offset="0" stop-color="#2e59bf"/><stop offset="1" stop-color="#593192"/></linearGradient><path fill="url(#O)" d="M67.1 172l-5.4-92.4 1.9-3.8-.3-.2-1.7 3.2-2.2-38.4h-3.2l-2.3 38.4-1.6-3.2-.4.2 2 3.8-5.4 92.4z"/><linearGradient id="P" x1="47.273" x2="68.273" y1="70.05" y2="70.05" gradientUnits="userSpaceOnUse"><stop offset="0" stop-color="#4c3ea1"/><stop offset="1" stop-color="#2e3192"/></linearGradient><path fill="url(#P)" d="M64.2 76.7H51.3c-1.1 0-2-.9-2-2l-2-9.3c0-1.1.9-2 2-2h17c1.1 0 2 .9 2 2l-2 9.3c0 1.1-.9 2-2.1 2z"/><linearGradient id="Q" x1="52.121" x2="63.434" y1="51.5" y2="51.5" gradientUnits="userSpaceOnUse"><stop offset="0" stop-color="#4c3ea1"/><stop offset="1" stop-color="#2e3192"/></linearGradient><use fill="url(#Q)" xlink:href="#D"/><use y="2.4" fill="url(#Q)" xlink:href="#D"/><linearGradient id="R" x1="52.121" x2="63.434" y1="56.3" y2="56.3" gradientUnits="userSpaceOnUse"><stop offset="0" stop-color="#4c3ea1"/><stop offset="1" stop-color="#2e3192"/></linearGradient><use fill="url(#R)" xlink:href="#E"/><use y="9.7" fill="url(#Q)" xlink:href="#D"/><use y="2.4" fill="url(#R)" xlink:href="#E"/><linearGradient id="S" x1="52.525" x2="63.025" y1="45.8" y2="45.8" gradientUnits="userSpaceOnUse"><stop offset="0" stop-color="#4c3ea1"/><stop offset="1" stop-color="#2e3192"/></linearGradient><path fill="url(#S)" d="M61 49.1h-6.5c-.6 0-1-.4-1-1l-1-4.6c0-.6.4-1 1-1H62c.6 0 1 .4 1 1l-1 4.6c0 .6-.4 1-1 1z"/><linearGradient id="T" x1="57.374" x2="58.182" y1="31.1" y2="31.1" gradientUnits="userSpaceOnUse"><stop offset="0" stop-color="#3651bf"/><stop offset="1" stop-color="#2e5bdb"/></linearGradient><path fill="url(#T)" d="M57.4 21.8h.8v18.6h-.8z"/><linearGradient id="U" x1="66.667" x2="49.293" y1="124.35" y2="124.35" gradientUnits="userSpaceOnUse"><stop offset="0" stop-color="#4531a7"/><stop offset="1" stop-color="#423179"/></linearGradient><path fill="url(#U)" d="M66.4 172.1L49.3 155l15-15.6-13.4-13.7 12-12.4-10.7-11 9.6-9.8-8.5-8.8 7.1-7.3.2.3-6.8 7 8.5 8.8-9.5 9.8 10.6 11-11.9 12.4 13.3 13.7-15 15.6 16.9 17.3z"/><linearGradient id="V" x1="48.647" x2="66.02" y1="124.35" y2="124.35" gradientUnits="userSpaceOnUse"><stop offset="0" stop-color="#4531a7"/><stop offset="1" stop-color="#423179"/></linearGradient><path fill="url(#V)" d="M48.9 172.1l-.3.2L65.5 155l-15-15.6 13.3-13.7-12-12.4 10.7-11-9.5-9.8 8.5-8.8-6.8-7 .2-.3 7.2 7.3-8.6 8.8 9.6 9.8-10.7 11 12 12.4L51 139.4 66 155z"/><path d="M62.2 172h-8.9l4.1-95.3h.8z" class="I L"/><path d="M63 67h1.6v6.1H63zm-2 0h1.6v6.1H61zm-2 0h1.6v6.1H59zm-2 0h1.6v6.1H57zm-2.1 0h1.6v6.1h-1.6zm-2 0h1.6v6.1h-1.6zm-2 0h1.6v6.1h-1.6zm6.5-43.7h.8v2.8h-.8z" class="K"/><path d="M22.5 62.8h1v14h-1z" class="I J"/><linearGradient id="W" x1="200.5" x2="197" y1="114.5" y2="114.5" gradientUnits="userSpaceOnUse"><stop offset="0" stop-color="#2e3192"/><stop offset="1" stop-color="#4c3ea1"/></linearGradient><path fill="url(#W)" d="M200.5 172H197V57l3.5 4.1z"/><linearGradient id="X" x1="164.848" x2="137.348" y1="153.05" y2="153.05" gradientUnits="userSpaceOnUse"><stop offset="0" stop-color="#451088"/><stop offset="1" stop-color="#593179"/></linearGradient><path fill="url(#X)" d="M137.4 145.8l.8.8s1.2 2.8 20.8 11.7c0 0 4.7.4 5.9-2.4 0 0-.4 3.3-3.4 4.4l-6.7-1.6-17.4-10.1v-2.8z"/><path d="M137.4 145.8l.8.4s4 4.8 20.8 12.1c0 0 4.7.4 5.9-2.4 0 0-.4 3.3-3.4 4.4l-6.7-1.6-17.4-10.1v-2.8z" class="I J"/><linearGradient id="Y" x1="157" x2="155" y1="166.5" y2="166.5" gradientUnits="userSpaceOnUse"><stop offset="0" stop-color="#451088"/><stop offset="1" stop-color="#593179"/></linearGradient><path fill="url(#Y)" d="M155 161h2v11h-2z"/><path d="M155 161h2v11h-2z" class="I J"/><linearGradient id="Z" x1="155" x2="120" y1="166.5" y2="166.5" gradientUnits="userSpaceOnUse"><stop offset="0" stop-color="#451088"/><stop offset="1" stop-color="#593179"/></linearGradient><path fill="url(#Z)" d="M120 161h35v11h-35z"/><linearGradient id="a" x1="163.636" x2="111.134" y1="153.1" y2="153.1" gradientUnits="userSpaceOnUse"><stop offset="0" stop-color="#451088"/><stop offset="1" stop-color="#593179"/></linearGradient><path fill="url(#a)" d="M116.4 159s21-9.4 21-13.6c0 4.2 21 13.6 21 13.6 1.4.5 5.3-1 5.3-1 0 2.8-4.8 2.8-4.8 2.8H116s-4.8 0-4.8-2.8c-.1-.1 3.3 1.5 5.2 1z"/><path d="M116.4 159.4s19.2-8.9 20.8-13.4c0-.1.1-.1.2-.1 0 0 .1 0 .1.1 1.7 4.4 20.8 13 20.8 13 1 .5 5.3-1 5.3-1 0 2.8-4.8 2.8-4.8 2.8H116s-4.8 0-4.8-2.8c-.1-.1 2.9 1.5 5.2 1.4z" class="I L"/><path d="M121 162h6v10h-6zm27 0h-20v10h26v-10z" class="I J K"/><linearGradient id="b" x1="161" x2="159" y1="166.5" y2="166.5" gradientUnits="userSpaceOnUse"><stop offset="0" stop-color="#451088"/><stop offset="1" stop-color="#593179"/></linearGradient><path fill="url(#b)" d="M159 161h2v11h-2z"/><path d="M159 161h2v11h-2z" class="I J"/><linearGradient id="c" x1="132" x2="130" y1="166.5" y2="166.5" gradientUnits="userSpaceOnUse"><stop offset="0" stop-color="#451088"/><stop offset="1" stop-color="#593179"/></linearGradient><path fill="url(#c)" d="M130 161h2v11h-2z"/><linearGradient id="d" x1="145" x2="143" y1="166.5" y2="166.5" gradientUnits="userSpaceOnUse"><stop offset="0" stop-color="#451088"/><stop offset="1" stop-color="#593179"/></linearGradient><path fill="url(#d)" d="M143 161h2v11h-2z"/><linearGradient id="e" x1="117" x2="115" y1="166.5" y2="166.5" gradientUnits="userSpaceOnUse"><stop offset="0" stop-color="#451088"/><stop offset="1" stop-color="#593179"/></linearGradient><path fill="url(#e)" d="M115 161h2v11h-2z"/><linearGradient id="f" x1="160" x2="158" y1="166.5" y2="166.5" gradientUnits="userSpaceOnUse"><stop offset="0" stop-color="#451088"/><stop offset="1" stop-color="#593179"/></linearGradient><path fill="url(#f)" d="M158 161h2v11h-2z"/><path d="M130 161h2v11h-2zm13 0h2v11h-2zm-28 0h2v11h-2zm43 0h2v11h-2z" class="I L"/><linearGradient id="g" x1="123.636" x2="123.232" y1="162.6" y2="162.6" gradientUnits="userSpaceOnUse"><stop offset="0" stop-color="#451088"/><stop offset="1" stop-color="#593179"/></linearGradient><use fill="url(#g)" xlink:href="#F"/><use class="I J" xlink:href="#F"/><circle cx="123.4" cy="165.4" r="1.4" class="K"/><linearGradient id="h" x1="123.611" x2="123.207" y1="162.6" y2="162.6" gradientUnits="userSpaceOnUse"><stop offset="0" stop-color="#451088"/><stop offset="1" stop-color="#593179"/></linearGradient><use x="27.5" fill="url(#h)" xlink:href="#F"/><use x="27.5" class="I J" xlink:href="#F"/><g class="K"><circle cx="150.9" cy="165.4" r="1.4"/><path d="M105.1 50.5l-.3 4.4h1.6l-.1-4.4z"/><path d="M164 157h28v3h-28zm0 6h28v3h-28z" class="I M"/><path d="M7 97h21v3H7zm0 5h21v3H7zm0 5h21v3H7zm0-20h21v3H7zm0 5h21v3H7zm0 31h21v3H7zm0 5h21v3H7zm0 5h21v3H7zm0-20h21v3H7zm0 5h21v3H7zm0 20h21v3H7zm0 16h21v3H7zm0 5h21v3H7zm0 5h21v3H7zm0-21h21v3H7zm0 5h21v3H7z" class="I L"/></g><linearGradient id="i" x1="22" x2="46" y1="134" y2="134" gradientUnits="userSpaceOnUse"><stop offset="0" stop-color="#3651bf"/><stop offset="1" stop-color="#2e5bdb"/></linearGradient><path fill="url(#i)" d="M22 112h24v44H22z"/><path d="M22 112h24v3H22z" class="I J"/><linearGradient id="j" x1="19" x2="22" y1="134.35" y2="134.35" gradientUnits="userSpaceOnUse"><stop offset="0" stop-color="#2e42bf"/><stop offset="1" stop-color="#593192"/></linearGradient><path fill="url(#j)" d="M19 117.8V157h3v-45.3z"/><path d="M19 117.8V157h3v-45.3z" class="I M"/><path d="M25 127h17v3H25zm0 6h17v3H25zm0-16h17v3H25zm0 5h17v3H25z" class="I K L"/><linearGradient id="k" x1="15" x2="51" y1="155" y2="155" gradientUnits="userSpaceOnUse"><stop offset="0" stop-color="#2e59bf"/><stop offset="1" stop-color="#593192"/></linearGradient><path fill="url(#k)" d="M15 138h36v34H15z"/><path d="M15 138h36v3H15z" class="I J"/><linearGradient id="l" x1="13" x2="15" y1="155" y2="155" gradientUnits="userSpaceOnUse"><stop offset="0" stop-color="#2e40bf"/><stop offset="1" stop-color="#593192"/></linearGradient><path fill="url(#l)" d="M13 144v28h2v-34"/><path d="M13 143.9V172h2v-34.2z" class="I M"/><linearGradient id="m" x1="46.061" x2="73.561" y1="153.05" y2="153.05" gradientUnits="userSpaceOnUse"><stop offset="0" stop-color="#451088"/><stop offset="1" stop-color="#593179"/></linearGradient><path fill="url(#m)" d="M73.5 145.8l-.8.8s-1.2 2.8-20.8 11.7c0 0-4.7.4-5.9-2.4 0 0 .4 3.3 3.4 4.4l6.7-1.6 17.4-10.1v-2.8z"/><path d="M73.5 145.8l-.8.4s-4 4.8-20.8 12.1c0 0-4.7.4-5.9-2.4 0 0 .4 3.3 3.4 4.4l6.7-1.6 17.4-10.1v-2.8z" class="I J"/><linearGradient id="n" x1="55.062" x2="57.082" y1="166.5" y2="166.5" gradientUnits="userSpaceOnUse"><stop offset="0" stop-color="#451088"/><stop offset="1" stop-color="#593179"/></linearGradient><path fill="url(#n)" d="M55 161h2v11h-2z"/><path d="M55 161h2v11h-2z" class="I J"/><linearGradient id="o" x1="57" x2="92" y1="166.5" y2="166.5" gradientUnits="userSpaceOnUse"><stop offset="0" stop-color="#451088"/><stop offset="1" stop-color="#593179"/></linearGradient><path fill="url(#o)" d="M57 161h35v11H57z"/><linearGradient id="p" x1="47.394" x2="99.896" y1="153.1" y2="153.1" gradientUnits="userSpaceOnUse"><stop offset="0" stop-color="#451088"/><stop offset="1" stop-color="#593179"/></linearGradient><path fill="url(#p)" d="M94.6 159s-21-9.4-21-13.6c0 4.2-21 13.6-21 13.6-1.4.5-5.3-1-5.3-1 0 2.8 4.8 2.8 4.8 2.8H95s4.8 0 4.8-2.8c.1 0-3.2 1.6-5.2 1z"/><path d="M94.6 159.4s-19.2-8.9-20.8-13.4c0-.1-.1-.1-.2-.1 0 0-.1 0-.1.1-1.7 4.4-20.8 13-20.8 13-1 .5-5.3-1-5.3-1 0 2.8 4.8 2.8 4.8 2.8h42.9s4.8 0 4.8-2.8c0-.1-2.9 1.5-5.3 1.4z" class="I L"/><path d="M85 162h6v10h-6zm-7.1 0H58v10h26v-10z" class="I J K"/><linearGradient id="q" x1="51.011" x2="53.032" y1="166.5" y2="166.5" gradientUnits="userSpaceOnUse"><stop offset="0" stop-color="#451088"/><stop offset="1" stop-color="#593179"/></linearGradient><path fill="url(#q)" d="M51 161h2v11h-2z"/><path d="M51 161h2v11h-2z" class="I J"/><linearGradient id="r" x1="79" x2="81" y1="166.5" y2="166.5" gradientUnits="userSpaceOnUse"><stop offset="0" stop-color="#451088"/><stop offset="1" stop-color="#593179"/></linearGradient><path fill="url(#r)" d="M79 161h2v11h-2z"/><linearGradient id="s" x1="67" x2="69" y1="166.5" y2="166.5" gradientUnits="userSpaceOnUse"><stop offset="0" stop-color="#451088"/><stop offset="1" stop-color="#593179"/></linearGradient><path fill="url(#s)" d="M67 161h2v11h-2z"/><linearGradient id="t" x1="95" x2="97" y1="166.5" y2="166.5" gradientUnits="userSpaceOnUse"><stop offset="0" stop-color="#451088"/><stop offset="1" stop-color="#593179"/></linearGradient><path fill="url(#t)" d="M95 161h2v11h-2z"/><linearGradient id="u" x1="51.016" x2="53.037" y1="166.5" y2="166.5" gradientUnits="userSpaceOnUse"><stop offset="0" stop-color="#451088"/><stop offset="1" stop-color="#593179"/></linearGradient><path fill="url(#u)" d="M51 161h2v11h-2z"/><path d="M79 161h2v11h-2zm-12 0h2v11h-2zm28 0h2v11h-2zm-44 0h2v11h-2z" class="I L"/><linearGradient id="v" x1="123.173" x2="123.577" y1="162.6" y2="162.6" gradientUnits="userSpaceOnUse"><stop offset="0" stop-color="#451088"/><stop offset="1" stop-color="#593179"/></linearGradient><use x="-35.9" fill="url(#v)" xlink:href="#F"/><use x="-35.9" class="I J" xlink:href="#F"/><circle cx="87.5" cy="165.4" r="1.4" class="K"/><linearGradient id="w" x1="123.198" x2="123.602" y1="162.6" y2="162.6" gradientUnits="userSpaceOnUse"><stop offset="0" stop-color="#451088"/><stop offset="1" stop-color="#593179"/></linearGradient><use x="-63.4" fill="url(#w)" xlink:href="#F"/><use x="-63.4" class="I J" xlink:href="#F"/><g class="K"><circle cx="60" cy="165.4" r="1.4"/><path d="M39.4 154.6h7.9v2.7h-7.9zm0 5.1h7.9v2.7h-7.9zm0 5.2h7.9v2.7h-7.9zm0-20.4h7.9v2.7h-7.9zm0 5h7.9v2.7h-7.9z" class="I" opacity=".08"/><use class="I" opacity=".08" xlink:href="#G"/><use x="-11" class="I" opacity=".08" xlink:href="#G"/></g></svg>