<svg xmlns="http://www.w3.org/2000/svg" xmlns:xlink="http://www.w3.org/1999/xlink" viewBox="0 0 200 172"><style><![CDATA[.I{enable-background:new}.J{opacity:.3}.K{fill:#fff}.L{opacity:.1}.M{opacity:.15}]]></style><path d="M10.5 76.8h2v4h-2zm11 0h2v4h-2z" class="I J"/><linearGradient id="A" gradientUnits="userSpaceOnUse" x1="13.7" y1="108.433" x2="187.8" y2="108.433"><stop offset="0" stop-color="#1d7ee8"/><stop offset="1" stop-color="#2ea7db"/></linearGradient><path d="M136.7 46.8c-4.3 2.4-10.7 4.3-14.7 2.7-6.1-2.4-15.4-3.6-17-2.4s-8.9 6.1-19.8.4c-4.3-2.2-9.2-3.1-14-2.4L13.9 94l-.2 78h174.1v-68.3c.1 0-30.2-34.3-51.1-56.9z" fill="url(#A)"/><path opacity=".2" d="M164 155v-21h-14v12h-7v-19.8l-12-7.9V146h-1v-15h-13v8H93v-12.4l-8-7V145h-5v-14H43v24H16v17h173v-17z"/><linearGradient id="B" gradientUnits="userSpaceOnUse" x1="197" y1="114.5" x2="159" y2="114.5"><stop offset="0" stop-color="#3651bf"/><stop offset="1" stop-color="#2e5bdb"/></linearGradient><path fill="url(#B)" d="M197 172V57l-38 41.6V172h38"/><path d="M164 128h28v3h-28zm0 5h28v3h-28zm0 6h28v3h-28zm0 6h28v3h-28zm0 6h28v3h-28zm0-35h28v3h-28zm0 6h28v3h-28z" class="I K M"/><g opacity=".6"><defs><path id="C" d="M195 109h-30l.1-7.3L195 69z"/><path id="D" d="M52.7 50.9h10.1c.3 0 .6.3.6.6s-.3.6-.6.6H52.7c-.3 0-.6-.3-.6-.6 0-.4.3-.6.6-.6z"/><path id="E" d="M52.7 55.7h10.1c.3 0 .6.3.6.6s-.3.6-.6.6H52.7c-.3 0-.6-.3-.6-.6s.3-.6.6-.6z"/><path id="F" d="M123.2 160.8h.4v3.6h-.4z"/><path id="G" d="M29 155h8v3h-8zm0 5h8v3h-8zm0 5h8v3h-8zm0-20h8v3h-8zm0 5h8v3h-8z"/></defs><clipPath id="H"><use xlink:href="#C"/></clipPath><g clip-path="url(#H)" class="K"><path d="M164 82h28v3h-28zm0 6h28v3h-28zm0-17h28v3h-28zm0 6h28v3h-28zm0 17h28v3h-28zm0 6h28v3h-28z" opacity=".2"/></g></g><path d="M85.3 47.5c10.9 5.7 18.2.8 19.8-.4s10.9 0 17 2.4c4 1.6 10.4-.3 14.7-2.7l-13.9-14.7c-16.6-16.6-36.4 0-36.4 0l-15.2 13c4.8-.7 9.7.2 14 2.4z" opacity=".8" fill="#bde6ff"/><linearGradient id="I" gradientUnits="userSpaceOnUse" x1="82.424" y1="108.4" x2="128.424" y2="108.4"><stop offset="0" stop-color="#451088"/><stop offset="1" stop-color="#593179"/></linearGradient><path d="M111.4 122.4l-3.2-37.6-.4-8.9-.8-5.3-.8-18.2h-1.1l-.8 18.2-.8 5.3v8.9l-3.6 37.6c-2 26.3-17.4 42-17.4 42h4.8c8.3-11.7 17-11.7 17-11.7v11.7h2.8v-11.7s8.7 0 17 11.7h4.4c-16.3-17.4-17.1-42-17.1-42zm-7.2 27.1c-2.2.3-4.4.8-6.5 1.6l1.2-3.2h5.3v1.6zm0-3.3h-4.8l1.2-3.6h3.6v3.6zm0-5.2H101l.8-3.6h2.4v3.6zm0-5.3h-2.4l.4-3.6h2v3.6zm0-5.2h-1.6l.4-2h1.2v2zm2.9-2h1.2l.4 2h-1.6v-2zm0 3.6h2l.4 3.6h-2.4v-3.6zm0 5.2h2.4l.8 3.6h-3.2v-3.6zm0 5.3h3.6l1.2 3.6h-4.8v-3.6zm0 6.9v-1.6h5.3l1.2 3.2c-2.2-.8-4.3-1.4-6.5-1.6z" fill="url(#I)"/><path d="M103.4 76.3h4.4v2.4h-4.4z" class="I K L"/><linearGradient id="J" gradientUnits="userSpaceOnUse" x1="100.6" y1="81.8" x2="111.1" y2="81.8"><stop offset="0" stop-color="#451088"/><stop offset="1" stop-color="#593179"/></linearGradient><path fill="url(#J)" d="M109.9 84.8h-8.1l-1.2-6h10.5z"/><linearGradient id="K" gradientUnits="userSpaceOnUse" x1="95.758" y1="120.35" x2="115.558" y2="120.35"><stop offset="0" stop-color="#451088"/><stop offset="1" stop-color="#593179"/></linearGradient><path fill="url(#K)" d="M113.1 124H98.2l-2.4-7.3h19.8z"/><linearGradient id="L" gradientUnits="userSpaceOnUse" x1="102.222" y1="73.3" x2="109.091" y2="73.3"><stop offset="0" stop-color="#451088"/><stop offset="1" stop-color="#593179"/></linearGradient><path fill="url(#L)" d="M103.6 70.3h4.3l1.2 1.6v2.8l-1.2 1.6h-4.3l-1.4-1.8v-2.6z"/><path d="M109.9 84.8h-8.1l-1.2-6h10.5zm3.2 39.2H98.2l-2.4-7.3h19.8zm-9.5-53.7h4.3l1.2 1.6v2.8l-1.2 1.6h-4.3l-1.4-1.8v-2.6z" class="I M"/><path d="M110.7 119.2c.2 0 .4.2.4.4v1.6c0 .2-.2.4-.4.4s-.4-.2-.4-.4v-1.6c0-.3.2-.4.4-.4zm-2 0c.2 0 .4.2.4.4v1.6c0 .2-.2.4-.4.4s-.4-.2-.4-.4v-1.6c0-.3.1-.4.4-.4zm-2 0c.2 0 .4.2.4.4v1.6c0 .2-.2.4-.4.4s-.4-.2-.4-.4v-1.6c0-.3.1-.4.4-.4zm-2.1 0c.2 0 .4.2.4.4v1.6c0 .2-.2.4-.4.4s-.4-.2-.4-.4v-1.6c0-.3.2-.4.4-.4zm-2 0c.2 0 .4.2.4.4v1.6c0 .2-.2.4-.4.4s-.4-.2-.4-.4v-1.6c0-.3.2-.4.4-.4zm-2 0c.2 0 .4.2.4.4v1.6c0 .2-.2.4-.4.4s-.4-.2-.4-.4v-1.6c0-.3.2-.4.4-.4z" class="K"/><linearGradient id="M" gradientUnits="userSpaceOnUse" x1="4" y1="126.161" x2="32" y2="126.161"><stop offset="0" stop-color="#2e59bf"/><stop offset="1" stop-color="#593192"/></linearGradient><path fill="url(#M)" d="M4 80.3h28V172H4z"/><path d="M3.8 80.4H32v3.1H3.8z" class="I J"/><linearGradient id="N" gradientUnits="userSpaceOnUse" x1="1" y1="126.15" x2="4" y2="126.15"><stop offset="0" stop-color="#2e59bf"/><stop offset="1" stop-color="#593192"/></linearGradient><path fill="url(#N)" d="M1 84.4V172h3V80.3z"/><path d="M1 84.4V172h3V80.3z" class="I M"/><linearGradient id="O" gradientUnits="userSpaceOnUse" x1="48.5" y1="106.2" x2="67.1" y2="106.2"><stop offset="0" stop-color="#2e59bf"/><stop offset="1" stop-color="#593192"/></linearGradient><path fill="url(#O)" d="M67.1 172l-5.4-92.4 1.9-3.8-.3-.2-1.7 3.2-2.2-38.4h-3.2l-2.3 38.4-1.6-3.2-.4.2 2 3.8-5.4 92.4z"/><linearGradient id="P" gradientUnits="userSpaceOnUse" x1="47.273" y1="70.05" x2="68.273" y2="70.05"><stop offset="0" stop-color="#4c3ea1"/><stop offset="1" stop-color="#2e3192"/></linearGradient><path d="M64.2 76.7H51.3c-1.1 0-2-.9-2-2l-2-9.3c0-1.1.9-2 2-2h17c1.1 0 2 .9 2 2l-2 9.3c0 1.1-.9 2-2.1 2z" fill="url(#P)"/><linearGradient id="Q" gradientUnits="userSpaceOnUse" x1="52.121" y1="51.5" x2="63.434" y2="51.5"><stop offset="0" stop-color="#4c3ea1"/><stop offset="1" stop-color="#2e3192"/></linearGradient><use xlink:href="#D" fill="url(#Q)"/><use xlink:href="#D" y="2.4" fill="url(#Q)"/><linearGradient id="R" gradientUnits="userSpaceOnUse" x1="52.121" y1="56.3" x2="63.434" y2="56.3"><stop offset="0" stop-color="#4c3ea1"/><stop offset="1" stop-color="#2e3192"/></linearGradient><use xlink:href="#E" fill="url(#R)"/><use xlink:href="#D" y="9.7" fill="url(#Q)"/><use xlink:href="#E" y="2.4" fill="url(#R)"/><linearGradient id="S" gradientUnits="userSpaceOnUse" x1="52.525" y1="45.8" x2="63.025" y2="45.8"><stop offset="0" stop-color="#4c3ea1"/><stop offset="1" stop-color="#2e3192"/></linearGradient><path d="M61 49.1h-6.5c-.6 0-1-.4-1-1l-1-4.6c0-.6.4-1 1-1H62c.6 0 1 .4 1 1l-1 4.6c0 .6-.4 1-1 1z" fill="url(#S)"/><linearGradient id="T" gradientUnits="userSpaceOnUse" x1="57.374" y1="31.1" x2="58.182" y2="31.1"><stop offset="0" stop-color="#3651bf"/><stop offset="1" stop-color="#2e5bdb"/></linearGradient><path fill="url(#T)" d="M57.4 21.8h.8v18.6h-.8z"/><linearGradient id="U" gradientUnits="userSpaceOnUse" x1="66.667" y1="124.35" x2="49.293" y2="124.35"><stop offset="0" stop-color="#4531a7"/><stop offset="1" stop-color="#423179"/></linearGradient><path fill="url(#U)" d="M66.4 172.1L49.3 155l15-15.6-13.4-13.7 12-12.4-10.7-11 9.6-9.8-8.5-8.8 7.1-7.3.2.3-6.8 7 8.5 8.8-9.5 9.8 10.6 11-11.9 12.4 13.3 13.7-15 15.6 16.9 17.3z"/><linearGradient id="V" gradientUnits="userSpaceOnUse" x1="48.647" y1="124.35" x2="66.02" y2="124.35"><stop offset="0" stop-color="#4531a7"/><stop offset="1" stop-color="#423179"/></linearGradient><path fill="url(#V)" d="M48.9 172.1l-.3.2L65.5 155l-15-15.6 13.3-13.7-12-12.4 10.7-11-9.5-9.8 8.5-8.8-6.8-7 .2-.3 7.2 7.3-8.6 8.8 9.6 9.8-10.7 11 12 12.4L51 139.4 66 155z"/><path d="M62.2 172h-8.9l4.1-95.3h.8z" class="I L"/><path d="M63 67h1.6v6.1H63zm-2 0h1.6v6.1H61zm-2 0h1.6v6.1H59zm-2 0h1.6v6.1H57zm-2.1 0h1.6v6.1h-1.6zm-2 0h1.6v6.1h-1.6zm-2 0h1.6v6.1h-1.6zm6.5-43.7h.8v2.8h-.8z" class="K"/><path d="M22.5 62.8h1v14h-1z" class="I J"/><linearGradient id="W" gradientUnits="userSpaceOnUse" x1="200.5" y1="114.5" x2="197" y2="114.5"><stop offset="0" stop-color="#2e3192"/><stop offset="1" stop-color="#4c3ea1"/></linearGradient><path fill="url(#W)" d="M200.5 172H197V57l3.5 4.1z"/><linearGradient id="X" gradientUnits="userSpaceOnUse" x1="164.848" y1="153.05" x2="137.348" y2="153.05"><stop offset="0" stop-color="#451088"/><stop offset="1" stop-color="#593179"/></linearGradient><path d="M137.4 145.8l.8.8s1.2 2.8 20.8 11.7c0 0 4.7.4 5.9-2.4 0 0-.4 3.3-3.4 4.4l-6.7-1.6-17.4-10.1v-2.8z" fill="url(#X)"/><path d="M137.4 145.8l.8.4s4 4.8 20.8 12.1c0 0 4.7.4 5.9-2.4 0 0-.4 3.3-3.4 4.4l-6.7-1.6-17.4-10.1v-2.8z" class="I J"/><linearGradient id="Y" gradientUnits="userSpaceOnUse" x1="157" y1="166.5" x2="155" y2="166.5"><stop offset="0" stop-color="#451088"/><stop offset="1" stop-color="#593179"/></linearGradient><path fill="url(#Y)" d="M155 161h2v11h-2z"/><path d="M155 161h2v11h-2z" class="I J"/><linearGradient id="Z" gradientUnits="userSpaceOnUse" x1="155" y1="166.5" x2="120" y2="166.5"><stop offset="0" stop-color="#451088"/><stop offset="1" stop-color="#593179"/></linearGradient><path fill="url(#Z)" d="M120 161h35v11h-35z"/><linearGradient id="a" gradientUnits="userSpaceOnUse" x1="163.636" y1="153.1" x2="111.134" y2="153.1"><stop offset="0" stop-color="#451088"/><stop offset="1" stop-color="#593179"/></linearGradient><path d="M116.4 159s21-9.4 21-13.6c0 4.2 21 13.6 21 13.6 1.4.5 5.3-1 5.3-1 0 2.8-4.8 2.8-4.8 2.8H116s-4.8 0-4.8-2.8c-.1-.1 3.3 1.5 5.2 1z" fill="url(#a)"/><path d="M116.4 159.4s19.2-8.9 20.8-13.4c0-.1.1-.1.2-.1 0 0 .1 0 .1.1 1.7 4.4 20.8 13 20.8 13 1 .5 5.3-1 5.3-1 0 2.8-4.8 2.8-4.8 2.8H116s-4.8 0-4.8-2.8c-.1-.1 2.9 1.5 5.2 1.4z" class="I L"/><path d="M121 162h6v10h-6zm27 0h-20v10h26v-10z" class="I J K"/><linearGradient id="b" gradientUnits="userSpaceOnUse" x1="161" y1="166.5" x2="159" y2="166.5"><stop offset="0" stop-color="#451088"/><stop offset="1" stop-color="#593179"/></linearGradient><path fill="url(#b)" d="M159 161h2v11h-2z"/><path d="M159 161h2v11h-2z" class="I J"/><linearGradient id="c" gradientUnits="userSpaceOnUse" x1="132" y1="166.5" x2="130" y2="166.5"><stop offset="0" stop-color="#451088"/><stop offset="1" stop-color="#593179"/></linearGradient><path fill="url(#c)" d="M130 161h2v11h-2z"/><linearGradient id="d" gradientUnits="userSpaceOnUse" x1="145" y1="166.5" x2="143" y2="166.5"><stop offset="0" stop-color="#451088"/><stop offset="1" stop-color="#593179"/></linearGradient><path fill="url(#d)" d="M143 161h2v11h-2z"/><linearGradient id="e" gradientUnits="userSpaceOnUse" x1="117" y1="166.5" x2="115" y2="166.5"><stop offset="0" stop-color="#451088"/><stop offset="1" stop-color="#593179"/></linearGradient><path fill="url(#e)" d="M115 161h2v11h-2z"/><linearGradient id="f" gradientUnits="userSpaceOnUse" x1="160" y1="166.5" x2="158" y2="166.5"><stop offset="0" stop-color="#451088"/><stop offset="1" stop-color="#593179"/></linearGradient><path fill="url(#f)" d="M158 161h2v11h-2z"/><path d="M130 161h2v11h-2zm13 0h2v11h-2zm-28 0h2v11h-2zm43 0h2v11h-2z" class="I L"/><linearGradient id="g" gradientUnits="userSpaceOnUse" x1="123.636" y1="162.6" x2="123.232" y2="162.6"><stop offset="0" stop-color="#451088"/><stop offset="1" stop-color="#593179"/></linearGradient><use xlink:href="#F" fill="url(#g)"/><use xlink:href="#F" class="I J"/><circle cx="123.4" cy="165.4" r="1.4" class="K"/><linearGradient id="h" gradientUnits="userSpaceOnUse" x1="123.611" y1="162.6" x2="123.207" y2="162.6"><stop offset="0" stop-color="#451088"/><stop offset="1" stop-color="#593179"/></linearGradient><use xlink:href="#F" x="27.5" fill="url(#h)"/><use xlink:href="#F" x="27.5" class="I J"/><g class="K"><circle cx="150.9" cy="165.4" r="1.4"/><path d="M105.1 50.5l-.3 4.4h1.6l-.1-4.4z"/><path d="M164 157h28v3h-28zm0 6h28v3h-28z" class="I M"/><path d="M7 97h21v3H7zm0 5h21v3H7zm0 5h21v3H7zm0-20h21v3H7zm0 5h21v3H7zm0 31h21v3H7zm0 5h21v3H7zm0 5h21v3H7zm0-20h21v3H7zm0 5h21v3H7zm0 20h21v3H7zm0 16h21v3H7zm0 5h21v3H7zm0 5h21v3H7zm0-21h21v3H7zm0 5h21v3H7z" class="I L"/></g><linearGradient id="i" gradientUnits="userSpaceOnUse" x1="22" y1="134" x2="46" y2="134"><stop offset="0" stop-color="#3651bf"/><stop offset="1" stop-color="#2e5bdb"/></linearGradient><path fill="url(#i)" d="M22 112h24v44H22z"/><path d="M22 112h24v3H22z" class="I J"/><linearGradient id="j" gradientUnits="userSpaceOnUse" x1="19" y1="134.35" x2="22" y2="134.35"><stop offset="0" stop-color="#2e42bf"/><stop offset="1" stop-color="#593192"/></linearGradient><path fill="url(#j)" d="M19 117.8V157h3v-45.3z"/><path d="M19 117.8V157h3v-45.3z" class="I M"/><path d="M25 127h17v3H25zm0 6h17v3H25zm0-16h17v3H25zm0 5h17v3H25z" class="I K L"/><linearGradient id="k" gradientUnits="userSpaceOnUse" x1="15" y1="155" x2="51" y2="155"><stop offset="0" stop-color="#2e59bf"/><stop offset="1" stop-color="#593192"/></linearGradient><path fill="url(#k)" d="M15 138h36v34H15z"/><path d="M15 138h36v3H15z" class="I J"/><linearGradient id="l" gradientUnits="userSpaceOnUse" x1="13" y1="155" x2="15" y2="155"><stop offset="0" stop-color="#2e40bf"/><stop offset="1" stop-color="#593192"/></linearGradient><path fill="url(#l)" d="M13 144v28h2v-34"/><path d="M13 143.9V172h2v-34.2z" class="I M"/><linearGradient id="m" gradientUnits="userSpaceOnUse" x1="46.061" y1="153.05" x2="73.561" y2="153.05"><stop offset="0" stop-color="#451088"/><stop offset="1" stop-color="#593179"/></linearGradient><path d="M73.5 145.8l-.8.8s-1.2 2.8-20.8 11.7c0 0-4.7.4-5.9-2.4 0 0 .4 3.3 3.4 4.4l6.7-1.6 17.4-10.1v-2.8z" fill="url(#m)"/><path d="M73.5 145.8l-.8.4s-4 4.8-20.8 12.1c0 0-4.7.4-5.9-2.4 0 0 .4 3.3 3.4 4.4l6.7-1.6 17.4-10.1v-2.8z" class="I J"/><linearGradient id="n" gradientUnits="userSpaceOnUse" x1="55.062" y1="166.5" x2="57.082" y2="166.5"><stop offset="0" stop-color="#451088"/><stop offset="1" stop-color="#593179"/></linearGradient><path fill="url(#n)" d="M55 161h2v11h-2z"/><path d="M55 161h2v11h-2z" class="I J"/><linearGradient id="o" gradientUnits="userSpaceOnUse" x1="57" y1="166.5" x2="92" y2="166.5"><stop offset="0" stop-color="#451088"/><stop offset="1" stop-color="#593179"/></linearGradient><path fill="url(#o)" d="M57 161h35v11H57z"/><linearGradient id="p" gradientUnits="userSpaceOnUse" x1="47.394" y1="153.1" x2="99.896" y2="153.1"><stop offset="0" stop-color="#451088"/><stop offset="1" stop-color="#593179"/></linearGradient><path d="M94.6 159s-21-9.4-21-13.6c0 4.2-21 13.6-21 13.6-1.4.5-5.3-1-5.3-1 0 2.8 4.8 2.8 4.8 2.8H95s4.8 0 4.8-2.8c.1 0-3.2 1.6-5.2 1z" fill="url(#p)"/><path d="M94.6 159.4s-19.2-8.9-20.8-13.4c0-.1-.1-.1-.2-.1 0 0-.1 0-.1.1-1.7 4.4-20.8 13-20.8 13-1 .5-5.3-1-5.3-1 0 2.8 4.8 2.8 4.8 2.8h42.9s4.8 0 4.8-2.8c0-.1-2.9 1.5-5.3 1.4z" class="I L"/><path d="M85 162h6v10h-6zm-7.1 0H58v10h26v-10z" class="I J K"/><linearGradient id="q" gradientUnits="userSpaceOnUse" x1="51.011" y1="166.5" x2="53.032" y2="166.5"><stop offset="0" stop-color="#451088"/><stop offset="1" stop-color="#593179"/></linearGradient><path fill="url(#q)" d="M51 161h2v11h-2z"/><path d="M51 161h2v11h-2z" class="I J"/><linearGradient id="r" gradientUnits="userSpaceOnUse" x1="79" y1="166.5" x2="81" y2="166.5"><stop offset="0" stop-color="#451088"/><stop offset="1" stop-color="#593179"/></linearGradient><path fill="url(#r)" d="M79 161h2v11h-2z"/><linearGradient id="s" gradientUnits="userSpaceOnUse" x1="67" y1="166.5" x2="69" y2="166.5"><stop offset="0" stop-color="#451088"/><stop offset="1" stop-color="#593179"/></linearGradient><path fill="url(#s)" d="M67 161h2v11h-2z"/><linearGradient id="t" gradientUnits="userSpaceOnUse" x1="95" y1="166.5" x2="97" y2="166.5"><stop offset="0" stop-color="#451088"/><stop offset="1" stop-color="#593179"/></linearGradient><path fill="url(#t)" d="M95 161h2v11h-2z"/><linearGradient id="u" gradientUnits="userSpaceOnUse" x1="51.016" y1="166.5" x2="53.037" y2="166.5"><stop offset="0" stop-color="#451088"/><stop offset="1" stop-color="#593179"/></linearGradient><path fill="url(#u)" d="M51 161h2v11h-2z"/><path d="M79 161h2v11h-2zm-12 0h2v11h-2zm28 0h2v11h-2zm-44 0h2v11h-2z" class="I L"/><linearGradient id="v" gradientUnits="userSpaceOnUse" x1="123.173" y1="162.6" x2="123.577" y2="162.6"><stop offset="0" stop-color="#451088"/><stop offset="1" stop-color="#593179"/></linearGradient><use xlink:href="#F" x="-35.9" fill="url(#v)"/><use xlink:href="#F" x="-35.9" class="I J"/><circle cx="87.5" cy="165.4" r="1.4" class="K"/><linearGradient id="w" gradientUnits="userSpaceOnUse" x1="123.198" y1="162.6" x2="123.602" y2="162.6"><stop offset="0" stop-color="#451088"/><stop offset="1" stop-color="#593179"/></linearGradient><use xlink:href="#F" x="-63.4" fill="url(#w)"/><use xlink:href="#F" x="-63.4" class="I J"/><g class="K"><circle cx="60" cy="165.4" r="1.4"/><path d="M39.4 154.6h7.9v2.7h-7.9zm0 5.1h7.9v2.7h-7.9zm0 5.2h7.9v2.7h-7.9zm0-20.4h7.9v2.7h-7.9zm0 5h7.9v2.7h-7.9z" opacity=".08" class="I"/><use xlink:href="#G" opacity=".08" class="I"/><use xlink:href="#G" x="-11" opacity=".08" class="I"/></g></svg>