<svg xmlns="http://www.w3.org/2000/svg" xmlns:xlink="http://www.w3.org/1999/xlink" viewBox="0 0 200 172"><style><![CDATA[.G{enable-background:new}.H{opacity:.3}.I{fill:#fff}.J{opacity:.1}]]></style><linearGradient id="A" gradientUnits="userSpaceOnUse" x1="103.35" y1="172" x2="103.35" y2="22.8"><stop offset="0" stop-color="#1d7ee8"/><stop offset="1" stop-color="#2ea7db"/></linearGradient><path d="M12.8 113.9V172h181.1v-58.8c0-50-40.6-90.4-90.5-90.4-2.1 0-4.3.1-6.4.2-47.6 3.3-84.2 43.3-84.2 90.9z" fill="url(#A)"/><path d="M193 98h-18V78.7l-25-24.8V117l-32-.4V77H92v54.4l-16-17.5V83.5L62.4 69.7 51 81.3V109H31V86H6v86h187z" opacity=".2" class="G"/><path d="M13.2 154h180v18h-180z" opacity=".2" class="G"/><linearGradient id="B" gradientUnits="userSpaceOnUse" x1=".05" y1="117" x2="12.23" y2="117"><stop offset="0" stop-color="#2e59bf"/><stop offset="1" stop-color="#593192"/></linearGradient><path fill="url(#B)" d="M12.2 172H.2L.1 64.7 2.2 62h10z"/><path d="M2.1 172h-2V64.7l2-2.7zm.1-110h11.9v3H2.2z" class="G H"/><linearGradient id="C" gradientUnits="userSpaceOnUse" x1="4.284" y1="109.05" x2="45" y2="109.05"><stop offset="0" stop-color="#2e59bf"/><stop offset="1" stop-color="#593192"/></linearGradient><path d="M5.1 172H45V46.1H12.8c-6.2 34.3-9 65.9-8.4 94.4-.3 10.9 0 21.4.7 31.5z" fill="url(#C)"/><path d="M7.3 140.4c-.6-28.6 2.2-60 8.4-94.3h-2.9c-6.2 34.3-9 65.8-8.4 94.3-.2 10.9 0 21.5.7 31.6h3c-.8-10.1-1-20.7-.8-31.6z" class="G H"/><linearGradient id="D" gradientUnits="userSpaceOnUse" x1="37.82" y1="40.45" x2="39.49" y2="40.45"><stop offset="0" stop-color="#2e59bf"/><stop offset="1" stop-color="#593192"/></linearGradient><use xlink:href="#F" fill="url(#D)"/><use xlink:href="#F" opacity=".4" class="G"/><path d="M38.5 32.2v4.3h.3v-4.3z" class="I"/><defs><path id="E" d="M18.8 52.4s-5.3 34-6.9 60c-1.6 26.2-.2 64.6-.2 64.6h37.2V53.5l-30.1-1.1z"/><path id="F" d="M38.9 42.3v-7.5h-.4v7.5h-.7v3.8h1.7v-3.8z"/></defs><clipPath id="G"><use xlink:href="#E"/></clipPath><g clip-path="url(#G)" class="G I"><path d="M6.3 62h33.6v5H6.3zm0-8h33.6v5H6.3z" class="J"/></g><defs><path id="H" d="M18.8 52.4s-5.3 34-6.9 60c-1.6 26.2-.2 64.6-.2 64.6h37.2V53.5l-30.1-1.1z"/></defs><clipPath id="I"><use xlink:href="#H"/></clipPath><g clip-path="url(#I)" class="G I"><path d="M6.3 70h33.6v5H6.3z" class="J"/></g><defs><path id="J" d="M18.8 52.4s-5.3 34-6.9 60c-1.6 26.2-.2 64.6-.2 64.6h37.2V53.5l-30.1-1.1z"/></defs><clipPath id="K"><use xlink:href="#J"/></clipPath><g clip-path="url(#K)" class="G I"><path d="M5.3 78h34.6v5H5.3z" class="J"/></g><defs><path id="L" d="M18.8 52.4s-5.3 34-6.9 60c-1.6 26.2-.2 64.6-.2 64.6h37.2V53.5l-30.1-1.1z"/></defs><clipPath id="M"><use xlink:href="#L"/></clipPath><g clip-path="url(#M)" class="G I"><path d="M4.3 86h35.6v5H4.3z" class="J"/></g><defs><path id="N" d="M18.8 52.4s-5.4 34-7 60c-1.6 26.2-.2 64.6-.2 64.6h37.6V53.5l-30.4-1.1z"/></defs><clipPath id="O"><use xlink:href="#N"/></clipPath><g clip-path="url(#O)" class="G I"><path d="M3.2 94h37v5h-37z" class="J"/></g><defs><path id="P" d="M18.8 52.4s-5.4 34-7 60c-1.6 26.2-.2 64.6-.2 64.6h37.6V53.5l-30.4-1.1z"/></defs><clipPath id="Q"><use xlink:href="#P"/></clipPath><g clip-path="url(#Q)" class="G I"><path d="M2.2 102h38v5h-38z" class="J"/></g><defs><path id="R" d="M18.8 52.4s-5.4 34-7 60c-1.6 26.2-.2 64.6-.2 64.6h37.6V53.5l-30.4-1.1z"/></defs><clipPath id="S"><use xlink:href="#R"/></clipPath><g clip-path="url(#S)" class="G I"><path d="M2.2 110h38v5h-38z" class="J"/></g><defs><path id="T" d="M18.8 52.4s-5.4 34-7 60c-1.6 26.2-.2 64.6-.2 64.6h37.6V53.5l-30.4-1.1z"/></defs><clipPath id="U"><use xlink:href="#T"/></clipPath><g clip-path="url(#U)" class="G I"><path d="M2.2 118h38v5h-38z" class="J"/></g><defs><path id="V" d="M18.8 52.4s-5.4 34-7 60c-1.6 26.2-.2 64.6-.2 64.6h37.6V53.5l-30.4-1.1z"/></defs><clipPath id="W"><use xlink:href="#V"/></clipPath><g clip-path="url(#W)" class="G I"><path d="M2.2 126h38v5h-38z" class="J"/></g><defs><path id="X" d="M18.8 52.4s-5.4 34-7 60c-1.6 26.2-.2 64.6-.2 64.6h37.6V53.5l-30.4-1.1z"/></defs><clipPath id="Y"><use xlink:href="#X"/></clipPath><g clip-path="url(#Y)" class="G I"><path d="M2.2 134h38v5h-38z" class="J"/></g><defs><path id="Z" d="M18.8 52.4s-5.4 34-7 60c-1.6 26.2-.2 64.6-.2 64.6h37.6V53.5l-30.4-1.1z"/></defs><clipPath id="a"><use xlink:href="#Z"/></clipPath><g clip-path="url(#a)" class="G I"><path d="M2.2 142h38v5h-38z" class="J"/></g><defs><path id="b" d="M18.8 52.4s-5.4 34-7 60c-1.6 26.2-.2 64.6-.2 64.6h37.6V53.5l-30.4-1.1z"/></defs><clipPath id="c"><use xlink:href="#b"/></clipPath><g clip-path="url(#c)" class="G I"><path d="M2.2 150h38v5h-38zm-.6 8.1h38v5h-38z" class="J"/></g><linearGradient id="d" gradientUnits="userSpaceOnUse" x1="120.23" y1="107.35" x2="137.43" y2="107.35"><stop offset="0" stop-color="#3651bf"/><stop offset="1" stop-color="#2e5bdb"/></linearGradient><path fill="url(#d)" d="M125.2 60.7l-5 93.3h17.2l-5-93.3"/><linearGradient id="e" gradientUnits="userSpaceOnUse" x1="120.23" y1="107.35" x2="137.43" y2="107.35"><stop offset="0" stop-color="#2e59bf"/><stop offset="1" stop-color="#593192"/></linearGradient><path fill="url(#e)" d="M125.2 60.7l-5 93.3h17.2l-5-93.3"/><path d="M132.9 154h-8.2l3.7-96.2h.8z" class="G I J"/><linearGradient id="f" gradientUnits="userSpaceOnUse" x1="128.55" y1="15.96" x2="128.55" y2="7.7"><stop offset="0" stop-color="#2e65ca"/><stop offset="1" stop-color="#2e74db"/></linearGradient><path fill="url(#f)" d="M128.3 7.7h.5V16h-.5z"/><linearGradient id="g" gradientUnits="userSpaceOnUse" x1="128.55" y1="19.68" x2="128.55" y2="11.42"><stop offset="0" stop-color="#2e65ca"/><stop offset="1" stop-color="#2e74db"/></linearGradient><path fill="url(#g)" d="M128.1 11.4h.9v8.3h-.9z"/><linearGradient id="h" gradientUnits="userSpaceOnUse" x1="128.5" y1="23.81" x2="128.5" y2="15.55"><stop offset="0" stop-color="#2e65ca"/><stop offset="1" stop-color="#2e74db"/></linearGradient><path fill="url(#h)" d="M127.8 15.5h1.4v8.3h-1.4z"/><linearGradient id="i" gradientUnits="userSpaceOnUse" x1="128.55" y1="29.6" x2="128.55" y2="18.86"><stop offset="0" stop-color="#2e65ca"/><stop offset="1" stop-color="#2e74db"/></linearGradient><path fill="url(#i)" d="M127.4 18.9h2.3v10.7h-2.3z"/><linearGradient id="j" gradientUnits="userSpaceOnUse" x1="128.5" y1="50.74" x2="128.5" y2="30.04"><stop offset="0" stop-color="#2e65ca"/><stop offset="1" stop-color="#2e74db"/></linearGradient><path fill="url(#j)" d="M127.2 30v19.2l-.2 1.5h3V30z"/><linearGradient id="k" gradientUnits="userSpaceOnUse" x1="128.5" y1="31.107" x2="128.5" y2="28.067"><stop offset="0" stop-color="#3651bf"/><stop offset="1" stop-color="#2e5bdb"/></linearGradient><path d="M131 29.6c0 1.6-1.2 1.5-2.5 1.5s-2.4.2-2.5-1.5c0-.5 1.2-1.5 2.5-1.5 1.4 0 2.5 1 2.5 1.5z" fill="url(#k)"/><linearGradient id="l" gradientUnits="userSpaceOnUse" x1="130.2" y1="48" x2="132.2" y2="48"><stop offset="0" stop-color="#2e65ca"/><stop offset="1" stop-color="#2e74db"/></linearGradient><path fill="url(#l)" d="M130.2 47h2v2h-2z"/><linearGradient id="m" gradientUnits="userSpaceOnUse" x1="129.051" y1="45.5" x2="132.969" y2="45.5"><stop offset="0" stop-color="#2e65ca"/><stop offset="1" stop-color="#2e74db"/></linearGradient><path fill="url(#m)" d="M129 44h3.9v3H129z"/><linearGradient id="n" gradientUnits="userSpaceOnUse" x1="125.2" y1="48" x2="127.2" y2="48"><stop offset="0" stop-color="#2e65ca"/><stop offset="1" stop-color="#2e74db"/></linearGradient><path fill="url(#n)" d="M125.2 47h2v2h-2z"/><linearGradient id="o" gradientUnits="userSpaceOnUse" x1="125.2" y1="45.5" x2="128.19" y2="45.5"><stop offset="0" stop-color="#2e65ca"/><stop offset="1" stop-color="#2e74db"/></linearGradient><path fill="url(#o)" d="M125.2 44h3v3h-3z"/><path d="M130.2 47h2v2h-2zm-1.2-3h3.9v3H129zm-3.8 3h2v2h-2zm0-3h3v3h-3z" class="G H"/><linearGradient id="p" gradientUnits="userSpaceOnUse" x1="128.8" y1="56.81" x2="128.8" y2="48.63"><stop offset="0" stop-color="#3651bf"/><stop offset="1" stop-color="#2e5bdb"/></linearGradient><ellipse cx="128.8" cy="52.6" rx="10.9" ry="4" fill="url(#p)"/><linearGradient id="q" gradientUnits="userSpaceOnUse" x1="128.85" y1="69.52" x2="128.85" y2="52.939"><stop offset="0" stop-color="#3651bf"/><stop offset="1" stop-color="#2e5bdb"/></linearGradient><path d="M144.2 61.2c0 .7 0 1.3-.1 2-.1.5-.2 1.1-.4 1.6-1.8 5-7.8 4.6-14.8 4.6s-13.2.7-14.9-4.6c-.2-.5-.3-1-.3-1.5-.1-.7-.2-1.4-.2-2.2v-1.3l.3-1.7V58c1.6-5.2 7.7-5.2 15-5.2 8.5.1 15.4.1 15.4 8.4z" fill="url(#q)"/><path d="M113.5 60c0-.3 0-.7.1-1l.2-.8s3.8-2.2 14.6-2.2c12.8 0 15.1 1.8 15.4 2.1l.4 1.9s-3.6-2.3-15.8-2.3c-10.3.1-14.8 2.3-14.9 2.3zm.4 4.9c-.1 0 0-.1-.1-.3-.1-.4-.3-1.3-.3-1.3s4-2.4 14.8-2.4c12.8 0 15.3 1.9 15.7 2.3l-.4 1.6s-3.1-2.1-15.3-2.1c-10.2.1-14.2 2.2-14.4 2.2z" class="G H"/><linearGradient id="r" gradientUnits="userSpaceOnUse" x1="116.25" y1="70.388" x2="141.39" y2="70.388"><stop offset="0" stop-color="#3651bf"/><stop offset="1" stop-color="#2e5bdb"/></linearGradient><path d="M141.4 71c0 4-5.6 2.5-12.6 2.5s-12.6.7-12.6-2.5 5.6-4 12.6-4 12.6 1.2 12.6 4z" fill="url(#r)"/><path d="M140.2 72.3c0 1.9-5 1.2-11.3 1.2s-11.3.3-11.3-1.2 5-1.9 11.3-1.9 11.3.6 11.3 1.9z" class="G H"/><linearGradient id="s" gradientUnits="userSpaceOnUse" x1="104.05" y1="117.524" x2="114.951" y2="117.524"><stop offset="0" stop-color="#451088"/><stop offset="1" stop-color="#593179"/></linearGradient><path d="M104.1 65.9V172H115l-.1-99.6s-2.7-8.5-5.1-9.3c-1.5-.5-5.7 2.8-5.7 2.8z" fill="url(#s)"/><linearGradient id="t" gradientUnits="userSpaceOnUse" x1="66.975" y1="119.35" x2="104.06" y2="119.35"><stop offset="0" stop-color="#451088"/><stop offset="1" stop-color="#593179"/></linearGradient><path d="M67 97v75h37.1V66.7l-3 .5s5.2 14.7-10.2 24C81.8 96.7 67 97 67 97z" fill="url(#t)"/><path d="M67 97v75h37.1V66.7l-3 .5s5.2 14.7-10.3 24C81.7 96.7 67 97 67 97z" class="G H"/><linearGradient id="u" gradientUnits="userSpaceOnUse" x1="100.2" y1="119" x2="105.2" y2="119"><stop offset="0" stop-color="#451088"/><stop offset="1" stop-color="#593179"/></linearGradient><path fill="url(#u)" d="M100.2 66h5v106h-5z"/><linearGradient id="v" gradientUnits="userSpaceOnUse" x1="104.051" y1="117.524" x2="114.851" y2="117.524"><stop offset="0" stop-color="#451088"/><stop offset="1" stop-color="#593179"/></linearGradient><path d="M104.1 65.9V172h10.8V72.5s-2.8-8.5-5-9.4c-1.6-.5-5.8 2.8-5.8 2.8z" fill="url(#v)"/><path d="M109 172h-1V63.5l1-.4zm-3.9 0h-1V65.9l1-.7zm1.9 0h-1V64.5l1-.5z" opacity=".4" class="G"/><g class="I"><path d="M101.3 106.6h1.6v1.7h-1.6zm0-3.7h1.6v1.7h-1.6zm0-3.6h1.6v1.7h-1.6zm0-3.7h1.6v1.7h-1.6z" class="G H"/><path d="M101.3 92h1.6v1.7h-1.6z"/><path d="M101.3 88.4h1.6v1.7h-1.6zm0-3.7h1.6v1.7h-1.6zm0-3.6h1.6v1.7h-1.6zm0-3.6h1.6v1.7h-1.6zm0-3.7h1.6v1.7h-1.6zm-26.4 62.9h1.6v1.7h-1.6zm0-3.6h1.6v1.7h-1.6zm0-3.7h1.6v1.7h-1.6zm0-3.6h1.6v1.7h-1.6z" class="G H"/><path d="M74.9 122.1h1.6v1.7h-1.6z"/><path d="M74.9 118.5h1.6v1.7h-1.6zm0-3.6h1.6v1.7h-1.6zm0-3.7h1.6v1.7h-1.6zm0-3.6h1.6v1.7h-1.6zm0-3.6h1.6v1.7h-1.6zm0 62.2h1.6v1.7h-1.6zm0-3.6h1.6v1.7h-1.6zm0-3.7h1.6v1.7h-1.6zm0-3.6h1.6v1.7h-1.6zm0-3.7h1.6v1.7h-1.6z" class="G H"/><path d="M74.9 148h1.6v1.7h-1.6z"/><path d="M74.9 144.4h1.6v1.7h-1.6zm4.3-7.7h1.6v1.7h-1.6zm0-3.6h1.6v1.7h-1.6zm0-3.7h1.6v1.7h-1.6zm0-3.6h1.6v1.7h-1.6zm0-3.7h1.6v1.7h-1.6zm0-3.6h1.6v1.7h-1.6zm0-3.6h1.6v1.7h-1.6zm0-3.7h1.6v1.7h-1.6z" class="G H"/><path d="M79.2 107.6h1.6v1.7h-1.6z"/><path d="M79.2 104h1.6v1.7h-1.6zm0 62.2h1.6v1.7h-1.6z" class="G H"/><path d="M79.2 162.6h1.6v1.7h-1.6z"/><path d="M79.2 158.9h1.6v1.7h-1.6zm0-3.6h1.6v1.7h-1.6zm0-3.7h1.6v1.7h-1.6zm0-3.6h1.6v1.7h-1.6zm0-3.6h1.6v1.7h-1.6zm4.3-7.7h1.6v1.7h-1.6z" class="G H"/><path d="M83.5 133.1h1.6v1.7h-1.6z"/><path d="M83.5 129.4h1.6v1.7h-1.6zm0-3.6h1.6v1.7h-1.6zm0-3.7h1.6v1.7h-1.6zm0-3.6h1.6v1.7h-1.6z" class="G H"/><path d="M83.5 114.9h1.6v1.7h-1.6z"/><path d="M83.5 111.2h1.6v1.7h-1.6zm0-3.6h1.6v1.7h-1.6zm0-3.6h1.6v1.7h-1.6zm0 62.2h1.6v1.7h-1.6zm0-3.6h1.6v1.7h-1.6zm0-3.7h1.6v1.7h-1.6zm0-3.6h1.6v1.7h-1.6z" class="G H"/><path d="M83.5 151.6h1.6v1.7h-1.6z"/><path d="M83.5 148h1.6v1.7h-1.6zm0-3.6h1.6v1.7h-1.6zm4.3-7.7h1.6v1.7h-1.6zm0-3.6h1.6v1.7h-1.6zm0-3.7h1.6v1.7h-1.6z" class="G H"/><path d="M87.8 125.8h1.6v1.7h-1.6z"/><path d="M87.8 122.1h1.6v1.7h-1.6zm0-3.6h1.6v1.7h-1.6zm0-3.6h1.6v1.7h-1.6zm0-3.7h1.6v1.7h-1.6zm0-3.6h1.6v1.7h-1.6zm0-3.6h1.6v1.7h-1.6zm0 62.2h1.6v1.7h-1.6zm0-3.6h1.6v1.7h-1.6zm0-3.7h1.6v1.7h-1.6zm0-3.6h1.6v1.7h-1.6zm0-3.7h1.6v1.7h-1.6zm0-3.6h1.6v1.7h-1.6zm0-3.6h1.6v1.7h-1.6zm4.3-7.7h1.6v1.7h-1.6zm0-3.6h1.6v1.7h-1.6zm0-3.7h1.6v1.7h-1.6zm0-3.6h1.6v1.7h-1.6zm0-3.7h1.6v1.7h-1.6zm0-3.6h1.6v1.7h-1.6zm0-3.6h1.6v1.7h-1.6z" class="G H"/><path d="M92.1 111.2h1.6v1.7h-1.6z"/><path d="M92.1 107.6h1.6v1.7h-1.6zm0-3.6h1.6v1.7h-1.6zm0 62.2h1.6v1.7h-1.6zm0-3.6h1.6v1.7h-1.6z" class="G H"/><path d="M92.1 158.9h1.6v1.7h-1.6z"/><path d="M92.1 155.3h1.6v1.7h-1.6zm0-3.7h1.6v1.7h-1.6zm0-3.6h1.6v1.7h-1.6zm0-3.6h1.6v1.7h-1.6zm9.2-1.4h1.6v1.7h-1.6zm0-3.6h1.6v1.7h-1.6zm0-3.7h1.6v1.7h-1.6z" class="G H"/><path d="M101.3 132.1h1.6v1.7h-1.6z"/><path d="M101.3 128.4h1.6v1.7h-1.6zm0-3.6h1.6v1.7h-1.6zm0-3.6h1.6v1.7h-1.6zm0-3.7h1.6v1.7h-1.6zm0-3.6h1.6v1.7h-1.6zm0-3.6h1.6v1.7h-1.6zm0 50.9h1.6v1.7h-1.6zm0-3.6h1.6v1.7h-1.6zm0-3.6h1.6v1.7h-1.6zm0-3.7h1.6v1.7h-1.6zm0-3.6h1.6v1.7h-1.6z" class="G H"/></g><linearGradient id="w" gradientUnits="userSpaceOnUse" x1="45.7" y1="138.65" x2="62.04" y2="138.65"><stop offset="0" stop-color="#451088"/><stop offset="1" stop-color="#593179"/></linearGradient><path d="M45.7 105.3V172H62v-59.9c-3.4-.1-6.6-.9-9.7-2.2-5.2-2.2-6.6-4.6-6.6-4.6z" fill="url(#w)"/><path d="M45.6 105.3V172H62l-.1-59.8c-3.4-.2-6.6-1-9.7-2.3-5.2-2.2-6.6-4.6-6.6-4.6z" class="G H"/><linearGradient id="x" gradientUnits="userSpaceOnUse" x1="42.051" y1="132.5" x2="45.951" y2="132.5"><stop offset="0" stop-color="#451088"/><stop offset="1" stop-color="#593179"/></linearGradient><path fill="url(#x)" d="M42.1 93H46v79h-3.9z"/><path d="M42.1 93H46v79h-3.9z" class="J"/><g class="I"><path d="M50.8 139.4h1.6v1.7h-1.6zm0-3.7h1.6v1.7h-1.6zm0-3.6h1.6v1.7h-1.6zm0-3.7h1.6v1.7h-1.6zm0-3.6h1.6v1.7h-1.6z" class="G H"/><path d="M50.8 121.2h1.6v1.7h-1.6z"/><path d="M50.8 117.5h1.6v1.7h-1.6zm4.3 21.9h1.6v1.7h-1.6z" class="G H"/><path d="M55.1 135.7h1.6v1.7h-1.6z"/><path d="M55.1 132.1h1.6v1.7h-1.6zm0-3.7h1.6v1.7h-1.6zm0-3.6h1.6v1.7h-1.6zm0-3.6h1.6v1.7h-1.6zm0-3.7h1.6v1.7h-1.6zm-4.3 48.4h1.6v1.7h-1.6zm0-3.7h1.6v1.7h-1.6zm0-3.6h1.6v1.7h-1.6zm0-3.7h1.6v1.7h-1.6z" class="G H"/><path d="M50.8 151.3h1.6v1.7h-1.6z"/><path d="M50.8 147.7h1.6v1.7h-1.6z" class="G H"/><path d="M55.1 165.9h1.6v1.7h-1.6z"/><path d="M55.1 162.2h1.6v1.7h-1.6zm0-3.6h1.6v1.7h-1.6zm0-3.7h1.6v1.7h-1.6zm0-3.6h1.6v1.7h-1.6zm0-3.6h1.6v1.7h-1.6zm-12-15.3h1.6v1.7h-1.6zm0-3.6h1.6v1.7h-1.6zm0-3.7h1.6v1.7h-1.6zm0-3.6h1.6v1.7h-1.6zm0-3.7h1.6v1.7h-1.6zm0-3.6h1.6v1.7h-1.6z" class="G H"/><path d="M43.1 110.6h1.6v1.7h-1.6z"/><path d="M43.1 106.9h1.6v1.7h-1.6zm0-3.6h1.6v1.7h-1.6zm0-3.6h1.6v1.7h-1.6zm0 61.8h1.6v1.7h-1.6zm0-3.6h1.6v1.7h-1.6zm0-3.6h1.6v1.7h-1.6zm0-3.7h1.6v1.7h-1.6zm0-3.6h1.6v1.7h-1.6zm0-3.6h1.6v1.7h-1.6z" class="G H"/><path d="M43.1 139.7h1.6v1.7h-1.6z"/><path d="M43.1 136.1h1.6v1.7h-1.6z" class="G H"/></g><linearGradient id="y" gradientUnits="userSpaceOnUse" x1="166.2" y1="106.5" x2="195.2" y2="106.5"><stop offset="0" stop-color="#2e65ca"/><stop offset="1" stop-color="#2e74db"/></linearGradient><path fill="url(#y)" d="M166.2 41h29v131h-29z"/><path d="M166.2 41h29v4h-29z" class="G H"/><linearGradient id="z" gradientUnits="userSpaceOnUse" x1="171.931" y1="106.5" x2="201.25" y2="106.5"><stop offset="0" stop-color="#4c3ea1"/><stop offset="1" stop-color="#2e3192"/></linearGradient><path fill="url(#z)" d="M171.9 89l.1 54.1h22.1V172h7.2l-.1-49.6-3.2-2.4V43.8l-2.8-2.8v98l-19.2.1V94l-4-5z"/><path d="M175.7 36.5h1.6V41h-1.6zm.4-14.1h.8v14h-.8zm11.2 14.1h1.6V41h-1.6zm.4-14.1h.8v14h-.8z" class="G H"/><path d="M171.2 57H190v3h-18.8zm0 5H190v3h-18.8zm0 5H190v3h-18.8zm0-20H190v3h-18.8zm0 5H190v3h-18.8zm0 30H190v3h-18.8zm0 5H190v3h-18.8zm0 5H190v3h-18.8zm0-20H190v3h-18.8zm0 5H190v3h-18.8zm0 20H190v3h-18.8zm0 15H190v3h-18.8zm0 5H190v3h-18.8zm0 5H190v3h-18.8zm0-20H190v3h-18.8zm0 5H190v3h-18.8zm0 20H190v3h-18.8z" class="G I J"/><linearGradient id="AA" gradientUnits="userSpaceOnUse" x1="154.05" y1="130.5" x2="172.034" y2="130.5"><stop offset="0" stop-color="#2e59bf"/><stop offset="1" stop-color="#593192"/></linearGradient><path fill="url(#AA)" d="M172 89h-17.9v83l17.9-.1z"/><linearGradient id="AB" gradientUnits="userSpaceOnUse" x1="137.1" y1="147" x2="195" y2="147"><stop offset="0" stop-color="#2e59bf"/><stop offset="1" stop-color="#593192"/></linearGradient><path fill="url(#AB)" d="M195 143l-22.9.1-.1-21-34.9-.1v50H195z"/><path d="M137 122h34.9v3.9H137zm17.1-33H172v4h-17.9z" class="G H"/><path d="M172 122.1l4 4.4V143h-4z" opacity=".2" class="G"/><path d="M158 101h9v3h-9zm0 5h9v3h-9zm0 5h9v3h-9zm0-15h9v3h-9zm0 20h9v3h-9zm-14.9 24H166v3h-22.9zm0-10H166v3h-22.9zm0 5H166v3h-22.9zm.1 23H190v3h-46.8zm0 5H190v3h-46.8zm0-15H190v3h-46.8zm0 5H190v3h-46.8z" class="G I J"/><linearGradient id="AC" gradientUnits="userSpaceOnUse" x1="29.83" y1="130.266" x2="42.43" y2="130.266"><stop offset="0" stop-color="#451088"/><stop offset="1" stop-color="#593179"/></linearGradient><path d="M29.8 97.3V172h12.6V90.2s-5.8-2.3-7.6-1.5c-2.2 1-5 8.6-5 8.6z" fill="url(#AC)"/><linearGradient id="AD" gradientUnits="userSpaceOnUse" x1="29.032" y1="130.266" x2="42.198" y2="130.266"><stop offset="0" stop-color="#451088"/><stop offset="1" stop-color="#593179"/></linearGradient><path d="M29.1 97.2l.1 74.8h13.1V90.2s-5.6-2.3-7.3-1.5c-2.4 1-5.9 8.5-5.9 8.5z" fill="url(#AD)"/><path d="M41 172h-1V89.5l1 .2zm-4 0h-1V88.6l1 .1zm2 0h-1V88.9l1 .2z" opacity=".4" class="G"/></svg>