<svg xmlns="http://www.w3.org/2000/svg" width="896" height="896" version="1" viewBox="0 0 672 672"><path d="M25 48.9C13.9 52.3 4.4 61.6 1.2 72.4c-1.8 6.4-.9 17.4 2 23.1 2.2 4.4 19.9 31 22.7 34.2.6.7 1.1 1.7 1.1 2.3 0 .5.3 1 .8 1 .4 0 1.2.8 1.7 1.9.6 1 7.1 11 14.6 22.2C62.3 184.5 65 188.7 65 189.8c0 .6.3 1.2.8 1.4 1 .4 23.2 35.7 23.2 36.9 0 .5.5.9 1 .9.6 0 1 .7 1 1.5s.5 1.5 1 1.5c.6 0 1 .5 1 1 0 .6 2.1 4.3 4.7 8.3 2.5 3.9 5.6 8.8 6.9 10.7 1.2 1.9 5.8 9.3 10.3 16.3 4.4 7.1 8.1 13.2 8.1 13.8 0 .5.5.9 1 .9.6 0 1 .7 1 1.5s.5 1.5 1 1.5c.6 0 1 .5 1 1.1 0 .6 1.3 3 3 5.4 1.7 2.4 3 4.8 3 5.3 0 .6.4 1.2.8 1.4.4.1 3.4 4.6 6.6 9.8 3.3 5.2 6.6 10.6 7.5 11.9.9 1.3 2.1 3.1 2.6 4 .6.8 2.6 4 4.5 7.1 1.9 3.1 4 6.4 4.7 7.5 2 3.3 24.6 39 28.6 45.2 2.1 3.2 4 6.6 4.3 7.5.4 1 1 1.8 1.5 1.8s.9.7.9 1.5.5 1.5 1 1.5c.6 0 1 .4 1 .9 0 1 10.8 18.4 25.3 40.8 2.6 4 4.7 7.7 4.7 8.1 0 .5.9 1.7 2 2.7 1.1 1 2 2.2 2 2.6 0 1 10.3 17.3 11.3 17.7.4.2.7.7.7 1.2 0 .7 15.7 26.1 20.9 33.9.9 1.3 2.1 3.1 2.6 4 7.5 12.2 11.1 17.7 11.7 17.9.5.2.8.7.8 1.2 0 .6 13.6 22.8 24.5 39.7 1.1 1.8 4.2 6.7 6.9 11s6.2 9.7 7.7 12c1.6 2.3 2.9 4.6 2.9 5.2 0 .6.5 1.1 1 1.1.6 0 1 .7 1 1.5s.5 1.5 1 1.5c.6 0 1 .5 1 1.1 0 2.2 7 11.7 11.5 15.7 6.9 6.1 12.9 8.2 22.8 7.9 9.8-.3 16.1-2.9 22.3-9.1 3.2-3.2 21.4-30.5 27.9-41.8.6-1 3.1-5 5.6-9 7-10.9 36.7-58 48.9-77.3 5.9-9.4 11.5-19.4 12.5-22.4 2.9-8.9 1-20.6-4.7-29.6-.7-1.1-3.4-5.2-6-9.2-2.7-4-4.8-7.5-4.8-7.8 0-.3-1.5-2.7-3.2-5.3-5.3-7.7-5.8-8.6-6.4-10.5-.4-.9-1-1.7-1.5-1.7s-.9-.6-.9-1.3c0-.7-.9-2.3-2-3.5-1.1-1.2-2-2.3-2-2.6 0-.5-6.2-10.8-7-11.6-.3-.3-1-1.4-1.7-2.5-6-10.1-9.9-16.1-10.5-16.3-.5-.2-.8-1-.8-1.8s-.4-1.4-.9-1.4-1.1-.8-1.4-1.8c-.6-1.9-3.9-7.4-4.8-8.2-.4-.3-2.8-4.1-5.5-8.5-2.6-4.4-5-8.2-5.3-8.5-.3-.3-1.1-1.4-1.7-2.5-2.3-4-14.3-23-15.2-24.1-.5-.5-2-3-3.3-5.4-1.3-2.4-3.2-5.3-4.1-6.4-1-1.1-1.8-2.4-1.8-2.8 0-.5-.5-1.4-1-2.1-1.5-1.7-3.6-5.1-21.5-33.7-8.8-14-16.3-25.7-16.7-25.8-.5-.2-.8-.8-.8-1.3s-2.2-4.3-5-8.5c-2.7-4.1-5-7.7-5-7.9 0-.2-2.2-3.8-5-7.9-2.7-4.2-5-7.8-5-8 0-.6-7.5-12.6-9-14.3-.5-.7-1-1.4-1-1.7 0-.6-17.5-28.7-19-30.3-.5-.7-1-1.4-1-1.7 0-.9-8.5-14.1-9.2-14.4-.5-.2-.8-.8-.8-1.3 0-1.7-12.7-21.1-14.2-21.7-.4-.2-.8-.7-.8-1.2 0-.7-14.1-21-17.6-25.3-.8-.9-1.4-2.1-1.4-2.6 0-.4-.9-1.8-2-3.1s-5.1-6.6-8.8-11.9c-7.1-10-12.3-14.5-20-17.3-4.3-1.6-12.5-1.7-96.7-1.7-50.6.1-93.1.4-94.5.8zM413.5 49c-13.1 3.4-24 15.5-25.2 27.7-.2 2.5-.4 4.8-.5 5.2-.1.3.2 2.8.7 5.6.9 5.5 1.9 7.5 10.9 21.8 3.3 5.3 6.6 10.5 7.1 11.5 1.2 2.1 8.1 12.7 10.6 16.4 1.1 1.5 1.9 2.9 1.9 3.2 0 .2 3.6 6 8 12.8 4.4 6.7 9 14.1 10.1 16.2 1.2 2.2 2.6 4.5 3.3 5.2.6.7 3.4 4.9 6.1 9.4a1914 1914 0 0 0 10.8 17.1c3.1 4.9 5.7 9.4 5.7 9.9 0 .6.4 1 .9 1s1.3 1 1.7 2.2c.4 1.3 1 2.5 1.3 2.8.4.3 4.8 6.9 9.7 14.8 4.9 7.8 10 16 11.4 18.2 1.4 2.2 7.7 12.2 14 22.2s11.6 18.8 11.8 19.5c.2.7.8 1.3 1.3 1.3s1.3 1 1.8 2.2c1.5 4 10.1 16.2 13.4 19.1 3.7 3.2 10.2 6.4 14.9 7.3 8 1.7 20.8-.5 24.6-4.3.7-.7 1.7-1.3 2.2-1.3 1.1 0 7.9-7.2 9.4-10 .6-1.1 4-6.6 7.6-12.2 3.6-5.6 6.7-10.7 6.9-11.2.2-.6.8-1.5 1.3-2.1 1.3-1.5 10.3-15.6 11.8-18.5.7-1.4 1.6-2.7 1.9-3 .3-.3 1.1-1.4 1.8-2.5 1.5-2.6 24.3-38.9 30.1-48 2.5-3.9 5.8-9 7.4-11.5 1.5-2.5 3.5-5.4 4.3-6.5.8-1 1.5-2.5 1.5-3.2 0-.7.5-1.3 1-1.3.6 0 1-.7 1-1.5s.5-1.5 1-1.5c.6 0 1-.4 1-1 0-.5 2-4 4.3-7.7 5.5-8.5 7.5-14.4 7.5-21.9-.1-6-2.8-15.5-5.4-18.5-.8-.8-1.4-2-1.4-2.6 0-.6-.3-1.3-.8-1.5-.6-.2-13.6-20.3-21.5-33.3-.7-1-2.7-4.1-4.4-6.7-1.8-2.6-3.3-5-3.3-5.4 0-.3-2.2-3.9-5-8-2.7-4.1-5-7.8-5-8.3 0-.4-.9-1.6-2-2.6s-2-2.2-2-2.7c0-2.2-7-8.2-12.9-11.1l-6.6-3.2-92.5-.2c-50.9 0-93.8.2-95.5.7z"/></svg>